M48
; DRILL file {KiCad 8.0.1} date 2024-07-18T02:32:50+0530
; FORMAT={-:-/ absolute / inch / decimal}
; #@! TF.CreationDate,2024-07-18T02:32:50+05:30
; #@! TF.GenerationSoftware,Kicad,Pcbnew,8.0.1
; #@! TF.FileFunction,Plated,1,4,PTH
FMAT,2
INCH
; #@! TA.AperFunction,Plated,PTH,ViaDrill
T1C0.0157
; #@! TA.AperFunction,Plated,PTH,ComponentDrill
T2C0.0394
%
G90
G05
T1
X4.4638Y-3.2996
X4.4925Y-3.6626
X4.6311Y-3.272
X4.6594Y-3.5205
X4.66Y-3.889
X4.665Y-3.9819
X4.7047Y-3.6429
X4.7083Y-3.8283
X4.761Y-3.2201
X4.777Y-3.5126
X4.7787Y-3.2701
X4.7847Y-3.572
X4.8587Y-3.9882
X4.8992Y-3.3256
X4.9124Y-3.7319
X4.9793Y-3.3203
X4.9874Y-3.7319
X5.0087Y-3.4303
X5.0263Y-3.855
X5.0553Y-3.6186
X5.068Y-3.5756
X5.0949Y-3.5118
X5.1299Y-3.8374
X5.1358Y-3.6807
X5.1541Y-3.5169
X5.1894Y-3.6866
X5.1972Y-3.3228
X5.2154Y-3.4807
X5.2244Y-3.5843
X5.2642Y-3.5146
X5.265Y-3.6248
X5.2701Y-3.2295
X5.3541Y-3.7945
X5.3542Y-3.7201
X5.4283Y-3.2744
X5.4303Y-3.3457
X5.4543Y-3.7004
X5.4642Y-3.8433
X5.4676Y-3.6002
X5.484Y-3.7494
X5.485Y-3.4327
X5.5047Y-3.8736
X5.5291Y-3.5626
X5.5685Y-3.3252
X5.6055Y-3.8764
X5.6091Y-3.278
X5.6134Y-3.7024
X5.6146Y-3.639
X5.6161Y-3.485
X5.6406Y-3.5693
X5.7925Y-3.3669
X5.8055Y-3.4224
X5.8909Y-3.8661
T2
X4.3949Y-3.4323
X4.3949Y-3.5323
X4.475Y-4.165
X4.575Y-4.165
X4.675Y-4.165
X4.775Y-4.165
X4.875Y-4.165
X4.975Y-4.165
X5.075Y-4.165
X5.175Y-4.165
X5.275Y-4.165
X5.49Y-4.16
X5.59Y-4.16
X5.69Y-4.16
X5.79Y-4.16
X5.9Y-3.37
X5.9Y-3.47
X5.9Y-3.57
X5.9996Y-3.7303
X5.9996Y-3.8303
X5.9996Y-3.9303
X5.9996Y-4.0303
X6.0Y-3.37
X6.0Y-3.47
X6.0Y-3.57
M30
