%TF.GenerationSoftware,KiCad,Pcbnew,8.0.1*%
%TF.CreationDate,2024-07-18T02:30:48+05:30*%
%TF.ProjectId,MCU_datalogger_PCB,4d43555f-6461-4746-916c-6f676765725f,1*%
%TF.SameCoordinates,Original*%
%TF.FileFunction,Soldermask,Top*%
%TF.FilePolarity,Negative*%
%FSLAX46Y46*%
G04 Gerber Fmt 4.6, Leading zero omitted, Abs format (unit mm)*
G04 Created by KiCad (PCBNEW 8.0.1) date 2024-07-18 02:30:48*
%MOMM*%
%LPD*%
G01*
G04 APERTURE LIST*
G04 Aperture macros list*
%AMRoundRect*
0 Rectangle with rounded corners*
0 $1 Rounding radius*
0 $2 $3 $4 $5 $6 $7 $8 $9 X,Y pos of 4 corners*
0 Add a 4 corners polygon primitive as box body*
4,1,4,$2,$3,$4,$5,$6,$7,$8,$9,$2,$3,0*
0 Add four circle primitives for the rounded corners*
1,1,$1+$1,$2,$3*
1,1,$1+$1,$4,$5*
1,1,$1+$1,$6,$7*
1,1,$1+$1,$8,$9*
0 Add four rect primitives between the rounded corners*
20,1,$1+$1,$2,$3,$4,$5,0*
20,1,$1+$1,$4,$5,$6,$7,0*
20,1,$1+$1,$6,$7,$8,$9,0*
20,1,$1+$1,$8,$9,$2,$3,0*%
G04 Aperture macros list end*
%ADD10RoundRect,0.150000X-0.650000X-0.150000X0.650000X-0.150000X0.650000X0.150000X-0.650000X0.150000X0*%
%ADD11RoundRect,0.094250X-0.742750X-0.282750X0.742750X-0.282750X0.742750X0.282750X-0.742750X0.282750X0*%
%ADD12RoundRect,0.094250X-0.282750X-0.742750X0.282750X-0.742750X0.282750X0.742750X-0.282750X0.742750X0*%
%ADD13RoundRect,0.099250X-0.987750X-0.297750X0.987750X-0.297750X0.987750X0.297750X-0.987750X0.297750X0*%
%ADD14R,1.700000X1.700000*%
%ADD15O,1.700000X1.700000*%
%ADD16RoundRect,0.243750X-0.243750X-0.456250X0.243750X-0.456250X0.243750X0.456250X-0.243750X0.456250X0*%
%ADD17RoundRect,0.250000X0.262500X0.450000X-0.262500X0.450000X-0.262500X-0.450000X0.262500X-0.450000X0*%
%ADD18RoundRect,0.250000X-0.250000X-0.475000X0.250000X-0.475000X0.250000X0.475000X-0.250000X0.475000X0*%
%ADD19RoundRect,0.250000X-0.262500X-0.450000X0.262500X-0.450000X0.262500X0.450000X-0.262500X0.450000X0*%
%ADD20C,2.100000*%
%ADD21R,3.500000X2.400000*%
%ADD22RoundRect,0.250000X0.250000X0.475000X-0.250000X0.475000X-0.250000X-0.475000X0.250000X-0.475000X0*%
%ADD23R,2.400000X3.500000*%
G04 APERTURE END LIST*
D10*
%TO.C,U2*%
X115750000Y-81785000D03*
X115750000Y-83055000D03*
X115750000Y-84325000D03*
X115750000Y-85595000D03*
X122950000Y-85595000D03*
X122950000Y-84325000D03*
X122950000Y-83055000D03*
X122950000Y-81785000D03*
%TD*%
D11*
%TO.C,U3*%
X127070000Y-88005000D03*
X127070000Y-88805000D03*
X127070000Y-89605000D03*
X127070000Y-90405000D03*
X127070000Y-91205000D03*
X127070000Y-92005000D03*
X127070000Y-92805000D03*
X127070000Y-93605000D03*
D12*
X128440000Y-94975000D03*
X129240000Y-94975000D03*
X130040000Y-94975000D03*
X130840000Y-94975000D03*
X131640000Y-94975000D03*
X132440000Y-94975000D03*
X133240000Y-94975000D03*
X134040000Y-94975000D03*
D11*
X135410000Y-93605000D03*
X135410000Y-92805000D03*
X135410000Y-92005000D03*
X135410000Y-91205000D03*
X135410000Y-90405000D03*
X135410000Y-89605000D03*
X135410000Y-88805000D03*
X135410000Y-88005000D03*
D12*
X134040000Y-86635000D03*
X133240000Y-86635000D03*
X132440000Y-86635000D03*
X131640000Y-86635000D03*
X130840000Y-86635000D03*
X130040000Y-86635000D03*
X129240000Y-86635000D03*
X128440000Y-86635000D03*
%TD*%
D10*
%TO.C,U1*%
X115750000Y-88915000D03*
X115750000Y-90185000D03*
X115750000Y-91455000D03*
X115750000Y-92725000D03*
X122960000Y-92720000D03*
X122950000Y-91455000D03*
X122950000Y-90185000D03*
X122950000Y-88915000D03*
%TD*%
D13*
%TO.C,U4*%
X116802000Y-95849000D03*
X116802000Y-97119000D03*
X116802000Y-98389000D03*
X116802000Y-99659000D03*
X121752000Y-99659000D03*
X121752000Y-98389000D03*
X121752000Y-97119000D03*
X121752000Y-95849000D03*
%TD*%
D14*
%TO.C,J2*%
X139446000Y-105664000D03*
D15*
X141986000Y-105664000D03*
X144526000Y-105664000D03*
X147066000Y-105664000D03*
%TD*%
D16*
%TO.C,D2*%
X139732500Y-81840000D03*
X141607500Y-81840000D03*
%TD*%
D17*
%TO.C,R1*%
X117575500Y-102453000D03*
X115750500Y-102453000D03*
%TD*%
D18*
%TO.C,C3*%
X130515000Y-81825000D03*
X132415000Y-81825000D03*
%TD*%
D19*
%TO.C,R6*%
X144003000Y-89319000D03*
X145828000Y-89319000D03*
%TD*%
D14*
%TO.C,J1*%
X152390000Y-94750000D03*
D15*
X152390000Y-97290000D03*
X152390000Y-99830000D03*
X152390000Y-102370000D03*
%TD*%
D14*
%TO.C,J3*%
X113665000Y-105791000D03*
D15*
X116205000Y-105791000D03*
X118745000Y-105791000D03*
X121285000Y-105791000D03*
X123825000Y-105791000D03*
X126365000Y-105791000D03*
X128905000Y-105791000D03*
X131445000Y-105791000D03*
X133985000Y-105791000D03*
%TD*%
D17*
%TO.C,R2*%
X121893500Y-102453000D03*
X120068500Y-102453000D03*
%TD*%
D14*
%TO.C,BT1*%
X111630000Y-87180000D03*
D15*
X111630000Y-89720000D03*
%TD*%
D19*
%TO.C,R7*%
X139605000Y-85890000D03*
X141430000Y-85890000D03*
%TD*%
D17*
%TO.C,R4*%
X141406500Y-89319000D03*
X139581500Y-89319000D03*
%TD*%
D20*
%TO.C,H3*%
X109220000Y-106426000D03*
%TD*%
D14*
%TO.C,J4*%
X149860000Y-85598000D03*
D15*
X152400000Y-85598000D03*
X149860000Y-88138000D03*
X152400000Y-88138000D03*
X149860000Y-90678000D03*
X152400000Y-90678000D03*
%TD*%
D21*
%TO.C,Y2*%
X133537000Y-99822000D03*
X128337000Y-99822000D03*
%TD*%
D20*
%TO.C,H1*%
X155194000Y-81407000D03*
%TD*%
D22*
%TO.C,C2*%
X141510000Y-96558000D03*
X139610000Y-96558000D03*
%TD*%
D16*
%TO.C,D1*%
X143796500Y-81840000D03*
X145671500Y-81840000D03*
%TD*%
D22*
%TO.C,C4*%
X141510000Y-100114000D03*
X139610000Y-100114000D03*
%TD*%
D20*
%TO.C,H4*%
X155194000Y-106426000D03*
%TD*%
%TO.C,H2*%
X109220000Y-81407000D03*
%TD*%
D17*
%TO.C,R3*%
X141406500Y-92621000D03*
X139581500Y-92621000D03*
%TD*%
D18*
%TO.C,C5*%
X135148000Y-81825000D03*
X137048000Y-81825000D03*
%TD*%
D17*
%TO.C,R5*%
X145851500Y-85890000D03*
X144026500Y-85890000D03*
%TD*%
D22*
%TO.C,C1*%
X127970000Y-81825000D03*
X126070000Y-81825000D03*
%TD*%
D23*
%TO.C,Y1*%
X111540000Y-100480000D03*
X111540000Y-95280000D03*
%TD*%
M02*
