M48
; DRILL file {KiCad 8.0.1} date 2024-07-18T02:30:53+0530
; FORMAT={-:-/ absolute / inch / decimal}
; #@! TF.CreationDate,2024-07-18T02:30:53+05:30
; #@! TF.GenerationSoftware,Kicad,Pcbnew,8.0.1
; #@! TF.FileFunction,Plated,1,2,PTH
FMAT,2
INCH
; #@! TA.AperFunction,Plated,PTH,ViaDrill
T1C0.0157
; #@! TA.AperFunction,Plated,PTH,ComponentDrill
T2C0.0394
%
G90
G05
T1
X4.4925Y-3.6626
X4.6311Y-3.272
X4.665Y-3.9819
X4.6704Y-3.8786
X4.7047Y-3.6429
X4.7295Y-3.7878
X4.777Y-3.5126
X4.7787Y-3.2701
X4.7847Y-3.572
X4.8079Y-3.4413
X4.8587Y-3.9882
X4.9124Y-3.7319
X4.9874Y-3.7319
X5.0087Y-3.4303
X5.0089Y-3.3902
X5.026Y-4.0185
X5.0263Y-3.855
X5.0669Y-3.6799
X5.068Y-3.5756
X5.0949Y-3.5118
X5.0957Y-3.3496
X5.1185Y-3.8331
X5.1937Y-3.5397
X5.213Y-3.3579
X5.2169Y-3.3043
X5.2191Y-3.5096
X5.2311Y-3.6811
X5.2506Y-3.4811
X5.2622Y-3.6441
X5.2701Y-3.2295
X5.2734Y-3.7959
X5.2748Y-3.5972
X5.3541Y-3.7945
X5.3542Y-3.7201
X5.3746Y-3.8707
X5.3939Y-3.6902
X5.397Y-3.5281
X5.4283Y-3.2744
X5.4329Y-3.548
X5.4494Y-3.9994
X5.485Y-3.4327
X5.5291Y-3.5626
X5.53Y-3.6055
X5.539Y-3.8659
X5.5568Y-3.7356
X5.5685Y-3.3252
X5.6012Y-3.7316
X5.6055Y-3.8764
X5.6091Y-3.278
X5.6161Y-3.485
X5.6161Y-3.6902
X5.6406Y-3.5693
X5.6984Y-3.7012
X5.76Y-3.6262
X5.7925Y-3.3669
X5.8087Y-3.57
X5.8088Y-3.4855
X5.863Y-3.7717
X5.8909Y-3.8661
T2
X4.3949Y-3.4323
X4.3949Y-3.5323
X4.475Y-4.165
X4.575Y-4.165
X4.675Y-4.165
X4.775Y-4.165
X4.875Y-4.165
X4.975Y-4.165
X5.075Y-4.165
X5.175Y-4.165
X5.275Y-4.165
X5.49Y-4.16
X5.59Y-4.16
X5.69Y-4.16
X5.79Y-4.16
X5.9Y-3.37
X5.9Y-3.47
X5.9Y-3.57
X5.9996Y-3.7303
X5.9996Y-3.8303
X5.9996Y-3.9303
X5.9996Y-4.0303
X6.0Y-3.37
X6.0Y-3.47
X6.0Y-3.57
M30
