%TF.GenerationSoftware,KiCad,Pcbnew,8.0.1*%
%TF.CreationDate,2024-07-18T02:30:47+05:30*%
%TF.ProjectId,MCU_datalogger_PCB,4d43555f-6461-4746-916c-6f676765725f,1*%
%TF.SameCoordinates,Original*%
%TF.FileFunction,Copper,L1,Top*%
%TF.FilePolarity,Positive*%
%FSLAX46Y46*%
G04 Gerber Fmt 4.6, Leading zero omitted, Abs format (unit mm)*
G04 Created by KiCad (PCBNEW 8.0.1) date 2024-07-18 02:30:47*
%MOMM*%
%LPD*%
G01*
G04 APERTURE LIST*
G04 Aperture macros list*
%AMRoundRect*
0 Rectangle with rounded corners*
0 $1 Rounding radius*
0 $2 $3 $4 $5 $6 $7 $8 $9 X,Y pos of 4 corners*
0 Add a 4 corners polygon primitive as box body*
4,1,4,$2,$3,$4,$5,$6,$7,$8,$9,$2,$3,0*
0 Add four circle primitives for the rounded corners*
1,1,$1+$1,$2,$3*
1,1,$1+$1,$4,$5*
1,1,$1+$1,$6,$7*
1,1,$1+$1,$8,$9*
0 Add four rect primitives between the rounded corners*
20,1,$1+$1,$2,$3,$4,$5,0*
20,1,$1+$1,$4,$5,$6,$7,0*
20,1,$1+$1,$6,$7,$8,$9,0*
20,1,$1+$1,$8,$9,$2,$3,0*%
G04 Aperture macros list end*
%TA.AperFunction,SMDPad,CuDef*%
%ADD10RoundRect,0.150000X-0.650000X-0.150000X0.650000X-0.150000X0.650000X0.150000X-0.650000X0.150000X0*%
%TD*%
%TA.AperFunction,SMDPad,CuDef*%
%ADD11RoundRect,0.068750X-0.666250X-0.206250X0.666250X-0.206250X0.666250X0.206250X-0.666250X0.206250X0*%
%TD*%
%TA.AperFunction,SMDPad,CuDef*%
%ADD12RoundRect,0.068750X-0.206250X-0.666250X0.206250X-0.666250X0.206250X0.666250X-0.206250X0.666250X0*%
%TD*%
%TA.AperFunction,SMDPad,CuDef*%
%ADD13RoundRect,0.073750X-0.911250X-0.221250X0.911250X-0.221250X0.911250X0.221250X-0.911250X0.221250X0*%
%TD*%
%TA.AperFunction,ComponentPad*%
%ADD14R,1.700000X1.700000*%
%TD*%
%TA.AperFunction,ComponentPad*%
%ADD15O,1.700000X1.700000*%
%TD*%
%TA.AperFunction,SMDPad,CuDef*%
%ADD16RoundRect,0.243750X-0.243750X-0.456250X0.243750X-0.456250X0.243750X0.456250X-0.243750X0.456250X0*%
%TD*%
%TA.AperFunction,SMDPad,CuDef*%
%ADD17RoundRect,0.250000X0.262500X0.450000X-0.262500X0.450000X-0.262500X-0.450000X0.262500X-0.450000X0*%
%TD*%
%TA.AperFunction,SMDPad,CuDef*%
%ADD18RoundRect,0.250000X-0.250000X-0.475000X0.250000X-0.475000X0.250000X0.475000X-0.250000X0.475000X0*%
%TD*%
%TA.AperFunction,SMDPad,CuDef*%
%ADD19RoundRect,0.250000X-0.262500X-0.450000X0.262500X-0.450000X0.262500X0.450000X-0.262500X0.450000X0*%
%TD*%
%TA.AperFunction,SMDPad,CuDef*%
%ADD20R,3.500000X2.400000*%
%TD*%
%TA.AperFunction,SMDPad,CuDef*%
%ADD21RoundRect,0.250000X0.250000X0.475000X-0.250000X0.475000X-0.250000X-0.475000X0.250000X-0.475000X0*%
%TD*%
%TA.AperFunction,SMDPad,CuDef*%
%ADD22R,2.400000X3.500000*%
%TD*%
%TA.AperFunction,ViaPad*%
%ADD23C,0.900000*%
%TD*%
%TA.AperFunction,ViaPad*%
%ADD24C,0.800000*%
%TD*%
%TA.AperFunction,Conductor*%
%ADD25C,0.250000*%
%TD*%
%TA.AperFunction,Conductor*%
%ADD26C,0.350000*%
%TD*%
G04 APERTURE END LIST*
D10*
%TO.P,U2,1,A0*%
%TO.N,/Vcc*%
X115750000Y-81785000D03*
%TO.P,U2,2,A1*%
%TO.N,GND*%
X115750000Y-83055000D03*
%TO.P,U2,3,A2*%
%TO.N,/Vcc*%
X115750000Y-84325000D03*
%TO.P,U2,4,GND*%
%TO.N,GND*%
X115750000Y-85595000D03*
%TO.P,U2,5,SDA*%
%TO.N,/SDA*%
X122950000Y-85595000D03*
%TO.P,U2,6,SCL*%
%TO.N,/SCL*%
X122950000Y-84325000D03*
%TO.P,U2,7,WP*%
%TO.N,GND*%
X122950000Y-83055000D03*
%TO.P,U2,8,VCC*%
%TO.N,/Vcc*%
X122950000Y-81785000D03*
%TD*%
D11*
%TO.P,U3,1,PD3*%
%TO.N,/D3*%
X127070000Y-88005000D03*
%TO.P,U3,2,PD4*%
%TO.N,/D4*%
X127070000Y-88805000D03*
%TO.P,U3,3,GND*%
%TO.N,GND*%
X127070000Y-89605000D03*
%TO.P,U3,4,VCC*%
%TO.N,/Vcc*%
X127070000Y-90405000D03*
%TO.P,U3,5,GND*%
%TO.N,GND*%
X127070000Y-91205000D03*
%TO.P,U3,6,VCC*%
%TO.N,unconnected-(U3-VCC-Pad6)*%
X127070000Y-92005000D03*
%TO.P,U3,7,PB6*%
%TO.N,Net-(U3-PB6)*%
X127070000Y-92805000D03*
%TO.P,U3,8,PB7*%
%TO.N,Net-(U3-PB7)*%
X127070000Y-93605000D03*
D12*
%TO.P,U3,9,PD5*%
%TO.N,/D5*%
X128440000Y-94975000D03*
%TO.P,U3,10,PD6*%
%TO.N,/D6*%
X129240000Y-94975000D03*
%TO.P,U3,11,PD7*%
%TO.N,/D7*%
X130040000Y-94975000D03*
%TO.P,U3,12,PB0*%
%TO.N,/D8*%
X130840000Y-94975000D03*
%TO.P,U3,13,PB1*%
%TO.N,unconnected-(U3-PB1-Pad13)*%
X131640000Y-94975000D03*
%TO.P,U3,14,PB2*%
%TO.N,unconnected-(U3-PB2-Pad14)*%
X132440000Y-94975000D03*
%TO.P,U3,15,PB3*%
%TO.N,/MOSI*%
X133240000Y-94975000D03*
%TO.P,U3,16,PB4*%
%TO.N,/MISO*%
X134040000Y-94975000D03*
D11*
%TO.P,U3,17,PB5*%
%TO.N,/SCK*%
X135410000Y-93605000D03*
%TO.P,U3,18,AVCC*%
%TO.N,/Vcc*%
X135410000Y-92805000D03*
%TO.P,U3,19,ADC6*%
%TO.N,unconnected-(U3-ADC6-Pad19)*%
X135410000Y-92005000D03*
%TO.P,U3,20,AREF*%
%TO.N,Net-(U3-AREF)*%
X135410000Y-91205000D03*
%TO.P,U3,21,GND*%
%TO.N,GND*%
X135410000Y-90405000D03*
%TO.P,U3,22,ADC7*%
%TO.N,unconnected-(U3-ADC7-Pad22)*%
X135410000Y-89605000D03*
%TO.P,U3,23,PC0*%
%TO.N,unconnected-(U3-PC0-Pad23)*%
X135410000Y-88805000D03*
%TO.P,U3,24,PC1*%
%TO.N,unconnected-(U3-PC1-Pad24)*%
X135410000Y-88005000D03*
D12*
%TO.P,U3,25,PC2*%
%TO.N,unconnected-(U3-PC2-Pad25)*%
X134040000Y-86635000D03*
%TO.P,U3,26,PC3*%
%TO.N,unconnected-(U3-PC3-Pad26)*%
X133240000Y-86635000D03*
%TO.P,U3,27,PC4*%
%TO.N,/SDA*%
X132440000Y-86635000D03*
%TO.P,U3,28,PC5*%
%TO.N,/SCL*%
X131640000Y-86635000D03*
%TO.P,U3,29,PC6/~{RESET}*%
%TO.N,/RESET*%
X130840000Y-86635000D03*
%TO.P,U3,30,PD0*%
%TO.N,/Rx*%
X130040000Y-86635000D03*
%TO.P,U3,31,PD1*%
%TO.N,/Tx*%
X129240000Y-86635000D03*
%TO.P,U3,32,PD2*%
%TO.N,/D2*%
X128440000Y-86635000D03*
%TD*%
D10*
%TO.P,U1,1,A0*%
%TO.N,/Vcc*%
X115750000Y-88915000D03*
%TO.P,U1,2,A1*%
X115750000Y-90185000D03*
%TO.P,U1,3,A2*%
X115750000Y-91455000D03*
%TO.P,U1,4,GND*%
%TO.N,GND*%
X115750000Y-92725000D03*
%TO.P,U1,5,SDA*%
%TO.N,/SDA*%
X122960000Y-92720000D03*
%TO.P,U1,6,SCL*%
%TO.N,/SCL*%
X122950000Y-91455000D03*
%TO.P,U1,7,WP*%
%TO.N,GND*%
X122950000Y-90185000D03*
%TO.P,U1,8,VCC*%
%TO.N,/Vcc*%
X122950000Y-88915000D03*
%TD*%
D13*
%TO.P,U4,1,X1*%
%TO.N,Net-(U4-X1)*%
X116802000Y-95849000D03*
%TO.P,U4,2,X2*%
%TO.N,Net-(U4-X2)*%
X116802000Y-97119000D03*
%TO.P,U4,3,~{INTA}*%
%TO.N,Net-(U4-~{INTA})*%
X116802000Y-98389000D03*
%TO.P,U4,4,GND*%
%TO.N,GND*%
X116802000Y-99659000D03*
%TO.P,U4,5,SDA*%
%TO.N,/SDA*%
X121752000Y-99659000D03*
%TO.P,U4,6,SCL*%
%TO.N,/SCL*%
X121752000Y-98389000D03*
%TO.P,U4,7,SQW/~INT*%
%TO.N,Net-(U4-SQW{slash}~INT)*%
X121752000Y-97119000D03*
%TO.P,U4,8,VCC*%
%TO.N,/Vcc*%
X121752000Y-95849000D03*
%TD*%
D14*
%TO.P,J2,1,Pin_1*%
%TO.N,GND*%
X139446000Y-105664000D03*
D15*
%TO.P,J2,2,Pin_2*%
%TO.N,/Vcc*%
X141986000Y-105664000D03*
%TO.P,J2,3,Pin_3*%
%TO.N,/Rx*%
X144526000Y-105664000D03*
%TO.P,J2,4,Pin_4*%
%TO.N,/Tx*%
X147066000Y-105664000D03*
%TD*%
D16*
%TO.P,D2,1,K*%
%TO.N,Net-(D2-K)*%
X139732500Y-81840000D03*
%TO.P,D2,2,A*%
%TO.N,/Vcc*%
X141607500Y-81840000D03*
%TD*%
D17*
%TO.P,R1,1*%
%TO.N,/Vcc*%
X117575500Y-102453000D03*
%TO.P,R1,2*%
%TO.N,Net-(U4-~{INTA})*%
X115750500Y-102453000D03*
%TD*%
D18*
%TO.P,C3,1*%
%TO.N,GND*%
X130515000Y-81825000D03*
%TO.P,C3,2*%
%TO.N,Net-(U3-PB7)*%
X132415000Y-81825000D03*
%TD*%
D19*
%TO.P,R6,1*%
%TO.N,/Vcc*%
X144003000Y-89319000D03*
%TO.P,R6,2*%
%TO.N,/RESET*%
X145828000Y-89319000D03*
%TD*%
D14*
%TO.P,J1,1,Pin_1*%
%TO.N,GND*%
X152390000Y-94750000D03*
D15*
%TO.P,J1,2,Pin_2*%
%TO.N,/Vcc*%
X152390000Y-97290000D03*
%TO.P,J1,3,Pin_3*%
%TO.N,/SDA*%
X152390000Y-99830000D03*
%TO.P,J1,4,Pin_4*%
%TO.N,/SCL*%
X152390000Y-102370000D03*
%TD*%
D14*
%TO.P,J3,1,Pin_1*%
%TO.N,/D2*%
X113665000Y-105791000D03*
D15*
%TO.P,J3,2,Pin_2*%
%TO.N,/D3*%
X116205000Y-105791000D03*
%TO.P,J3,3,Pin_3*%
%TO.N,/D4*%
X118745000Y-105791000D03*
%TO.P,J3,4,Pin_4*%
%TO.N,/D5*%
X121285000Y-105791000D03*
%TO.P,J3,5,Pin_5*%
%TO.N,/D6*%
X123825000Y-105791000D03*
%TO.P,J3,6,Pin_6*%
%TO.N,/D7*%
X126365000Y-105791000D03*
%TO.P,J3,7,Pin_7*%
%TO.N,/D8*%
X128905000Y-105791000D03*
%TO.P,J3,8,Pin_8*%
%TO.N,GND*%
X131445000Y-105791000D03*
%TO.P,J3,9,Pin_9*%
%TO.N,/Vcc*%
X133985000Y-105791000D03*
%TD*%
D17*
%TO.P,R2,1*%
%TO.N,/Vcc*%
X121893500Y-102453000D03*
%TO.P,R2,2*%
%TO.N,Net-(U4-SQW{slash}~INT)*%
X120068500Y-102453000D03*
%TD*%
D14*
%TO.P,BT1,1,+*%
%TO.N,/Vcc*%
X111630000Y-87180000D03*
D15*
%TO.P,BT1,2,-*%
%TO.N,GND*%
X111630000Y-89720000D03*
%TD*%
D19*
%TO.P,R7,1*%
%TO.N,Net-(D2-K)*%
X139605000Y-85890000D03*
%TO.P,R7,2*%
%TO.N,GND*%
X141430000Y-85890000D03*
%TD*%
D17*
%TO.P,R4,1*%
%TO.N,/Vcc*%
X141406500Y-89319000D03*
%TO.P,R4,2*%
%TO.N,/SDA*%
X139581500Y-89319000D03*
%TD*%
D14*
%TO.P,J4,1,Pin_1*%
%TO.N,/MISO*%
X149860000Y-85598000D03*
D15*
%TO.P,J4,2,Pin_2*%
%TO.N,/Vcc*%
X152400000Y-85598000D03*
%TO.P,J4,3,Pin_3*%
%TO.N,/SCK*%
X149860000Y-88138000D03*
%TO.P,J4,4,Pin_4*%
%TO.N,/MOSI*%
X152400000Y-88138000D03*
%TO.P,J4,5,Pin_5*%
%TO.N,/RESET*%
X149860000Y-90678000D03*
%TO.P,J4,6,Pin_6*%
%TO.N,GND*%
X152400000Y-90678000D03*
%TD*%
D20*
%TO.P,Y2,1,1*%
%TO.N,Net-(U3-PB7)*%
X133537000Y-99822000D03*
%TO.P,Y2,2,2*%
%TO.N,Net-(U3-PB6)*%
X128337000Y-99822000D03*
%TD*%
D21*
%TO.P,C2,1*%
%TO.N,GND*%
X141510000Y-96558000D03*
%TO.P,C2,2*%
%TO.N,Net-(U3-PB6)*%
X139610000Y-96558000D03*
%TD*%
D16*
%TO.P,D1,1,K*%
%TO.N,Net-(D1-K)*%
X143796500Y-81840000D03*
%TO.P,D1,2,A*%
%TO.N,/SCK*%
X145671500Y-81840000D03*
%TD*%
D21*
%TO.P,C4,1*%
%TO.N,GND*%
X141510000Y-100114000D03*
%TO.P,C4,2*%
%TO.N,Net-(U3-AREF)*%
X139610000Y-100114000D03*
%TD*%
D17*
%TO.P,R3,1*%
%TO.N,/Vcc*%
X141406500Y-92621000D03*
%TO.P,R3,2*%
%TO.N,/SCL*%
X139581500Y-92621000D03*
%TD*%
D18*
%TO.P,C5,1*%
%TO.N,/Vcc*%
X135148000Y-81825000D03*
%TO.P,C5,2*%
%TO.N,GND*%
X137048000Y-81825000D03*
%TD*%
D17*
%TO.P,R5,1*%
%TO.N,GND*%
X145851500Y-85890000D03*
%TO.P,R5,2*%
%TO.N,Net-(D1-K)*%
X144026500Y-85890000D03*
%TD*%
D21*
%TO.P,C1,1*%
%TO.N,GND*%
X127970000Y-81825000D03*
%TO.P,C1,2*%
%TO.N,/Vcc*%
X126070000Y-81825000D03*
%TD*%
D22*
%TO.P,Y1,1,1*%
%TO.N,Net-(U4-X2)*%
X111540000Y-100480000D03*
%TO.P,Y1,2,2*%
%TO.N,Net-(U4-X1)*%
X111540000Y-95280000D03*
%TD*%
D23*
%TO.N,/Vcc*%
X142650000Y-93730000D03*
X137005000Y-93730000D03*
D24*
X122120000Y-87410000D03*
%TO.N,Net-(U3-PB7)*%
X127227291Y-86111986D03*
X132510000Y-83930000D03*
%TO.N,Net-(U3-AREF)*%
X136514394Y-98315742D03*
%TO.N,/Tx*%
X137996888Y-90120180D03*
%TO.N,/Rx*%
X137082814Y-89615000D03*
%TO.N,/Tx*%
X131920364Y-89909469D03*
%TO.N,/Rx*%
X132565029Y-89145000D03*
%TO.N,Net-(U3-PB7)*%
X130010000Y-97360000D03*
%TO.N,Net-(U3-PB6)*%
X128700000Y-93470000D03*
X127660000Y-102070000D03*
%TO.N,/RESET*%
X147542347Y-88532347D03*
X147540000Y-90678000D03*
%TO.N,/SCL*%
X141143847Y-94883847D03*
X132870000Y-93500000D03*
%TO.N,/SDA*%
X132410000Y-85290000D03*
X129430000Y-85080000D03*
%TO.N,/MOSI*%
X133945000Y-96415000D03*
%TO.N,GND*%
X133980000Y-91370000D03*
X114110000Y-93030000D03*
X118627347Y-98517347D03*
X121530775Y-90730000D03*
X142380000Y-98460000D03*
X129410000Y-89200000D03*
X137880000Y-83170000D03*
X121380000Y-83060000D03*
X141440000Y-84460000D03*
X117630000Y-83110000D03*
X147130000Y-85520000D03*
D23*
%TO.N,/Vcc*%
X118490000Y-101140000D03*
X146303895Y-92106317D03*
X120130000Y-96210000D03*
X121335000Y-89220000D03*
X133860000Y-82030000D03*
X133660000Y-92559565D03*
X123410000Y-101300000D03*
X143270000Y-90660000D03*
X142470000Y-83260000D03*
X128727998Y-90821064D03*
D24*
%TO.N,Net-(U3-PB6)*%
X127667153Y-97917153D03*
X138414394Y-101585000D03*
%TO.N,Net-(U3-PB7)*%
X126680000Y-94790000D03*
X124775000Y-94790000D03*
%TO.N,Net-(U3-AREF)*%
X140690000Y-98195000D03*
%TO.N,/SCK*%
X135995861Y-94490555D03*
X140461192Y-91579575D03*
%TO.N,/SCL*%
X148920000Y-95800000D03*
%TO.N,/SDA*%
X149630000Y-98200000D03*
X140440305Y-90489695D03*
X139320000Y-87190000D03*
%TO.N,/D2*%
X127220000Y-87130000D03*
X119500000Y-92530000D03*
%TO.N,/MISO*%
X135995000Y-96380000D03*
X142270000Y-94783000D03*
%TO.N,/MOSI*%
X144740000Y-94010000D03*
%TO.N,/RESET*%
X133365000Y-88420000D03*
X142650000Y-88520000D03*
%TD*%
D25*
%TO.N,/SCL*%
X148920000Y-95800000D02*
X148628000Y-95508000D01*
X148920000Y-95800000D02*
X148905000Y-95815000D01*
X148905000Y-98885000D02*
X152390000Y-102370000D01*
X141768000Y-95508000D02*
X141143847Y-94883847D01*
X148628000Y-95508000D02*
X141768000Y-95508000D01*
X148905000Y-95815000D02*
X148905000Y-98885000D01*
%TO.N,Net-(U3-PB6)*%
X127660000Y-101660000D02*
X128337000Y-100983000D01*
X127660000Y-102070000D02*
X127660000Y-101660000D01*
X128337000Y-100983000D02*
X128337000Y-99822000D01*
%TO.N,/D2*%
X115928000Y-103528000D02*
X113665000Y-105791000D01*
X116328810Y-103528000D02*
X115928000Y-103528000D01*
X116688000Y-103168810D02*
X116328810Y-103528000D01*
X116688000Y-101482000D02*
X116688000Y-103168810D01*
X119380000Y-96680000D02*
X119380000Y-98790000D01*
X119240000Y-96540000D02*
X119380000Y-96680000D01*
X119240000Y-92790000D02*
X119240000Y-96540000D01*
X119500000Y-92530000D02*
X119240000Y-92790000D01*
X119380000Y-98790000D02*
X116688000Y-101482000D01*
%TO.N,/SCL*%
X121550000Y-91774530D02*
X121550000Y-92430000D01*
X120180000Y-90404530D02*
X121550000Y-91774530D01*
X120800000Y-88220000D02*
X120180000Y-88840000D01*
X120180000Y-88840000D02*
X120180000Y-90404530D01*
X122690000Y-88220000D02*
X120800000Y-88220000D01*
X122099092Y-86220000D02*
X122938604Y-86220000D01*
X123490000Y-86771396D02*
X123490000Y-87420000D01*
X121825000Y-85945908D02*
X122099092Y-86220000D01*
X121825000Y-85244092D02*
X121825000Y-85945908D01*
X122744092Y-84325000D02*
X121825000Y-85244092D01*
X122938604Y-86220000D02*
X123490000Y-86771396D01*
X122950000Y-84325000D02*
X122744092Y-84325000D01*
X123490000Y-87420000D02*
X122690000Y-88220000D01*
X121550000Y-93430000D02*
X121550000Y-92430000D01*
X121550000Y-92430000D02*
X121774092Y-92430000D01*
X123112000Y-94992000D02*
X121550000Y-93430000D01*
X122749092Y-91455000D02*
X122950000Y-91455000D01*
X121774092Y-92430000D02*
X122749092Y-91455000D01*
X122737000Y-98389000D02*
X121752000Y-98389000D01*
X123112000Y-98014000D02*
X122737000Y-98389000D01*
X123112000Y-94992000D02*
X123112000Y-98014000D01*
%TO.N,Net-(U3-PB7)*%
X127227291Y-86111986D02*
X126934277Y-86405000D01*
X126018604Y-86405000D02*
X124775000Y-87648604D01*
X124775000Y-87648604D02*
X124775000Y-94790000D01*
X126934277Y-86405000D02*
X126018604Y-86405000D01*
%TO.N,/SCL*%
X141143847Y-93961657D02*
X141143847Y-94883847D01*
X139803190Y-92621000D02*
X141143847Y-93961657D01*
X139581500Y-92621000D02*
X139803190Y-92621000D01*
D26*
%TO.N,/Vcc*%
X145789212Y-92621000D02*
X142720000Y-92621000D01*
X142720000Y-92621000D02*
X141406500Y-92621000D01*
X142650000Y-93730000D02*
X142650000Y-92691000D01*
X142650000Y-92691000D02*
X142720000Y-92621000D01*
D25*
%TO.N,/MOSI*%
X151225000Y-89313000D02*
X152400000Y-88138000D01*
X144740000Y-94010000D02*
X148189701Y-94010000D01*
X148189701Y-94010000D02*
X151225000Y-90974701D01*
X151225000Y-90974701D02*
X151225000Y-89313000D01*
%TO.N,/SDA*%
X122950000Y-85595000D02*
X124125000Y-86770000D01*
X124125000Y-86770000D02*
X124125000Y-92485000D01*
%TO.N,/D3*%
X118468000Y-103528000D02*
X123762000Y-103528000D01*
X116205000Y-105791000D02*
X118468000Y-103528000D01*
X124462000Y-102828000D02*
X124462000Y-96900208D01*
X123762000Y-103528000D02*
X124462000Y-102828000D01*
X126625000Y-87560000D02*
X127070000Y-88005000D01*
X124462000Y-96900208D02*
X125500000Y-95862208D01*
X125500000Y-95862208D02*
X125500000Y-87560000D01*
X125500000Y-87560000D02*
X126625000Y-87560000D01*
D26*
%TO.N,/Vcc*%
X146303895Y-92106317D02*
X145789212Y-92621000D01*
X137005000Y-93627328D02*
X137005000Y-93730000D01*
X136182672Y-92805000D02*
X137005000Y-93627328D01*
X135410000Y-92805000D02*
X136182672Y-92805000D01*
D25*
%TO.N,Net-(U3-AREF)*%
X136995000Y-91205000D02*
X135410000Y-91205000D01*
X137830000Y-95570305D02*
X137830000Y-92040000D01*
X137830000Y-92040000D02*
X136995000Y-91205000D01*
X136514394Y-98315742D02*
X136514394Y-96885911D01*
X136514394Y-96885911D02*
X137830000Y-95570305D01*
%TO.N,/Rx*%
X141622000Y-102760000D02*
X144526000Y-105664000D01*
X137844604Y-102760000D02*
X141622000Y-102760000D01*
X138280000Y-96615208D02*
X137239394Y-97655814D01*
X137239394Y-97655814D02*
X137239394Y-102154790D01*
X137082814Y-90231411D02*
X138280000Y-91428597D01*
X137239394Y-102154790D02*
X137844604Y-102760000D01*
X137082814Y-89615000D02*
X137082814Y-90231411D01*
X138280000Y-91428597D02*
X138280000Y-96615208D01*
%TO.N,/Tx*%
X137689394Y-101968394D02*
X138031000Y-102310000D01*
X143712000Y-102310000D02*
X147066000Y-105664000D01*
X137689394Y-97842210D02*
X137689394Y-101968394D01*
X138031000Y-102310000D02*
X143712000Y-102310000D01*
X138730000Y-90853292D02*
X138730000Y-96801604D01*
X138730000Y-96801604D02*
X137689394Y-97842210D01*
X137996888Y-90120180D02*
X138730000Y-90853292D01*
D26*
%TO.N,/Vcc*%
X133905435Y-92805000D02*
X135410000Y-92805000D01*
X133660000Y-92559565D02*
X133905435Y-92805000D01*
D25*
%TO.N,GND*%
X129552998Y-91167002D02*
X129552998Y-89342998D01*
X129073936Y-91646064D02*
X129552998Y-91167002D01*
X129552998Y-89342998D02*
X129410000Y-89200000D01*
X128386271Y-91646064D02*
X129073936Y-91646064D01*
X127945207Y-91205000D02*
X128386271Y-91646064D01*
X127070000Y-91205000D02*
X127945207Y-91205000D01*
%TO.N,Net-(U3-PB7)*%
X132510000Y-81920000D02*
X132415000Y-81825000D01*
X132510000Y-83930000D02*
X132510000Y-81920000D01*
%TO.N,Net-(U3-AREF)*%
X139610000Y-99275000D02*
X139610000Y-100114000D01*
X140690000Y-98195000D02*
X139610000Y-99275000D01*
%TO.N,/SCK*%
X148962000Y-88138000D02*
X149860000Y-88138000D01*
X140461192Y-91579575D02*
X140495917Y-91544850D01*
X140495917Y-91544850D02*
X145555150Y-91544850D01*
X145555150Y-91544850D02*
X148962000Y-88138000D01*
%TO.N,/MISO*%
X149860000Y-85190000D02*
X149860000Y-85598000D01*
X153710000Y-83850000D02*
X151200000Y-83850000D01*
X154120000Y-92260000D02*
X154120000Y-84260000D01*
X142273000Y-94780000D02*
X148100000Y-94780000D01*
X142270000Y-94783000D02*
X142273000Y-94780000D01*
X151200000Y-83850000D02*
X149860000Y-85190000D01*
X154120000Y-84260000D02*
X153710000Y-83850000D01*
X150620000Y-92260000D02*
X154120000Y-92260000D01*
X148100000Y-94780000D02*
X150620000Y-92260000D01*
%TO.N,/Tx*%
X129240000Y-87310000D02*
X129240000Y-86635000D01*
X131839469Y-89909469D02*
X129240000Y-87310000D01*
X131920364Y-89909469D02*
X131839469Y-89909469D01*
%TO.N,/Rx*%
X130040000Y-87266252D02*
X130040000Y-86635000D01*
X132565029Y-89145000D02*
X131918748Y-89145000D01*
X131918748Y-89145000D02*
X130040000Y-87266252D01*
%TO.N,/RESET*%
X130840000Y-87266252D02*
X130840000Y-86635000D01*
X131993748Y-88420000D02*
X130840000Y-87266252D01*
X133365000Y-88420000D02*
X131993748Y-88420000D01*
%TO.N,/SCL*%
X134090000Y-90234695D02*
X132835000Y-91489695D01*
X132068748Y-87695000D02*
X133695000Y-87695000D01*
X133695000Y-87695000D02*
X134090000Y-88090000D01*
X131640000Y-87266252D02*
X132068748Y-87695000D01*
X134090000Y-88090000D02*
X134090000Y-90234695D01*
X132835000Y-93465000D02*
X132870000Y-93500000D01*
X131640000Y-86635000D02*
X131640000Y-87266252D01*
X132835000Y-91489695D02*
X132835000Y-93465000D01*
%TO.N,GND*%
X133980000Y-91370000D02*
X133980000Y-91203748D01*
X133980000Y-91203748D02*
X134778748Y-90405000D01*
X134778748Y-90405000D02*
X135410000Y-90405000D01*
%TO.N,Net-(U3-PB7)*%
X130010000Y-97360000D02*
X131075000Y-97360000D01*
X131075000Y-97360000D02*
X133537000Y-99822000D01*
%TO.N,Net-(U3-PB6)*%
X128035000Y-92805000D02*
X127070000Y-92805000D01*
X128700000Y-93470000D02*
X128035000Y-92805000D01*
X138414394Y-97753606D02*
X139610000Y-96558000D01*
X138414394Y-101585000D02*
X138414394Y-97753606D01*
%TO.N,/RESET*%
X147542347Y-88532347D02*
X146614653Y-88532347D01*
X146614653Y-88532347D02*
X145828000Y-89319000D01*
X147540000Y-90678000D02*
X147447306Y-90678000D01*
X149860000Y-90678000D02*
X147540000Y-90678000D01*
%TO.N,/D8*%
X134710000Y-97520000D02*
X132353748Y-97520000D01*
X135890000Y-98700000D02*
X134710000Y-97520000D01*
X135890000Y-101069000D02*
X135890000Y-98700000D01*
X132826000Y-101870000D02*
X135089000Y-101870000D01*
X128905000Y-105791000D02*
X132826000Y-101870000D01*
X135089000Y-101870000D02*
X135890000Y-101069000D01*
X132353748Y-97520000D02*
X130840000Y-96006252D01*
X130840000Y-96006252D02*
X130840000Y-94975000D01*
%TO.N,/SDA*%
X132410000Y-86605000D02*
X132440000Y-86635000D01*
X132410000Y-85290000D02*
X132410000Y-86605000D01*
X123465000Y-85080000D02*
X129430000Y-85080000D01*
X122950000Y-85595000D02*
X123465000Y-85080000D01*
%TO.N,/SCL*%
X131640000Y-86003748D02*
X131640000Y-86635000D01*
X129961252Y-84325000D02*
X131640000Y-86003748D01*
X122950000Y-84325000D02*
X129961252Y-84325000D01*
%TO.N,/MOSI*%
X133240000Y-95710000D02*
X133240000Y-94975000D01*
X133945000Y-96415000D02*
X133240000Y-95710000D01*
%TO.N,GND*%
X137955000Y-81825000D02*
X138300000Y-82170000D01*
X146760000Y-85890000D02*
X147130000Y-85520000D01*
X141430000Y-84470000D02*
X141430000Y-85890000D01*
X116925000Y-83430001D02*
X117309999Y-83430001D01*
X126740000Y-83055000D02*
X127970000Y-81825000D01*
X117485694Y-99659000D02*
X118627347Y-98517347D01*
X114415000Y-92725000D02*
X114110000Y-93030000D01*
X116925000Y-85175000D02*
X116505000Y-85595000D01*
X116802000Y-99659000D02*
X117485694Y-99659000D01*
X116925000Y-83430001D02*
X116925000Y-85175000D01*
X141440000Y-84460000D02*
X141430000Y-84470000D01*
X122950000Y-83055000D02*
X126740000Y-83055000D01*
X141510000Y-98460000D02*
X142380000Y-98460000D01*
X115750000Y-83055000D02*
X116549999Y-83055000D01*
X115750000Y-92725000D02*
X114415000Y-92725000D01*
X138300000Y-82170000D02*
X138300000Y-82750000D01*
X127970000Y-81825000D02*
X130515000Y-81825000D01*
X138300000Y-82750000D02*
X137880000Y-83170000D01*
X137048000Y-81825000D02*
X137955000Y-81825000D01*
X121530775Y-90730000D02*
X122075775Y-90185000D01*
X141510000Y-98460000D02*
X141510000Y-100114000D01*
X145851500Y-85890000D02*
X146760000Y-85890000D01*
X117309999Y-83430001D02*
X117630000Y-83110000D01*
X121385000Y-83055000D02*
X121380000Y-83060000D01*
X141510000Y-96558000D02*
X141510000Y-98460000D01*
X129005000Y-89605000D02*
X129410000Y-89200000D01*
X122950000Y-83055000D02*
X121385000Y-83055000D01*
X122075775Y-90185000D02*
X122950000Y-90185000D01*
X116549999Y-83055000D02*
X116925000Y-83430001D01*
X127070000Y-89605000D02*
X129005000Y-89605000D01*
X116505000Y-85595000D02*
X115750000Y-85595000D01*
D26*
%TO.N,/Vcc*%
X121752000Y-95849000D02*
X120491000Y-95849000D01*
X126030000Y-81785000D02*
X126070000Y-81825000D01*
X121640000Y-88915000D02*
X121335000Y-89220000D01*
X141432500Y-89345000D02*
X143977000Y-89345000D01*
X128311934Y-90405000D02*
X128727998Y-90821064D01*
X114525000Y-82210001D02*
X114525000Y-83290000D01*
X144003000Y-89927000D02*
X143270000Y-90660000D01*
X115750000Y-81785000D02*
X114950001Y-81785000D01*
X114525000Y-84045000D02*
X114805000Y-84325000D01*
X121893500Y-102453000D02*
X122257000Y-102453000D01*
X141607500Y-82397500D02*
X142470000Y-83260000D01*
X114805000Y-84325000D02*
X115750000Y-84325000D01*
X120491000Y-95849000D02*
X120130000Y-96210000D01*
X114525000Y-83290000D02*
X114525000Y-84045000D01*
X141406500Y-89319000D02*
X141432500Y-89345000D01*
X141607500Y-81840000D02*
X141607500Y-82397500D01*
X115750000Y-88915000D02*
X115750000Y-91455000D01*
X143977000Y-89345000D02*
X144003000Y-89319000D01*
X127070000Y-90405000D02*
X128311934Y-90405000D01*
X134065000Y-81825000D02*
X133860000Y-82030000D01*
X122257000Y-102453000D02*
X123410000Y-101300000D01*
X117575500Y-102054500D02*
X118490000Y-101140000D01*
X117575500Y-102453000D02*
X117575500Y-102054500D01*
X122950000Y-88915000D02*
X121640000Y-88915000D01*
X135148000Y-81825000D02*
X134065000Y-81825000D01*
X122950000Y-81785000D02*
X126030000Y-81785000D01*
X144003000Y-89319000D02*
X144003000Y-89927000D01*
X114950001Y-81785000D02*
X114525000Y-82210001D01*
D25*
%TO.N,Net-(U3-PB6)*%
X127667153Y-99152153D02*
X128337000Y-99822000D01*
X127667153Y-97917153D02*
X127667153Y-99152153D01*
%TO.N,Net-(U3-PB7)*%
X126680000Y-94790000D02*
X126680000Y-93995000D01*
X126680000Y-93995000D02*
X127070000Y-93605000D01*
%TO.N,Net-(D1-K)*%
X144026500Y-85890000D02*
X144026500Y-82070000D01*
X144026500Y-82070000D02*
X143796500Y-81840000D01*
%TO.N,/SCK*%
X148100000Y-86378000D02*
X149860000Y-88138000D01*
X135995861Y-94490555D02*
X135995861Y-94190861D01*
X148100000Y-84268500D02*
X148100000Y-86378000D01*
X145671500Y-81840000D02*
X148100000Y-84268500D01*
X135995861Y-94190861D02*
X135410000Y-93605000D01*
%TO.N,Net-(D2-K)*%
X139605000Y-81967500D02*
X139732500Y-81840000D01*
X139605000Y-85890000D02*
X139605000Y-81967500D01*
%TO.N,/SDA*%
X139581500Y-87451500D02*
X139581500Y-89319000D01*
X152390000Y-99830000D02*
X150760000Y-98200000D01*
X121752000Y-99659000D02*
X122737000Y-99659000D01*
X139320000Y-87190000D02*
X139581500Y-87451500D01*
X132470000Y-86665000D02*
X132440000Y-86635000D01*
X150760000Y-98200000D02*
X149630000Y-98200000D01*
X124125000Y-92485000D02*
X123890000Y-92720000D01*
X139581500Y-89319000D02*
X139581500Y-89630890D01*
X123562000Y-98834000D02*
X123562000Y-93322000D01*
X123562000Y-93322000D02*
X122960000Y-92720000D01*
X123890000Y-92720000D02*
X122960000Y-92720000D01*
X124005000Y-92605000D02*
X124125000Y-92485000D01*
X139581500Y-89630890D02*
X140440305Y-90489695D01*
X122737000Y-99659000D02*
X123562000Y-98834000D01*
%TO.N,/Tx*%
X129240000Y-86635000D02*
X129240000Y-86003748D01*
%TO.N,/D6*%
X125812000Y-103804000D02*
X123825000Y-105791000D01*
X127832604Y-96090000D02*
X125812000Y-98110604D01*
X125812000Y-98110604D02*
X125812000Y-103804000D01*
X129240000Y-94975000D02*
X129240000Y-95710000D01*
X128860000Y-96090000D02*
X127832604Y-96090000D01*
X129240000Y-95710000D02*
X128860000Y-96090000D01*
%TO.N,/D7*%
X126262000Y-98297000D02*
X126262000Y-105688000D01*
X126262000Y-105688000D02*
X126365000Y-105791000D01*
X129100000Y-96650000D02*
X127909000Y-96650000D01*
X127909000Y-96650000D02*
X126262000Y-98297000D01*
X130040000Y-94975000D02*
X130040000Y-95710000D01*
X130040000Y-95710000D02*
X129100000Y-96650000D01*
%TO.N,/D2*%
X127945000Y-87130000D02*
X128440000Y-86635000D01*
X127220000Y-87130000D02*
X127945000Y-87130000D01*
%TO.N,/D5*%
X127660000Y-94975000D02*
X128440000Y-94975000D01*
X124363604Y-104616000D02*
X125362000Y-103617604D01*
X125362000Y-103617604D02*
X125362000Y-97273000D01*
X121285000Y-105791000D02*
X122460000Y-104616000D01*
X122460000Y-104616000D02*
X124363604Y-104616000D01*
X125362000Y-97273000D02*
X127660000Y-94975000D01*
%TO.N,/D4*%
X124365208Y-103978000D02*
X124912000Y-103431208D01*
X126438748Y-88805000D02*
X127070000Y-88805000D01*
X120558000Y-103978000D02*
X124365208Y-103978000D01*
X125950000Y-96048604D02*
X125950000Y-89293748D01*
X125950000Y-89293748D02*
X126438748Y-88805000D01*
X124912000Y-97086604D02*
X125950000Y-96048604D01*
X124912000Y-103431208D02*
X124912000Y-97086604D01*
X118745000Y-105791000D02*
X120558000Y-103978000D01*
%TO.N,/MISO*%
X135445000Y-96380000D02*
X135995000Y-96380000D01*
X134040000Y-94975000D02*
X135445000Y-96380000D01*
%TO.N,/RESET*%
X144753000Y-88244000D02*
X145828000Y-89319000D01*
X142926000Y-88244000D02*
X144753000Y-88244000D01*
X142650000Y-88520000D02*
X142926000Y-88244000D01*
%TO.N,Net-(U4-~{INTA})*%
X116373538Y-98389000D02*
X116802000Y-98389000D01*
X115750500Y-102453000D02*
X115492000Y-102194500D01*
X115492000Y-102194500D02*
X115492000Y-99270538D01*
X115492000Y-99270538D02*
X116373538Y-98389000D01*
%TO.N,Net-(U4-SQW{slash}~INT)*%
X120068500Y-102453000D02*
X120440000Y-102081500D01*
X120440000Y-102081500D02*
X120440000Y-97446000D01*
X120767000Y-97119000D02*
X121752000Y-97119000D01*
X120440000Y-97446000D02*
X120767000Y-97119000D01*
%TO.N,Net-(U4-X1)*%
X111540000Y-95280000D02*
X116233000Y-95280000D01*
X116233000Y-95280000D02*
X116802000Y-95849000D01*
%TO.N,Net-(U4-X2)*%
X116281000Y-97119000D02*
X116802000Y-97119000D01*
X111540000Y-100480000D02*
X112920000Y-100480000D01*
X112920000Y-100480000D02*
X116281000Y-97119000D01*
%TD*%
%TA.AperFunction,Conductor*%
%TO.N,/Vcc*%
G36*
X125181162Y-80629094D02*
G01*
X125248156Y-80648930D01*
X125293792Y-80701837D01*
X125303580Y-80771017D01*
X125274412Y-80834508D01*
X125268564Y-80840774D01*
X125227684Y-80881654D01*
X125135643Y-81030875D01*
X125135641Y-81030880D01*
X125080494Y-81197302D01*
X125080493Y-81197309D01*
X125070000Y-81300013D01*
X125070000Y-81575000D01*
X126196000Y-81575000D01*
X126263039Y-81594685D01*
X126308794Y-81647489D01*
X126320000Y-81699000D01*
X126320000Y-81951000D01*
X126300315Y-82018039D01*
X126247511Y-82063794D01*
X126196000Y-82075000D01*
X125070001Y-82075000D01*
X125070001Y-82305500D01*
X125050316Y-82372539D01*
X124997512Y-82418294D01*
X124946001Y-82429500D01*
X124280111Y-82429500D01*
X124213072Y-82409815D01*
X124167317Y-82357011D01*
X124157373Y-82287853D01*
X124173379Y-82242379D01*
X124201281Y-82195198D01*
X124247100Y-82037486D01*
X124247295Y-82035001D01*
X124247295Y-82035000D01*
X121652705Y-82035000D01*
X121652542Y-82035176D01*
X121638304Y-82102945D01*
X121589252Y-82152701D01*
X121521086Y-82168038D01*
X121503275Y-82165585D01*
X121474646Y-82159500D01*
X121285354Y-82159500D01*
X121256726Y-82165585D01*
X121100197Y-82198855D01*
X121100192Y-82198857D01*
X120927270Y-82275848D01*
X120927265Y-82275851D01*
X120774129Y-82387111D01*
X120647466Y-82527785D01*
X120552821Y-82691715D01*
X120552818Y-82691722D01*
X120504793Y-82839529D01*
X120494326Y-82871744D01*
X120474540Y-83060000D01*
X120494326Y-83248256D01*
X120494327Y-83248259D01*
X120552818Y-83428277D01*
X120552821Y-83428284D01*
X120647467Y-83592216D01*
X120744066Y-83699500D01*
X120774129Y-83732888D01*
X120927265Y-83844148D01*
X120927270Y-83844151D01*
X121100192Y-83921142D01*
X121100197Y-83921144D01*
X121285354Y-83960500D01*
X121285355Y-83960500D01*
X121474642Y-83960500D01*
X121474646Y-83960500D01*
X121501959Y-83954694D01*
X121571622Y-83960009D01*
X121627356Y-84002145D01*
X121651463Y-84067725D01*
X121651356Y-84085709D01*
X121649500Y-84109290D01*
X121649500Y-84483639D01*
X121629815Y-84550678D01*
X121613181Y-84571320D01*
X121426269Y-84758232D01*
X121426267Y-84758234D01*
X121402625Y-84781876D01*
X121339142Y-84845358D01*
X121335976Y-84850097D01*
X121306832Y-84893714D01*
X121270688Y-84947806D01*
X121270686Y-84947809D01*
X121251934Y-84993079D01*
X121251935Y-84993080D01*
X121223537Y-85061641D01*
X121223535Y-85061648D01*
X121199500Y-85182481D01*
X121199500Y-85182486D01*
X121199500Y-86007514D01*
X121215492Y-86087913D01*
X121223537Y-86128361D01*
X121230801Y-86145895D01*
X121230802Y-86145899D01*
X121270685Y-86242188D01*
X121270686Y-86242190D01*
X121270688Y-86242194D01*
X121281044Y-86257692D01*
X121301783Y-86288731D01*
X121301785Y-86288733D01*
X121339140Y-86344639D01*
X121339141Y-86344640D01*
X121339142Y-86344641D01*
X121426267Y-86431766D01*
X121426269Y-86431767D01*
X121638426Y-86643925D01*
X121700360Y-86705859D01*
X121802804Y-86774310D01*
X121802803Y-86774310D01*
X121802805Y-86774311D01*
X121802807Y-86774312D01*
X121843739Y-86791266D01*
X121843740Y-86791267D01*
X121843741Y-86791267D01*
X121916640Y-86821463D01*
X121930114Y-86824143D01*
X122005050Y-86839049D01*
X122037485Y-86845501D01*
X122037486Y-86845501D01*
X122166813Y-86845501D01*
X122166833Y-86845500D01*
X122628152Y-86845500D01*
X122695191Y-86865185D01*
X122715833Y-86881819D01*
X122828181Y-86994167D01*
X122861666Y-87055490D01*
X122864500Y-87081848D01*
X122864500Y-87109548D01*
X122844815Y-87176587D01*
X122828181Y-87197229D01*
X122467229Y-87558181D01*
X122405906Y-87591666D01*
X122379548Y-87594500D01*
X120861606Y-87594500D01*
X120738393Y-87594500D01*
X120631022Y-87615857D01*
X120631021Y-87615856D01*
X120617552Y-87618536D01*
X120617549Y-87618536D01*
X120617548Y-87618537D01*
X120617546Y-87618537D01*
X120617545Y-87618538D01*
X120503716Y-87665687D01*
X120405282Y-87731458D01*
X120405283Y-87731459D01*
X120401267Y-87734142D01*
X120401263Y-87734145D01*
X120089551Y-88045858D01*
X119781269Y-88354140D01*
X119781267Y-88354142D01*
X119752412Y-88382997D01*
X119694142Y-88441266D01*
X119667187Y-88481608D01*
X119667186Y-88481609D01*
X119625690Y-88543709D01*
X119625688Y-88543713D01*
X119618346Y-88561440D01*
X119597439Y-88611914D01*
X119578537Y-88657546D01*
X119578535Y-88657554D01*
X119571621Y-88692310D01*
X119571622Y-88692311D01*
X119555020Y-88775782D01*
X119555015Y-88775805D01*
X119554500Y-88778391D01*
X119554500Y-90466140D01*
X119557512Y-90481285D01*
X119578535Y-90586975D01*
X119578538Y-90586986D01*
X119588057Y-90609965D01*
X119588058Y-90609969D01*
X119625685Y-90700810D01*
X119625687Y-90700813D01*
X119625688Y-90700816D01*
X119653689Y-90742722D01*
X119659914Y-90752037D01*
X119659915Y-90752039D01*
X119694140Y-90803261D01*
X119694141Y-90803262D01*
X119694142Y-90803263D01*
X119781267Y-90890388D01*
X119781268Y-90890388D01*
X119788335Y-90897455D01*
X119788334Y-90897455D01*
X119788338Y-90897458D01*
X120888181Y-91997301D01*
X120921666Y-92058624D01*
X120924500Y-92084982D01*
X120924500Y-92368393D01*
X120924500Y-92368394D01*
X120924500Y-93368393D01*
X120924500Y-93491607D01*
X120927055Y-93504451D01*
X120927055Y-93504460D01*
X120943951Y-93589399D01*
X120948535Y-93612444D01*
X120948536Y-93612446D01*
X120948537Y-93612451D01*
X120995688Y-93726286D01*
X121011200Y-93749500D01*
X121064140Y-93828731D01*
X121064141Y-93828732D01*
X121064142Y-93828733D01*
X121151267Y-93915858D01*
X121151268Y-93915858D01*
X121158335Y-93922925D01*
X121158334Y-93922925D01*
X121158338Y-93922928D01*
X122077729Y-94842319D01*
X122111214Y-94903642D01*
X122106230Y-94973334D01*
X122064358Y-95029267D01*
X122004351Y-95051648D01*
X122002000Y-95054000D01*
X122002000Y-95975000D01*
X121982315Y-96042039D01*
X121929511Y-96087794D01*
X121878000Y-96099000D01*
X120267000Y-96099000D01*
X120267000Y-96107863D01*
X120281768Y-96220028D01*
X120281769Y-96220032D01*
X120339578Y-96359598D01*
X120376797Y-96408102D01*
X120401991Y-96473272D01*
X120387953Y-96541716D01*
X120376798Y-96559074D01*
X120339143Y-96608147D01*
X120339141Y-96608151D01*
X120310312Y-96677749D01*
X120283452Y-96717956D01*
X120281161Y-96720248D01*
X120217181Y-96784228D01*
X120155858Y-96817713D01*
X120086166Y-96812729D01*
X120030233Y-96770857D01*
X120005816Y-96705393D01*
X120005500Y-96696547D01*
X120005500Y-96618389D01*
X120002622Y-96603924D01*
X120002621Y-96603919D01*
X119981463Y-96497551D01*
X119981463Y-96497549D01*
X119980992Y-96496414D01*
X119980990Y-96496391D01*
X119980985Y-96496394D01*
X119966757Y-96462046D01*
X119957833Y-96440500D01*
X119934312Y-96383715D01*
X119916828Y-96357549D01*
X119886396Y-96312005D01*
X119865520Y-96245328D01*
X119865500Y-96243116D01*
X119865500Y-95599000D01*
X120267000Y-95599000D01*
X121502000Y-95599000D01*
X121502000Y-95054000D01*
X120803136Y-95054000D01*
X120690971Y-95068768D01*
X120690967Y-95068769D01*
X120551401Y-95126578D01*
X120431547Y-95218547D01*
X120339578Y-95338401D01*
X120281769Y-95477967D01*
X120281768Y-95477971D01*
X120267000Y-95590136D01*
X120267000Y-95599000D01*
X119865500Y-95599000D01*
X119865500Y-93433515D01*
X119885185Y-93366476D01*
X119937989Y-93320721D01*
X119939066Y-93320235D01*
X119946830Y-93316777D01*
X119952730Y-93314151D01*
X120105871Y-93202888D01*
X120232533Y-93062216D01*
X120327179Y-92898284D01*
X120385674Y-92718256D01*
X120405460Y-92530000D01*
X120385674Y-92341744D01*
X120327179Y-92161716D01*
X120232533Y-91997784D01*
X120105871Y-91857112D01*
X120105870Y-91857111D01*
X119952734Y-91745851D01*
X119952729Y-91745848D01*
X119779807Y-91668857D01*
X119779802Y-91668855D01*
X119618169Y-91634500D01*
X119594646Y-91629500D01*
X119405354Y-91629500D01*
X119381831Y-91634500D01*
X119220197Y-91668855D01*
X119220192Y-91668857D01*
X119047270Y-91745848D01*
X119047265Y-91745851D01*
X118894129Y-91857111D01*
X118767466Y-91997785D01*
X118672821Y-92161715D01*
X118672818Y-92161722D01*
X118614327Y-92341740D01*
X118614326Y-92341744D01*
X118594540Y-92530000D01*
X118613299Y-92708489D01*
X118613821Y-92713450D01*
X118614500Y-92726411D01*
X118614500Y-92728394D01*
X118614500Y-96478393D01*
X118614500Y-96601607D01*
X118614500Y-96601609D01*
X118614499Y-96601609D01*
X118620091Y-96629716D01*
X118620091Y-96629718D01*
X118638535Y-96722446D01*
X118638539Y-96722459D01*
X118647018Y-96742927D01*
X118647019Y-96742930D01*
X118685685Y-96836281D01*
X118685688Y-96836286D01*
X118710982Y-96874140D01*
X118710983Y-96874143D01*
X118710984Y-96874143D01*
X118733602Y-96907993D01*
X118754480Y-96974670D01*
X118754500Y-96976884D01*
X118754500Y-97492847D01*
X118734815Y-97559886D01*
X118682011Y-97605641D01*
X118630500Y-97616847D01*
X118532701Y-97616847D01*
X118418947Y-97641026D01*
X118349280Y-97635709D01*
X118293547Y-97593571D01*
X118269442Y-97527991D01*
X118272350Y-97498307D01*
X118271658Y-97498216D01*
X118274874Y-97473793D01*
X118287500Y-97377887D01*
X118287499Y-96860114D01*
X118284362Y-96836286D01*
X118272720Y-96747848D01*
X118272719Y-96747847D01*
X118272719Y-96747841D01*
X118227526Y-96638735D01*
X118214856Y-96608146D01*
X118177518Y-96559487D01*
X118152323Y-96494318D01*
X118166361Y-96425873D01*
X118177518Y-96408513D01*
X118214856Y-96359853D01*
X118223791Y-96338281D01*
X118272719Y-96220159D01*
X118287500Y-96107887D01*
X118287499Y-95590114D01*
X118286477Y-95582352D01*
X118272720Y-95477848D01*
X118272719Y-95477847D01*
X118272719Y-95477841D01*
X118225297Y-95363354D01*
X118214857Y-95338149D01*
X118214856Y-95338148D01*
X118214856Y-95338147D01*
X118122810Y-95218190D01*
X118002853Y-95126144D01*
X118002852Y-95126143D01*
X118002850Y-95126142D01*
X117863162Y-95068282D01*
X117863160Y-95068281D01*
X117863159Y-95068281D01*
X117849125Y-95066433D01*
X117750894Y-95053500D01*
X117750887Y-95053500D01*
X116942452Y-95053500D01*
X116875413Y-95033815D01*
X116854771Y-95017181D01*
X116725928Y-94888338D01*
X116725925Y-94888334D01*
X116725925Y-94888335D01*
X116718859Y-94881269D01*
X116718858Y-94881267D01*
X116631733Y-94794142D01*
X116558446Y-94745173D01*
X116529286Y-94725688D01*
X116529287Y-94725688D01*
X116529285Y-94725687D01*
X116489039Y-94709017D01*
X116448792Y-94692347D01*
X116415453Y-94678537D01*
X116405427Y-94676543D01*
X116355029Y-94666518D01*
X116294610Y-94654500D01*
X116294607Y-94654500D01*
X116294606Y-94654500D01*
X113364499Y-94654500D01*
X113297460Y-94634815D01*
X113251705Y-94582011D01*
X113240499Y-94530500D01*
X113240499Y-93733128D01*
X113260184Y-93666089D01*
X113312988Y-93620334D01*
X113382146Y-93610390D01*
X113445702Y-93639415D01*
X113456646Y-93650153D01*
X113473194Y-93668531D01*
X113504129Y-93702888D01*
X113657265Y-93814148D01*
X113657270Y-93814151D01*
X113830192Y-93891142D01*
X113830197Y-93891144D01*
X114015354Y-93930500D01*
X114015355Y-93930500D01*
X114204644Y-93930500D01*
X114204646Y-93930500D01*
X114389803Y-93891144D01*
X114562730Y-93814151D01*
X114715871Y-93702888D01*
X114842533Y-93562216D01*
X114842533Y-93562215D01*
X114846882Y-93557386D01*
X114847935Y-93558334D01*
X114897382Y-93520191D01*
X114966995Y-93514199D01*
X114976973Y-93516654D01*
X114997431Y-93522598D01*
X115034306Y-93525500D01*
X115034314Y-93525500D01*
X116465686Y-93525500D01*
X116465694Y-93525500D01*
X116502569Y-93522598D01*
X116502571Y-93522597D01*
X116502573Y-93522597D01*
X116580351Y-93500000D01*
X116660398Y-93476744D01*
X116801865Y-93393081D01*
X116918081Y-93276865D01*
X117001744Y-93135398D01*
X117043070Y-92993154D01*
X117047597Y-92977573D01*
X117047598Y-92977567D01*
X117050499Y-92940701D01*
X117050500Y-92940694D01*
X117050500Y-92509306D01*
X117047598Y-92472431D01*
X117047431Y-92471857D01*
X117009991Y-92342989D01*
X117001744Y-92314602D01*
X116918081Y-92173135D01*
X116918078Y-92173132D01*
X116913298Y-92166969D01*
X116915635Y-92165155D01*
X116888798Y-92116050D01*
X116893756Y-92046356D01*
X116914554Y-92013998D01*
X116912903Y-92012717D01*
X116917686Y-92006550D01*
X117001281Y-91865198D01*
X117047100Y-91707486D01*
X117047295Y-91705001D01*
X117047295Y-91705000D01*
X114452705Y-91705000D01*
X114452704Y-91705001D01*
X114452899Y-91707486D01*
X114498718Y-91865198D01*
X114526621Y-91912379D01*
X114543804Y-91980103D01*
X114521644Y-92046365D01*
X114467178Y-92090129D01*
X114419889Y-92099500D01*
X114353389Y-92099500D01*
X114232548Y-92123536D01*
X114230490Y-92124161D01*
X114194497Y-92129500D01*
X114015354Y-92129500D01*
X113982897Y-92136398D01*
X113830197Y-92168855D01*
X113830192Y-92168857D01*
X113657270Y-92245848D01*
X113657265Y-92245851D01*
X113504129Y-92357111D01*
X113377466Y-92497785D01*
X113282821Y-92661715D01*
X113282818Y-92661722D01*
X113224833Y-92840184D01*
X113224326Y-92841744D01*
X113211249Y-92966157D01*
X113205680Y-93019151D01*
X113179095Y-93083765D01*
X113121798Y-93123750D01*
X113051979Y-93126410D01*
X113008048Y-93105455D01*
X112982335Y-93086206D01*
X112982328Y-93086202D01*
X112847482Y-93035908D01*
X112847483Y-93035908D01*
X112787883Y-93029501D01*
X112787881Y-93029500D01*
X112787873Y-93029500D01*
X112787864Y-93029500D01*
X110292129Y-93029500D01*
X110292123Y-93029501D01*
X110232516Y-93035908D01*
X110097671Y-93086202D01*
X110097664Y-93086206D01*
X109982455Y-93172452D01*
X109982452Y-93172455D01*
X109896206Y-93287664D01*
X109896202Y-93287671D01*
X109845908Y-93422517D01*
X109839501Y-93482116D01*
X109839500Y-93482135D01*
X109839500Y-97077870D01*
X109839501Y-97077876D01*
X109845908Y-97137483D01*
X109896202Y-97272328D01*
X109896206Y-97272335D01*
X109982452Y-97387544D01*
X109982455Y-97387547D01*
X110097664Y-97473793D01*
X110097671Y-97473797D01*
X110232517Y-97524091D01*
X110232516Y-97524091D01*
X110239444Y-97524835D01*
X110292127Y-97530500D01*
X112787872Y-97530499D01*
X112847483Y-97524091D01*
X112982331Y-97473796D01*
X113097546Y-97387546D01*
X113183796Y-97272331D01*
X113234091Y-97137483D01*
X113240500Y-97077873D01*
X113240500Y-96029500D01*
X113260185Y-95962461D01*
X113312989Y-95916706D01*
X113364500Y-95905500D01*
X115192501Y-95905500D01*
X115259540Y-95925185D01*
X115305295Y-95977989D01*
X115316501Y-96029500D01*
X115316501Y-96107888D01*
X115331279Y-96220151D01*
X115331282Y-96220162D01*
X115389143Y-96359853D01*
X115426482Y-96408514D01*
X115451676Y-96473684D01*
X115437637Y-96542128D01*
X115426482Y-96559486D01*
X115389143Y-96608146D01*
X115331282Y-96747837D01*
X115331281Y-96747841D01*
X115316500Y-96860105D01*
X115316500Y-97147547D01*
X115296815Y-97214586D01*
X115280181Y-97235228D01*
X113452180Y-99063229D01*
X113390857Y-99096714D01*
X113321165Y-99091730D01*
X113265232Y-99049858D01*
X113240815Y-98984394D01*
X113240499Y-98975548D01*
X113240499Y-98682129D01*
X113240498Y-98682123D01*
X113240497Y-98682116D01*
X113234091Y-98622517D01*
X113216043Y-98574129D01*
X113183797Y-98487671D01*
X113183793Y-98487664D01*
X113097547Y-98372455D01*
X113097544Y-98372452D01*
X112982335Y-98286206D01*
X112982328Y-98286202D01*
X112847482Y-98235908D01*
X112847483Y-98235908D01*
X112787883Y-98229501D01*
X112787881Y-98229500D01*
X112787873Y-98229500D01*
X112787864Y-98229500D01*
X110292129Y-98229500D01*
X110292123Y-98229501D01*
X110232516Y-98235908D01*
X110097671Y-98286202D01*
X110097664Y-98286206D01*
X109982455Y-98372452D01*
X109982452Y-98372455D01*
X109896206Y-98487664D01*
X109896202Y-98487671D01*
X109845908Y-98622517D01*
X109840804Y-98669998D01*
X109839501Y-98682123D01*
X109839500Y-98682135D01*
X109839500Y-102277870D01*
X109839501Y-102277876D01*
X109845908Y-102337483D01*
X109896202Y-102472328D01*
X109896206Y-102472335D01*
X109982452Y-102587544D01*
X109982455Y-102587547D01*
X110097664Y-102673793D01*
X110097671Y-102673797D01*
X110232517Y-102724091D01*
X110232516Y-102724091D01*
X110239444Y-102724835D01*
X110292127Y-102730500D01*
X112787872Y-102730499D01*
X112847483Y-102724091D01*
X112982331Y-102673796D01*
X113097546Y-102587546D01*
X113183796Y-102472331D01*
X113234091Y-102337483D01*
X113240500Y-102277873D01*
X113240499Y-101084410D01*
X113260184Y-101017372D01*
X113295609Y-100981309D01*
X113318733Y-100965858D01*
X113405858Y-100878733D01*
X113405859Y-100878731D01*
X113412925Y-100871665D01*
X113412927Y-100871661D01*
X114654820Y-99629768D01*
X114716142Y-99596285D01*
X114785834Y-99601269D01*
X114841767Y-99643141D01*
X114866184Y-99708605D01*
X114866500Y-99717451D01*
X114866500Y-101545851D01*
X114848039Y-101610947D01*
X114803189Y-101683659D01*
X114803185Y-101683668D01*
X114779320Y-101755688D01*
X114748001Y-101850203D01*
X114748001Y-101850204D01*
X114748000Y-101850204D01*
X114737500Y-101952983D01*
X114737500Y-102953001D01*
X114737501Y-102953019D01*
X114748000Y-103055796D01*
X114748001Y-103055799D01*
X114803185Y-103222331D01*
X114803187Y-103222336D01*
X114838069Y-103278888D01*
X114894020Y-103369601D01*
X114895289Y-103371657D01*
X114959839Y-103436207D01*
X114993324Y-103497530D01*
X114988340Y-103567222D01*
X114959839Y-103611569D01*
X114167227Y-104404181D01*
X114105904Y-104437666D01*
X114079546Y-104440500D01*
X112767129Y-104440500D01*
X112767123Y-104440501D01*
X112707516Y-104446908D01*
X112572671Y-104497202D01*
X112572664Y-104497206D01*
X112457455Y-104583452D01*
X112457452Y-104583455D01*
X112371206Y-104698664D01*
X112371202Y-104698671D01*
X112320908Y-104833517D01*
X112314501Y-104893116D01*
X112314500Y-104893135D01*
X112314500Y-106688870D01*
X112314501Y-106688876D01*
X112320908Y-106748483D01*
X112371202Y-106883328D01*
X112371206Y-106883335D01*
X112457452Y-106998544D01*
X112457455Y-106998547D01*
X112572664Y-107084793D01*
X112572671Y-107084797D01*
X112707517Y-107135091D01*
X112707516Y-107135091D01*
X112714444Y-107135835D01*
X112767127Y-107141500D01*
X114562872Y-107141499D01*
X114622483Y-107135091D01*
X114757331Y-107084796D01*
X114872546Y-106998546D01*
X114958796Y-106883331D01*
X115007810Y-106751916D01*
X115049681Y-106695984D01*
X115115145Y-106671566D01*
X115183418Y-106686417D01*
X115211673Y-106707569D01*
X115333599Y-106829495D01*
X115430384Y-106897265D01*
X115527165Y-106965032D01*
X115527167Y-106965033D01*
X115527170Y-106965035D01*
X115741337Y-107064903D01*
X115969592Y-107126063D01*
X116146034Y-107141500D01*
X116204999Y-107146659D01*
X116205000Y-107146659D01*
X116205001Y-107146659D01*
X116263966Y-107141500D01*
X116440408Y-107126063D01*
X116668663Y-107064903D01*
X116882830Y-106965035D01*
X117076401Y-106829495D01*
X117243495Y-106662401D01*
X117373425Y-106476842D01*
X117428002Y-106433217D01*
X117497500Y-106426023D01*
X117559855Y-106457546D01*
X117576575Y-106476842D01*
X117706281Y-106662082D01*
X117706505Y-106662401D01*
X117873599Y-106829495D01*
X117970384Y-106897265D01*
X118067165Y-106965032D01*
X118067167Y-106965033D01*
X118067170Y-106965035D01*
X118281337Y-107064903D01*
X118509592Y-107126063D01*
X118686034Y-107141500D01*
X118744999Y-107146659D01*
X118745000Y-107146659D01*
X118745001Y-107146659D01*
X118803966Y-107141500D01*
X118980408Y-107126063D01*
X119208663Y-107064903D01*
X119422830Y-106965035D01*
X119616401Y-106829495D01*
X119783495Y-106662401D01*
X119913425Y-106476842D01*
X119968002Y-106433217D01*
X120037500Y-106426023D01*
X120099855Y-106457546D01*
X120116575Y-106476842D01*
X120246281Y-106662082D01*
X120246505Y-106662401D01*
X120413599Y-106829495D01*
X120510384Y-106897265D01*
X120607165Y-106965032D01*
X120607167Y-106965033D01*
X120607170Y-106965035D01*
X120821337Y-107064903D01*
X121049592Y-107126063D01*
X121226034Y-107141500D01*
X121284999Y-107146659D01*
X121285000Y-107146659D01*
X121285001Y-107146659D01*
X121343966Y-107141500D01*
X121520408Y-107126063D01*
X121748663Y-107064903D01*
X121962830Y-106965035D01*
X122156401Y-106829495D01*
X122323495Y-106662401D01*
X122453425Y-106476842D01*
X122508002Y-106433217D01*
X122577500Y-106426023D01*
X122639855Y-106457546D01*
X122656575Y-106476842D01*
X122786281Y-106662082D01*
X122786505Y-106662401D01*
X122953599Y-106829495D01*
X123050384Y-106897265D01*
X123147165Y-106965032D01*
X123147167Y-106965033D01*
X123147170Y-106965035D01*
X123361337Y-107064903D01*
X123589592Y-107126063D01*
X123766034Y-107141500D01*
X123824999Y-107146659D01*
X123825000Y-107146659D01*
X123825001Y-107146659D01*
X123883966Y-107141500D01*
X124060408Y-107126063D01*
X124288663Y-107064903D01*
X124502830Y-106965035D01*
X124696401Y-106829495D01*
X124863495Y-106662401D01*
X124993425Y-106476842D01*
X125048002Y-106433217D01*
X125117500Y-106426023D01*
X125179855Y-106457546D01*
X125196575Y-106476842D01*
X125326281Y-106662082D01*
X125326505Y-106662401D01*
X125493599Y-106829495D01*
X125590384Y-106897265D01*
X125687165Y-106965032D01*
X125687167Y-106965033D01*
X125687170Y-106965035D01*
X125901337Y-107064903D01*
X126129592Y-107126063D01*
X126306034Y-107141500D01*
X126364999Y-107146659D01*
X126365000Y-107146659D01*
X126365001Y-107146659D01*
X126423966Y-107141500D01*
X126600408Y-107126063D01*
X126828663Y-107064903D01*
X127042830Y-106965035D01*
X127236401Y-106829495D01*
X127403495Y-106662401D01*
X127533425Y-106476842D01*
X127588002Y-106433217D01*
X127657500Y-106426023D01*
X127719855Y-106457546D01*
X127736575Y-106476842D01*
X127866281Y-106662082D01*
X127866505Y-106662401D01*
X128033599Y-106829495D01*
X128130384Y-106897265D01*
X128227165Y-106965032D01*
X128227167Y-106965033D01*
X128227170Y-106965035D01*
X128441337Y-107064903D01*
X128669592Y-107126063D01*
X128846034Y-107141500D01*
X128904999Y-107146659D01*
X128905000Y-107146659D01*
X128905001Y-107146659D01*
X128963966Y-107141500D01*
X129140408Y-107126063D01*
X129368663Y-107064903D01*
X129582830Y-106965035D01*
X129776401Y-106829495D01*
X129943495Y-106662401D01*
X130073425Y-106476842D01*
X130128002Y-106433217D01*
X130197500Y-106426023D01*
X130259855Y-106457546D01*
X130276575Y-106476842D01*
X130406281Y-106662082D01*
X130406505Y-106662401D01*
X130573599Y-106829495D01*
X130670384Y-106897265D01*
X130767165Y-106965032D01*
X130767167Y-106965033D01*
X130767170Y-106965035D01*
X130981337Y-107064903D01*
X131209592Y-107126063D01*
X131386034Y-107141500D01*
X131444999Y-107146659D01*
X131445000Y-107146659D01*
X131445001Y-107146659D01*
X131503966Y-107141500D01*
X131680408Y-107126063D01*
X131908663Y-107064903D01*
X132122830Y-106965035D01*
X132316401Y-106829495D01*
X132483495Y-106662401D01*
X132613730Y-106476405D01*
X132668307Y-106432781D01*
X132737805Y-106425587D01*
X132800160Y-106457110D01*
X132816879Y-106476405D01*
X132946890Y-106662078D01*
X133113917Y-106829105D01*
X133307421Y-106964600D01*
X133521507Y-107064429D01*
X133521516Y-107064433D01*
X133735000Y-107121634D01*
X133735000Y-106224012D01*
X133792007Y-106256925D01*
X133919174Y-106291000D01*
X134050826Y-106291000D01*
X134177993Y-106256925D01*
X134235000Y-106224012D01*
X134235000Y-107121633D01*
X134448483Y-107064433D01*
X134448492Y-107064429D01*
X134662578Y-106964600D01*
X134856082Y-106829105D01*
X135023105Y-106662082D01*
X135158600Y-106468578D01*
X135258429Y-106254492D01*
X135258432Y-106254486D01*
X135315636Y-106041000D01*
X134418012Y-106041000D01*
X134450925Y-105983993D01*
X134485000Y-105856826D01*
X134485000Y-105725174D01*
X134450925Y-105598007D01*
X134418012Y-105541000D01*
X135315636Y-105541000D01*
X135315635Y-105540999D01*
X135258432Y-105327513D01*
X135258429Y-105327507D01*
X135158600Y-105113422D01*
X135158599Y-105113420D01*
X135023113Y-104919926D01*
X135023108Y-104919920D01*
X134856082Y-104752894D01*
X134662578Y-104617399D01*
X134448492Y-104517570D01*
X134448486Y-104517567D01*
X134235000Y-104460364D01*
X134235000Y-105357988D01*
X134177993Y-105325075D01*
X134050826Y-105291000D01*
X133919174Y-105291000D01*
X133792007Y-105325075D01*
X133735000Y-105357988D01*
X133735000Y-104460364D01*
X133734999Y-104460364D01*
X133521513Y-104517567D01*
X133521507Y-104517570D01*
X133307422Y-104617399D01*
X133307420Y-104617400D01*
X133113926Y-104752886D01*
X133113920Y-104752891D01*
X132946891Y-104919920D01*
X132946890Y-104919922D01*
X132816880Y-105105595D01*
X132762303Y-105149219D01*
X132692804Y-105156412D01*
X132630450Y-105124890D01*
X132613730Y-105105594D01*
X132483494Y-104919597D01*
X132316402Y-104752506D01*
X132316395Y-104752501D01*
X132309891Y-104747947D01*
X132277521Y-104725281D01*
X132122834Y-104616967D01*
X132122830Y-104616965D01*
X132122828Y-104616964D01*
X131908663Y-104517097D01*
X131908659Y-104517096D01*
X131908655Y-104517094D01*
X131680413Y-104455938D01*
X131680403Y-104455936D01*
X131445001Y-104435341D01*
X131444611Y-104435341D01*
X131444445Y-104435292D01*
X131439606Y-104434869D01*
X131439691Y-104433896D01*
X131377572Y-104415656D01*
X131331817Y-104362852D01*
X131321873Y-104293694D01*
X131350898Y-104230138D01*
X131356930Y-104223660D01*
X132053467Y-103527124D01*
X134608082Y-103527124D01*
X134727840Y-103559214D01*
X134733038Y-103560729D01*
X134764271Y-103570578D01*
X134769395Y-103572318D01*
X134810326Y-103587218D01*
X134815364Y-103589178D01*
X134845584Y-103601696D01*
X134850535Y-103603874D01*
X135104086Y-103722107D01*
X135108937Y-103724499D01*
X135137958Y-103739606D01*
X135142700Y-103742208D01*
X135180424Y-103763987D01*
X135185048Y-103766792D01*
X135212664Y-103784384D01*
X135217166Y-103787393D01*
X135446346Y-103947869D01*
X135450706Y-103951065D01*
X135476665Y-103970983D01*
X135480885Y-103974370D01*
X135514252Y-104002367D01*
X135518320Y-104005935D01*
X135542458Y-104028053D01*
X135546367Y-104031795D01*
X135744196Y-104229623D01*
X135747938Y-104233531D01*
X135770038Y-104257649D01*
X135773601Y-104261712D01*
X135801602Y-104295079D01*
X135804988Y-104299298D01*
X135824925Y-104325278D01*
X135828128Y-104329646D01*
X135988604Y-104558831D01*
X135991609Y-104563328D01*
X136009192Y-104590927D01*
X136011998Y-104595550D01*
X136033778Y-104633272D01*
X136036382Y-104638020D01*
X136051497Y-104667057D01*
X136053889Y-104671907D01*
X136110082Y-104792411D01*
X136110082Y-103348097D01*
X135799096Y-103348097D01*
X135786250Y-103356681D01*
X135719573Y-103377560D01*
X135705204Y-103376983D01*
X135695531Y-103376030D01*
X135630731Y-103402872D01*
X135625052Y-103405063D01*
X135590382Y-103417468D01*
X135584604Y-103419376D01*
X135537708Y-103433602D01*
X135531841Y-103435226D01*
X135496126Y-103444172D01*
X135490189Y-103445505D01*
X135074159Y-103528262D01*
X135004568Y-103522035D01*
X134971303Y-103502499D01*
X134960338Y-103493500D01*
X134608082Y-103493500D01*
X134608082Y-103527124D01*
X132053467Y-103527124D01*
X132091254Y-103489337D01*
X133048772Y-102531819D01*
X133110095Y-102498334D01*
X133136453Y-102495500D01*
X135150608Y-102495500D01*
X135150608Y-102495499D01*
X135227361Y-102480233D01*
X135227363Y-102480233D01*
X135249556Y-102475818D01*
X135271452Y-102471463D01*
X135313003Y-102454252D01*
X135385286Y-102424312D01*
X135454915Y-102377786D01*
X135487733Y-102355858D01*
X135574858Y-102268733D01*
X135574859Y-102268731D01*
X135581925Y-102261665D01*
X135581928Y-102261661D01*
X136288729Y-101554860D01*
X136288733Y-101554858D01*
X136375858Y-101467733D01*
X136386791Y-101451371D01*
X136440403Y-101406565D01*
X136509727Y-101397856D01*
X136572755Y-101428010D01*
X136609475Y-101487453D01*
X136613894Y-101520260D01*
X136613894Y-102216401D01*
X136637929Y-102337234D01*
X136637934Y-102337251D01*
X136685079Y-102451071D01*
X136685081Y-102451074D01*
X136685082Y-102451076D01*
X136714766Y-102495500D01*
X136753535Y-102553523D01*
X136844980Y-102644968D01*
X136845002Y-102644988D01*
X137355620Y-103155606D01*
X137355649Y-103155637D01*
X137445867Y-103245855D01*
X137445871Y-103245858D01*
X137548311Y-103314307D01*
X137548317Y-103314310D01*
X137548318Y-103314311D01*
X137662152Y-103361463D01*
X137703066Y-103369601D01*
X137782995Y-103385499D01*
X137782996Y-103385500D01*
X137782997Y-103385500D01*
X137782998Y-103385500D01*
X141311548Y-103385500D01*
X141378587Y-103405185D01*
X141399229Y-103421819D01*
X142199681Y-104222271D01*
X142233166Y-104283594D01*
X142236000Y-104309952D01*
X142236000Y-105230988D01*
X142178993Y-105198075D01*
X142051826Y-105164000D01*
X141920174Y-105164000D01*
X141793007Y-105198075D01*
X141736000Y-105230988D01*
X141736000Y-104333364D01*
X141735999Y-104333364D01*
X141522513Y-104390567D01*
X141522507Y-104390570D01*
X141308422Y-104490399D01*
X141308420Y-104490400D01*
X141114926Y-104625886D01*
X140992865Y-104747947D01*
X140931542Y-104781431D01*
X140861850Y-104776447D01*
X140805917Y-104734575D01*
X140789002Y-104703598D01*
X140787164Y-104698671D01*
X140739796Y-104571669D01*
X140739795Y-104571668D01*
X140739793Y-104571664D01*
X140653547Y-104456455D01*
X140653544Y-104456452D01*
X140538335Y-104370206D01*
X140538328Y-104370202D01*
X140403482Y-104319908D01*
X140403483Y-104319908D01*
X140343883Y-104313501D01*
X140343881Y-104313500D01*
X140343873Y-104313500D01*
X140343864Y-104313500D01*
X138548129Y-104313500D01*
X138548123Y-104313501D01*
X138488516Y-104319908D01*
X138353671Y-104370202D01*
X138353664Y-104370206D01*
X138238455Y-104456452D01*
X138238452Y-104456455D01*
X138152206Y-104571664D01*
X138152202Y-104571671D01*
X138101908Y-104706517D01*
X138095501Y-104766116D01*
X138095500Y-104766135D01*
X138095500Y-106561870D01*
X138095501Y-106561876D01*
X138101908Y-106621483D01*
X138152202Y-106756328D01*
X138152206Y-106756335D01*
X138238452Y-106871544D01*
X138238455Y-106871547D01*
X138353664Y-106957793D01*
X138353671Y-106957797D01*
X138488517Y-107008091D01*
X138488516Y-107008091D01*
X138495444Y-107008835D01*
X138548127Y-107014500D01*
X140343872Y-107014499D01*
X140403483Y-107008091D01*
X140538331Y-106957796D01*
X140653546Y-106871546D01*
X140739796Y-106756331D01*
X140789002Y-106624401D01*
X140830872Y-106568468D01*
X140896337Y-106544050D01*
X140964610Y-106558901D01*
X140992865Y-106580053D01*
X141114917Y-106702105D01*
X141308421Y-106837600D01*
X141522507Y-106937429D01*
X141522516Y-106937433D01*
X141736000Y-106994634D01*
X141736000Y-106097012D01*
X141793007Y-106129925D01*
X141920174Y-106164000D01*
X142051826Y-106164000D01*
X142178993Y-106129925D01*
X142236000Y-106097012D01*
X142236000Y-106994633D01*
X142449483Y-106937433D01*
X142449492Y-106937429D01*
X142663578Y-106837600D01*
X142857082Y-106702105D01*
X143024105Y-106535082D01*
X143154119Y-106349405D01*
X143208696Y-106305781D01*
X143278195Y-106298588D01*
X143340549Y-106330110D01*
X143357269Y-106349405D01*
X143487505Y-106535401D01*
X143654599Y-106702495D01*
X143751384Y-106770265D01*
X143848165Y-106838032D01*
X143848167Y-106838033D01*
X143848170Y-106838035D01*
X144062337Y-106937903D01*
X144290592Y-106999063D01*
X144467034Y-107014500D01*
X144525999Y-107019659D01*
X144526000Y-107019659D01*
X144526001Y-107019659D01*
X144584966Y-107014500D01*
X144761408Y-106999063D01*
X144989663Y-106937903D01*
X145203830Y-106838035D01*
X145397401Y-106702495D01*
X145564495Y-106535401D01*
X145694425Y-106349842D01*
X145749002Y-106306217D01*
X145818500Y-106299023D01*
X145880855Y-106330546D01*
X145897575Y-106349842D01*
X146027500Y-106535395D01*
X146027505Y-106535401D01*
X146194599Y-106702495D01*
X146291384Y-106770265D01*
X146388165Y-106838032D01*
X146388167Y-106838033D01*
X146388170Y-106838035D01*
X146602337Y-106937903D01*
X146830592Y-106999063D01*
X147007034Y-107014500D01*
X147065999Y-107019659D01*
X147066000Y-107019659D01*
X147066001Y-107019659D01*
X147124966Y-107014500D01*
X147301408Y-106999063D01*
X147529663Y-106937903D01*
X147743830Y-106838035D01*
X147937401Y-106702495D01*
X148104495Y-106535401D01*
X148240035Y-106341830D01*
X148339903Y-106127663D01*
X148401063Y-105899408D01*
X148405552Y-105848097D01*
X149608082Y-105848097D01*
X149608082Y-106456625D01*
X151110082Y-106456251D01*
X151110082Y-105848097D01*
X149608082Y-105848097D01*
X148405552Y-105848097D01*
X148421659Y-105664000D01*
X148401063Y-105428592D01*
X148339903Y-105200337D01*
X148240035Y-104986171D01*
X148193648Y-104919922D01*
X148104494Y-104792597D01*
X147937402Y-104625506D01*
X147937395Y-104625501D01*
X147925204Y-104616965D01*
X147888019Y-104590927D01*
X147743834Y-104489967D01*
X147743830Y-104489965D01*
X147691442Y-104465536D01*
X147529663Y-104390097D01*
X147529659Y-104390096D01*
X147529655Y-104390094D01*
X147301413Y-104328938D01*
X147301403Y-104328936D01*
X147066001Y-104308341D01*
X147065999Y-104308341D01*
X146830596Y-104328936D01*
X146830586Y-104328938D01*
X146730126Y-104355856D01*
X146660276Y-104354193D01*
X146610352Y-104323762D01*
X145634687Y-103348097D01*
X149608082Y-103348097D01*
X149608082Y-104850097D01*
X151110082Y-104850097D01*
X151110082Y-104340781D01*
X150928322Y-104213512D01*
X150923958Y-104210311D01*
X150897978Y-104190375D01*
X150893756Y-104186987D01*
X150860389Y-104158986D01*
X150856326Y-104155423D01*
X150832208Y-104133323D01*
X150828300Y-104129581D01*
X150630419Y-103931700D01*
X150626677Y-103927792D01*
X150604577Y-103903674D01*
X150601014Y-103899611D01*
X150573013Y-103866244D01*
X150569625Y-103862022D01*
X150549689Y-103836042D01*
X150546488Y-103831678D01*
X150385956Y-103602415D01*
X150382950Y-103597916D01*
X150365358Y-103570302D01*
X150362549Y-103565673D01*
X150340771Y-103527949D01*
X150338171Y-103523209D01*
X150323064Y-103494188D01*
X150320672Y-103489337D01*
X150254810Y-103348097D01*
X149608082Y-103348097D01*
X145634687Y-103348097D01*
X144202198Y-101915608D01*
X144202178Y-101915586D01*
X144110735Y-101824143D01*
X144087651Y-101808719D01*
X144042105Y-101778286D01*
X144042106Y-101778286D01*
X144042104Y-101778284D01*
X144008291Y-101755690D01*
X144008286Y-101755688D01*
X143926005Y-101721606D01*
X143926005Y-101721607D01*
X143894452Y-101708537D01*
X143894447Y-101708536D01*
X143894444Y-101708535D01*
X143812171Y-101692170D01*
X143812170Y-101692170D01*
X143773611Y-101684500D01*
X143773607Y-101684500D01*
X143773606Y-101684500D01*
X139441962Y-101684500D01*
X139374923Y-101664815D01*
X139329168Y-101612011D01*
X139318641Y-101573463D01*
X139317429Y-101561931D01*
X139308445Y-101476456D01*
X139321014Y-101407732D01*
X139368746Y-101356707D01*
X139431763Y-101339499D01*
X139910008Y-101339499D01*
X139910016Y-101339498D01*
X139910019Y-101339498D01*
X139966302Y-101333748D01*
X140012797Y-101328999D01*
X140179334Y-101273814D01*
X140328656Y-101181712D01*
X140452712Y-101057656D01*
X140454461Y-101054819D01*
X140456169Y-101053283D01*
X140457193Y-101051989D01*
X140457414Y-101052163D01*
X140506406Y-101008096D01*
X140575368Y-100996872D01*
X140639451Y-101024713D01*
X140665537Y-101054817D01*
X140667288Y-101057656D01*
X140791344Y-101181712D01*
X140940666Y-101273814D01*
X141107203Y-101328999D01*
X141209991Y-101339500D01*
X141810008Y-101339499D01*
X141810016Y-101339498D01*
X141810019Y-101339498D01*
X141866302Y-101333748D01*
X141912797Y-101328999D01*
X142079334Y-101273814D01*
X142228656Y-101181712D01*
X142352712Y-101057656D01*
X142444814Y-100908334D01*
X142464775Y-100848097D01*
X144608082Y-100848097D01*
X144608082Y-100956175D01*
X144685562Y-101007945D01*
X144685644Y-101008003D01*
X145059064Y-101257522D01*
X145103868Y-101311135D01*
X145112575Y-101380460D01*
X145108832Y-101396620D01*
X145105518Y-101407544D01*
X146048071Y-102350097D01*
X146110082Y-102350097D01*
X146110082Y-100848097D01*
X147108082Y-100848097D01*
X147108082Y-102350097D01*
X148610082Y-102350097D01*
X148610082Y-100886056D01*
X148572123Y-100848097D01*
X147108082Y-100848097D01*
X146110082Y-100848097D01*
X144608082Y-100848097D01*
X142464775Y-100848097D01*
X142499999Y-100741797D01*
X142510500Y-100639009D01*
X142510499Y-99588992D01*
X142499999Y-99486203D01*
X142499998Y-99486201D01*
X142499152Y-99482248D01*
X142499339Y-99479744D01*
X142499311Y-99479468D01*
X142499360Y-99479462D01*
X142504365Y-99412574D01*
X142546420Y-99356778D01*
X142594619Y-99334999D01*
X142659803Y-99321144D01*
X142659807Y-99321142D01*
X142659808Y-99321142D01*
X142761511Y-99275860D01*
X142832730Y-99244151D01*
X142985871Y-99132888D01*
X143112533Y-98992216D01*
X143207179Y-98828284D01*
X143265674Y-98648256D01*
X143285460Y-98460000D01*
X143273699Y-98348097D01*
X144608082Y-98348097D01*
X144608082Y-99850097D01*
X146110082Y-99850097D01*
X146110082Y-98348097D01*
X144608082Y-98348097D01*
X143273699Y-98348097D01*
X143265674Y-98271744D01*
X143207179Y-98091716D01*
X143112533Y-97927784D01*
X142985871Y-97787112D01*
X142984799Y-97786333D01*
X142832734Y-97675851D01*
X142832729Y-97675848D01*
X142659807Y-97598857D01*
X142659802Y-97598855D01*
X142507453Y-97566473D01*
X142445971Y-97533281D01*
X142412195Y-97472118D01*
X142416847Y-97402403D01*
X142427694Y-97380089D01*
X142444814Y-97352334D01*
X142499999Y-97185797D01*
X142510500Y-97083009D01*
X142510499Y-96257499D01*
X142530183Y-96190461D01*
X142582987Y-96144706D01*
X142634499Y-96133500D01*
X148001147Y-96133500D01*
X148068186Y-96153185D01*
X148108534Y-96195500D01*
X148187465Y-96332214D01*
X148187467Y-96332216D01*
X148245002Y-96396115D01*
X148247649Y-96399054D01*
X148277880Y-96462046D01*
X148279500Y-96482027D01*
X148279500Y-98946607D01*
X148285885Y-98978713D01*
X148303535Y-99067444D01*
X148303537Y-99067452D01*
X148313103Y-99090546D01*
X148313103Y-99090547D01*
X148350685Y-99181281D01*
X148350687Y-99181284D01*
X148350688Y-99181286D01*
X148374046Y-99216242D01*
X148384914Y-99232507D01*
X148384915Y-99232509D01*
X148419141Y-99283733D01*
X148510586Y-99375178D01*
X148510608Y-99375198D01*
X151049762Y-101914352D01*
X151083247Y-101975675D01*
X151081856Y-102034126D01*
X151054938Y-102134586D01*
X151054936Y-102134596D01*
X151034341Y-102369999D01*
X151034341Y-102370000D01*
X151054936Y-102605403D01*
X151054938Y-102605413D01*
X151116094Y-102833655D01*
X151116096Y-102833659D01*
X151116097Y-102833663D01*
X151201200Y-103016166D01*
X151215965Y-103047830D01*
X151215967Y-103047834D01*
X151291452Y-103155637D01*
X151351505Y-103241401D01*
X151518599Y-103408495D01*
X151556775Y-103435226D01*
X151712165Y-103544032D01*
X151712167Y-103544033D01*
X151712170Y-103544035D01*
X151926337Y-103643903D01*
X151926343Y-103643904D01*
X151926344Y-103643905D01*
X151981285Y-103658626D01*
X152154592Y-103705063D01*
X152342918Y-103721539D01*
X152389999Y-103725659D01*
X152390000Y-103725659D01*
X152390001Y-103725659D01*
X152430599Y-103722107D01*
X152625408Y-103705063D01*
X152853663Y-103643903D01*
X153067830Y-103544035D01*
X153261401Y-103408495D01*
X153428495Y-103241401D01*
X153564035Y-103047830D01*
X153663903Y-102833663D01*
X153725063Y-102605408D01*
X153745659Y-102370000D01*
X153725063Y-102134592D01*
X153663903Y-101906337D01*
X153593654Y-101755688D01*
X153564035Y-101692170D01*
X153564034Y-101692169D01*
X153428494Y-101498597D01*
X153261402Y-101331506D01*
X153261396Y-101331501D01*
X153075842Y-101201575D01*
X153032217Y-101146998D01*
X153025023Y-101077500D01*
X153056546Y-101015145D01*
X153075842Y-100998425D01*
X153236321Y-100886056D01*
X153261401Y-100868495D01*
X153428495Y-100701401D01*
X153564035Y-100507830D01*
X153663903Y-100293663D01*
X153725063Y-100065408D01*
X153745659Y-99830000D01*
X153725063Y-99594592D01*
X153663903Y-99366337D01*
X153564035Y-99152171D01*
X153504715Y-99067452D01*
X153428494Y-98958597D01*
X153261402Y-98791506D01*
X153261401Y-98791505D01*
X153075405Y-98661269D01*
X153031781Y-98606692D01*
X153024588Y-98537193D01*
X153056110Y-98474839D01*
X153075405Y-98458119D01*
X153261082Y-98328105D01*
X153428105Y-98161082D01*
X153563600Y-97967578D01*
X153663429Y-97753492D01*
X153663432Y-97753486D01*
X153720636Y-97540000D01*
X152823012Y-97540000D01*
X152855925Y-97482993D01*
X152890000Y-97355826D01*
X152890000Y-97224174D01*
X152855925Y-97097007D01*
X152823012Y-97040000D01*
X153720636Y-97040000D01*
X153720635Y-97039999D01*
X153663432Y-96826513D01*
X153663429Y-96826507D01*
X153563600Y-96612422D01*
X153563599Y-96612420D01*
X153428113Y-96418926D01*
X153428108Y-96418920D01*
X153306053Y-96296865D01*
X153272568Y-96235542D01*
X153277552Y-96165850D01*
X153319424Y-96109917D01*
X153350400Y-96093002D01*
X153482331Y-96043796D01*
X153597546Y-95957546D01*
X153683796Y-95842331D01*
X153734091Y-95707483D01*
X153740500Y-95647873D01*
X153740499Y-93852128D01*
X153734091Y-93792517D01*
X153726756Y-93772852D01*
X153683797Y-93657671D01*
X153683793Y-93657664D01*
X153597547Y-93542455D01*
X153597544Y-93542452D01*
X153482335Y-93456206D01*
X153482328Y-93456202D01*
X153347482Y-93405908D01*
X153347483Y-93405908D01*
X153287883Y-93399501D01*
X153287881Y-93399500D01*
X153287873Y-93399500D01*
X153287864Y-93399500D01*
X151492129Y-93399500D01*
X151492123Y-93399501D01*
X151432516Y-93405908D01*
X151297671Y-93456202D01*
X151297664Y-93456206D01*
X151182455Y-93542452D01*
X151182452Y-93542455D01*
X151096206Y-93657664D01*
X151096202Y-93657671D01*
X151045908Y-93792517D01*
X151042015Y-93828731D01*
X151039501Y-93852123D01*
X151039500Y-93852135D01*
X151039500Y-95647870D01*
X151039501Y-95647876D01*
X151045908Y-95707483D01*
X151096202Y-95842328D01*
X151096206Y-95842335D01*
X151182452Y-95957544D01*
X151182455Y-95957547D01*
X151297664Y-96043793D01*
X151297671Y-96043797D01*
X151297674Y-96043798D01*
X151429598Y-96093002D01*
X151485531Y-96134873D01*
X151509949Y-96200337D01*
X151495098Y-96268610D01*
X151473947Y-96296865D01*
X151351886Y-96418926D01*
X151216400Y-96612420D01*
X151216399Y-96612422D01*
X151116570Y-96826507D01*
X151116567Y-96826513D01*
X151059364Y-97039999D01*
X151059364Y-97040000D01*
X151956988Y-97040000D01*
X151924075Y-97097007D01*
X151890000Y-97224174D01*
X151890000Y-97355826D01*
X151924075Y-97482993D01*
X151956988Y-97540000D01*
X151059363Y-97540000D01*
X151051853Y-97549787D01*
X150995425Y-97590990D01*
X150929290Y-97595918D01*
X150896771Y-97589450D01*
X150882029Y-97586518D01*
X150821610Y-97574500D01*
X150821607Y-97574500D01*
X150821606Y-97574500D01*
X150333748Y-97574500D01*
X150266709Y-97554815D01*
X150241600Y-97533474D01*
X150235873Y-97527114D01*
X150235869Y-97527110D01*
X150082734Y-97415851D01*
X150082729Y-97415848D01*
X149909807Y-97338857D01*
X149909802Y-97338855D01*
X149764001Y-97307865D01*
X149724646Y-97299500D01*
X149654500Y-97299500D01*
X149587461Y-97279815D01*
X149541706Y-97227011D01*
X149530500Y-97175500D01*
X149530500Y-96515346D01*
X149550185Y-96448307D01*
X149562350Y-96432374D01*
X149594997Y-96396115D01*
X149652533Y-96332216D01*
X149747179Y-96168284D01*
X149805674Y-95988256D01*
X149825460Y-95800000D01*
X149805674Y-95611744D01*
X149747179Y-95431716D01*
X149652533Y-95267784D01*
X149525871Y-95127112D01*
X149524536Y-95126142D01*
X149372734Y-95015851D01*
X149372729Y-95015848D01*
X149199807Y-94938857D01*
X149199803Y-94938856D01*
X149114694Y-94920765D01*
X149053213Y-94887572D01*
X149019436Y-94826409D01*
X149024090Y-94756694D01*
X149052793Y-94711796D01*
X150842771Y-92921819D01*
X150904094Y-92888334D01*
X150930452Y-92885500D01*
X154181607Y-92885500D01*
X154181607Y-92885499D01*
X154251805Y-92871537D01*
X154321396Y-92877764D01*
X154376574Y-92920627D01*
X154399818Y-92986517D01*
X154399996Y-92993154D01*
X154399996Y-103370683D01*
X154386905Y-103426137D01*
X152344259Y-107511428D01*
X152296672Y-107562587D01*
X152233381Y-107579974D01*
X112148419Y-107589937D01*
X112081374Y-107570269D01*
X112043500Y-107532078D01*
X110396307Y-104919926D01*
X109419030Y-103370140D01*
X109399919Y-103304268D01*
X109374136Y-91204998D01*
X114452704Y-91204998D01*
X114452705Y-91205000D01*
X115500000Y-91205000D01*
X115500000Y-90435000D01*
X116000000Y-90435000D01*
X116000000Y-91205000D01*
X117047295Y-91205000D01*
X117047295Y-91204998D01*
X117047100Y-91202513D01*
X117001281Y-91044801D01*
X116917685Y-90903447D01*
X116912900Y-90897278D01*
X116915252Y-90895453D01*
X116888445Y-90846405D01*
X116893402Y-90776712D01*
X116914465Y-90743936D01*
X116912900Y-90742722D01*
X116917685Y-90736552D01*
X117001281Y-90595198D01*
X117047100Y-90437486D01*
X117047295Y-90435001D01*
X117047295Y-90435000D01*
X116000000Y-90435000D01*
X115500000Y-90435000D01*
X114452705Y-90435000D01*
X114452704Y-90435001D01*
X114452899Y-90437486D01*
X114498718Y-90595198D01*
X114582314Y-90736552D01*
X114587100Y-90742722D01*
X114584753Y-90744542D01*
X114611564Y-90793642D01*
X114606580Y-90863334D01*
X114585541Y-90896069D01*
X114587100Y-90897278D01*
X114582314Y-90903447D01*
X114498718Y-91044801D01*
X114452899Y-91202513D01*
X114452704Y-91204998D01*
X109374136Y-91204998D01*
X109370971Y-89720000D01*
X110274341Y-89720000D01*
X110294936Y-89955403D01*
X110294938Y-89955413D01*
X110356094Y-90183655D01*
X110356096Y-90183659D01*
X110356097Y-90183663D01*
X110435760Y-90354500D01*
X110455965Y-90397830D01*
X110455967Y-90397834D01*
X110541159Y-90519500D01*
X110591505Y-90591401D01*
X110758599Y-90758495D01*
X110836917Y-90813334D01*
X110952165Y-90894032D01*
X110952167Y-90894033D01*
X110952170Y-90894035D01*
X111166337Y-90993903D01*
X111166343Y-90993904D01*
X111166344Y-90993905D01*
X111203415Y-91003838D01*
X111394592Y-91055063D01*
X111582918Y-91071539D01*
X111629999Y-91075659D01*
X111630000Y-91075659D01*
X111630001Y-91075659D01*
X111669234Y-91072226D01*
X111865408Y-91055063D01*
X112093663Y-90993903D01*
X112307830Y-90894035D01*
X112501401Y-90758495D01*
X112668495Y-90591401D01*
X112804035Y-90397830D01*
X112903903Y-90183663D01*
X112965063Y-89955408D01*
X112966849Y-89934998D01*
X114452704Y-89934998D01*
X114452705Y-89935000D01*
X115500000Y-89935000D01*
X115500000Y-89165000D01*
X116000000Y-89165000D01*
X116000000Y-89935000D01*
X117047295Y-89935000D01*
X117047295Y-89934998D01*
X117047100Y-89932513D01*
X117001281Y-89774801D01*
X116917685Y-89633447D01*
X116912900Y-89627278D01*
X116915252Y-89625453D01*
X116888445Y-89576405D01*
X116890323Y-89550000D01*
X117975235Y-89550000D01*
X118012582Y-89678546D01*
X118014192Y-89684666D01*
X118022984Y-89721929D01*
X118024280Y-89728124D01*
X118033439Y-89778268D01*
X118034417Y-89784525D01*
X118039368Y-89822519D01*
X118040026Y-89828816D01*
X118041700Y-89850097D01*
X118556500Y-89850097D01*
X118556500Y-88753873D01*
X118556650Y-88747785D01*
X118558459Y-88710982D01*
X118558907Y-88704907D01*
X118563718Y-88656095D01*
X118564464Y-88650050D01*
X118569877Y-88613587D01*
X118570920Y-88607582D01*
X118576225Y-88580937D01*
X118592796Y-88497619D01*
X118592797Y-88497614D01*
X118604497Y-88438800D01*
X118605830Y-88432864D01*
X118610082Y-88415889D01*
X118610082Y-88348097D01*
X117995020Y-88348097D01*
X118012582Y-88408546D01*
X118014192Y-88414666D01*
X118022984Y-88451929D01*
X118024280Y-88458124D01*
X118033439Y-88508268D01*
X118034417Y-88514525D01*
X118039368Y-88552519D01*
X118040026Y-88558816D01*
X118058778Y-88797160D01*
X118052315Y-88847514D01*
X118028911Y-88915000D01*
X118052315Y-88982486D01*
X118058778Y-89032840D01*
X118040026Y-89271184D01*
X118039368Y-89277481D01*
X118034417Y-89315475D01*
X118033439Y-89321732D01*
X118024280Y-89371876D01*
X118022984Y-89378071D01*
X118014192Y-89415334D01*
X118012582Y-89421454D01*
X117975235Y-89550000D01*
X116890323Y-89550000D01*
X116893402Y-89506712D01*
X116914465Y-89473936D01*
X116912900Y-89472722D01*
X116917685Y-89466552D01*
X117001281Y-89325198D01*
X117047100Y-89167486D01*
X117047295Y-89165001D01*
X117047295Y-89165000D01*
X116000000Y-89165000D01*
X115500000Y-89165000D01*
X114452705Y-89165000D01*
X114452704Y-89165001D01*
X114452899Y-89167486D01*
X114498718Y-89325198D01*
X114582314Y-89466552D01*
X114587100Y-89472722D01*
X114584753Y-89474542D01*
X114611564Y-89523642D01*
X114606580Y-89593334D01*
X114585541Y-89626069D01*
X114587100Y-89627278D01*
X114582314Y-89633447D01*
X114498718Y-89774801D01*
X114452899Y-89932513D01*
X114452704Y-89934998D01*
X112966849Y-89934998D01*
X112985659Y-89720000D01*
X112965063Y-89484592D01*
X112916715Y-89304151D01*
X112903905Y-89256344D01*
X112903904Y-89256343D01*
X112903903Y-89256337D01*
X112804035Y-89042171D01*
X112797501Y-89032840D01*
X112668496Y-88848600D01*
X112617056Y-88797160D01*
X112546179Y-88726283D01*
X112512715Y-88664998D01*
X114452704Y-88664998D01*
X114452705Y-88665000D01*
X115500000Y-88665000D01*
X115500000Y-88115000D01*
X116000000Y-88115000D01*
X116000000Y-88665000D01*
X117047295Y-88665000D01*
X117047295Y-88664998D01*
X117047100Y-88662513D01*
X117001281Y-88504801D01*
X116917685Y-88363447D01*
X116917678Y-88363438D01*
X116801561Y-88247321D01*
X116801552Y-88247314D01*
X116660196Y-88163717D01*
X116660193Y-88163716D01*
X116502495Y-88117900D01*
X116502489Y-88117899D01*
X116465649Y-88115000D01*
X116000000Y-88115000D01*
X115500000Y-88115000D01*
X115034350Y-88115000D01*
X114997510Y-88117899D01*
X114997504Y-88117900D01*
X114839806Y-88163716D01*
X114839803Y-88163717D01*
X114698447Y-88247314D01*
X114698438Y-88247321D01*
X114582321Y-88363438D01*
X114582314Y-88363447D01*
X114498718Y-88504801D01*
X114452899Y-88662513D01*
X114452704Y-88664998D01*
X112512715Y-88664998D01*
X112512696Y-88664963D01*
X112517680Y-88595271D01*
X112559551Y-88539337D01*
X112590529Y-88522422D01*
X112722086Y-88473354D01*
X112722093Y-88473350D01*
X112837187Y-88387190D01*
X112837190Y-88387187D01*
X112923350Y-88272093D01*
X112923354Y-88272086D01*
X112973596Y-88137379D01*
X112973598Y-88137372D01*
X112979999Y-88077844D01*
X112980000Y-88077827D01*
X112980000Y-87430000D01*
X112063012Y-87430000D01*
X112095925Y-87372993D01*
X112123102Y-87271569D01*
X117108082Y-87271569D01*
X117134401Y-87284981D01*
X117141224Y-87288732D01*
X117244987Y-87350097D01*
X118610082Y-87350097D01*
X118610082Y-85848097D01*
X119608082Y-85848097D01*
X119608082Y-87115943D01*
X119712902Y-87011123D01*
X119717311Y-87006925D01*
X119744598Y-86982194D01*
X119749205Y-86978220D01*
X119787081Y-86947136D01*
X119791878Y-86943392D01*
X119821437Y-86921469D01*
X119826408Y-86917968D01*
X119850798Y-86901669D01*
X119850805Y-86901664D01*
X119969622Y-86822274D01*
X119974760Y-86819021D01*
X120006327Y-86800099D01*
X120011620Y-86797100D01*
X120054839Y-86773996D01*
X120060280Y-86771257D01*
X120093584Y-86755505D01*
X120099149Y-86753038D01*
X120258268Y-86687128D01*
X120263948Y-86684937D01*
X120298619Y-86672532D01*
X120304397Y-86670623D01*
X120351291Y-86656398D01*
X120357155Y-86654776D01*
X120361186Y-86653766D01*
X120360499Y-86652313D01*
X120358032Y-86646747D01*
X120308779Y-86527838D01*
X120292135Y-86487658D01*
X120289945Y-86481980D01*
X120277535Y-86447299D01*
X120275624Y-86441515D01*
X120261397Y-86394612D01*
X120259774Y-86388750D01*
X120250826Y-86353029D01*
X120249493Y-86347089D01*
X120215895Y-86178176D01*
X120214854Y-86172179D01*
X120209451Y-86135754D01*
X120208706Y-86129713D01*
X120203903Y-86080944D01*
X120203455Y-86074873D01*
X120201649Y-86038098D01*
X120201500Y-86032016D01*
X120201500Y-85848097D01*
X119608082Y-85848097D01*
X118610082Y-85848097D01*
X118403459Y-85848097D01*
X118391964Y-85875848D01*
X118389496Y-85881417D01*
X118373743Y-85914721D01*
X118371006Y-85920158D01*
X118347902Y-85963378D01*
X118344902Y-85968672D01*
X118325980Y-86000239D01*
X118322727Y-86005377D01*
X118227054Y-86148563D01*
X118223548Y-86153541D01*
X118201614Y-86183115D01*
X118197872Y-86187909D01*
X118166783Y-86225793D01*
X118162807Y-86230404D01*
X118138075Y-86257692D01*
X118133877Y-86262101D01*
X117829227Y-86566747D01*
X117761135Y-86681886D01*
X117756963Y-86688461D01*
X117730471Y-86727445D01*
X117725891Y-86733748D01*
X117687436Y-86783325D01*
X117682470Y-86789328D01*
X117651292Y-86824693D01*
X117645959Y-86830372D01*
X117485372Y-86990959D01*
X117479693Y-86996292D01*
X117444328Y-87027470D01*
X117438325Y-87032436D01*
X117388748Y-87070891D01*
X117382445Y-87075471D01*
X117343461Y-87101963D01*
X117336886Y-87106135D01*
X117141423Y-87221731D01*
X117134599Y-87225483D01*
X117108082Y-87238994D01*
X117108082Y-87271569D01*
X112123102Y-87271569D01*
X112130000Y-87245826D01*
X112130000Y-87114174D01*
X112095925Y-86987007D01*
X112063012Y-86930000D01*
X112980000Y-86930000D01*
X112980000Y-86282172D01*
X112979999Y-86282155D01*
X112973598Y-86222627D01*
X112973596Y-86222620D01*
X112923354Y-86087913D01*
X112923350Y-86087906D01*
X112837190Y-85972812D01*
X112837187Y-85972809D01*
X112722093Y-85886649D01*
X112722086Y-85886645D01*
X112587379Y-85836403D01*
X112587372Y-85836401D01*
X112527844Y-85830000D01*
X111880000Y-85830000D01*
X111880000Y-86746988D01*
X111822993Y-86714075D01*
X111695826Y-86680000D01*
X111564174Y-86680000D01*
X111437007Y-86714075D01*
X111380000Y-86746988D01*
X111380000Y-85830000D01*
X110732155Y-85830000D01*
X110672627Y-85836401D01*
X110672620Y-85836403D01*
X110537913Y-85886645D01*
X110537906Y-85886649D01*
X110422812Y-85972809D01*
X110422809Y-85972812D01*
X110336649Y-86087906D01*
X110336645Y-86087913D01*
X110286403Y-86222620D01*
X110286401Y-86222627D01*
X110280000Y-86282155D01*
X110280000Y-86930000D01*
X111196988Y-86930000D01*
X111164075Y-86987007D01*
X111130000Y-87114174D01*
X111130000Y-87245826D01*
X111164075Y-87372993D01*
X111196988Y-87430000D01*
X110280000Y-87430000D01*
X110280000Y-88077844D01*
X110286401Y-88137372D01*
X110286403Y-88137379D01*
X110336645Y-88272086D01*
X110336649Y-88272093D01*
X110422809Y-88387187D01*
X110422812Y-88387190D01*
X110537906Y-88473350D01*
X110537913Y-88473354D01*
X110669470Y-88522421D01*
X110725403Y-88564292D01*
X110749821Y-88629756D01*
X110734970Y-88698029D01*
X110713819Y-88726284D01*
X110591503Y-88848600D01*
X110455965Y-89042169D01*
X110455964Y-89042171D01*
X110356098Y-89256335D01*
X110356094Y-89256344D01*
X110294938Y-89484586D01*
X110294936Y-89484596D01*
X110274341Y-89719999D01*
X110274341Y-89720000D01*
X109370971Y-89720000D01*
X109362640Y-85810701D01*
X114449500Y-85810701D01*
X114452401Y-85847567D01*
X114452402Y-85847573D01*
X114498254Y-86005393D01*
X114498255Y-86005396D01*
X114498256Y-86005398D01*
X114509105Y-86023743D01*
X114581917Y-86146862D01*
X114581923Y-86146870D01*
X114698129Y-86263076D01*
X114698133Y-86263079D01*
X114698135Y-86263081D01*
X114839602Y-86346744D01*
X114861235Y-86353029D01*
X114997426Y-86392597D01*
X114997429Y-86392597D01*
X114997431Y-86392598D01*
X115034306Y-86395500D01*
X115034314Y-86395500D01*
X116465686Y-86395500D01*
X116465694Y-86395500D01*
X116502569Y-86392598D01*
X116502571Y-86392597D01*
X116502573Y-86392597D01*
X116576000Y-86371264D01*
X116660398Y-86346744D01*
X116801865Y-86263081D01*
X116918081Y-86146865D01*
X117001744Y-86005398D01*
X117002095Y-86004188D01*
X117002736Y-86003104D01*
X117004844Y-85998235D01*
X117005458Y-85998501D01*
X117033489Y-85951101D01*
X117410858Y-85573733D01*
X117479312Y-85471285D01*
X117484244Y-85459376D01*
X117512985Y-85389992D01*
X117526461Y-85357456D01*
X117526463Y-85357452D01*
X117530792Y-85335689D01*
X117550501Y-85236606D01*
X117550501Y-85113393D01*
X117550501Y-85108283D01*
X117550500Y-85108257D01*
X117550500Y-84134500D01*
X117570185Y-84067461D01*
X117622989Y-84021706D01*
X117674500Y-84010500D01*
X117724644Y-84010500D01*
X117724646Y-84010500D01*
X117909803Y-83971144D01*
X118082730Y-83894151D01*
X118235871Y-83782888D01*
X118362533Y-83642216D01*
X118457179Y-83478284D01*
X118515674Y-83298256D01*
X118535460Y-83110000D01*
X118515674Y-82921744D01*
X118457179Y-82741716D01*
X118362533Y-82577784D01*
X118235871Y-82437112D01*
X118219148Y-82424962D01*
X118082734Y-82325851D01*
X118082729Y-82325848D01*
X117909807Y-82248857D01*
X117909802Y-82248855D01*
X117764001Y-82217865D01*
X117724646Y-82209500D01*
X117535354Y-82209500D01*
X117502897Y-82216398D01*
X117350197Y-82248855D01*
X117350192Y-82248857D01*
X117175579Y-82326601D01*
X117106329Y-82335886D01*
X117043052Y-82306258D01*
X117005839Y-82247123D01*
X117006067Y-82178727D01*
X117047099Y-82037494D01*
X117047100Y-82037488D01*
X117047295Y-82035001D01*
X117047295Y-82035000D01*
X114452705Y-82035000D01*
X114452704Y-82035001D01*
X114452899Y-82037486D01*
X114498718Y-82195198D01*
X114582314Y-82336552D01*
X114587100Y-82342722D01*
X114584640Y-82344629D01*
X114611210Y-82393288D01*
X114606226Y-82462980D01*
X114585162Y-82495781D01*
X114586699Y-82496974D01*
X114581915Y-82503140D01*
X114498255Y-82644603D01*
X114498254Y-82644606D01*
X114452402Y-82802426D01*
X114452401Y-82802432D01*
X114449500Y-82839298D01*
X114449500Y-83270701D01*
X114452401Y-83307567D01*
X114452402Y-83307573D01*
X114498254Y-83465393D01*
X114498255Y-83465396D01*
X114581917Y-83606862D01*
X114586702Y-83613031D01*
X114584369Y-83614840D01*
X114611210Y-83663995D01*
X114606226Y-83733687D01*
X114585470Y-83766021D01*
X114587097Y-83767283D01*
X114582313Y-83773449D01*
X114498718Y-83914801D01*
X114452899Y-84072513D01*
X114452704Y-84074998D01*
X114452705Y-84075000D01*
X115876000Y-84075000D01*
X115943039Y-84094685D01*
X115988794Y-84147489D01*
X116000000Y-84199000D01*
X116000000Y-84451000D01*
X115980315Y-84518039D01*
X115927511Y-84563794D01*
X115876000Y-84575000D01*
X114452705Y-84575000D01*
X114452704Y-84575001D01*
X114452899Y-84577486D01*
X114498718Y-84735198D01*
X114582314Y-84876552D01*
X114587100Y-84882722D01*
X114584640Y-84884629D01*
X114611210Y-84933288D01*
X114606226Y-85002980D01*
X114585162Y-85035781D01*
X114586699Y-85036974D01*
X114581915Y-85043140D01*
X114498255Y-85184603D01*
X114498254Y-85184606D01*
X114452402Y-85342426D01*
X114452401Y-85342432D01*
X114449500Y-85379298D01*
X114449500Y-85810701D01*
X109362640Y-85810701D01*
X109360082Y-84610340D01*
X109379624Y-84543260D01*
X109383711Y-84537264D01*
X109385722Y-84534492D01*
X110246381Y-83348097D01*
X112108082Y-83348097D01*
X112108082Y-84832000D01*
X112541177Y-84832000D01*
X112544491Y-84832044D01*
X112564539Y-84832580D01*
X112567855Y-84832713D01*
X112594542Y-84834142D01*
X112597856Y-84834364D01*
X112617905Y-84835977D01*
X112621217Y-84836289D01*
X112725069Y-84847455D01*
X112732739Y-84848522D01*
X112741938Y-84850097D01*
X113492833Y-84850097D01*
X113487417Y-84831453D01*
X113485808Y-84825334D01*
X113477016Y-84788071D01*
X113475720Y-84781876D01*
X113466561Y-84731732D01*
X113465583Y-84725475D01*
X113460632Y-84687481D01*
X113459974Y-84681184D01*
X113441222Y-84442840D01*
X113447684Y-84392487D01*
X113471087Y-84325000D01*
X113447684Y-84257513D01*
X113441222Y-84207160D01*
X113459974Y-83968816D01*
X113460632Y-83962519D01*
X113465583Y-83924525D01*
X113466561Y-83918268D01*
X113475720Y-83868124D01*
X113477016Y-83861929D01*
X113485808Y-83824666D01*
X113487417Y-83818547D01*
X113524502Y-83690893D01*
X113486921Y-83561535D01*
X113485310Y-83555414D01*
X113476518Y-83518149D01*
X113475223Y-83511957D01*
X113466064Y-83461817D01*
X113465086Y-83455561D01*
X113460135Y-83417574D01*
X113459477Y-83411276D01*
X113454505Y-83348097D01*
X112108082Y-83348097D01*
X110246381Y-83348097D01*
X110970371Y-82350097D01*
X112358984Y-82350097D01*
X113504454Y-82350097D01*
X113487417Y-82291453D01*
X113485808Y-82285334D01*
X113477016Y-82248071D01*
X113475720Y-82241876D01*
X113466561Y-82191732D01*
X113465583Y-82185475D01*
X113460632Y-82147481D01*
X113459974Y-82141184D01*
X113441222Y-81902840D01*
X113447684Y-81852487D01*
X113471087Y-81785000D01*
X113450863Y-81726683D01*
X112812276Y-81725245D01*
X112358984Y-82350097D01*
X110970371Y-82350097D01*
X111561677Y-81534998D01*
X114452704Y-81534998D01*
X114452705Y-81535000D01*
X115500000Y-81535000D01*
X115500000Y-80985000D01*
X116000000Y-80985000D01*
X116000000Y-81535000D01*
X117047295Y-81535000D01*
X117047295Y-81534998D01*
X121652704Y-81534998D01*
X121652705Y-81535000D01*
X122700000Y-81535000D01*
X122700000Y-80985000D01*
X123200000Y-80985000D01*
X123200000Y-81535000D01*
X124247295Y-81535000D01*
X124247295Y-81534998D01*
X124247100Y-81532513D01*
X124201281Y-81374801D01*
X124117685Y-81233447D01*
X124117678Y-81233438D01*
X124001561Y-81117321D01*
X124001552Y-81117314D01*
X123860196Y-81033717D01*
X123860193Y-81033716D01*
X123702495Y-80987900D01*
X123702489Y-80987899D01*
X123665649Y-80985000D01*
X123200000Y-80985000D01*
X122700000Y-80985000D01*
X122234350Y-80985000D01*
X122197510Y-80987899D01*
X122197504Y-80987900D01*
X122039806Y-81033716D01*
X122039803Y-81033717D01*
X121898447Y-81117314D01*
X121898438Y-81117321D01*
X121782321Y-81233438D01*
X121782314Y-81233447D01*
X121698718Y-81374801D01*
X121652899Y-81532513D01*
X121652704Y-81534998D01*
X117047295Y-81534998D01*
X117047100Y-81532513D01*
X117001281Y-81374801D01*
X116917685Y-81233447D01*
X116917678Y-81233438D01*
X116801561Y-81117321D01*
X116801552Y-81117314D01*
X116660196Y-81033717D01*
X116660193Y-81033716D01*
X116502495Y-80987900D01*
X116502489Y-80987899D01*
X116465649Y-80985000D01*
X116000000Y-80985000D01*
X115500000Y-80985000D01*
X115034350Y-80985000D01*
X114997510Y-80987899D01*
X114997504Y-80987900D01*
X114839806Y-81033716D01*
X114839803Y-81033717D01*
X114698447Y-81117314D01*
X114698438Y-81117321D01*
X114582321Y-81233438D01*
X114582314Y-81233447D01*
X114498718Y-81374801D01*
X114452899Y-81532513D01*
X114452704Y-81534998D01*
X111561677Y-81534998D01*
X112202760Y-80651282D01*
X112258058Y-80608578D01*
X112303404Y-80600097D01*
X125181162Y-80629094D01*
G37*
%TD.AperFunction*%
%TA.AperFunction,Conductor*%
G36*
X119733834Y-99423269D02*
G01*
X119789767Y-99465141D01*
X119814184Y-99530605D01*
X119814500Y-99539451D01*
X119814500Y-101134545D01*
X119794815Y-101201584D01*
X119742011Y-101247339D01*
X119703103Y-101257903D01*
X119653202Y-101263001D01*
X119653200Y-101263001D01*
X119486668Y-101318185D01*
X119486663Y-101318187D01*
X119337342Y-101410289D01*
X119213289Y-101534342D01*
X119121187Y-101683663D01*
X119121185Y-101683668D01*
X119097320Y-101755688D01*
X119066001Y-101850203D01*
X119066001Y-101850204D01*
X119066000Y-101850204D01*
X119055500Y-101952983D01*
X119055500Y-101952991D01*
X119055500Y-102424313D01*
X119055501Y-102778500D01*
X119035817Y-102845539D01*
X118983013Y-102891294D01*
X118931501Y-102902500D01*
X118712000Y-102902500D01*
X118644961Y-102882815D01*
X118599206Y-102830011D01*
X118588000Y-102778500D01*
X118588000Y-102703000D01*
X117449500Y-102703000D01*
X117382461Y-102683315D01*
X117336706Y-102630511D01*
X117325500Y-102579000D01*
X117325500Y-102327000D01*
X117345185Y-102259961D01*
X117397989Y-102214206D01*
X117449500Y-102203000D01*
X118587999Y-102203000D01*
X118587999Y-101953028D01*
X118587998Y-101953013D01*
X118577505Y-101850302D01*
X118522358Y-101683880D01*
X118522356Y-101683875D01*
X118430315Y-101534654D01*
X118306345Y-101410684D01*
X118157124Y-101318643D01*
X118157119Y-101318641D01*
X118031603Y-101277049D01*
X117974158Y-101237276D01*
X117947335Y-101172760D01*
X117959650Y-101103984D01*
X117982921Y-101071668D01*
X119602819Y-99451769D01*
X119664142Y-99418285D01*
X119733834Y-99423269D01*
G37*
%TD.AperFunction*%
%TA.AperFunction,Conductor*%
G36*
X123755834Y-99627269D02*
G01*
X123811767Y-99669141D01*
X123836184Y-99734605D01*
X123836500Y-99743451D01*
X123836500Y-102517547D01*
X123816815Y-102584586D01*
X123800181Y-102605228D01*
X123539229Y-102866181D01*
X123477906Y-102899666D01*
X123451548Y-102902500D01*
X123030000Y-102902500D01*
X122962961Y-102882815D01*
X122917206Y-102830011D01*
X122906000Y-102778500D01*
X122906000Y-102703000D01*
X121767500Y-102703000D01*
X121700461Y-102683315D01*
X121654706Y-102630511D01*
X121643500Y-102579000D01*
X121643500Y-101253000D01*
X122143500Y-101253000D01*
X122143500Y-102203000D01*
X122905999Y-102203000D01*
X122905999Y-101953028D01*
X122905998Y-101953013D01*
X122895505Y-101850302D01*
X122840358Y-101683880D01*
X122840356Y-101683875D01*
X122748315Y-101534654D01*
X122624345Y-101410684D01*
X122475124Y-101318643D01*
X122475119Y-101318641D01*
X122308697Y-101263494D01*
X122308690Y-101263493D01*
X122205986Y-101253000D01*
X122143500Y-101253000D01*
X121643500Y-101253000D01*
X121643499Y-101252999D01*
X121581028Y-101253000D01*
X121581011Y-101253001D01*
X121478302Y-101263494D01*
X121311880Y-101318641D01*
X121311871Y-101318645D01*
X121254596Y-101353973D01*
X121187203Y-101372413D01*
X121120540Y-101351490D01*
X121075771Y-101297848D01*
X121065500Y-101248434D01*
X121065500Y-100578499D01*
X121085185Y-100511460D01*
X121137989Y-100465705D01*
X121189500Y-100454499D01*
X122700888Y-100454499D01*
X122813151Y-100439720D01*
X122813150Y-100439720D01*
X122813159Y-100439719D01*
X122952853Y-100381856D01*
X123072810Y-100289810D01*
X123164856Y-100169853D01*
X123193685Y-100100252D01*
X123220565Y-100060025D01*
X123222858Y-100057733D01*
X123222859Y-100057731D01*
X123229919Y-100050671D01*
X123229925Y-100050663D01*
X123624820Y-99655769D01*
X123686142Y-99622285D01*
X123755834Y-99627269D01*
G37*
%TD.AperFunction*%
%TA.AperFunction,Conductor*%
G36*
X136850701Y-91945738D02*
G01*
X136857180Y-91951770D01*
X137168181Y-92262771D01*
X137201666Y-92324094D01*
X137204500Y-92350452D01*
X137204500Y-95259852D01*
X137184815Y-95326891D01*
X137168181Y-95347533D01*
X136791690Y-95724023D01*
X136730367Y-95757508D01*
X136660675Y-95752524D01*
X136611860Y-95719315D01*
X136600877Y-95707117D01*
X136600869Y-95707110D01*
X136447734Y-95595851D01*
X136447729Y-95595848D01*
X136341941Y-95548748D01*
X136288704Y-95503498D01*
X136268383Y-95436649D01*
X136287428Y-95369425D01*
X136339795Y-95323170D01*
X136341941Y-95322190D01*
X136448591Y-95274706D01*
X136601732Y-95163443D01*
X136728394Y-95022771D01*
X136823040Y-94858839D01*
X136881535Y-94678811D01*
X136901321Y-94490555D01*
X136881535Y-94302299D01*
X136823040Y-94122271D01*
X136728394Y-93958339D01*
X136677348Y-93901647D01*
X136647119Y-93838657D01*
X136645499Y-93818687D01*
X136645499Y-93361440D01*
X136644386Y-93352988D01*
X136630849Y-93250153D01*
X136630848Y-93250152D01*
X136630848Y-93250146D01*
X136630845Y-93250140D01*
X136628745Y-93242300D01*
X136630461Y-93241840D01*
X136624065Y-93182326D01*
X136628386Y-93167613D01*
X136628257Y-93167579D01*
X136630360Y-93159729D01*
X136644148Y-93055000D01*
X136591155Y-93055000D01*
X136524116Y-93035315D01*
X136492779Y-93006486D01*
X136482244Y-92992756D01*
X136365760Y-92903375D01*
X136324558Y-92846948D01*
X136320403Y-92777202D01*
X136354615Y-92716282D01*
X136365756Y-92706627D01*
X136482244Y-92617244D01*
X136492779Y-92603513D01*
X136549207Y-92562311D01*
X136591155Y-92555000D01*
X136644148Y-92555000D01*
X136630360Y-92450271D01*
X136628257Y-92442422D01*
X136630324Y-92441868D01*
X136624065Y-92383633D01*
X136628768Y-92367615D01*
X136630847Y-92359858D01*
X136630990Y-92358776D01*
X136645500Y-92248561D01*
X136645499Y-92039450D01*
X136665183Y-91972412D01*
X136717987Y-91926657D01*
X136787145Y-91916713D01*
X136850701Y-91945738D01*
G37*
%TD.AperFunction*%
%TA.AperFunction,Conductor*%
G36*
X146830406Y-91256697D02*
G01*
X146879220Y-91289905D01*
X146909185Y-91323185D01*
X146934128Y-91350887D01*
X146934129Y-91350888D01*
X147087265Y-91462148D01*
X147087270Y-91462151D01*
X147260192Y-91539142D01*
X147260197Y-91539144D01*
X147445354Y-91578500D01*
X147445355Y-91578500D01*
X147634644Y-91578500D01*
X147634646Y-91578500D01*
X147819803Y-91539144D01*
X147992730Y-91462151D01*
X148145871Y-91350888D01*
X148148788Y-91347647D01*
X148151600Y-91344526D01*
X148211087Y-91307879D01*
X148243748Y-91303500D01*
X148584773Y-91303500D01*
X148651812Y-91323185D01*
X148686348Y-91356377D01*
X148814322Y-91539144D01*
X148821505Y-91549401D01*
X148988599Y-91716495D01*
X149030521Y-91745849D01*
X149182165Y-91852032D01*
X149182167Y-91852033D01*
X149182170Y-91852035D01*
X149193056Y-91857111D01*
X149213244Y-91866525D01*
X149265684Y-91912697D01*
X149284836Y-91979890D01*
X149264621Y-92046771D01*
X149248521Y-92066588D01*
X147966930Y-93348181D01*
X147905607Y-93381666D01*
X147879249Y-93384500D01*
X145443748Y-93384500D01*
X145376709Y-93364815D01*
X145351600Y-93343474D01*
X145345873Y-93337114D01*
X145345869Y-93337110D01*
X145192734Y-93225851D01*
X145192729Y-93225848D01*
X145019807Y-93148857D01*
X145019802Y-93148855D01*
X144844850Y-93111669D01*
X144834646Y-93109500D01*
X144645354Y-93109500D01*
X144635150Y-93111669D01*
X144460197Y-93148855D01*
X144460192Y-93148857D01*
X144287270Y-93225848D01*
X144287265Y-93225851D01*
X144134129Y-93337111D01*
X144007466Y-93477785D01*
X143912821Y-93641715D01*
X143912818Y-93641722D01*
X143854405Y-93821500D01*
X143854326Y-93821744D01*
X143841319Y-93945499D01*
X143834540Y-94010002D01*
X143835332Y-94017536D01*
X143822765Y-94086266D01*
X143775034Y-94137291D01*
X143712012Y-94154500D01*
X142971047Y-94154500D01*
X142904008Y-94134815D01*
X142878895Y-94113470D01*
X142875874Y-94110114D01*
X142875869Y-94110110D01*
X142722734Y-93998851D01*
X142722729Y-93998848D01*
X142549807Y-93921857D01*
X142549802Y-93921855D01*
X142404001Y-93890865D01*
X142364646Y-93882500D01*
X142216889Y-93882500D01*
X142149850Y-93862815D01*
X142104095Y-93810011D01*
X142094151Y-93740853D01*
X142123176Y-93677297D01*
X142132344Y-93668531D01*
X142132237Y-93668424D01*
X142261315Y-93539345D01*
X142353356Y-93390124D01*
X142353358Y-93390119D01*
X142408505Y-93223697D01*
X142408506Y-93223690D01*
X142418999Y-93120986D01*
X142419000Y-93120973D01*
X142419000Y-92871000D01*
X141280500Y-92871000D01*
X141213461Y-92851315D01*
X141167706Y-92798511D01*
X141156500Y-92747000D01*
X141156500Y-92495000D01*
X141176185Y-92427961D01*
X141228989Y-92382206D01*
X141280500Y-92371000D01*
X142418999Y-92371000D01*
X142418999Y-92294350D01*
X142438684Y-92227311D01*
X142491488Y-92181556D01*
X142542999Y-92170350D01*
X145616758Y-92170350D01*
X145616758Y-92170349D01*
X145698196Y-92154151D01*
X145698197Y-92154151D01*
X145711451Y-92151514D01*
X145737602Y-92146313D01*
X145793689Y-92123081D01*
X145851436Y-92099162D01*
X145906945Y-92062071D01*
X145953883Y-92030708D01*
X146041008Y-91943583D01*
X146041008Y-91943581D01*
X146051216Y-91933374D01*
X146051217Y-91933371D01*
X146699392Y-91285196D01*
X146760714Y-91251713D01*
X146830406Y-91256697D01*
G37*
%TD.AperFunction*%
%TA.AperFunction,Conductor*%
G36*
X133634936Y-92202088D02*
G01*
X133700192Y-92231142D01*
X133700197Y-92231144D01*
X133885354Y-92270500D01*
X133885355Y-92270500D01*
X134070061Y-92270500D01*
X134137100Y-92290185D01*
X134182855Y-92342989D01*
X134187388Y-92355598D01*
X134188470Y-92358211D01*
X134188530Y-92358776D01*
X134189838Y-92362413D01*
X134191257Y-92367710D01*
X134189539Y-92368170D01*
X134195933Y-92427681D01*
X134191615Y-92442386D01*
X134191743Y-92442421D01*
X134189639Y-92450271D01*
X134175851Y-92555000D01*
X134228845Y-92555000D01*
X134295884Y-92574685D01*
X134327219Y-92603512D01*
X134337756Y-92617244D01*
X134454239Y-92706624D01*
X134495441Y-92763052D01*
X134499596Y-92832798D01*
X134465383Y-92893719D01*
X134454243Y-92903372D01*
X134449225Y-92907223D01*
X134337754Y-92992757D01*
X134327221Y-93006486D01*
X134270793Y-93047689D01*
X134228845Y-93055000D01*
X134175852Y-93055000D01*
X134189639Y-93159723D01*
X134191743Y-93167575D01*
X134189676Y-93168128D01*
X134195932Y-93226378D01*
X134191222Y-93242419D01*
X134189152Y-93250146D01*
X134174500Y-93361431D01*
X134174500Y-93615500D01*
X134154815Y-93682539D01*
X134102011Y-93728294D01*
X134050500Y-93739500D01*
X133888003Y-93739500D01*
X133820964Y-93719815D01*
X133775209Y-93667011D01*
X133764682Y-93602542D01*
X133775460Y-93500000D01*
X133755674Y-93311744D01*
X133697179Y-93131716D01*
X133602533Y-92967784D01*
X133528443Y-92885499D01*
X133492350Y-92845413D01*
X133462120Y-92782421D01*
X133460500Y-92762441D01*
X133460500Y-92315367D01*
X133480185Y-92248328D01*
X133532989Y-92202573D01*
X133602147Y-92192629D01*
X133634936Y-92202088D01*
G37*
%TD.AperFunction*%
%TA.AperFunction,Conductor*%
G36*
X128870537Y-90250185D02*
G01*
X128916292Y-90302989D01*
X128927498Y-90354500D01*
X128927498Y-90856550D01*
X128907813Y-90923589D01*
X128891179Y-90944231D01*
X128851165Y-90984245D01*
X128789842Y-91017730D01*
X128763484Y-91020564D01*
X128696724Y-91020564D01*
X128629685Y-91000879D01*
X128609043Y-90984245D01*
X128438135Y-90813338D01*
X128438132Y-90813334D01*
X128438132Y-90813335D01*
X128431065Y-90806268D01*
X128431065Y-90806267D01*
X128344555Y-90719757D01*
X128317525Y-90670254D01*
X128304148Y-90655000D01*
X128276568Y-90655000D01*
X128229116Y-90645561D01*
X128191864Y-90630131D01*
X128149148Y-90597354D01*
X128147996Y-90598507D01*
X128142250Y-90592761D01*
X128142244Y-90592756D01*
X128025759Y-90503374D01*
X127984558Y-90446947D01*
X127980403Y-90377200D01*
X128014616Y-90316280D01*
X128025745Y-90306636D01*
X128091576Y-90256123D01*
X128156746Y-90230930D01*
X128167061Y-90230500D01*
X128803498Y-90230500D01*
X128870537Y-90250185D01*
G37*
%TD.AperFunction*%
%TA.AperFunction,Conductor*%
G36*
X141800539Y-81609685D02*
G01*
X141846294Y-81662489D01*
X141857500Y-81714000D01*
X141857500Y-83040000D01*
X141900803Y-83040000D01*
X141900815Y-83039999D01*
X142002673Y-83029592D01*
X142167709Y-82974905D01*
X142167714Y-82974903D01*
X142315691Y-82883629D01*
X142438629Y-82760691D01*
X142529903Y-82612714D01*
X142529905Y-82612709D01*
X142584030Y-82449372D01*
X142623803Y-82391927D01*
X142688318Y-82365104D01*
X142757094Y-82377419D01*
X142808294Y-82424962D01*
X142819442Y-82449372D01*
X142873637Y-82612922D01*
X142873642Y-82612933D01*
X142964971Y-82760999D01*
X142964974Y-82761003D01*
X143087996Y-82884025D01*
X143088000Y-82884028D01*
X143236066Y-82975357D01*
X143236069Y-82975358D01*
X143236075Y-82975362D01*
X143316003Y-83001847D01*
X143373449Y-83041619D01*
X143400272Y-83106135D01*
X143401000Y-83119553D01*
X143401000Y-84712911D01*
X143381315Y-84779950D01*
X143342098Y-84818449D01*
X143295344Y-84847287D01*
X143171289Y-84971342D01*
X143079187Y-85120663D01*
X143079186Y-85120666D01*
X143024001Y-85287203D01*
X143024001Y-85287204D01*
X143024000Y-85287204D01*
X143013500Y-85389983D01*
X143013500Y-86390001D01*
X143013501Y-86390019D01*
X143024000Y-86492796D01*
X143024001Y-86492799D01*
X143079185Y-86659331D01*
X143079187Y-86659336D01*
X143098302Y-86690326D01*
X143171288Y-86808656D01*
X143295344Y-86932712D01*
X143444666Y-87024814D01*
X143611203Y-87079999D01*
X143713991Y-87090500D01*
X144339008Y-87090499D01*
X144339016Y-87090498D01*
X144339019Y-87090498D01*
X144423696Y-87081848D01*
X144441797Y-87079999D01*
X144608334Y-87024814D01*
X144757656Y-86932712D01*
X144851319Y-86839049D01*
X144912642Y-86805564D01*
X144982334Y-86810548D01*
X145026681Y-86839049D01*
X145120344Y-86932712D01*
X145269666Y-87024814D01*
X145436203Y-87079999D01*
X145538991Y-87090500D01*
X146164008Y-87090499D01*
X146164016Y-87090498D01*
X146164019Y-87090498D01*
X146248696Y-87081848D01*
X146266797Y-87079999D01*
X146433334Y-87024814D01*
X146582656Y-86932712D01*
X146706712Y-86808656D01*
X146798814Y-86659334D01*
X146825522Y-86578732D01*
X146865291Y-86521290D01*
X146919037Y-86496120D01*
X146942452Y-86491463D01*
X146993761Y-86470210D01*
X147056286Y-86444312D01*
X147060644Y-86441400D01*
X147127321Y-86420520D01*
X147129538Y-86420500D01*
X147224644Y-86420500D01*
X147224646Y-86420500D01*
X147337830Y-86396442D01*
X147407496Y-86401758D01*
X147463230Y-86443895D01*
X147485227Y-86493540D01*
X147498535Y-86560446D01*
X147498536Y-86560450D01*
X147501811Y-86568357D01*
X147509721Y-86587452D01*
X147545688Y-86674286D01*
X147577617Y-86722069D01*
X147577618Y-86722072D01*
X147614138Y-86776728D01*
X147614144Y-86776736D01*
X147705586Y-86868178D01*
X147705608Y-86868198D01*
X148438728Y-87601318D01*
X148472213Y-87662641D01*
X148467229Y-87732333D01*
X148438729Y-87776678D01*
X148378261Y-87837147D01*
X148339037Y-87876371D01*
X148277713Y-87909855D01*
X148208022Y-87904871D01*
X148159207Y-87871662D01*
X148148224Y-87859464D01*
X148148216Y-87859457D01*
X147995081Y-87748198D01*
X147995076Y-87748195D01*
X147822154Y-87671204D01*
X147822149Y-87671202D01*
X147676348Y-87640212D01*
X147636993Y-87631847D01*
X147447701Y-87631847D01*
X147415244Y-87638745D01*
X147262544Y-87671202D01*
X147262539Y-87671204D01*
X147089617Y-87748195D01*
X147089612Y-87748198D01*
X146936477Y-87859457D01*
X146936473Y-87859461D01*
X146930747Y-87865821D01*
X146871260Y-87902468D01*
X146838599Y-87906847D01*
X146676259Y-87906847D01*
X146553046Y-87906847D01*
X146537924Y-87909855D01*
X146516325Y-87914151D01*
X146516324Y-87914150D01*
X146432208Y-87930882D01*
X146432198Y-87930885D01*
X146318369Y-87978034D01*
X146265058Y-88013656D01*
X146216865Y-88045858D01*
X146215924Y-88046486D01*
X146215913Y-88046494D01*
X146180225Y-88082182D01*
X146118902Y-88115667D01*
X146092545Y-88118500D01*
X145563452Y-88118500D01*
X145496413Y-88098815D01*
X145475771Y-88082181D01*
X145245928Y-87852338D01*
X145245925Y-87852334D01*
X145245925Y-87852335D01*
X145238858Y-87845268D01*
X145238858Y-87845267D01*
X145151733Y-87758142D01*
X145151732Y-87758141D01*
X145151731Y-87758140D01*
X145089090Y-87716285D01*
X145049286Y-87689688D01*
X145049287Y-87689688D01*
X145049285Y-87689687D01*
X144992017Y-87665967D01*
X144968792Y-87656347D01*
X144935453Y-87642537D01*
X144925427Y-87640543D01*
X144875029Y-87630518D01*
X144814610Y-87618500D01*
X144814607Y-87618500D01*
X144814606Y-87618500D01*
X142987607Y-87618500D01*
X142864393Y-87618500D01*
X142825121Y-87626311D01*
X142775152Y-87625984D01*
X142744646Y-87619500D01*
X142555354Y-87619500D01*
X142522897Y-87626398D01*
X142370197Y-87658855D01*
X142370192Y-87658857D01*
X142197270Y-87735848D01*
X142197265Y-87735851D01*
X142044129Y-87847111D01*
X141917466Y-87987785D01*
X141875006Y-88061325D01*
X141824438Y-88109540D01*
X141755831Y-88122761D01*
X141755019Y-88122681D01*
X141718991Y-88119000D01*
X141656500Y-88119000D01*
X141656500Y-90518999D01*
X141718972Y-90518999D01*
X141718986Y-90518998D01*
X141821697Y-90508505D01*
X141988119Y-90453358D01*
X141988124Y-90453356D01*
X142137345Y-90361315D01*
X142261315Y-90237345D01*
X142353356Y-90088124D01*
X142353358Y-90088119D01*
X142408505Y-89921697D01*
X142408506Y-89921690D01*
X142418999Y-89818986D01*
X142418999Y-89543884D01*
X142438683Y-89476845D01*
X142491487Y-89431090D01*
X142548855Y-89421725D01*
X142548855Y-89420500D01*
X142744644Y-89420500D01*
X142744646Y-89420500D01*
X142840719Y-89400079D01*
X142910386Y-89405395D01*
X142966120Y-89447532D01*
X142990225Y-89513112D01*
X142990500Y-89521369D01*
X142990500Y-89818970D01*
X142990501Y-89818987D01*
X143000994Y-89921697D01*
X143056141Y-90088119D01*
X143056143Y-90088124D01*
X143148184Y-90237345D01*
X143272154Y-90361315D01*
X143421375Y-90453356D01*
X143421380Y-90453358D01*
X143587802Y-90508505D01*
X143587809Y-90508506D01*
X143690519Y-90518999D01*
X143752999Y-90518998D01*
X143753000Y-90518998D01*
X143753000Y-89193000D01*
X143772685Y-89125961D01*
X143825489Y-89080206D01*
X143877000Y-89069000D01*
X144129000Y-89069000D01*
X144196039Y-89088685D01*
X144241794Y-89141489D01*
X144253000Y-89193000D01*
X144253000Y-90518999D01*
X144315472Y-90518999D01*
X144315486Y-90518998D01*
X144418197Y-90508505D01*
X144584619Y-90453358D01*
X144584624Y-90453356D01*
X144733842Y-90361317D01*
X144827464Y-90267695D01*
X144888787Y-90234210D01*
X144958479Y-90239194D01*
X145002827Y-90267695D01*
X145096844Y-90361712D01*
X145246166Y-90453814D01*
X145412703Y-90508999D01*
X145419185Y-90509661D01*
X145419584Y-90509702D01*
X145484277Y-90536096D01*
X145524430Y-90593275D01*
X145527296Y-90663086D01*
X145494668Y-90720741D01*
X145444799Y-90770611D01*
X145332377Y-90883032D01*
X145271057Y-90916516D01*
X145244698Y-90919350D01*
X141418215Y-90919350D01*
X141351176Y-90899665D01*
X141305421Y-90846861D01*
X141295477Y-90777703D01*
X141300284Y-90757032D01*
X141310609Y-90725255D01*
X141325979Y-90677951D01*
X141345765Y-90489695D01*
X141325979Y-90301439D01*
X141267484Y-90121411D01*
X141173113Y-89957955D01*
X141156500Y-89895955D01*
X141156500Y-88119000D01*
X141156499Y-88118999D01*
X141094028Y-88119000D01*
X141094011Y-88119001D01*
X140991302Y-88129494D01*
X140824880Y-88184641D01*
X140824875Y-88184643D01*
X140675657Y-88276682D01*
X140582034Y-88370305D01*
X140520710Y-88403789D01*
X140451019Y-88398805D01*
X140406672Y-88370304D01*
X140312655Y-88276287D01*
X140265902Y-88247449D01*
X140219178Y-88195500D01*
X140207000Y-88141911D01*
X140207000Y-87383801D01*
X140207025Y-87383801D01*
X140207084Y-87364831D01*
X140225460Y-87190000D01*
X140214955Y-87090052D01*
X140227524Y-87021325D01*
X140273177Y-86971557D01*
X140336156Y-86932712D01*
X140429819Y-86839049D01*
X140491142Y-86805564D01*
X140560834Y-86810548D01*
X140605181Y-86839049D01*
X140698844Y-86932712D01*
X140848166Y-87024814D01*
X141014703Y-87079999D01*
X141117491Y-87090500D01*
X141742508Y-87090499D01*
X141742516Y-87090498D01*
X141742519Y-87090498D01*
X141827196Y-87081848D01*
X141845297Y-87079999D01*
X142011834Y-87024814D01*
X142161156Y-86932712D01*
X142285212Y-86808656D01*
X142377314Y-86659334D01*
X142432499Y-86492797D01*
X142443000Y-86390009D01*
X142442999Y-85389992D01*
X142441959Y-85379815D01*
X142432499Y-85287203D01*
X142432498Y-85287200D01*
X142402907Y-85197901D01*
X142377314Y-85120666D01*
X142285212Y-84971344D01*
X142285209Y-84971341D01*
X142280734Y-84965681D01*
X142282806Y-84964042D01*
X142255211Y-84913505D01*
X142260195Y-84843813D01*
X142264684Y-84834284D01*
X142264537Y-84834219D01*
X142267178Y-84828286D01*
X142267179Y-84828284D01*
X142325674Y-84648256D01*
X142345460Y-84460000D01*
X142325674Y-84271744D01*
X142267179Y-84091716D01*
X142172533Y-83927784D01*
X142045871Y-83787112D01*
X142045870Y-83787111D01*
X141892734Y-83675851D01*
X141892729Y-83675848D01*
X141719807Y-83598857D01*
X141719802Y-83598855D01*
X141574001Y-83567865D01*
X141534646Y-83559500D01*
X141345354Y-83559500D01*
X141312897Y-83566398D01*
X141160197Y-83598855D01*
X141160192Y-83598857D01*
X140987270Y-83675848D01*
X140987265Y-83675851D01*
X140834129Y-83787111D01*
X140707466Y-83927785D01*
X140612821Y-84091715D01*
X140612818Y-84091722D01*
X140563124Y-84244666D01*
X140554326Y-84271744D01*
X140534540Y-84460000D01*
X140554326Y-84648256D01*
X140554327Y-84648259D01*
X140595521Y-84775042D01*
X140597516Y-84844883D01*
X140561436Y-84904716D01*
X140498735Y-84935544D01*
X140429320Y-84927579D01*
X140389909Y-84901041D01*
X140336155Y-84847287D01*
X140289402Y-84818449D01*
X140242678Y-84766500D01*
X140230500Y-84712911D01*
X140230500Y-83083072D01*
X140250185Y-83016033D01*
X140289403Y-82977533D01*
X140292920Y-82975363D01*
X140292925Y-82975362D01*
X140441003Y-82884026D01*
X140564026Y-82761003D01*
X140564755Y-82759821D01*
X140565466Y-82759181D01*
X140568507Y-82755336D01*
X140569163Y-82755855D01*
X140616701Y-82713097D01*
X140685664Y-82701873D01*
X140749746Y-82729715D01*
X140771761Y-82755123D01*
X140771888Y-82755023D01*
X140774113Y-82757838D01*
X140775833Y-82759822D01*
X140776365Y-82760685D01*
X140776369Y-82760690D01*
X140899308Y-82883629D01*
X141047285Y-82974903D01*
X141047290Y-82974905D01*
X141212326Y-83029592D01*
X141314184Y-83039999D01*
X141314197Y-83040000D01*
X141357500Y-83040000D01*
X141357500Y-81714000D01*
X141377185Y-81646961D01*
X141429989Y-81601206D01*
X141481500Y-81590000D01*
X141733500Y-81590000D01*
X141800539Y-81609685D01*
G37*
%TD.AperFunction*%
%TA.AperFunction,Conductor*%
G36*
X123141166Y-88758004D02*
G01*
X123187857Y-88809983D01*
X123200000Y-88863500D01*
X123200000Y-89041000D01*
X123180315Y-89108039D01*
X123127511Y-89153794D01*
X123076000Y-89165000D01*
X121652705Y-89165000D01*
X121652704Y-89165001D01*
X121652899Y-89167486D01*
X121698718Y-89325198D01*
X121782316Y-89466555D01*
X121783631Y-89468250D01*
X121784248Y-89469821D01*
X121786288Y-89473271D01*
X121785731Y-89473599D01*
X121809168Y-89533285D01*
X121795490Y-89601803D01*
X121754546Y-89647354D01*
X121686990Y-89692495D01*
X121686987Y-89692497D01*
X121677042Y-89699141D01*
X121648060Y-89728124D01*
X121583001Y-89793182D01*
X121521681Y-89826666D01*
X121495322Y-89829500D01*
X121436129Y-89829500D01*
X121413321Y-89834348D01*
X121250972Y-89868855D01*
X121250967Y-89868857D01*
X121078045Y-89945848D01*
X121078040Y-89945851D01*
X121002385Y-90000818D01*
X120936578Y-90024298D01*
X120868525Y-90008472D01*
X120819830Y-89958366D01*
X120805500Y-89900500D01*
X120805500Y-89150452D01*
X120825185Y-89083413D01*
X120841819Y-89062771D01*
X121022772Y-88881819D01*
X121084095Y-88848334D01*
X121110453Y-88845500D01*
X122751608Y-88845500D01*
X122751608Y-88845499D01*
X122832046Y-88829500D01*
X122832047Y-88829500D01*
X122845637Y-88826796D01*
X122872452Y-88821463D01*
X122921209Y-88801267D01*
X122986286Y-88774312D01*
X123007109Y-88760397D01*
X123073786Y-88739520D01*
X123141166Y-88758004D01*
G37*
%TD.AperFunction*%
%TA.AperFunction,Conductor*%
G36*
X134238767Y-80649489D02*
G01*
X134305761Y-80669325D01*
X134351397Y-80722232D01*
X134361185Y-80791412D01*
X134332017Y-80854903D01*
X134326170Y-80861169D01*
X134305683Y-80881656D01*
X134213643Y-81030875D01*
X134213641Y-81030880D01*
X134158494Y-81197302D01*
X134158493Y-81197309D01*
X134148000Y-81300013D01*
X134148000Y-81575000D01*
X135274000Y-81575000D01*
X135341039Y-81594685D01*
X135386794Y-81647489D01*
X135398000Y-81699000D01*
X135398000Y-83049999D01*
X135447972Y-83049999D01*
X135447986Y-83049998D01*
X135550697Y-83039505D01*
X135717119Y-82984358D01*
X135717124Y-82984356D01*
X135866345Y-82892315D01*
X135990318Y-82768342D01*
X135992165Y-82765348D01*
X135993969Y-82763724D01*
X135994798Y-82762677D01*
X135994976Y-82762818D01*
X136044110Y-82718621D01*
X136113073Y-82707396D01*
X136177156Y-82735236D01*
X136203243Y-82765341D01*
X136205288Y-82768656D01*
X136329344Y-82892712D01*
X136478666Y-82984814D01*
X136645203Y-83039999D01*
X136747991Y-83050500D01*
X136850540Y-83050499D01*
X136917578Y-83070183D01*
X136963334Y-83122986D01*
X136972193Y-83163712D01*
X136973861Y-83163537D01*
X136974540Y-83169998D01*
X136974540Y-83170000D01*
X136994326Y-83358256D01*
X136994327Y-83358259D01*
X137052818Y-83538277D01*
X137052821Y-83538284D01*
X137147467Y-83702216D01*
X137235703Y-83800212D01*
X137274129Y-83842888D01*
X137427265Y-83954148D01*
X137427270Y-83954151D01*
X137600192Y-84031142D01*
X137600197Y-84031144D01*
X137785354Y-84070500D01*
X137785355Y-84070500D01*
X137974644Y-84070500D01*
X137974646Y-84070500D01*
X138159803Y-84031144D01*
X138332730Y-83954151D01*
X138485871Y-83842888D01*
X138612533Y-83702216D01*
X138707179Y-83538284D01*
X138732025Y-83461817D01*
X138737569Y-83444754D01*
X138777006Y-83387078D01*
X138841365Y-83359880D01*
X138910211Y-83371795D01*
X138961687Y-83419039D01*
X138979500Y-83483072D01*
X138979500Y-84712911D01*
X138959815Y-84779950D01*
X138920598Y-84818449D01*
X138873844Y-84847287D01*
X138749789Y-84971342D01*
X138657687Y-85120663D01*
X138657686Y-85120666D01*
X138602501Y-85287203D01*
X138602501Y-85287204D01*
X138602500Y-85287204D01*
X138592000Y-85389983D01*
X138592000Y-86390001D01*
X138592001Y-86390019D01*
X138602500Y-86492796D01*
X138602502Y-86492803D01*
X138615749Y-86532780D01*
X138618150Y-86602608D01*
X138590200Y-86654747D01*
X138587472Y-86657776D01*
X138587464Y-86657787D01*
X138492821Y-86821715D01*
X138492818Y-86821722D01*
X138441969Y-86978220D01*
X138434326Y-87001744D01*
X138414540Y-87190000D01*
X138434326Y-87378256D01*
X138434327Y-87378259D01*
X138492818Y-87558277D01*
X138492821Y-87558284D01*
X138587467Y-87722216D01*
X138622782Y-87761437D01*
X138714129Y-87862888D01*
X138867268Y-87974150D01*
X138867272Y-87974152D01*
X138882434Y-87980903D01*
X138935672Y-88026153D01*
X138955994Y-88093001D01*
X138956000Y-88094183D01*
X138956000Y-88141911D01*
X138936315Y-88208950D01*
X138897098Y-88247449D01*
X138850344Y-88276287D01*
X138726289Y-88400342D01*
X138634187Y-88549663D01*
X138634185Y-88549668D01*
X138613559Y-88611913D01*
X138579001Y-88716203D01*
X138579001Y-88716204D01*
X138579000Y-88716204D01*
X138568500Y-88818983D01*
X138568500Y-89198015D01*
X138548815Y-89265054D01*
X138496011Y-89310809D01*
X138426853Y-89320753D01*
X138394064Y-89311294D01*
X138276695Y-89259037D01*
X138276690Y-89259035D01*
X138130889Y-89228045D01*
X138091534Y-89219680D01*
X137965975Y-89219680D01*
X137898936Y-89199995D01*
X137858588Y-89157679D01*
X137815350Y-89082788D01*
X137815348Y-89082785D01*
X137688684Y-88942111D01*
X137535548Y-88830851D01*
X137535543Y-88830848D01*
X137362621Y-88753857D01*
X137362616Y-88753855D01*
X137194693Y-88718163D01*
X137177460Y-88714500D01*
X136988168Y-88714500D01*
X136831573Y-88747785D01*
X136796655Y-88755207D01*
X136796109Y-88752639D01*
X136737916Y-88754273D01*
X136678101Y-88718163D01*
X136647305Y-88655446D01*
X136645499Y-88634363D01*
X136645499Y-88561438D01*
X136634990Y-88481609D01*
X136630848Y-88450146D01*
X136630847Y-88450143D01*
X136628744Y-88442292D01*
X136630658Y-88441779D01*
X136624332Y-88382997D01*
X136628815Y-88367728D01*
X136628744Y-88367709D01*
X136630847Y-88359858D01*
X136630848Y-88359854D01*
X136645500Y-88248561D01*
X136645499Y-87761440D01*
X136643755Y-87748195D01*
X136630849Y-87650153D01*
X136630848Y-87650152D01*
X136630848Y-87650146D01*
X136573489Y-87511669D01*
X136482244Y-87392756D01*
X136363331Y-87301511D01*
X136224854Y-87244152D01*
X136210942Y-87242320D01*
X136113568Y-87229500D01*
X136113561Y-87229500D01*
X134939499Y-87229500D01*
X134872460Y-87209815D01*
X134826705Y-87157011D01*
X134815499Y-87105500D01*
X134815499Y-85931437D01*
X134800849Y-85820153D01*
X134800848Y-85820152D01*
X134800848Y-85820146D01*
X134743489Y-85681669D01*
X134652244Y-85562756D01*
X134533331Y-85471511D01*
X134532785Y-85471285D01*
X134492770Y-85454710D01*
X134394854Y-85414152D01*
X134283561Y-85399500D01*
X133796437Y-85399500D01*
X133685153Y-85414150D01*
X133677300Y-85416255D01*
X133676788Y-85414345D01*
X133617969Y-85420662D01*
X133602723Y-85416185D01*
X133602705Y-85416256D01*
X133594855Y-85414152D01*
X133594854Y-85414152D01*
X133580942Y-85412320D01*
X133483568Y-85399500D01*
X133483561Y-85399500D01*
X133438619Y-85399500D01*
X133371580Y-85379815D01*
X133325825Y-85327011D01*
X133315298Y-85288462D01*
X133315166Y-85287203D01*
X133295674Y-85101744D01*
X133237179Y-84921716D01*
X133177558Y-84818449D01*
X133142535Y-84757787D01*
X133142534Y-84757786D01*
X133142533Y-84757784D01*
X133134174Y-84748501D01*
X133103946Y-84685513D01*
X133112570Y-84616177D01*
X133134173Y-84582561D01*
X133242533Y-84462216D01*
X133256085Y-84438743D01*
X134608082Y-84438743D01*
X134613687Y-84439858D01*
X134621585Y-84441700D01*
X134684717Y-84458615D01*
X134692486Y-84460971D01*
X134738985Y-84476756D01*
X134746577Y-84479614D01*
X134945436Y-84561983D01*
X134952828Y-84565332D01*
X134996863Y-84587048D01*
X135004017Y-84590872D01*
X135060621Y-84623551D01*
X135067512Y-84627836D01*
X135108348Y-84655121D01*
X135114945Y-84659848D01*
X135285715Y-84790884D01*
X135291989Y-84796033D01*
X135328907Y-84828410D01*
X135334828Y-84833956D01*
X135350969Y-84850097D01*
X136110082Y-84850097D01*
X136110082Y-83912482D01*
X136097320Y-83907412D01*
X136065382Y-83920100D01*
X136058607Y-83922566D01*
X135838764Y-83995416D01*
X135832287Y-83997368D01*
X135792792Y-84008104D01*
X135786220Y-84009699D01*
X135732967Y-84021098D01*
X135726317Y-84022333D01*
X135685906Y-84028702D01*
X135679203Y-84029572D01*
X135536759Y-84044124D01*
X135533609Y-84044405D01*
X135514564Y-84045861D01*
X135511419Y-84046062D01*
X135486050Y-84047354D01*
X135482895Y-84047474D01*
X135463824Y-84047959D01*
X135460672Y-84047999D01*
X135197454Y-84047999D01*
X135150001Y-84038560D01*
X135148001Y-84037731D01*
X135146014Y-84038555D01*
X135098562Y-84047995D01*
X134835344Y-84048000D01*
X134832190Y-84047960D01*
X134813118Y-84047475D01*
X134809970Y-84047355D01*
X134784593Y-84046064D01*
X134781433Y-84045863D01*
X134762378Y-84044405D01*
X134759235Y-84044124D01*
X134616776Y-84029570D01*
X134610067Y-84028699D01*
X134608082Y-84028386D01*
X134608082Y-84438743D01*
X133256085Y-84438743D01*
X133337179Y-84298284D01*
X133395674Y-84118256D01*
X133415460Y-83930000D01*
X133395674Y-83741744D01*
X133337179Y-83561716D01*
X133242533Y-83397784D01*
X133232893Y-83387078D01*
X133167350Y-83314284D01*
X133137120Y-83251292D01*
X133135500Y-83231312D01*
X133135500Y-82942230D01*
X133155185Y-82875191D01*
X133171819Y-82854549D01*
X133214762Y-82811606D01*
X133257712Y-82768656D01*
X133349814Y-82619334D01*
X133404999Y-82452797D01*
X133415500Y-82350009D01*
X133415500Y-82075000D01*
X134148001Y-82075000D01*
X134148001Y-82349986D01*
X134158494Y-82452697D01*
X134213641Y-82619119D01*
X134213643Y-82619124D01*
X134305684Y-82768345D01*
X134429654Y-82892315D01*
X134578875Y-82984356D01*
X134578880Y-82984358D01*
X134745302Y-83039505D01*
X134745309Y-83039506D01*
X134848019Y-83049999D01*
X134897999Y-83049998D01*
X134898000Y-83049998D01*
X134898000Y-82075000D01*
X134148001Y-82075000D01*
X133415500Y-82075000D01*
X133415499Y-81299992D01*
X133414281Y-81288072D01*
X133404999Y-81197203D01*
X133404998Y-81197200D01*
X133396631Y-81171949D01*
X133349814Y-81030666D01*
X133257712Y-80881344D01*
X133235476Y-80859108D01*
X133201991Y-80797785D01*
X133206975Y-80728093D01*
X133248847Y-80672160D01*
X133314311Y-80647743D01*
X133323399Y-80647428D01*
X134238767Y-80649489D01*
G37*
%TD.AperFunction*%
%TD*%
M02*
