%TF.GenerationSoftware,KiCad,Pcbnew,8.0.1*%
%TF.CreationDate,2024-07-18T02:30:47+05:30*%
%TF.ProjectId,MCU_datalogger_PCB,4d43555f-6461-4746-916c-6f676765725f,1*%
%TF.SameCoordinates,Original*%
%TF.FileFunction,Copper,L2,Bot*%
%TF.FilePolarity,Positive*%
%FSLAX46Y46*%
G04 Gerber Fmt 4.6, Leading zero omitted, Abs format (unit mm)*
G04 Created by KiCad (PCBNEW 8.0.1) date 2024-07-18 02:30:47*
%MOMM*%
%LPD*%
G01*
G04 APERTURE LIST*
%TA.AperFunction,ComponentPad*%
%ADD10R,1.700000X1.700000*%
%TD*%
%TA.AperFunction,ComponentPad*%
%ADD11O,1.700000X1.700000*%
%TD*%
%TA.AperFunction,ViaPad*%
%ADD12C,0.900000*%
%TD*%
%TA.AperFunction,ViaPad*%
%ADD13C,0.800000*%
%TD*%
%TA.AperFunction,Conductor*%
%ADD14C,0.250000*%
%TD*%
%TA.AperFunction,Conductor*%
%ADD15C,0.350000*%
%TD*%
G04 APERTURE END LIST*
D10*
%TO.P,J2,1,Pin_1*%
%TO.N,GND*%
X139446000Y-105664000D03*
D11*
%TO.P,J2,2,Pin_2*%
%TO.N,/Vcc*%
X141986000Y-105664000D03*
%TO.P,J2,3,Pin_3*%
%TO.N,/Rx*%
X144526000Y-105664000D03*
%TO.P,J2,4,Pin_4*%
%TO.N,/Tx*%
X147066000Y-105664000D03*
%TD*%
D10*
%TO.P,J1,1,Pin_1*%
%TO.N,GND*%
X152390000Y-94750000D03*
D11*
%TO.P,J1,2,Pin_2*%
%TO.N,/Vcc*%
X152390000Y-97290000D03*
%TO.P,J1,3,Pin_3*%
%TO.N,/SDA*%
X152390000Y-99830000D03*
%TO.P,J1,4,Pin_4*%
%TO.N,/SCL*%
X152390000Y-102370000D03*
%TD*%
D10*
%TO.P,J3,1,Pin_1*%
%TO.N,/D2*%
X113665000Y-105791000D03*
D11*
%TO.P,J3,2,Pin_2*%
%TO.N,/D3*%
X116205000Y-105791000D03*
%TO.P,J3,3,Pin_3*%
%TO.N,/D4*%
X118745000Y-105791000D03*
%TO.P,J3,4,Pin_4*%
%TO.N,/D5*%
X121285000Y-105791000D03*
%TO.P,J3,5,Pin_5*%
%TO.N,/D6*%
X123825000Y-105791000D03*
%TO.P,J3,6,Pin_6*%
%TO.N,/D7*%
X126365000Y-105791000D03*
%TO.P,J3,7,Pin_7*%
%TO.N,/D8*%
X128905000Y-105791000D03*
%TO.P,J3,8,Pin_8*%
%TO.N,GND*%
X131445000Y-105791000D03*
%TO.P,J3,9,Pin_9*%
%TO.N,/Vcc*%
X133985000Y-105791000D03*
%TD*%
D10*
%TO.P,BT1,1,+*%
%TO.N,/Vcc*%
X111630000Y-87180000D03*
D11*
%TO.P,BT1,2,-*%
%TO.N,GND*%
X111630000Y-89720000D03*
%TD*%
D10*
%TO.P,J4,1,Pin_1*%
%TO.N,/MISO*%
X149860000Y-85598000D03*
D11*
%TO.P,J4,2,Pin_2*%
%TO.N,/Vcc*%
X152400000Y-85598000D03*
%TO.P,J4,3,Pin_3*%
%TO.N,/SCK*%
X149860000Y-88138000D03*
%TO.P,J4,4,Pin_4*%
%TO.N,/MOSI*%
X152400000Y-88138000D03*
%TO.P,J4,5,Pin_5*%
%TO.N,/RESET*%
X149860000Y-90678000D03*
%TO.P,J4,6,Pin_6*%
%TO.N,GND*%
X152400000Y-90678000D03*
%TD*%
D12*
%TO.N,/Vcc*%
X142650000Y-93730000D03*
X137005000Y-93730000D03*
D13*
X122120000Y-87410000D03*
%TO.N,Net-(U3-PB7)*%
X127227291Y-86111986D03*
X132510000Y-83930000D03*
%TO.N,Net-(U3-AREF)*%
X136514394Y-98315742D03*
%TO.N,/Tx*%
X137996888Y-90120180D03*
%TO.N,/Rx*%
X137082814Y-89615000D03*
%TO.N,/Tx*%
X131920364Y-89909469D03*
%TO.N,/Rx*%
X132565029Y-89145000D03*
%TO.N,Net-(U3-PB7)*%
X130010000Y-97360000D03*
%TO.N,Net-(U3-PB6)*%
X128700000Y-93470000D03*
X127660000Y-102070000D03*
%TO.N,/RESET*%
X147542347Y-88532347D03*
X147540000Y-90678000D03*
%TO.N,/SCL*%
X141143847Y-94883847D03*
X132870000Y-93500000D03*
%TO.N,/SDA*%
X132410000Y-85290000D03*
X129430000Y-85080000D03*
%TO.N,/MOSI*%
X133945000Y-96415000D03*
%TO.N,GND*%
X133980000Y-91370000D03*
X114110000Y-93030000D03*
X118627347Y-98517347D03*
X121530775Y-90730000D03*
X142380000Y-98460000D03*
X129410000Y-89200000D03*
X137880000Y-83170000D03*
X121380000Y-83060000D03*
X141440000Y-84460000D03*
X117630000Y-83110000D03*
X147130000Y-85520000D03*
D12*
%TO.N,/Vcc*%
X118490000Y-101140000D03*
X146303895Y-92106317D03*
X120130000Y-96210000D03*
X121335000Y-89220000D03*
X133860000Y-82030000D03*
X133660000Y-92559565D03*
X123410000Y-101300000D03*
X143270000Y-90660000D03*
X142470000Y-83260000D03*
X128727998Y-90821064D03*
D13*
%TO.N,Net-(U3-PB6)*%
X127667153Y-97917153D03*
X138414394Y-101585000D03*
%TO.N,Net-(U3-PB7)*%
X126680000Y-94790000D03*
X124775000Y-94790000D03*
%TO.N,Net-(U3-AREF)*%
X140690000Y-98195000D03*
%TO.N,/SCK*%
X135995861Y-94490555D03*
X140461192Y-91579575D03*
%TO.N,/SCL*%
X148920000Y-95800000D03*
%TO.N,/SDA*%
X149630000Y-98200000D03*
X140440305Y-90489695D03*
X139320000Y-87190000D03*
%TO.N,/D2*%
X127220000Y-87130000D03*
X119500000Y-92530000D03*
%TO.N,/MISO*%
X135995000Y-96380000D03*
X142270000Y-94783000D03*
%TO.N,/MOSI*%
X144740000Y-94010000D03*
%TO.N,/RESET*%
X133365000Y-88420000D03*
X142650000Y-88520000D03*
%TD*%
D14*
%TO.N,Net-(U3-PB6)*%
X127660000Y-102070000D02*
X128145000Y-101585000D01*
X128145000Y-101585000D02*
X138414394Y-101585000D01*
%TO.N,GND*%
X120110000Y-87580000D02*
X120110000Y-89309225D01*
X121055000Y-86635000D02*
X120110000Y-87580000D01*
X120110000Y-89309225D02*
X121530775Y-90730000D01*
X125699695Y-86635000D02*
X121055000Y-86635000D01*
X128264695Y-89200000D02*
X125699695Y-86635000D01*
X129410000Y-89200000D02*
X128264695Y-89200000D01*
%TO.N,/D2*%
X120835000Y-86185000D02*
X126275000Y-86185000D01*
X119660000Y-87360000D02*
X120835000Y-86185000D01*
X126275000Y-86185000D02*
X127220000Y-87130000D01*
X119660000Y-92370000D02*
X119660000Y-87360000D01*
X119500000Y-92530000D02*
X119660000Y-92370000D01*
%TO.N,Net-(U3-PB7)*%
X127227291Y-86111986D02*
X129409277Y-83930000D01*
X129409277Y-83930000D02*
X132510000Y-83930000D01*
D15*
%TO.N,/Vcc*%
X137005000Y-93730000D02*
X142650000Y-93730000D01*
D14*
%TO.N,Net-(U3-PB7)*%
X130010000Y-97360000D02*
X128727847Y-98642153D01*
X124775000Y-96050305D02*
X124775000Y-94790000D01*
X127366848Y-98642153D02*
X124775000Y-96050305D01*
X128727847Y-98642153D02*
X127366848Y-98642153D01*
X124775000Y-94790000D02*
X126680000Y-94790000D01*
%TO.N,/MOSI*%
X135000000Y-97470000D02*
X133945000Y-96415000D01*
X142090000Y-97470000D02*
X135000000Y-97470000D01*
X144740000Y-94010000D02*
X144740000Y-94820000D01*
X144740000Y-94820000D02*
X142090000Y-97470000D01*
%TO.N,/SDA*%
X149630000Y-97670000D02*
X149630000Y-98200000D01*
X141940000Y-90496727D02*
X144099590Y-92656317D01*
X141940000Y-90489695D02*
X141940000Y-90496727D01*
X144099590Y-92656317D02*
X144616317Y-92656317D01*
X140440305Y-90489695D02*
X141940000Y-90489695D01*
X144616317Y-92656317D02*
X149630000Y-97670000D01*
D15*
%TO.N,/Vcc*%
X146303895Y-92106317D02*
X144716317Y-92106317D01*
X144716317Y-92106317D02*
X143270000Y-90660000D01*
D14*
%TO.N,/SCK*%
X135995861Y-92324139D02*
X135995861Y-94490555D01*
X136740425Y-91579575D02*
X135995861Y-92324139D01*
X140461192Y-91579575D02*
X136740425Y-91579575D01*
%TO.N,/SCL*%
X135930000Y-95610000D02*
X133820000Y-93500000D01*
X133820000Y-93500000D02*
X132870000Y-93500000D01*
X140417694Y-95610000D02*
X135930000Y-95610000D01*
X141143847Y-94883847D02*
X140417694Y-95610000D01*
D15*
%TO.N,/Vcc*%
X133609565Y-92610000D02*
X130516934Y-92610000D01*
X130516934Y-92610000D02*
X128727998Y-90821064D01*
X133660000Y-92559565D02*
X133609565Y-92610000D01*
D14*
%TO.N,GND*%
X152400000Y-92730000D02*
X152400000Y-94740000D01*
X152400000Y-90678000D02*
X152400000Y-92730000D01*
X131580000Y-91370000D02*
X133980000Y-91370000D01*
X129410000Y-89200000D02*
X131580000Y-91370000D01*
X152400000Y-94740000D02*
X152390000Y-94750000D01*
D15*
%TO.N,/Vcc*%
X153675000Y-93093877D02*
X153665000Y-93103877D01*
X153665000Y-93103877D02*
X153665000Y-96015000D01*
X153665000Y-96015000D02*
X152390000Y-97290000D01*
X152400000Y-85598000D02*
X153675000Y-86873000D01*
X153675000Y-86873000D02*
X153675000Y-93093877D01*
X140420000Y-84130000D02*
X141290000Y-83260000D01*
X135960000Y-84130000D02*
X140420000Y-84130000D01*
X141290000Y-83260000D02*
X142470000Y-83260000D01*
X133860000Y-82030000D02*
X135960000Y-84130000D01*
X118490000Y-100270000D02*
X120435000Y-98325000D01*
X118490000Y-101140000D02*
X118490000Y-100270000D01*
X120435000Y-98325000D02*
X123410000Y-101300000D01*
X120130000Y-98020000D02*
X120435000Y-98325000D01*
X125518936Y-90821064D02*
X125531064Y-90821064D01*
X120130000Y-96210000D02*
X125518936Y-90821064D01*
X122120000Y-87410000D02*
X122120000Y-88435000D01*
X122120000Y-88435000D02*
X121335000Y-89220000D01*
X125531064Y-90821064D02*
X128727998Y-90821064D01*
X122120000Y-87410000D02*
X125531064Y-90821064D01*
X120130000Y-96210000D02*
X120130000Y-98020000D01*
D14*
%TO.N,Net-(U3-AREF)*%
X140690000Y-98195000D02*
X140569258Y-98315742D01*
X140569258Y-98315742D02*
X136514394Y-98315742D01*
%TO.N,/Rx*%
X136612814Y-89145000D02*
X132565029Y-89145000D01*
X137082814Y-89615000D02*
X136612814Y-89145000D01*
%TO.N,/Tx*%
X137777068Y-90340000D02*
X132350895Y-90340000D01*
X137996888Y-90120180D02*
X137777068Y-90340000D01*
X132350895Y-90340000D02*
X131920364Y-89909469D01*
%TO.N,/MISO*%
X140673000Y-96380000D02*
X135995000Y-96380000D01*
X142270000Y-94783000D02*
X140673000Y-96380000D01*
%TO.N,/RESET*%
X133365000Y-88420000D02*
X133365000Y-88499695D01*
X133365000Y-88499695D02*
X133385305Y-88520000D01*
X133385305Y-88520000D02*
X142650000Y-88520000D01*
%TO.N,Net-(U3-PB6)*%
X127667153Y-94502847D02*
X128700000Y-93470000D01*
X127667153Y-97917153D02*
X127667153Y-94502847D01*
%TO.N,/RESET*%
X147540000Y-88534694D02*
X147542347Y-88532347D01*
X147540000Y-90678000D02*
X147540000Y-88534694D01*
%TO.N,/SDA*%
X137420000Y-85290000D02*
X139320000Y-87190000D01*
X132410000Y-85290000D02*
X137420000Y-85290000D01*
X129430000Y-85080000D02*
X132200000Y-85080000D01*
X132200000Y-85080000D02*
X132410000Y-85290000D01*
%TO.N,GND*%
X151650000Y-94010000D02*
X152390000Y-94750000D01*
%TD*%
%TA.AperFunction,Conductor*%
%TO.N,GND*%
G36*
X152138156Y-80689838D02*
G01*
X152205151Y-80709674D01*
X152245591Y-80752407D01*
X153334304Y-82661383D01*
X154365192Y-84468967D01*
X154383714Y-84501443D01*
X154400000Y-84562874D01*
X154400000Y-86343336D01*
X154380315Y-86410375D01*
X154327511Y-86456130D01*
X154258353Y-86466074D01*
X154194797Y-86437049D01*
X154188319Y-86431018D01*
X154163149Y-86405848D01*
X154105606Y-86348305D01*
X153755180Y-85997879D01*
X153721695Y-85936556D01*
X153723087Y-85878103D01*
X153735061Y-85833415D01*
X153735060Y-85833415D01*
X153735063Y-85833408D01*
X153755659Y-85598000D01*
X153754393Y-85583535D01*
X153750310Y-85536857D01*
X153735063Y-85362592D01*
X153673903Y-85134337D01*
X153574035Y-84920171D01*
X153553799Y-84891270D01*
X153438494Y-84726597D01*
X153271402Y-84559506D01*
X153271395Y-84559501D01*
X153077834Y-84423967D01*
X153077830Y-84423965D01*
X153007190Y-84391025D01*
X152863663Y-84324097D01*
X152863659Y-84324096D01*
X152863655Y-84324094D01*
X152635413Y-84262938D01*
X152635403Y-84262936D01*
X152400001Y-84242341D01*
X152399999Y-84242341D01*
X152164596Y-84262936D01*
X152164586Y-84262938D01*
X151936344Y-84324094D01*
X151936335Y-84324098D01*
X151722171Y-84423964D01*
X151722169Y-84423965D01*
X151528600Y-84559503D01*
X151406673Y-84681430D01*
X151345350Y-84714914D01*
X151275658Y-84709930D01*
X151219725Y-84668058D01*
X151202810Y-84637081D01*
X151153797Y-84505671D01*
X151153793Y-84505664D01*
X151067547Y-84390455D01*
X151067544Y-84390452D01*
X150952335Y-84304206D01*
X150952328Y-84304202D01*
X150817482Y-84253908D01*
X150817483Y-84253908D01*
X150757883Y-84247501D01*
X150757881Y-84247500D01*
X150757873Y-84247500D01*
X150757864Y-84247500D01*
X148962129Y-84247500D01*
X148962123Y-84247501D01*
X148902516Y-84253908D01*
X148767671Y-84304202D01*
X148767664Y-84304206D01*
X148652455Y-84390452D01*
X148652452Y-84390455D01*
X148566206Y-84505664D01*
X148566202Y-84505671D01*
X148515908Y-84640517D01*
X148509501Y-84700116D01*
X148509500Y-84700135D01*
X148509500Y-86495870D01*
X148509501Y-86495876D01*
X148515908Y-86555483D01*
X148566202Y-86690328D01*
X148566206Y-86690335D01*
X148652452Y-86805544D01*
X148652455Y-86805547D01*
X148767664Y-86891793D01*
X148767671Y-86891797D01*
X148899081Y-86940810D01*
X148955015Y-86982681D01*
X148979432Y-87048145D01*
X148964580Y-87116418D01*
X148943430Y-87144673D01*
X148821503Y-87266600D01*
X148685965Y-87460169D01*
X148685964Y-87460171D01*
X148586098Y-87674335D01*
X148586094Y-87674344D01*
X148524938Y-87902586D01*
X148524936Y-87902596D01*
X148518896Y-87971632D01*
X148493443Y-88036700D01*
X148436851Y-88077678D01*
X148367089Y-88081555D01*
X148306305Y-88047101D01*
X148287980Y-88022821D01*
X148274881Y-88000132D01*
X148148217Y-87859458D01*
X147995081Y-87748198D01*
X147995076Y-87748195D01*
X147822154Y-87671204D01*
X147822149Y-87671202D01*
X147655816Y-87635848D01*
X147636993Y-87631847D01*
X147447701Y-87631847D01*
X147428878Y-87635848D01*
X147262544Y-87671202D01*
X147262539Y-87671204D01*
X147089617Y-87748195D01*
X147089612Y-87748198D01*
X146936476Y-87859458D01*
X146809813Y-88000132D01*
X146715168Y-88164062D01*
X146715165Y-88164069D01*
X146656674Y-88344087D01*
X146656673Y-88344091D01*
X146636887Y-88532347D01*
X146656673Y-88720603D01*
X146656674Y-88720606D01*
X146715165Y-88900624D01*
X146715168Y-88900631D01*
X146809814Y-89064563D01*
X146864520Y-89125320D01*
X146882650Y-89145455D01*
X146912880Y-89208446D01*
X146914500Y-89228427D01*
X146914500Y-89979312D01*
X146894815Y-90046351D01*
X146882650Y-90062284D01*
X146807466Y-90145784D01*
X146712821Y-90309715D01*
X146712818Y-90309722D01*
X146659549Y-90473669D01*
X146654326Y-90489744D01*
X146634540Y-90678000D01*
X146654326Y-90866256D01*
X146654327Y-90866259D01*
X146708184Y-91032015D01*
X146710179Y-91101856D01*
X146674099Y-91161689D01*
X146611398Y-91192517D01*
X146554258Y-91188994D01*
X146529046Y-91181346D01*
X146490226Y-91169570D01*
X146490224Y-91169569D01*
X146490226Y-91169569D01*
X146303895Y-91151218D01*
X146117563Y-91169569D01*
X146117561Y-91169570D01*
X145938392Y-91223921D01*
X145773271Y-91312179D01*
X145773268Y-91312181D01*
X145663009Y-91402670D01*
X145598699Y-91429983D01*
X145584344Y-91430817D01*
X145047480Y-91430817D01*
X144980441Y-91411132D01*
X144959799Y-91394498D01*
X144256449Y-90691148D01*
X144222964Y-90629825D01*
X144220727Y-90615620D01*
X144220388Y-90612174D01*
X144206747Y-90473669D01*
X144152396Y-90294499D01*
X144152395Y-90294497D01*
X144064137Y-90129376D01*
X144064135Y-90129373D01*
X143945357Y-89984642D01*
X143800626Y-89865864D01*
X143800623Y-89865862D01*
X143635502Y-89777604D01*
X143456333Y-89723253D01*
X143456331Y-89723252D01*
X143270000Y-89704901D01*
X143083668Y-89723252D01*
X143083666Y-89723253D01*
X142904497Y-89777604D01*
X142739376Y-89865862D01*
X142739373Y-89865864D01*
X142594641Y-89984643D01*
X142557430Y-90029985D01*
X142499684Y-90069319D01*
X142429839Y-90071188D01*
X142373897Y-90039000D01*
X142338736Y-90003839D01*
X142338732Y-90003836D01*
X142236292Y-89935387D01*
X142236283Y-89935382D01*
X142122454Y-89888233D01*
X142122455Y-89888233D01*
X142122452Y-89888232D01*
X142122448Y-89888231D01*
X142122444Y-89888230D01*
X142001610Y-89864195D01*
X142001606Y-89864195D01*
X141144053Y-89864195D01*
X141077014Y-89844510D01*
X141051905Y-89823169D01*
X141046178Y-89816809D01*
X141046174Y-89816805D01*
X140893039Y-89705546D01*
X140893034Y-89705543D01*
X140720112Y-89628552D01*
X140720107Y-89628550D01*
X140563692Y-89595304D01*
X140534951Y-89589195D01*
X140345659Y-89589195D01*
X140316918Y-89595304D01*
X140160502Y-89628550D01*
X140160497Y-89628552D01*
X139987575Y-89705543D01*
X139987570Y-89705546D01*
X139834434Y-89816806D01*
X139707771Y-89957480D01*
X139613126Y-90121410D01*
X139613123Y-90121417D01*
X139556886Y-90294499D01*
X139554631Y-90301439D01*
X139534845Y-90489695D01*
X139554631Y-90677951D01*
X139554632Y-90677954D01*
X139591609Y-90791757D01*
X139593604Y-90861598D01*
X139557524Y-90921431D01*
X139494823Y-90952259D01*
X139473678Y-90954075D01*
X138736296Y-90954075D01*
X138669257Y-90934390D01*
X138623502Y-90881586D01*
X138613558Y-90812428D01*
X138642583Y-90748872D01*
X138644146Y-90747103D01*
X138647097Y-90743826D01*
X138729421Y-90652396D01*
X138824067Y-90488464D01*
X138882562Y-90308436D01*
X138902348Y-90120180D01*
X138882562Y-89931924D01*
X138824067Y-89751896D01*
X138729421Y-89587964D01*
X138602759Y-89447292D01*
X138580066Y-89430805D01*
X138496125Y-89369818D01*
X138453459Y-89314488D01*
X138447480Y-89244875D01*
X138480086Y-89183080D01*
X138540924Y-89148723D01*
X138569010Y-89145500D01*
X141946252Y-89145500D01*
X142013291Y-89165185D01*
X142038400Y-89186526D01*
X142044126Y-89192885D01*
X142044130Y-89192889D01*
X142197265Y-89304148D01*
X142197270Y-89304151D01*
X142370192Y-89381142D01*
X142370197Y-89381144D01*
X142555354Y-89420500D01*
X142555355Y-89420500D01*
X142744644Y-89420500D01*
X142744646Y-89420500D01*
X142929803Y-89381144D01*
X143102730Y-89304151D01*
X143255871Y-89192888D01*
X143382533Y-89052216D01*
X143477179Y-88888284D01*
X143535674Y-88708256D01*
X143555460Y-88520000D01*
X143537397Y-88348142D01*
X144608086Y-88348142D01*
X144608086Y-89238185D01*
X144629316Y-89257427D01*
X144633723Y-89261624D01*
X144668376Y-89296277D01*
X144672573Y-89300684D01*
X144697301Y-89327967D01*
X144701276Y-89332576D01*
X144851147Y-89515194D01*
X144854892Y-89519993D01*
X144876832Y-89549576D01*
X144880338Y-89554554D01*
X144907565Y-89595304D01*
X144910820Y-89600445D01*
X144929746Y-89632022D01*
X144932745Y-89637316D01*
X145044107Y-89845661D01*
X145046363Y-89850142D01*
X145826714Y-89850142D01*
X145832368Y-89839047D01*
X145835463Y-89833346D01*
X145916500Y-89692983D01*
X145916500Y-89513296D01*
X145837811Y-89377001D01*
X145834715Y-89371300D01*
X145816892Y-89336323D01*
X145814098Y-89330466D01*
X145792833Y-89282711D01*
X145790348Y-89276712D01*
X145776263Y-89240023D01*
X145774094Y-89233899D01*
X145699440Y-89004138D01*
X145697596Y-88997912D01*
X145687427Y-88959959D01*
X145685911Y-88953643D01*
X145675044Y-88902508D01*
X145673861Y-88896128D01*
X145667719Y-88857345D01*
X145666872Y-88850910D01*
X145641622Y-88610670D01*
X145641113Y-88604200D01*
X145639057Y-88564975D01*
X145638887Y-88558484D01*
X145638887Y-88506210D01*
X145639057Y-88499719D01*
X145641113Y-88460494D01*
X145641622Y-88454024D01*
X145652751Y-88348142D01*
X144608086Y-88348142D01*
X143537397Y-88348142D01*
X143535674Y-88331744D01*
X143477179Y-88151716D01*
X143382533Y-87987784D01*
X143255871Y-87847112D01*
X143255870Y-87847111D01*
X143102734Y-87735851D01*
X143102729Y-87735848D01*
X142929807Y-87658857D01*
X142929802Y-87658855D01*
X142784001Y-87627865D01*
X142744646Y-87619500D01*
X142555354Y-87619500D01*
X142522897Y-87626398D01*
X142370197Y-87658855D01*
X142370192Y-87658857D01*
X142197270Y-87735848D01*
X142197265Y-87735851D01*
X142044130Y-87847110D01*
X142044126Y-87847114D01*
X142038400Y-87853474D01*
X141978913Y-87890121D01*
X141946252Y-87894500D01*
X140167839Y-87894500D01*
X140100800Y-87874815D01*
X140055045Y-87822011D01*
X140045101Y-87752853D01*
X140060452Y-87708500D01*
X140089114Y-87658855D01*
X140147179Y-87558284D01*
X140205674Y-87378256D01*
X140225460Y-87190000D01*
X140205674Y-87001744D01*
X140147179Y-86821716D01*
X140052533Y-86657784D01*
X139925871Y-86517112D01*
X139922371Y-86514569D01*
X139772734Y-86405851D01*
X139772729Y-86405848D01*
X139599807Y-86328857D01*
X139599802Y-86328855D01*
X139454001Y-86297865D01*
X139414646Y-86289500D01*
X139414645Y-86289500D01*
X139355452Y-86289500D01*
X139288413Y-86269815D01*
X139267771Y-86253181D01*
X138862732Y-85848142D01*
X142108086Y-85848142D01*
X142108086Y-86695706D01*
X142130828Y-86689613D01*
X142137140Y-86688098D01*
X142373420Y-86637876D01*
X142379803Y-86636693D01*
X142418582Y-86630551D01*
X142425012Y-86629704D01*
X142477000Y-86624237D01*
X142483477Y-86623727D01*
X142522717Y-86621670D01*
X142529208Y-86621500D01*
X142770792Y-86621500D01*
X142777283Y-86621670D01*
X142816523Y-86623727D01*
X142823000Y-86624237D01*
X142874988Y-86629704D01*
X142881418Y-86630551D01*
X142920197Y-86636693D01*
X142926580Y-86637876D01*
X143162860Y-86688098D01*
X143169172Y-86689613D01*
X143207105Y-86699777D01*
X143213326Y-86701620D01*
X143263046Y-86717773D01*
X143269171Y-86719942D01*
X143305852Y-86734023D01*
X143311849Y-86736507D01*
X143532528Y-86834762D01*
X143538383Y-86837554D01*
X143573364Y-86855376D01*
X143579070Y-86858474D01*
X143610086Y-86876379D01*
X143610086Y-85848142D01*
X144608086Y-85848142D01*
X144608086Y-87350142D01*
X146052126Y-87350142D01*
X146110086Y-87285770D01*
X146110086Y-86366434D01*
X146006414Y-86229152D01*
X145994368Y-86209697D01*
X145895239Y-86010619D01*
X145886973Y-85989281D01*
X145846816Y-85848142D01*
X144608086Y-85848142D01*
X143610086Y-85848142D01*
X142108086Y-85848142D01*
X138862732Y-85848142D01*
X138031771Y-85017181D01*
X137998286Y-84955858D01*
X138003270Y-84886166D01*
X138045142Y-84830233D01*
X138110606Y-84805816D01*
X138119452Y-84805500D01*
X140486532Y-84805500D01*
X140486533Y-84805499D01*
X140617036Y-84779541D01*
X140739969Y-84728620D01*
X140850606Y-84654695D01*
X141533482Y-83971819D01*
X141594805Y-83938334D01*
X141621163Y-83935500D01*
X141750449Y-83935500D01*
X141817488Y-83955185D01*
X141829114Y-83963647D01*
X141939373Y-84054135D01*
X141939376Y-84054137D01*
X142104497Y-84142395D01*
X142104499Y-84142396D01*
X142283666Y-84196746D01*
X142283668Y-84196747D01*
X142297518Y-84198111D01*
X142470000Y-84215099D01*
X142656331Y-84196747D01*
X142835501Y-84142396D01*
X143000625Y-84054136D01*
X143145357Y-83935357D01*
X143264136Y-83790625D01*
X143352396Y-83625501D01*
X143406747Y-83446331D01*
X143416418Y-83348142D01*
X144608086Y-83348142D01*
X144608086Y-84850142D01*
X145984490Y-84850142D01*
X145994368Y-84830304D01*
X146006414Y-84810848D01*
X146110086Y-84673564D01*
X146110086Y-83348142D01*
X147108086Y-83348142D01*
X147108086Y-84196000D01*
X147241196Y-84196000D01*
X147263981Y-84198111D01*
X147482587Y-84238975D01*
X147504596Y-84245237D01*
X147586366Y-84276915D01*
X147643587Y-84123498D01*
X147646975Y-84115318D01*
X147669233Y-84066581D01*
X147673195Y-84058667D01*
X147707372Y-83996077D01*
X147711890Y-83988463D01*
X147740854Y-83943396D01*
X147745902Y-83936126D01*
X147874886Y-83763827D01*
X147880439Y-83756936D01*
X147915519Y-83716451D01*
X147921551Y-83709972D01*
X147971972Y-83659551D01*
X147978451Y-83653519D01*
X148018936Y-83618439D01*
X148025827Y-83612886D01*
X148198126Y-83483902D01*
X148205396Y-83478854D01*
X148250463Y-83449890D01*
X148258077Y-83445372D01*
X148320667Y-83411195D01*
X148328581Y-83407233D01*
X148377318Y-83384975D01*
X148385498Y-83381587D01*
X148475170Y-83348142D01*
X147108086Y-83348142D01*
X146110086Y-83348142D01*
X144608086Y-83348142D01*
X143416418Y-83348142D01*
X143425099Y-83260000D01*
X143406747Y-83073669D01*
X143352396Y-82894499D01*
X143314787Y-82824137D01*
X143264137Y-82729376D01*
X143264135Y-82729373D01*
X143145357Y-82584642D01*
X143000626Y-82465864D01*
X143000623Y-82465862D01*
X142835502Y-82377604D01*
X142656333Y-82323253D01*
X142656331Y-82323252D01*
X142470000Y-82304901D01*
X142283668Y-82323252D01*
X142283666Y-82323253D01*
X142104497Y-82377604D01*
X141939376Y-82465862D01*
X141939373Y-82465864D01*
X141829114Y-82556353D01*
X141764804Y-82583666D01*
X141750449Y-82584500D01*
X141223464Y-82584500D01*
X141092971Y-82610457D01*
X141092963Y-82610459D01*
X140970034Y-82661378D01*
X140970024Y-82661383D01*
X140859394Y-82735304D01*
X140859390Y-82735307D01*
X140176518Y-83418181D01*
X140115195Y-83451666D01*
X140088837Y-83454500D01*
X136291163Y-83454500D01*
X136224124Y-83434815D01*
X136203482Y-83418181D01*
X134846449Y-82061148D01*
X134812964Y-81999825D01*
X134810727Y-81985620D01*
X134796747Y-81843669D01*
X134782555Y-81796884D01*
X144608086Y-81796884D01*
X144608086Y-82350142D01*
X146110086Y-82350142D01*
X146110086Y-81802513D01*
X147108086Y-81802513D01*
X147108086Y-82350142D01*
X148610086Y-82350142D01*
X148610086Y-81808142D01*
X149608086Y-81808142D01*
X149608086Y-82350142D01*
X151110086Y-82350142D01*
X151110086Y-81811525D01*
X149608086Y-81808142D01*
X148610086Y-81808142D01*
X148610086Y-81805895D01*
X147108086Y-81802513D01*
X146110086Y-81802513D01*
X146110086Y-81800266D01*
X144608086Y-81796884D01*
X134782555Y-81796884D01*
X134742396Y-81664499D01*
X134654136Y-81499375D01*
X134654135Y-81499373D01*
X134535357Y-81354642D01*
X134390626Y-81235864D01*
X134390623Y-81235862D01*
X134225502Y-81147604D01*
X134046333Y-81093253D01*
X134046331Y-81093252D01*
X133860000Y-81074901D01*
X133673668Y-81093252D01*
X133673666Y-81093253D01*
X133494497Y-81147604D01*
X133329376Y-81235862D01*
X133329373Y-81235864D01*
X133184642Y-81354642D01*
X133065864Y-81499373D01*
X133065862Y-81499376D01*
X132977604Y-81664497D01*
X132923253Y-81843666D01*
X132923252Y-81843668D01*
X132904901Y-82030000D01*
X132923252Y-82216331D01*
X132923253Y-82216333D01*
X132977604Y-82395502D01*
X133065862Y-82560623D01*
X133065864Y-82560626D01*
X133184642Y-82705357D01*
X133329373Y-82824135D01*
X133329376Y-82824137D01*
X133461012Y-82894497D01*
X133494499Y-82912396D01*
X133673669Y-82966747D01*
X133815621Y-82980727D01*
X133880408Y-83006887D01*
X133891148Y-83016449D01*
X135327518Y-84452819D01*
X135361003Y-84514142D01*
X135356019Y-84583834D01*
X135314147Y-84639767D01*
X135248683Y-84664184D01*
X135239837Y-84664500D01*
X133338904Y-84664500D01*
X133271865Y-84644815D01*
X133226110Y-84592011D01*
X133216166Y-84522853D01*
X133240774Y-84468967D01*
X133238715Y-84467471D01*
X133242529Y-84462220D01*
X133242533Y-84462216D01*
X133337179Y-84298284D01*
X133395674Y-84118256D01*
X133415460Y-83930000D01*
X133395674Y-83741744D01*
X133337179Y-83561716D01*
X133242533Y-83397784D01*
X133115871Y-83257112D01*
X133115870Y-83257111D01*
X132962734Y-83145851D01*
X132962729Y-83145848D01*
X132789807Y-83068857D01*
X132789802Y-83068855D01*
X132644001Y-83037865D01*
X132604646Y-83029500D01*
X132415354Y-83029500D01*
X132382897Y-83036398D01*
X132230197Y-83068855D01*
X132230192Y-83068857D01*
X132057270Y-83145848D01*
X132057265Y-83145851D01*
X131904130Y-83257110D01*
X131904126Y-83257114D01*
X131898400Y-83263474D01*
X131838913Y-83300121D01*
X131806252Y-83304500D01*
X129347666Y-83304500D01*
X129287248Y-83316518D01*
X129244020Y-83325116D01*
X129226823Y-83328537D01*
X129112993Y-83375687D01*
X129112984Y-83375692D01*
X129010545Y-83444140D01*
X128975832Y-83478854D01*
X128923419Y-83531267D01*
X128923416Y-83531270D01*
X128098209Y-84356478D01*
X127279520Y-85175167D01*
X127218197Y-85208652D01*
X127191839Y-85211486D01*
X127132645Y-85211486D01*
X127100188Y-85218384D01*
X126947488Y-85250841D01*
X126947483Y-85250843D01*
X126774561Y-85327834D01*
X126774556Y-85327837D01*
X126621420Y-85439097D01*
X126621419Y-85439098D01*
X126533396Y-85536857D01*
X126473909Y-85573505D01*
X126417056Y-85575502D01*
X126368571Y-85565858D01*
X126368566Y-85565857D01*
X126336607Y-85559500D01*
X126336606Y-85559500D01*
X120896607Y-85559500D01*
X120773393Y-85559500D01*
X120757411Y-85562679D01*
X120741428Y-85565858D01*
X120741427Y-85565857D01*
X120652555Y-85583535D01*
X120652543Y-85583538D01*
X120617630Y-85598000D01*
X120538717Y-85630686D01*
X120530201Y-85636377D01*
X120530196Y-85636380D01*
X120436271Y-85699138D01*
X120436269Y-85699139D01*
X120410224Y-85725185D01*
X120349142Y-85786267D01*
X120349139Y-85786270D01*
X119261270Y-86874139D01*
X119261267Y-86874142D01*
X119237029Y-86898380D01*
X119174142Y-86961266D01*
X119160573Y-86981573D01*
X119147096Y-87001744D01*
X119120388Y-87041715D01*
X119105684Y-87063720D01*
X119072347Y-87144207D01*
X119072154Y-87144674D01*
X119058537Y-87177545D01*
X119058535Y-87177553D01*
X119034500Y-87298389D01*
X119034500Y-91691944D01*
X119014815Y-91758983D01*
X118983386Y-91792261D01*
X118894132Y-91857109D01*
X118894123Y-91857116D01*
X118767466Y-91997785D01*
X118672821Y-92161715D01*
X118672818Y-92161722D01*
X118614794Y-92340303D01*
X118614326Y-92341744D01*
X118594540Y-92530000D01*
X118614326Y-92718256D01*
X118614327Y-92718259D01*
X118672818Y-92898277D01*
X118672821Y-92898284D01*
X118767467Y-93062216D01*
X118839461Y-93142173D01*
X118894129Y-93202888D01*
X119047265Y-93314148D01*
X119047270Y-93314151D01*
X119220192Y-93391142D01*
X119220197Y-93391144D01*
X119405354Y-93430500D01*
X119405355Y-93430500D01*
X119594644Y-93430500D01*
X119594646Y-93430500D01*
X119779803Y-93391144D01*
X119952730Y-93314151D01*
X120105871Y-93202888D01*
X120232533Y-93062216D01*
X120327179Y-92898284D01*
X120385674Y-92718256D01*
X120405460Y-92530000D01*
X120385674Y-92341744D01*
X120327179Y-92161716D01*
X120302112Y-92118298D01*
X120285500Y-92056300D01*
X120285500Y-89767908D01*
X120305185Y-89700869D01*
X120357989Y-89655114D01*
X120427147Y-89645170D01*
X120490703Y-89674195D01*
X120518858Y-89709455D01*
X120540862Y-89750623D01*
X120540864Y-89750626D01*
X120659642Y-89895357D01*
X120804373Y-90014135D01*
X120804376Y-90014137D01*
X120948107Y-90090962D01*
X120969499Y-90102396D01*
X121148666Y-90156746D01*
X121148668Y-90156747D01*
X121165374Y-90158392D01*
X121335000Y-90175099D01*
X121521331Y-90156747D01*
X121700501Y-90102396D01*
X121865625Y-90014136D01*
X122010357Y-89895357D01*
X122129136Y-89750625D01*
X122217396Y-89585501D01*
X122271747Y-89406331D01*
X122285727Y-89264376D01*
X122311887Y-89199590D01*
X122321440Y-89188859D01*
X122544821Y-88965478D01*
X122606141Y-88931996D01*
X122675833Y-88936980D01*
X122720180Y-88965481D01*
X124482017Y-90727318D01*
X124515502Y-90788641D01*
X124510518Y-90858333D01*
X124482017Y-90902680D01*
X120161148Y-95223549D01*
X120099825Y-95257034D01*
X120085622Y-95259271D01*
X119943667Y-95273253D01*
X119943666Y-95273253D01*
X119764497Y-95327604D01*
X119599376Y-95415862D01*
X119599373Y-95415864D01*
X119454642Y-95534642D01*
X119335864Y-95679373D01*
X119335862Y-95679376D01*
X119247604Y-95844497D01*
X119193253Y-96023666D01*
X119193252Y-96023668D01*
X119174901Y-96210000D01*
X119193253Y-96396331D01*
X119247604Y-96575502D01*
X119335860Y-96740619D01*
X119335864Y-96740626D01*
X119426353Y-96850885D01*
X119453666Y-96915194D01*
X119454500Y-96929550D01*
X119454500Y-98086535D01*
X119480457Y-98217028D01*
X119482227Y-98222863D01*
X119480900Y-98223265D01*
X119487620Y-98285762D01*
X119456345Y-98348241D01*
X119453271Y-98351426D01*
X117965307Y-99839390D01*
X117965304Y-99839394D01*
X117891383Y-99950024D01*
X117891378Y-99950034D01*
X117840459Y-100072963D01*
X117840457Y-100072971D01*
X117814546Y-100203234D01*
X117814544Y-100203248D01*
X117814500Y-100203469D01*
X117814500Y-100420449D01*
X117794815Y-100487488D01*
X117786353Y-100499114D01*
X117695864Y-100609373D01*
X117695862Y-100609376D01*
X117607604Y-100774497D01*
X117553253Y-100953666D01*
X117553252Y-100953668D01*
X117534901Y-101140000D01*
X117553252Y-101326331D01*
X117553253Y-101326333D01*
X117607604Y-101505502D01*
X117695862Y-101670623D01*
X117695864Y-101670626D01*
X117814642Y-101815357D01*
X117959373Y-101934135D01*
X117959376Y-101934137D01*
X118067027Y-101991677D01*
X118124499Y-102022396D01*
X118303666Y-102076746D01*
X118303668Y-102076747D01*
X118320374Y-102078392D01*
X118490000Y-102095099D01*
X118676331Y-102076747D01*
X118855501Y-102022396D01*
X119020625Y-101934136D01*
X119165357Y-101815357D01*
X119284136Y-101670625D01*
X119372396Y-101505501D01*
X119426747Y-101326331D01*
X119445099Y-101140000D01*
X119426747Y-100953669D01*
X119372396Y-100774499D01*
X119369656Y-100769373D01*
X119284139Y-100609380D01*
X119284135Y-100609373D01*
X119275104Y-100598369D01*
X119247791Y-100534059D01*
X119259582Y-100465191D01*
X119283273Y-100432026D01*
X120347322Y-99367978D01*
X120408641Y-99334496D01*
X120478333Y-99339480D01*
X120522680Y-99367981D01*
X122423549Y-101268850D01*
X122457034Y-101330173D01*
X122459271Y-101344376D01*
X122473253Y-101486332D01*
X122473253Y-101486333D01*
X122527604Y-101665502D01*
X122615862Y-101830623D01*
X122615864Y-101830626D01*
X122734642Y-101975357D01*
X122879373Y-102094135D01*
X122879376Y-102094137D01*
X123044497Y-102182395D01*
X123044499Y-102182396D01*
X123223666Y-102236746D01*
X123223668Y-102236747D01*
X123240374Y-102238392D01*
X123410000Y-102255099D01*
X123596331Y-102236747D01*
X123775501Y-102182396D01*
X123940625Y-102094136D01*
X124085357Y-101975357D01*
X124204136Y-101830625D01*
X124292396Y-101665501D01*
X124346747Y-101486331D01*
X124365099Y-101300000D01*
X124346747Y-101113669D01*
X124292396Y-100934499D01*
X124280430Y-100912112D01*
X124204137Y-100769376D01*
X124204135Y-100769373D01*
X124085357Y-100624642D01*
X123940626Y-100505864D01*
X123940623Y-100505862D01*
X123775502Y-100417604D01*
X123596332Y-100363253D01*
X123454376Y-100349271D01*
X123389589Y-100323110D01*
X123378850Y-100313549D01*
X121413443Y-98348142D01*
X124608086Y-98348142D01*
X124608086Y-99762578D01*
X124714782Y-99850142D01*
X126110086Y-99850142D01*
X129815835Y-99850142D01*
X131110086Y-99850142D01*
X131110086Y-98907415D01*
X131028187Y-98966918D01*
X131022834Y-98970597D01*
X130989877Y-98991998D01*
X130984342Y-98995390D01*
X130939070Y-99021526D01*
X130933364Y-99024624D01*
X130898383Y-99042446D01*
X130892528Y-99045238D01*
X130671849Y-99143493D01*
X130665852Y-99145977D01*
X130629171Y-99160058D01*
X130623046Y-99162227D01*
X130573326Y-99178380D01*
X130567105Y-99180223D01*
X130529172Y-99190387D01*
X130522858Y-99191903D01*
X130460900Y-99205071D01*
X129956600Y-99709370D01*
X129956570Y-99709406D01*
X129815835Y-99850142D01*
X126110086Y-99850142D01*
X126110086Y-99681366D01*
X124776862Y-98348142D01*
X124608086Y-98348142D01*
X121413443Y-98348142D01*
X120841819Y-97776518D01*
X120808334Y-97715195D01*
X120805500Y-97688837D01*
X120805500Y-97350142D01*
X122108086Y-97350142D01*
X123610086Y-97350142D01*
X123610086Y-97181365D01*
X123566125Y-97137406D01*
X123561928Y-97132998D01*
X123537195Y-97105710D01*
X123533217Y-97101098D01*
X123502128Y-97063214D01*
X123498386Y-97058419D01*
X123476453Y-97028846D01*
X123472948Y-97023870D01*
X123402417Y-96918314D01*
X123402417Y-96918313D01*
X123377275Y-96880687D01*
X123377264Y-96880670D01*
X123362308Y-96858286D01*
X123357195Y-96847478D01*
X123355080Y-96843948D01*
X123352086Y-96838663D01*
X123328982Y-96795439D01*
X123326245Y-96790002D01*
X123310498Y-96756708D01*
X123308031Y-96751143D01*
X123259284Y-96633454D01*
X123259284Y-96633453D01*
X123242140Y-96592069D01*
X123242096Y-96591958D01*
X123231001Y-96565169D01*
X123223945Y-96541910D01*
X123223058Y-96537454D01*
X123211397Y-96499011D01*
X123209774Y-96493147D01*
X123200826Y-96457426D01*
X123199493Y-96451486D01*
X123165895Y-96282573D01*
X123164854Y-96276576D01*
X123159451Y-96240151D01*
X123158706Y-96234110D01*
X123153903Y-96185341D01*
X123153455Y-96179270D01*
X123151649Y-96142495D01*
X123151500Y-96136413D01*
X123151500Y-95848142D01*
X122858541Y-95848142D01*
X122108086Y-96598596D01*
X122108086Y-97350142D01*
X120805500Y-97350142D01*
X120805500Y-96929550D01*
X120825185Y-96862511D01*
X120833647Y-96850885D01*
X120841213Y-96841666D01*
X120924136Y-96740625D01*
X121012396Y-96575501D01*
X121066747Y-96396331D01*
X121080727Y-96254376D01*
X121106887Y-96189590D01*
X121116440Y-96178859D01*
X122505300Y-94790000D01*
X123869540Y-94790000D01*
X123889326Y-94978256D01*
X123889327Y-94978259D01*
X123947818Y-95158277D01*
X123947821Y-95158284D01*
X124042467Y-95322216D01*
X124085772Y-95370310D01*
X124117650Y-95405715D01*
X124147880Y-95468706D01*
X124149500Y-95488687D01*
X124149500Y-96111911D01*
X124173537Y-96232757D01*
X124181301Y-96251501D01*
X124181302Y-96251505D01*
X124181303Y-96251505D01*
X124220688Y-96346591D01*
X124230669Y-96361529D01*
X124253923Y-96396329D01*
X124253924Y-96396331D01*
X124289140Y-96449036D01*
X124289141Y-96449037D01*
X124289142Y-96449038D01*
X124376267Y-96536163D01*
X124376268Y-96536163D01*
X124383335Y-96543230D01*
X124383334Y-96543230D01*
X124383338Y-96543233D01*
X126968111Y-99128008D01*
X126968115Y-99128011D01*
X127070558Y-99196462D01*
X127070559Y-99196462D01*
X127070563Y-99196465D01*
X127137244Y-99224084D01*
X127137246Y-99224086D01*
X127184391Y-99243614D01*
X127184396Y-99243616D01*
X127204445Y-99247604D01*
X127235866Y-99253854D01*
X127305240Y-99267654D01*
X127305242Y-99267654D01*
X127434569Y-99267654D01*
X127434589Y-99267653D01*
X128789454Y-99267653D01*
X128849876Y-99255634D01*
X128910299Y-99243616D01*
X128910302Y-99243614D01*
X128910305Y-99243614D01*
X128943634Y-99229807D01*
X128943633Y-99229807D01*
X128943639Y-99229805D01*
X129024133Y-99196465D01*
X129090422Y-99152171D01*
X129126580Y-99128011D01*
X129213705Y-99040886D01*
X129213706Y-99040884D01*
X129220772Y-99033818D01*
X129220774Y-99033814D01*
X129906448Y-98348142D01*
X132108086Y-98348142D01*
X132108086Y-99850142D01*
X133610086Y-99850142D01*
X142108086Y-99850142D01*
X143610086Y-99850142D01*
X143610086Y-98960007D01*
X143515632Y-99149697D01*
X143503586Y-99169152D01*
X143369564Y-99346625D01*
X143354148Y-99363535D01*
X143189798Y-99513360D01*
X143171538Y-99527150D01*
X142982456Y-99644225D01*
X142961972Y-99654425D01*
X142754596Y-99734763D01*
X142732587Y-99741025D01*
X142513981Y-99781889D01*
X142491196Y-99784000D01*
X142268804Y-99784000D01*
X142246019Y-99781889D01*
X142108086Y-99756105D01*
X142108086Y-99850142D01*
X133610086Y-99850142D01*
X133610086Y-98376060D01*
X133582168Y-98348142D01*
X132108086Y-98348142D01*
X129906448Y-98348142D01*
X129957771Y-98296819D01*
X130019094Y-98263334D01*
X130045452Y-98260500D01*
X130104644Y-98260500D01*
X130104646Y-98260500D01*
X130289803Y-98221144D01*
X130462730Y-98144151D01*
X130615871Y-98032888D01*
X130742533Y-97892216D01*
X130837179Y-97728284D01*
X130895674Y-97548256D01*
X130915460Y-97360000D01*
X130895674Y-97171744D01*
X130837179Y-96991716D01*
X130742533Y-96827784D01*
X130615871Y-96687112D01*
X130583017Y-96663242D01*
X130462734Y-96575851D01*
X130462729Y-96575848D01*
X130289807Y-96498857D01*
X130289802Y-96498855D01*
X130144001Y-96467865D01*
X130104646Y-96459500D01*
X129915354Y-96459500D01*
X129884171Y-96466128D01*
X129730197Y-96498855D01*
X129730192Y-96498857D01*
X129557270Y-96575848D01*
X129557265Y-96575851D01*
X129404129Y-96687111D01*
X129277468Y-96827783D01*
X129277466Y-96827784D01*
X129182821Y-96991715D01*
X129182818Y-96991722D01*
X129136915Y-97132998D01*
X129124326Y-97171744D01*
X129121352Y-97200044D01*
X129106678Y-97339651D01*
X129080093Y-97404266D01*
X129071038Y-97414370D01*
X128745860Y-97739548D01*
X128684537Y-97773033D01*
X128614845Y-97768049D01*
X128558912Y-97726177D01*
X128540249Y-97690188D01*
X128494332Y-97548869D01*
X128399686Y-97384937D01*
X128389581Y-97373714D01*
X128324503Y-97301437D01*
X128294273Y-97238445D01*
X128292653Y-97218465D01*
X128292653Y-94850142D01*
X130010242Y-94850142D01*
X131110086Y-94850142D01*
X131110086Y-94283500D01*
X130425901Y-94283500D01*
X130420667Y-94283371D01*
X130407632Y-94308953D01*
X130404537Y-94314654D01*
X130283757Y-94523854D01*
X130280364Y-94529391D01*
X130258965Y-94562342D01*
X130255286Y-94567695D01*
X130224557Y-94609987D01*
X130220606Y-94615136D01*
X130195892Y-94645654D01*
X130191677Y-94650588D01*
X130030038Y-94830106D01*
X130025569Y-94834815D01*
X130010242Y-94850142D01*
X128292653Y-94850142D01*
X128292653Y-94813299D01*
X128312338Y-94746260D01*
X128328972Y-94725618D01*
X128647771Y-94406819D01*
X128709094Y-94373334D01*
X128735452Y-94370500D01*
X128794644Y-94370500D01*
X128794646Y-94370500D01*
X128979803Y-94331144D01*
X129152730Y-94254151D01*
X129305871Y-94142888D01*
X129432533Y-94002216D01*
X129527179Y-93838284D01*
X129585674Y-93658256D01*
X129605460Y-93470000D01*
X129585674Y-93281744D01*
X129527179Y-93101716D01*
X129432533Y-92937784D01*
X129305871Y-92797112D01*
X129300560Y-92793253D01*
X129152734Y-92685851D01*
X129152729Y-92685848D01*
X128979807Y-92608857D01*
X128979802Y-92608855D01*
X128834001Y-92577865D01*
X128794646Y-92569500D01*
X128605354Y-92569500D01*
X128572897Y-92576398D01*
X128420197Y-92608855D01*
X128420192Y-92608857D01*
X128247270Y-92685848D01*
X128247265Y-92685851D01*
X128094129Y-92797111D01*
X127967466Y-92937785D01*
X127872821Y-93101715D01*
X127872818Y-93101722D01*
X127816192Y-93276000D01*
X127814326Y-93281744D01*
X127806417Y-93356993D01*
X127796678Y-93449651D01*
X127770093Y-93514266D01*
X127761038Y-93524370D01*
X127292659Y-93992749D01*
X127231336Y-94026234D01*
X127161644Y-94021250D01*
X127138512Y-94008831D01*
X127138359Y-94009098D01*
X127132733Y-94005850D01*
X126959807Y-93928857D01*
X126959802Y-93928855D01*
X126799651Y-93894815D01*
X126774646Y-93889500D01*
X126585354Y-93889500D01*
X126560349Y-93894815D01*
X126400197Y-93928855D01*
X126400192Y-93928857D01*
X126227270Y-94005848D01*
X126227265Y-94005851D01*
X126074130Y-94117110D01*
X126074126Y-94117114D01*
X126068400Y-94123474D01*
X126008913Y-94160121D01*
X125976252Y-94164500D01*
X125478748Y-94164500D01*
X125411709Y-94144815D01*
X125386600Y-94123474D01*
X125380873Y-94117114D01*
X125380869Y-94117110D01*
X125227734Y-94005851D01*
X125227729Y-94005848D01*
X125054807Y-93928857D01*
X125054802Y-93928855D01*
X124894651Y-93894815D01*
X124869646Y-93889500D01*
X124680354Y-93889500D01*
X124655349Y-93894815D01*
X124495197Y-93928855D01*
X124495192Y-93928857D01*
X124322270Y-94005848D01*
X124322265Y-94005851D01*
X124169129Y-94117111D01*
X124042466Y-94257785D01*
X123947821Y-94421715D01*
X123947818Y-94421722D01*
X123900389Y-94567695D01*
X123889326Y-94601744D01*
X123869540Y-94790000D01*
X122505300Y-94790000D01*
X125762418Y-91532883D01*
X125823741Y-91499398D01*
X125850099Y-91496564D01*
X128008447Y-91496564D01*
X128075486Y-91516249D01*
X128087112Y-91524711D01*
X128197371Y-91615199D01*
X128197374Y-91615201D01*
X128328608Y-91685346D01*
X128362497Y-91703460D01*
X128541667Y-91757811D01*
X128683619Y-91771791D01*
X128748406Y-91797951D01*
X128759146Y-91807513D01*
X129992239Y-93040606D01*
X130086328Y-93134695D01*
X130086331Y-93134697D01*
X130086332Y-93134698D01*
X130196954Y-93208613D01*
X130196956Y-93208614D01*
X130196965Y-93208620D01*
X130222880Y-93219354D01*
X130222881Y-93219355D01*
X130222882Y-93219355D01*
X130319898Y-93259541D01*
X130450398Y-93285499D01*
X130450402Y-93285500D01*
X130450403Y-93285500D01*
X130583465Y-93285500D01*
X131849369Y-93285500D01*
X131916408Y-93305185D01*
X131962163Y-93357989D01*
X131972689Y-93422459D01*
X131964540Y-93500000D01*
X131984326Y-93688256D01*
X131984327Y-93688259D01*
X132042818Y-93868277D01*
X132042821Y-93868284D01*
X132137467Y-94032216D01*
X132235054Y-94140597D01*
X132264129Y-94172888D01*
X132417265Y-94284148D01*
X132417270Y-94284151D01*
X132590192Y-94361142D01*
X132590197Y-94361144D01*
X132775354Y-94400500D01*
X132775355Y-94400500D01*
X132964644Y-94400500D01*
X132964646Y-94400500D01*
X133149803Y-94361144D01*
X133322730Y-94284151D01*
X133466894Y-94179409D01*
X133532698Y-94155931D01*
X133600752Y-94171756D01*
X133627458Y-94192048D01*
X135202773Y-95767364D01*
X135236258Y-95828687D01*
X135231274Y-95898379D01*
X135222479Y-95917044D01*
X135167823Y-96011710D01*
X135167818Y-96011722D01*
X135110026Y-96189590D01*
X135109326Y-96191744D01*
X135103046Y-96251498D01*
X135091481Y-96361529D01*
X135064896Y-96426144D01*
X135007599Y-96466128D01*
X134937780Y-96468788D01*
X134877606Y-96433278D01*
X134846183Y-96370873D01*
X134844842Y-96361554D01*
X134830674Y-96226744D01*
X134772179Y-96046716D01*
X134677533Y-95882784D01*
X134550871Y-95742112D01*
X134550870Y-95742111D01*
X134397734Y-95630851D01*
X134397729Y-95630848D01*
X134224807Y-95553857D01*
X134224802Y-95553855D01*
X134079001Y-95522865D01*
X134039646Y-95514500D01*
X133850354Y-95514500D01*
X133817897Y-95521398D01*
X133665197Y-95553855D01*
X133665192Y-95553857D01*
X133492270Y-95630848D01*
X133492265Y-95630851D01*
X133339129Y-95742111D01*
X133212466Y-95882785D01*
X133117821Y-96046715D01*
X133117818Y-96046722D01*
X133064105Y-96212036D01*
X133059326Y-96226744D01*
X133039540Y-96415000D01*
X133059326Y-96603256D01*
X133059327Y-96603259D01*
X133117818Y-96783277D01*
X133117821Y-96783284D01*
X133212467Y-96947216D01*
X133339129Y-97087888D01*
X133492265Y-97199148D01*
X133492270Y-97199151D01*
X133665192Y-97276142D01*
X133665197Y-97276144D01*
X133850354Y-97315500D01*
X133909548Y-97315500D01*
X133976587Y-97335185D01*
X133997229Y-97351819D01*
X134511016Y-97865606D01*
X134511045Y-97865637D01*
X134601263Y-97955855D01*
X134601267Y-97955858D01*
X134703707Y-98024307D01*
X134703711Y-98024309D01*
X134703714Y-98024311D01*
X134817548Y-98071463D01*
X134877971Y-98083481D01*
X134938393Y-98095500D01*
X134938394Y-98095500D01*
X135494366Y-98095500D01*
X135561405Y-98115185D01*
X135607160Y-98167989D01*
X135617686Y-98232460D01*
X135608934Y-98315742D01*
X135628720Y-98503998D01*
X135628721Y-98504001D01*
X135687212Y-98684019D01*
X135687215Y-98684026D01*
X135781861Y-98847958D01*
X135874068Y-98950364D01*
X135908523Y-98988630D01*
X136061659Y-99099890D01*
X136061664Y-99099893D01*
X136234586Y-99176884D01*
X136234591Y-99176886D01*
X136419748Y-99216242D01*
X136419749Y-99216242D01*
X136609038Y-99216242D01*
X136609040Y-99216242D01*
X136794197Y-99176886D01*
X136967124Y-99099893D01*
X137120265Y-98988630D01*
X137124301Y-98984148D01*
X137125994Y-98982268D01*
X137185481Y-98945621D01*
X137218142Y-98941242D01*
X140144802Y-98941242D01*
X140211841Y-98960927D01*
X140217685Y-98964922D01*
X140237270Y-98979151D01*
X140237271Y-98979151D01*
X140237272Y-98979152D01*
X140410192Y-99056142D01*
X140410197Y-99056144D01*
X140595354Y-99095500D01*
X140595355Y-99095500D01*
X140784644Y-99095500D01*
X140784646Y-99095500D01*
X140969803Y-99056144D01*
X141142730Y-98979151D01*
X141295871Y-98867888D01*
X141422533Y-98727216D01*
X141517179Y-98563284D01*
X141575674Y-98383256D01*
X141579364Y-98348142D01*
X144608086Y-98348142D01*
X144608086Y-99850142D01*
X146110086Y-99850142D01*
X146110086Y-98348142D01*
X147108086Y-98348142D01*
X147108086Y-99850142D01*
X148610086Y-99850142D01*
X148610086Y-99805663D01*
X148416374Y-99664924D01*
X148411221Y-99660971D01*
X148380698Y-99636253D01*
X148375765Y-99632039D01*
X148336917Y-99597061D01*
X148332207Y-99592591D01*
X148304431Y-99564815D01*
X148299962Y-99560106D01*
X148138323Y-99380588D01*
X148134108Y-99375654D01*
X148109394Y-99345136D01*
X148105443Y-99339987D01*
X148074714Y-99297695D01*
X148071035Y-99292342D01*
X148049636Y-99259391D01*
X148046243Y-99253854D01*
X147925463Y-99044654D01*
X147922368Y-99038953D01*
X147904545Y-99003976D01*
X147901751Y-98998119D01*
X147880486Y-98950364D01*
X147878001Y-98944365D01*
X147863916Y-98907676D01*
X147861747Y-98901552D01*
X147787093Y-98671791D01*
X147785249Y-98665565D01*
X147775080Y-98627612D01*
X147773564Y-98621296D01*
X147762697Y-98570161D01*
X147761514Y-98563781D01*
X147755372Y-98524998D01*
X147754525Y-98518563D01*
X147736613Y-98348142D01*
X147108086Y-98348142D01*
X146110086Y-98348142D01*
X144608086Y-98348142D01*
X141579364Y-98348142D01*
X141594247Y-98206536D01*
X141620832Y-98141924D01*
X141678129Y-98101939D01*
X141717568Y-98095500D01*
X142151607Y-98095500D01*
X142212029Y-98083481D01*
X142272452Y-98071463D01*
X142272455Y-98071461D01*
X142272458Y-98071461D01*
X142305787Y-98057654D01*
X142305786Y-98057654D01*
X142305792Y-98057652D01*
X142386286Y-98024312D01*
X142437509Y-97990084D01*
X142488733Y-97955858D01*
X142575858Y-97868733D01*
X142575859Y-97868731D01*
X142582925Y-97861665D01*
X142582928Y-97861661D01*
X143094447Y-97350142D01*
X144608086Y-97350142D01*
X146110086Y-97350142D01*
X146110086Y-96446060D01*
X145759998Y-96095972D01*
X144608086Y-97247885D01*
X144608086Y-97350142D01*
X143094447Y-97350142D01*
X145138729Y-95305860D01*
X145138733Y-95305858D01*
X145225858Y-95218733D01*
X145294311Y-95116286D01*
X145294312Y-95116285D01*
X145323894Y-95044866D01*
X145341463Y-95002452D01*
X145365500Y-94881606D01*
X145365500Y-94708687D01*
X145385185Y-94641648D01*
X145397350Y-94625715D01*
X145453843Y-94562973D01*
X145513330Y-94526324D01*
X145583187Y-94527655D01*
X145633673Y-94558263D01*
X147209701Y-96134292D01*
X148774692Y-97699283D01*
X148808177Y-97760606D01*
X148803562Y-97825124D01*
X148804829Y-97825536D01*
X148758595Y-97967830D01*
X148744326Y-98011744D01*
X148724540Y-98200000D01*
X148744326Y-98388256D01*
X148744327Y-98388259D01*
X148802818Y-98568277D01*
X148802821Y-98568284D01*
X148897467Y-98732216D01*
X149001680Y-98847956D01*
X149024129Y-98872888D01*
X149177265Y-98984148D01*
X149177270Y-98984151D01*
X149350192Y-99061142D01*
X149350197Y-99061144D01*
X149535354Y-99100500D01*
X149535355Y-99100500D01*
X149724644Y-99100500D01*
X149724646Y-99100500D01*
X149909803Y-99061144D01*
X150082730Y-98984151D01*
X150235871Y-98872888D01*
X150362533Y-98732216D01*
X150457179Y-98568284D01*
X150515674Y-98388256D01*
X150535460Y-98200000D01*
X150515674Y-98011744D01*
X150457179Y-97831716D01*
X150362533Y-97667784D01*
X150263128Y-97557384D01*
X150233661Y-97498600D01*
X150231463Y-97487548D01*
X150184311Y-97373714D01*
X150184310Y-97373713D01*
X150184307Y-97373707D01*
X150115859Y-97271268D01*
X150080913Y-97236322D01*
X150028733Y-97184142D01*
X150028732Y-97184141D01*
X149507833Y-96663242D01*
X149474348Y-96601919D01*
X149479332Y-96532227D01*
X149521204Y-96476294D01*
X149522543Y-96475305D01*
X149525871Y-96472888D01*
X149652533Y-96332216D01*
X149747179Y-96168284D01*
X149805674Y-95988256D01*
X149825460Y-95800000D01*
X149805674Y-95611744D01*
X149747179Y-95431716D01*
X149652533Y-95267784D01*
X149525871Y-95127112D01*
X149525870Y-95127111D01*
X149372734Y-95015851D01*
X149372729Y-95015848D01*
X149199807Y-94938857D01*
X149199802Y-94938855D01*
X149054001Y-94907865D01*
X149014646Y-94899500D01*
X148825354Y-94899500D01*
X148792897Y-94906398D01*
X148640197Y-94938855D01*
X148640192Y-94938857D01*
X148467270Y-95015848D01*
X148467265Y-95015851D01*
X148314129Y-95127111D01*
X148239323Y-95210192D01*
X148179836Y-95246841D01*
X148109979Y-95245510D01*
X148059492Y-95214901D01*
X147094591Y-94250000D01*
X146107587Y-93262997D01*
X146074103Y-93201675D01*
X146079087Y-93131983D01*
X146120959Y-93076050D01*
X146186423Y-93051633D01*
X146207419Y-93051913D01*
X146303895Y-93061416D01*
X146490226Y-93043064D01*
X146669396Y-92988713D01*
X146834520Y-92900453D01*
X146979252Y-92781674D01*
X147098031Y-92636942D01*
X147186291Y-92471818D01*
X147240642Y-92292648D01*
X147258994Y-92106317D01*
X147240642Y-91919986D01*
X147186291Y-91740816D01*
X147180916Y-91730761D01*
X147166674Y-91662361D01*
X147191672Y-91597116D01*
X147247976Y-91555744D01*
X147316055Y-91551017D01*
X147358012Y-91559935D01*
X147445354Y-91578500D01*
X147445355Y-91578500D01*
X147634644Y-91578500D01*
X147634646Y-91578500D01*
X147819803Y-91539144D01*
X147992730Y-91462151D01*
X148145871Y-91350888D01*
X148272533Y-91210216D01*
X148349568Y-91076787D01*
X148400131Y-91028575D01*
X148468738Y-91015351D01*
X148533603Y-91041319D01*
X148574132Y-91098232D01*
X148576726Y-91106695D01*
X148586092Y-91141649D01*
X148586095Y-91141658D01*
X148586097Y-91141663D01*
X148668379Y-91318117D01*
X148685965Y-91355830D01*
X148685967Y-91355834D01*
X148760412Y-91462151D01*
X148821505Y-91549401D01*
X148988599Y-91716495D01*
X149061919Y-91767834D01*
X149182165Y-91852032D01*
X149182167Y-91852033D01*
X149182170Y-91852035D01*
X149396337Y-91951903D01*
X149396343Y-91951904D01*
X149396344Y-91951905D01*
X149428276Y-91960461D01*
X149624592Y-92013063D01*
X149806040Y-92028938D01*
X149859999Y-92033659D01*
X149860000Y-92033659D01*
X149860001Y-92033659D01*
X149899234Y-92030226D01*
X150095408Y-92013063D01*
X150323663Y-91951903D01*
X150537830Y-91852035D01*
X150731401Y-91716495D01*
X150898495Y-91549401D01*
X151028730Y-91363405D01*
X151083307Y-91319781D01*
X151152805Y-91312587D01*
X151215160Y-91344110D01*
X151231879Y-91363405D01*
X151361890Y-91549078D01*
X151528917Y-91716105D01*
X151722421Y-91851600D01*
X151936507Y-91951429D01*
X151936516Y-91951433D01*
X152150000Y-92008634D01*
X152150000Y-91111012D01*
X152207007Y-91143925D01*
X152334174Y-91178000D01*
X152465826Y-91178000D01*
X152592993Y-91143925D01*
X152650000Y-91111012D01*
X152650000Y-92008633D01*
X152843407Y-91956812D01*
X152913257Y-91958475D01*
X152971119Y-91997638D01*
X152998623Y-92061866D01*
X152999500Y-92076587D01*
X152999500Y-92974859D01*
X152997117Y-92999052D01*
X152991488Y-93027349D01*
X152989500Y-93037342D01*
X152989500Y-93276000D01*
X152969815Y-93343039D01*
X152917011Y-93388794D01*
X152865500Y-93400000D01*
X152640000Y-93400000D01*
X152640000Y-94316988D01*
X152582993Y-94284075D01*
X152455826Y-94250000D01*
X152324174Y-94250000D01*
X152197007Y-94284075D01*
X152140000Y-94316988D01*
X152140000Y-93400000D01*
X151492155Y-93400000D01*
X151432627Y-93406401D01*
X151432620Y-93406403D01*
X151297913Y-93456645D01*
X151297906Y-93456649D01*
X151182812Y-93542809D01*
X151182809Y-93542812D01*
X151096649Y-93657906D01*
X151096645Y-93657913D01*
X151046403Y-93792620D01*
X151046401Y-93792627D01*
X151040000Y-93852155D01*
X151040000Y-94500000D01*
X151956988Y-94500000D01*
X151924075Y-94557007D01*
X151890000Y-94684174D01*
X151890000Y-94815826D01*
X151924075Y-94942993D01*
X151956988Y-95000000D01*
X151040000Y-95000000D01*
X151040000Y-95647844D01*
X151046401Y-95707372D01*
X151046403Y-95707379D01*
X151096645Y-95842086D01*
X151096649Y-95842093D01*
X151182809Y-95957187D01*
X151182812Y-95957190D01*
X151297906Y-96043350D01*
X151297913Y-96043354D01*
X151429470Y-96092421D01*
X151485403Y-96134292D01*
X151509821Y-96199756D01*
X151494970Y-96268029D01*
X151473819Y-96296284D01*
X151351503Y-96418600D01*
X151215965Y-96612169D01*
X151215964Y-96612171D01*
X151116098Y-96826335D01*
X151116094Y-96826344D01*
X151054938Y-97054586D01*
X151054936Y-97054596D01*
X151034341Y-97289999D01*
X151034341Y-97290000D01*
X151054936Y-97525403D01*
X151054938Y-97525413D01*
X151116094Y-97753655D01*
X151116096Y-97753659D01*
X151116097Y-97753663D01*
X151169755Y-97868733D01*
X151215965Y-97967830D01*
X151215967Y-97967834D01*
X151309869Y-98101939D01*
X151339426Y-98144151D01*
X151351501Y-98161395D01*
X151351506Y-98161402D01*
X151518597Y-98328493D01*
X151518603Y-98328498D01*
X151704158Y-98458425D01*
X151747783Y-98513002D01*
X151754977Y-98582500D01*
X151723454Y-98644855D01*
X151704158Y-98661575D01*
X151518597Y-98791505D01*
X151351505Y-98958597D01*
X151215965Y-99152169D01*
X151215965Y-99152170D01*
X151116098Y-99366335D01*
X151116094Y-99366344D01*
X151054938Y-99594586D01*
X151054936Y-99594596D01*
X151034341Y-99829999D01*
X151034341Y-99830000D01*
X151054936Y-100065403D01*
X151054938Y-100065413D01*
X151116094Y-100293655D01*
X151116096Y-100293659D01*
X151116097Y-100293663D01*
X151180616Y-100432023D01*
X151215965Y-100507830D01*
X151215967Y-100507834D01*
X151351501Y-100701395D01*
X151351506Y-100701402D01*
X151518597Y-100868493D01*
X151518603Y-100868498D01*
X151704158Y-100998425D01*
X151747783Y-101053002D01*
X151754977Y-101122500D01*
X151723454Y-101184855D01*
X151704158Y-101201575D01*
X151518597Y-101331505D01*
X151351505Y-101498597D01*
X151215965Y-101692169D01*
X151215964Y-101692171D01*
X151116098Y-101906335D01*
X151116094Y-101906344D01*
X151054938Y-102134586D01*
X151054936Y-102134596D01*
X151034341Y-102369999D01*
X151034341Y-102370000D01*
X151054936Y-102605403D01*
X151054938Y-102605413D01*
X151116094Y-102833655D01*
X151116096Y-102833659D01*
X151116097Y-102833663D01*
X151215965Y-103047830D01*
X151215967Y-103047834D01*
X151324281Y-103202521D01*
X151351505Y-103241401D01*
X151518599Y-103408495D01*
X151543859Y-103426182D01*
X151712165Y-103544032D01*
X151712167Y-103544033D01*
X151712170Y-103544035D01*
X151926337Y-103643903D01*
X152154592Y-103705063D01*
X152323902Y-103719876D01*
X152389999Y-103725659D01*
X152390000Y-103725659D01*
X152390001Y-103725659D01*
X152429234Y-103722226D01*
X152625408Y-103705063D01*
X152853663Y-103643903D01*
X153067830Y-103544035D01*
X153261401Y-103408495D01*
X153428495Y-103241401D01*
X153564035Y-103047830D01*
X153663903Y-102833663D01*
X153725063Y-102605408D01*
X153745659Y-102370000D01*
X153745584Y-102369148D01*
X153735606Y-102255098D01*
X153725063Y-102134592D01*
X153672884Y-101939854D01*
X153663905Y-101906344D01*
X153663904Y-101906343D01*
X153663903Y-101906337D01*
X153564035Y-101692171D01*
X153548949Y-101670625D01*
X153428494Y-101498597D01*
X153261402Y-101331506D01*
X153261396Y-101331501D01*
X153075842Y-101201575D01*
X153032217Y-101146998D01*
X153025023Y-101077500D01*
X153056546Y-101015145D01*
X153075842Y-100998425D01*
X153123703Y-100964912D01*
X153261401Y-100868495D01*
X153428495Y-100701401D01*
X153564035Y-100507830D01*
X153663903Y-100293663D01*
X153725063Y-100065408D01*
X153745659Y-99830000D01*
X153725063Y-99594592D01*
X153678626Y-99421285D01*
X153663905Y-99366344D01*
X153663904Y-99366343D01*
X153663903Y-99366337D01*
X153584689Y-99196463D01*
X153564035Y-99152170D01*
X153564034Y-99152169D01*
X153428494Y-98958597D01*
X153261402Y-98791506D01*
X153261396Y-98791501D01*
X153075842Y-98661575D01*
X153032217Y-98606998D01*
X153025023Y-98537500D01*
X153056546Y-98475145D01*
X153075842Y-98458425D01*
X153176049Y-98388259D01*
X153261401Y-98328495D01*
X153428495Y-98161401D01*
X153564035Y-97967830D01*
X153663903Y-97753663D01*
X153725063Y-97525408D01*
X153745659Y-97290000D01*
X153725063Y-97054592D01*
X153713086Y-97009893D01*
X153714749Y-96940045D01*
X153745180Y-96890120D01*
X153948189Y-96687112D01*
X154188319Y-96446982D01*
X154249642Y-96413497D01*
X154319334Y-96418481D01*
X154375267Y-96460353D01*
X154399684Y-96525817D01*
X154400000Y-96534663D01*
X154400000Y-103370728D01*
X154386909Y-103426182D01*
X152344263Y-107511473D01*
X152296676Y-107562632D01*
X152233385Y-107580019D01*
X112148423Y-107589982D01*
X112081378Y-107570314D01*
X112043504Y-107532123D01*
X111511758Y-106688870D01*
X112314500Y-106688870D01*
X112314501Y-106688876D01*
X112320908Y-106748483D01*
X112371202Y-106883328D01*
X112371206Y-106883335D01*
X112457452Y-106998544D01*
X112457455Y-106998547D01*
X112572664Y-107084793D01*
X112572671Y-107084797D01*
X112707517Y-107135091D01*
X112707516Y-107135091D01*
X112714444Y-107135835D01*
X112767127Y-107141500D01*
X114562872Y-107141499D01*
X114622483Y-107135091D01*
X114757331Y-107084796D01*
X114872546Y-106998546D01*
X114958796Y-106883331D01*
X115007810Y-106751916D01*
X115049681Y-106695984D01*
X115115145Y-106671566D01*
X115183418Y-106686417D01*
X115211673Y-106707569D01*
X115333599Y-106829495D01*
X115430384Y-106897265D01*
X115527165Y-106965032D01*
X115527167Y-106965033D01*
X115527170Y-106965035D01*
X115741337Y-107064903D01*
X115969592Y-107126063D01*
X116146034Y-107141500D01*
X116204999Y-107146659D01*
X116205000Y-107146659D01*
X116205001Y-107146659D01*
X116263966Y-107141500D01*
X116440408Y-107126063D01*
X116668663Y-107064903D01*
X116882830Y-106965035D01*
X117076401Y-106829495D01*
X117243495Y-106662401D01*
X117373425Y-106476842D01*
X117428002Y-106433217D01*
X117497500Y-106426023D01*
X117559855Y-106457546D01*
X117576575Y-106476842D01*
X117706500Y-106662395D01*
X117706505Y-106662401D01*
X117873599Y-106829495D01*
X117970384Y-106897265D01*
X118067165Y-106965032D01*
X118067167Y-106965033D01*
X118067170Y-106965035D01*
X118281337Y-107064903D01*
X118509592Y-107126063D01*
X118686034Y-107141500D01*
X118744999Y-107146659D01*
X118745000Y-107146659D01*
X118745001Y-107146659D01*
X118803966Y-107141500D01*
X118980408Y-107126063D01*
X119208663Y-107064903D01*
X119422830Y-106965035D01*
X119616401Y-106829495D01*
X119783495Y-106662401D01*
X119913425Y-106476842D01*
X119968002Y-106433217D01*
X120037500Y-106426023D01*
X120099855Y-106457546D01*
X120116575Y-106476842D01*
X120246500Y-106662395D01*
X120246505Y-106662401D01*
X120413599Y-106829495D01*
X120510384Y-106897265D01*
X120607165Y-106965032D01*
X120607167Y-106965033D01*
X120607170Y-106965035D01*
X120821337Y-107064903D01*
X121049592Y-107126063D01*
X121226034Y-107141500D01*
X121284999Y-107146659D01*
X121285000Y-107146659D01*
X121285001Y-107146659D01*
X121343966Y-107141500D01*
X121520408Y-107126063D01*
X121748663Y-107064903D01*
X121962830Y-106965035D01*
X122156401Y-106829495D01*
X122323495Y-106662401D01*
X122453425Y-106476842D01*
X122508002Y-106433217D01*
X122577500Y-106426023D01*
X122639855Y-106457546D01*
X122656575Y-106476842D01*
X122786500Y-106662395D01*
X122786505Y-106662401D01*
X122953599Y-106829495D01*
X123050384Y-106897265D01*
X123147165Y-106965032D01*
X123147167Y-106965033D01*
X123147170Y-106965035D01*
X123361337Y-107064903D01*
X123589592Y-107126063D01*
X123766034Y-107141500D01*
X123824999Y-107146659D01*
X123825000Y-107146659D01*
X123825001Y-107146659D01*
X123883966Y-107141500D01*
X124060408Y-107126063D01*
X124288663Y-107064903D01*
X124502830Y-106965035D01*
X124696401Y-106829495D01*
X124863495Y-106662401D01*
X124993425Y-106476842D01*
X125048002Y-106433217D01*
X125117500Y-106426023D01*
X125179855Y-106457546D01*
X125196575Y-106476842D01*
X125326500Y-106662395D01*
X125326505Y-106662401D01*
X125493599Y-106829495D01*
X125590384Y-106897265D01*
X125687165Y-106965032D01*
X125687167Y-106965033D01*
X125687170Y-106965035D01*
X125901337Y-107064903D01*
X126129592Y-107126063D01*
X126306034Y-107141500D01*
X126364999Y-107146659D01*
X126365000Y-107146659D01*
X126365001Y-107146659D01*
X126423966Y-107141500D01*
X126600408Y-107126063D01*
X126828663Y-107064903D01*
X127042830Y-106965035D01*
X127236401Y-106829495D01*
X127403495Y-106662401D01*
X127533425Y-106476842D01*
X127588002Y-106433217D01*
X127657500Y-106426023D01*
X127719855Y-106457546D01*
X127736575Y-106476842D01*
X127866500Y-106662395D01*
X127866505Y-106662401D01*
X128033599Y-106829495D01*
X128130384Y-106897265D01*
X128227165Y-106965032D01*
X128227167Y-106965033D01*
X128227170Y-106965035D01*
X128441337Y-107064903D01*
X128669592Y-107126063D01*
X128846034Y-107141500D01*
X128904999Y-107146659D01*
X128905000Y-107146659D01*
X128905001Y-107146659D01*
X128963966Y-107141500D01*
X129140408Y-107126063D01*
X129368663Y-107064903D01*
X129582830Y-106965035D01*
X129776401Y-106829495D01*
X129943495Y-106662401D01*
X130073730Y-106476405D01*
X130128307Y-106432781D01*
X130197805Y-106425587D01*
X130260160Y-106457110D01*
X130276879Y-106476405D01*
X130406890Y-106662078D01*
X130573917Y-106829105D01*
X130767421Y-106964600D01*
X130981507Y-107064429D01*
X130981516Y-107064433D01*
X131195000Y-107121634D01*
X131195000Y-106224012D01*
X131252007Y-106256925D01*
X131379174Y-106291000D01*
X131510826Y-106291000D01*
X131637993Y-106256925D01*
X131695000Y-106224012D01*
X131695000Y-107121633D01*
X131908483Y-107064433D01*
X131908492Y-107064429D01*
X132122578Y-106964600D01*
X132316082Y-106829105D01*
X132483105Y-106662082D01*
X132613119Y-106476405D01*
X132667696Y-106432781D01*
X132737195Y-106425588D01*
X132799549Y-106457110D01*
X132816269Y-106476405D01*
X132946505Y-106662401D01*
X133113599Y-106829495D01*
X133210384Y-106897265D01*
X133307165Y-106965032D01*
X133307167Y-106965033D01*
X133307170Y-106965035D01*
X133521337Y-107064903D01*
X133749592Y-107126063D01*
X133926034Y-107141500D01*
X133984999Y-107146659D01*
X133985000Y-107146659D01*
X133985001Y-107146659D01*
X134043966Y-107141500D01*
X134220408Y-107126063D01*
X134448663Y-107064903D01*
X134662830Y-106965035D01*
X134856401Y-106829495D01*
X135023495Y-106662401D01*
X135093906Y-106561844D01*
X138096000Y-106561844D01*
X138102401Y-106621372D01*
X138102403Y-106621379D01*
X138152645Y-106756086D01*
X138152649Y-106756093D01*
X138238809Y-106871187D01*
X138238812Y-106871190D01*
X138353906Y-106957350D01*
X138353913Y-106957354D01*
X138488620Y-107007596D01*
X138488627Y-107007598D01*
X138548155Y-107013999D01*
X138548172Y-107014000D01*
X139196000Y-107014000D01*
X139196000Y-106097012D01*
X139253007Y-106129925D01*
X139380174Y-106164000D01*
X139511826Y-106164000D01*
X139638993Y-106129925D01*
X139696000Y-106097012D01*
X139696000Y-107014000D01*
X140343828Y-107014000D01*
X140343844Y-107013999D01*
X140403372Y-107007598D01*
X140403379Y-107007596D01*
X140538086Y-106957354D01*
X140538093Y-106957350D01*
X140653187Y-106871190D01*
X140653190Y-106871187D01*
X140739350Y-106756093D01*
X140739354Y-106756086D01*
X140788422Y-106624529D01*
X140830293Y-106568595D01*
X140895757Y-106544178D01*
X140964030Y-106559030D01*
X140992285Y-106580181D01*
X141114599Y-106702495D01*
X141180277Y-106748483D01*
X141308165Y-106838032D01*
X141308167Y-106838033D01*
X141308170Y-106838035D01*
X141522337Y-106937903D01*
X141750592Y-106999063D01*
X141921319Y-107014000D01*
X141985999Y-107019659D01*
X141986000Y-107019659D01*
X141986001Y-107019659D01*
X142050681Y-107014000D01*
X142221408Y-106999063D01*
X142449663Y-106937903D01*
X142663830Y-106838035D01*
X142857401Y-106702495D01*
X143024495Y-106535401D01*
X143154425Y-106349842D01*
X143209002Y-106306217D01*
X143278500Y-106299023D01*
X143340855Y-106330546D01*
X143357575Y-106349842D01*
X143487500Y-106535395D01*
X143487505Y-106535401D01*
X143654599Y-106702495D01*
X143720277Y-106748483D01*
X143848165Y-106838032D01*
X143848167Y-106838033D01*
X143848170Y-106838035D01*
X144062337Y-106937903D01*
X144290592Y-106999063D01*
X144461319Y-107014000D01*
X144525999Y-107019659D01*
X144526000Y-107019659D01*
X144526001Y-107019659D01*
X144590681Y-107014000D01*
X144761408Y-106999063D01*
X144989663Y-106937903D01*
X145203830Y-106838035D01*
X145397401Y-106702495D01*
X145564495Y-106535401D01*
X145694425Y-106349842D01*
X145749002Y-106306217D01*
X145818500Y-106299023D01*
X145880855Y-106330546D01*
X145897575Y-106349842D01*
X146027500Y-106535395D01*
X146027505Y-106535401D01*
X146194599Y-106702495D01*
X146260277Y-106748483D01*
X146388165Y-106838032D01*
X146388167Y-106838033D01*
X146388170Y-106838035D01*
X146602337Y-106937903D01*
X146830592Y-106999063D01*
X147001319Y-107014000D01*
X147065999Y-107019659D01*
X147066000Y-107019659D01*
X147066001Y-107019659D01*
X147130681Y-107014000D01*
X147301408Y-106999063D01*
X147529663Y-106937903D01*
X147743830Y-106838035D01*
X147937401Y-106702495D01*
X148104495Y-106535401D01*
X148240035Y-106341830D01*
X148339903Y-106127663D01*
X148401063Y-105899408D01*
X148405548Y-105848142D01*
X149608086Y-105848142D01*
X149608086Y-106456670D01*
X151110086Y-106456296D01*
X151110086Y-105848142D01*
X149608086Y-105848142D01*
X148405548Y-105848142D01*
X148421659Y-105664000D01*
X148401063Y-105428592D01*
X148339903Y-105200337D01*
X148240035Y-104986171D01*
X148234425Y-104978158D01*
X148104494Y-104792597D01*
X147937402Y-104625506D01*
X147937395Y-104625501D01*
X147927919Y-104618866D01*
X147887664Y-104590679D01*
X147743834Y-104489967D01*
X147743830Y-104489965D01*
X147743828Y-104489964D01*
X147529663Y-104390097D01*
X147529659Y-104390096D01*
X147529655Y-104390094D01*
X147301413Y-104328938D01*
X147301403Y-104328936D01*
X147066001Y-104308341D01*
X147065999Y-104308341D01*
X146830596Y-104328936D01*
X146830586Y-104328938D01*
X146602344Y-104390094D01*
X146602335Y-104390098D01*
X146388171Y-104489964D01*
X146388169Y-104489965D01*
X146194597Y-104625505D01*
X146027505Y-104792597D01*
X145897575Y-104978158D01*
X145842998Y-105021783D01*
X145773500Y-105028977D01*
X145711145Y-104997454D01*
X145694425Y-104978158D01*
X145564494Y-104792597D01*
X145397402Y-104625506D01*
X145397395Y-104625501D01*
X145387919Y-104618866D01*
X145347664Y-104590679D01*
X145203834Y-104489967D01*
X145203830Y-104489965D01*
X145203828Y-104489964D01*
X144989663Y-104390097D01*
X144989659Y-104390096D01*
X144989655Y-104390094D01*
X144761413Y-104328938D01*
X144761403Y-104328936D01*
X144526001Y-104308341D01*
X144525999Y-104308341D01*
X144290596Y-104328936D01*
X144290586Y-104328938D01*
X144062344Y-104390094D01*
X144062335Y-104390098D01*
X143848171Y-104489964D01*
X143848169Y-104489965D01*
X143654597Y-104625505D01*
X143487505Y-104792597D01*
X143357575Y-104978158D01*
X143302998Y-105021783D01*
X143233500Y-105028977D01*
X143171145Y-104997454D01*
X143154425Y-104978158D01*
X143024494Y-104792597D01*
X142857402Y-104625506D01*
X142857395Y-104625501D01*
X142847919Y-104618866D01*
X142807664Y-104590679D01*
X142663834Y-104489967D01*
X142663830Y-104489965D01*
X142663828Y-104489964D01*
X142449663Y-104390097D01*
X142449659Y-104390096D01*
X142449655Y-104390094D01*
X142221413Y-104328938D01*
X142221403Y-104328936D01*
X141986001Y-104308341D01*
X141985999Y-104308341D01*
X141750596Y-104328936D01*
X141750586Y-104328938D01*
X141522344Y-104390094D01*
X141522335Y-104390098D01*
X141308171Y-104489964D01*
X141308169Y-104489965D01*
X141114600Y-104625503D01*
X140992284Y-104747819D01*
X140930961Y-104781303D01*
X140861269Y-104776319D01*
X140805336Y-104734447D01*
X140788421Y-104703470D01*
X140739354Y-104571913D01*
X140739350Y-104571906D01*
X140653190Y-104456812D01*
X140653187Y-104456809D01*
X140538093Y-104370649D01*
X140538086Y-104370645D01*
X140403379Y-104320403D01*
X140403372Y-104320401D01*
X140343844Y-104314000D01*
X139696000Y-104314000D01*
X139696000Y-105230988D01*
X139638993Y-105198075D01*
X139511826Y-105164000D01*
X139380174Y-105164000D01*
X139253007Y-105198075D01*
X139196000Y-105230988D01*
X139196000Y-104314000D01*
X138548155Y-104314000D01*
X138488627Y-104320401D01*
X138488620Y-104320403D01*
X138353913Y-104370645D01*
X138353906Y-104370649D01*
X138238812Y-104456809D01*
X138238809Y-104456812D01*
X138152649Y-104571906D01*
X138152645Y-104571913D01*
X138102403Y-104706620D01*
X138102401Y-104706627D01*
X138096000Y-104766155D01*
X138096000Y-105414000D01*
X139012988Y-105414000D01*
X138980075Y-105471007D01*
X138946000Y-105598174D01*
X138946000Y-105729826D01*
X138980075Y-105856993D01*
X139012988Y-105914000D01*
X138096000Y-105914000D01*
X138096000Y-106561844D01*
X135093906Y-106561844D01*
X135159035Y-106468830D01*
X135258903Y-106254663D01*
X135320063Y-106026408D01*
X135340659Y-105791000D01*
X135320063Y-105555592D01*
X135258903Y-105327337D01*
X135159035Y-105113171D01*
X135153731Y-105105595D01*
X135023494Y-104919597D01*
X134856402Y-104752506D01*
X134856395Y-104752501D01*
X134849708Y-104747819D01*
X134817521Y-104725281D01*
X134662834Y-104616967D01*
X134662830Y-104616965D01*
X134662828Y-104616964D01*
X134448663Y-104517097D01*
X134448659Y-104517096D01*
X134448655Y-104517094D01*
X134220413Y-104455938D01*
X134220403Y-104455936D01*
X133985001Y-104435341D01*
X133984999Y-104435341D01*
X133749596Y-104455936D01*
X133749586Y-104455938D01*
X133521344Y-104517094D01*
X133521335Y-104517098D01*
X133307171Y-104616964D01*
X133307169Y-104616965D01*
X133113597Y-104752505D01*
X132946508Y-104919594D01*
X132816269Y-105105595D01*
X132761692Y-105149219D01*
X132692193Y-105156412D01*
X132629839Y-105124890D01*
X132613119Y-105105594D01*
X132483113Y-104919926D01*
X132483108Y-104919920D01*
X132316082Y-104752894D01*
X132122578Y-104617399D01*
X131908492Y-104517570D01*
X131908486Y-104517567D01*
X131695000Y-104460364D01*
X131695000Y-105357988D01*
X131637993Y-105325075D01*
X131510826Y-105291000D01*
X131379174Y-105291000D01*
X131252007Y-105325075D01*
X131195000Y-105357988D01*
X131195000Y-104460364D01*
X131194999Y-104460364D01*
X130981513Y-104517567D01*
X130981507Y-104517570D01*
X130767422Y-104617399D01*
X130767420Y-104617400D01*
X130573926Y-104752886D01*
X130573920Y-104752891D01*
X130406891Y-104919920D01*
X130406890Y-104919922D01*
X130276880Y-105105595D01*
X130222303Y-105149219D01*
X130152804Y-105156412D01*
X130090450Y-105124890D01*
X130073730Y-105105594D01*
X129943494Y-104919597D01*
X129776402Y-104752506D01*
X129776395Y-104752501D01*
X129769708Y-104747819D01*
X129737521Y-104725281D01*
X129582834Y-104616967D01*
X129582830Y-104616965D01*
X129582828Y-104616964D01*
X129368663Y-104517097D01*
X129368659Y-104517096D01*
X129368655Y-104517094D01*
X129140413Y-104455938D01*
X129140403Y-104455936D01*
X128905001Y-104435341D01*
X128904999Y-104435341D01*
X128669596Y-104455936D01*
X128669586Y-104455938D01*
X128441344Y-104517094D01*
X128441335Y-104517098D01*
X128227171Y-104616964D01*
X128227169Y-104616965D01*
X128033597Y-104752505D01*
X127866505Y-104919597D01*
X127736575Y-105105158D01*
X127681998Y-105148783D01*
X127612500Y-105155977D01*
X127550145Y-105124454D01*
X127533425Y-105105158D01*
X127403494Y-104919597D01*
X127236402Y-104752506D01*
X127236395Y-104752501D01*
X127229708Y-104747819D01*
X127197521Y-104725281D01*
X127042834Y-104616967D01*
X127042830Y-104616965D01*
X127042828Y-104616964D01*
X126828663Y-104517097D01*
X126828659Y-104517096D01*
X126828655Y-104517094D01*
X126600413Y-104455938D01*
X126600403Y-104455936D01*
X126365001Y-104435341D01*
X126364999Y-104435341D01*
X126129596Y-104455936D01*
X126129586Y-104455938D01*
X125901344Y-104517094D01*
X125901335Y-104517098D01*
X125687171Y-104616964D01*
X125687169Y-104616965D01*
X125493597Y-104752505D01*
X125326505Y-104919597D01*
X125196575Y-105105158D01*
X125141998Y-105148783D01*
X125072500Y-105155977D01*
X125010145Y-105124454D01*
X124993425Y-105105158D01*
X124863494Y-104919597D01*
X124696402Y-104752506D01*
X124696395Y-104752501D01*
X124689708Y-104747819D01*
X124657521Y-104725281D01*
X124502834Y-104616967D01*
X124502830Y-104616965D01*
X124502828Y-104616964D01*
X124288663Y-104517097D01*
X124288659Y-104517096D01*
X124288655Y-104517094D01*
X124060413Y-104455938D01*
X124060403Y-104455936D01*
X123825001Y-104435341D01*
X123824999Y-104435341D01*
X123589596Y-104455936D01*
X123589586Y-104455938D01*
X123361344Y-104517094D01*
X123361335Y-104517098D01*
X123147171Y-104616964D01*
X123147169Y-104616965D01*
X122953597Y-104752505D01*
X122786505Y-104919597D01*
X122656575Y-105105158D01*
X122601998Y-105148783D01*
X122532500Y-105155977D01*
X122470145Y-105124454D01*
X122453425Y-105105158D01*
X122323494Y-104919597D01*
X122156402Y-104752506D01*
X122156395Y-104752501D01*
X122149708Y-104747819D01*
X122117521Y-104725281D01*
X121962834Y-104616967D01*
X121962830Y-104616965D01*
X121962828Y-104616964D01*
X121748663Y-104517097D01*
X121748659Y-104517096D01*
X121748655Y-104517094D01*
X121520413Y-104455938D01*
X121520403Y-104455936D01*
X121285001Y-104435341D01*
X121284999Y-104435341D01*
X121049596Y-104455936D01*
X121049586Y-104455938D01*
X120821344Y-104517094D01*
X120821335Y-104517098D01*
X120607171Y-104616964D01*
X120607169Y-104616965D01*
X120413597Y-104752505D01*
X120246505Y-104919597D01*
X120116575Y-105105158D01*
X120061998Y-105148783D01*
X119992500Y-105155977D01*
X119930145Y-105124454D01*
X119913425Y-105105158D01*
X119783494Y-104919597D01*
X119616402Y-104752506D01*
X119616395Y-104752501D01*
X119609708Y-104747819D01*
X119577521Y-104725281D01*
X119422834Y-104616967D01*
X119422830Y-104616965D01*
X119422828Y-104616964D01*
X119208663Y-104517097D01*
X119208659Y-104517096D01*
X119208655Y-104517094D01*
X118980413Y-104455938D01*
X118980403Y-104455936D01*
X118745001Y-104435341D01*
X118744999Y-104435341D01*
X118509596Y-104455936D01*
X118509586Y-104455938D01*
X118281344Y-104517094D01*
X118281335Y-104517098D01*
X118067171Y-104616964D01*
X118067169Y-104616965D01*
X117873597Y-104752505D01*
X117706505Y-104919597D01*
X117576575Y-105105158D01*
X117521998Y-105148783D01*
X117452500Y-105155977D01*
X117390145Y-105124454D01*
X117373425Y-105105158D01*
X117243494Y-104919597D01*
X117076402Y-104752506D01*
X117076395Y-104752501D01*
X117069708Y-104747819D01*
X117037521Y-104725281D01*
X116882834Y-104616967D01*
X116882830Y-104616965D01*
X116882828Y-104616964D01*
X116668663Y-104517097D01*
X116668659Y-104517096D01*
X116668655Y-104517094D01*
X116440413Y-104455938D01*
X116440403Y-104455936D01*
X116205001Y-104435341D01*
X116204999Y-104435341D01*
X115969596Y-104455936D01*
X115969586Y-104455938D01*
X115741344Y-104517094D01*
X115741335Y-104517098D01*
X115527171Y-104616964D01*
X115527169Y-104616965D01*
X115333600Y-104752503D01*
X115211673Y-104874430D01*
X115150350Y-104907914D01*
X115080658Y-104902930D01*
X115024725Y-104861058D01*
X115007810Y-104830081D01*
X114958797Y-104698671D01*
X114958793Y-104698664D01*
X114872547Y-104583455D01*
X114872544Y-104583452D01*
X114757335Y-104497206D01*
X114757328Y-104497202D01*
X114622482Y-104446908D01*
X114622483Y-104446908D01*
X114562883Y-104440501D01*
X114562881Y-104440500D01*
X114562873Y-104440500D01*
X114562864Y-104440500D01*
X112767129Y-104440500D01*
X112767123Y-104440501D01*
X112707516Y-104446908D01*
X112572671Y-104497202D01*
X112572664Y-104497206D01*
X112457455Y-104583452D01*
X112457452Y-104583455D01*
X112371206Y-104698664D01*
X112371202Y-104698671D01*
X112320908Y-104833517D01*
X112314501Y-104893116D01*
X112314500Y-104893135D01*
X112314500Y-106688870D01*
X111511758Y-106688870D01*
X110518141Y-105113171D01*
X109419034Y-103370185D01*
X109412639Y-103348142D01*
X134608086Y-103348142D01*
X134608086Y-103526608D01*
X134728008Y-103558741D01*
X134733205Y-103560256D01*
X134764440Y-103570105D01*
X134769568Y-103571846D01*
X134810500Y-103586747D01*
X134815535Y-103588705D01*
X134845756Y-103601223D01*
X134850708Y-103603402D01*
X135104337Y-103721672D01*
X135109188Y-103724064D01*
X135138209Y-103739171D01*
X135142949Y-103741771D01*
X135180673Y-103763549D01*
X135185302Y-103766358D01*
X135212916Y-103783950D01*
X135217415Y-103786956D01*
X135446678Y-103947488D01*
X135451042Y-103950689D01*
X135477022Y-103970625D01*
X135481243Y-103974012D01*
X135514610Y-104002012D01*
X135518678Y-104005580D01*
X135542794Y-104027680D01*
X135546698Y-104031418D01*
X135744590Y-104229309D01*
X135748330Y-104233216D01*
X135770449Y-104257354D01*
X135774020Y-104261426D01*
X135802018Y-104294795D01*
X135805403Y-104299012D01*
X135825323Y-104324973D01*
X135828521Y-104329335D01*
X135989040Y-104558581D01*
X135992046Y-104563080D01*
X136009628Y-104590679D01*
X136012433Y-104595301D01*
X136034212Y-104633022D01*
X136036814Y-104637765D01*
X136051930Y-104666801D01*
X136054324Y-104671655D01*
X136110086Y-104791236D01*
X136110086Y-103348142D01*
X137108086Y-103348142D01*
X137108086Y-104618866D01*
X137113455Y-104568931D01*
X137114522Y-104561262D01*
X137122428Y-104515084D01*
X137123972Y-104507499D01*
X137138315Y-104446788D01*
X137140332Y-104439305D01*
X137153942Y-104394436D01*
X137156421Y-104387096D01*
X137230030Y-104189739D01*
X137233419Y-104181559D01*
X137255677Y-104132823D01*
X137259638Y-104124909D01*
X137293815Y-104062319D01*
X137298333Y-104054705D01*
X137327297Y-104009638D01*
X137332345Y-104002368D01*
X137461243Y-103830184D01*
X137466796Y-103823293D01*
X137501876Y-103782808D01*
X137507908Y-103776329D01*
X137558329Y-103725908D01*
X137564808Y-103719876D01*
X137605293Y-103684796D01*
X137612184Y-103679243D01*
X137784368Y-103550345D01*
X137791638Y-103545297D01*
X137836705Y-103516333D01*
X137844319Y-103511815D01*
X137906909Y-103477638D01*
X137914823Y-103473677D01*
X137963559Y-103451419D01*
X137971739Y-103448030D01*
X137999416Y-103437707D01*
X137901534Y-103416902D01*
X137895222Y-103415387D01*
X137857289Y-103405223D01*
X137851068Y-103403380D01*
X137801348Y-103387227D01*
X137795223Y-103385058D01*
X137758542Y-103370977D01*
X137752545Y-103368493D01*
X137706837Y-103348142D01*
X149608086Y-103348142D01*
X149608086Y-104850142D01*
X151110086Y-104850142D01*
X151110086Y-104340784D01*
X150928322Y-104213512D01*
X150923958Y-104210311D01*
X150897978Y-104190375D01*
X150893756Y-104186987D01*
X150860389Y-104158986D01*
X150856326Y-104155423D01*
X150832208Y-104133323D01*
X150828300Y-104129581D01*
X150630419Y-103931700D01*
X150626677Y-103927792D01*
X150604577Y-103903674D01*
X150601014Y-103899611D01*
X150573013Y-103866244D01*
X150569625Y-103862022D01*
X150549689Y-103836042D01*
X150546488Y-103831678D01*
X150385956Y-103602415D01*
X150382950Y-103597916D01*
X150365358Y-103570302D01*
X150362549Y-103565673D01*
X150340771Y-103527949D01*
X150338171Y-103523209D01*
X150323064Y-103494188D01*
X150320672Y-103489337D01*
X150254831Y-103348142D01*
X149608086Y-103348142D01*
X137706837Y-103348142D01*
X137108086Y-103348142D01*
X136110086Y-103348142D01*
X134608086Y-103348142D01*
X109412639Y-103348142D01*
X109399923Y-103304313D01*
X109394689Y-100848142D01*
X110518692Y-100848142D01*
X110521893Y-102350142D01*
X111110086Y-102350142D01*
X111110086Y-100848142D01*
X112108086Y-100848142D01*
X112108086Y-102350142D01*
X113610086Y-102350142D01*
X113610086Y-100848142D01*
X114608086Y-100848142D01*
X114608086Y-102350142D01*
X116110086Y-102350142D01*
X120017527Y-102350142D01*
X121110086Y-102350142D01*
X125056462Y-102350142D01*
X125780487Y-102350142D01*
X125759275Y-102148323D01*
X125758766Y-102141853D01*
X125756710Y-102102628D01*
X125756540Y-102096137D01*
X125756540Y-102070000D01*
X126754540Y-102070000D01*
X126774326Y-102258256D01*
X126774327Y-102258259D01*
X126832818Y-102438277D01*
X126832821Y-102438284D01*
X126927467Y-102602216D01*
X126930346Y-102605413D01*
X127054129Y-102742888D01*
X127207265Y-102854148D01*
X127207270Y-102854151D01*
X127380192Y-102931142D01*
X127380197Y-102931144D01*
X127565354Y-102970500D01*
X127565355Y-102970500D01*
X127754644Y-102970500D01*
X127754646Y-102970500D01*
X127939803Y-102931144D01*
X128112730Y-102854151D01*
X128265871Y-102742888D01*
X128392533Y-102602216D01*
X128487179Y-102438284D01*
X128533351Y-102296181D01*
X128572788Y-102238506D01*
X128637147Y-102211308D01*
X128651282Y-102210500D01*
X137710646Y-102210500D01*
X137777685Y-102230185D01*
X137802794Y-102251526D01*
X137808520Y-102257885D01*
X137808524Y-102257889D01*
X137961659Y-102369148D01*
X137961664Y-102369151D01*
X138134586Y-102446142D01*
X138134591Y-102446144D01*
X138319748Y-102485500D01*
X138319749Y-102485500D01*
X138509038Y-102485500D01*
X138509040Y-102485500D01*
X138694197Y-102446144D01*
X138867124Y-102369151D01*
X138893288Y-102350142D01*
X140157327Y-102350142D01*
X141110086Y-102350142D01*
X141110086Y-100848142D01*
X142108086Y-100848142D01*
X142108086Y-102350142D01*
X143610086Y-102350142D01*
X143610086Y-100848142D01*
X144608086Y-100848142D01*
X144608086Y-102350142D01*
X146110086Y-102350142D01*
X146110086Y-100848142D01*
X147108086Y-100848142D01*
X147108086Y-102350142D01*
X148610086Y-102350142D01*
X148610086Y-100848142D01*
X149608086Y-100848142D01*
X149608086Y-102350142D01*
X150036341Y-102350142D01*
X150036341Y-102348220D01*
X150036459Y-102342810D01*
X150037887Y-102310110D01*
X150038241Y-102304713D01*
X150062633Y-102025916D01*
X150063222Y-102020539D01*
X150067493Y-101988096D01*
X150068316Y-101982749D01*
X150075879Y-101939854D01*
X150076934Y-101934546D01*
X150084019Y-101902588D01*
X150085305Y-101897334D01*
X150157741Y-101626992D01*
X150159256Y-101621795D01*
X150169105Y-101590560D01*
X150170846Y-101585432D01*
X150185747Y-101544500D01*
X150187705Y-101539465D01*
X150200223Y-101509244D01*
X150202402Y-101504292D01*
X150320676Y-101250655D01*
X150323070Y-101245801D01*
X150338186Y-101216765D01*
X150340788Y-101212022D01*
X150362567Y-101174301D01*
X150365372Y-101169679D01*
X150382954Y-101142080D01*
X150385960Y-101137581D01*
X150412274Y-101099999D01*
X150385957Y-101062415D01*
X150382950Y-101057916D01*
X150365358Y-101030302D01*
X150362549Y-101025673D01*
X150340771Y-100987949D01*
X150338171Y-100983209D01*
X150323064Y-100954188D01*
X150320672Y-100949337D01*
X150273484Y-100848142D01*
X149608086Y-100848142D01*
X148610086Y-100848142D01*
X147108086Y-100848142D01*
X146110086Y-100848142D01*
X144608086Y-100848142D01*
X143610086Y-100848142D01*
X142108086Y-100848142D01*
X141110086Y-100848142D01*
X140169275Y-100848142D01*
X140180478Y-100877324D01*
X140182647Y-100883448D01*
X140257301Y-101113209D01*
X140259145Y-101119435D01*
X140269314Y-101157388D01*
X140270830Y-101163704D01*
X140281697Y-101214839D01*
X140282880Y-101221219D01*
X140289022Y-101260002D01*
X140289869Y-101266437D01*
X140315119Y-101506677D01*
X140315628Y-101513147D01*
X140317684Y-101552372D01*
X140317854Y-101558863D01*
X140317854Y-101611137D01*
X140317684Y-101617628D01*
X140315628Y-101656853D01*
X140315119Y-101663323D01*
X140289869Y-101903563D01*
X140289022Y-101909998D01*
X140282880Y-101948781D01*
X140281697Y-101955161D01*
X140270830Y-102006296D01*
X140269314Y-102012612D01*
X140259145Y-102050565D01*
X140257301Y-102056791D01*
X140182647Y-102286552D01*
X140180478Y-102292676D01*
X140166393Y-102329365D01*
X140163908Y-102335364D01*
X140157327Y-102350142D01*
X138893288Y-102350142D01*
X139020265Y-102257888D01*
X139146927Y-102117216D01*
X139241573Y-101953284D01*
X139300068Y-101773256D01*
X139319854Y-101585000D01*
X139300068Y-101396744D01*
X139241573Y-101216716D01*
X139146927Y-101052784D01*
X139020265Y-100912112D01*
X139020264Y-100912111D01*
X138867128Y-100800851D01*
X138867123Y-100800848D01*
X138694201Y-100723857D01*
X138694196Y-100723855D01*
X138548395Y-100692865D01*
X138509040Y-100684500D01*
X138319748Y-100684500D01*
X138287291Y-100691398D01*
X138134591Y-100723855D01*
X138134586Y-100723857D01*
X137961664Y-100800848D01*
X137961659Y-100800851D01*
X137808524Y-100912110D01*
X137808520Y-100912114D01*
X137802794Y-100918474D01*
X137743307Y-100955121D01*
X137710646Y-100959500D01*
X128212741Y-100959500D01*
X128212721Y-100959499D01*
X128206607Y-100959499D01*
X128083394Y-100959499D01*
X127982597Y-100979548D01*
X127982592Y-100979548D01*
X127962549Y-100983536D01*
X127962547Y-100983536D01*
X127915397Y-101003067D01*
X127848719Y-101030685D01*
X127848717Y-101030686D01*
X127746266Y-101099141D01*
X127746263Y-101099144D01*
X127712229Y-101133180D01*
X127650907Y-101166666D01*
X127624547Y-101169500D01*
X127565354Y-101169500D01*
X127542767Y-101174301D01*
X127380197Y-101208855D01*
X127380192Y-101208857D01*
X127207270Y-101285848D01*
X127207265Y-101285851D01*
X127054129Y-101397111D01*
X126927466Y-101537785D01*
X126832821Y-101701715D01*
X126832818Y-101701722D01*
X126790935Y-101830626D01*
X126774326Y-101881744D01*
X126754540Y-102070000D01*
X125756540Y-102070000D01*
X125756540Y-102043863D01*
X125756710Y-102037372D01*
X125758766Y-101998147D01*
X125759275Y-101991677D01*
X125784525Y-101751437D01*
X125785372Y-101745002D01*
X125791514Y-101706219D01*
X125792697Y-101699839D01*
X125803564Y-101648704D01*
X125805080Y-101642388D01*
X125815249Y-101604435D01*
X125817093Y-101598209D01*
X125891747Y-101368448D01*
X125893916Y-101362324D01*
X125908001Y-101325635D01*
X125910486Y-101319636D01*
X125931751Y-101271881D01*
X125934545Y-101266024D01*
X125952368Y-101231047D01*
X125955463Y-101225346D01*
X126076243Y-101016146D01*
X126079636Y-101010609D01*
X126101035Y-100977658D01*
X126104714Y-100972306D01*
X126110086Y-100964912D01*
X126110086Y-100848142D01*
X125309089Y-100848142D01*
X125310509Y-100853274D01*
X125319455Y-100888988D01*
X125320788Y-100894926D01*
X125330349Y-100942991D01*
X125331389Y-100948985D01*
X125336794Y-100985416D01*
X125337540Y-100991460D01*
X125360695Y-101226565D01*
X125361143Y-101232634D01*
X125362950Y-101269412D01*
X125363099Y-101275497D01*
X125363099Y-101324503D01*
X125362950Y-101330588D01*
X125361143Y-101367366D01*
X125360695Y-101373435D01*
X125337540Y-101608540D01*
X125336794Y-101614584D01*
X125331389Y-101651015D01*
X125330349Y-101657009D01*
X125320788Y-101705074D01*
X125319455Y-101711012D01*
X125310509Y-101746726D01*
X125308885Y-101752592D01*
X125240310Y-101978651D01*
X125238402Y-101984429D01*
X125226001Y-102019088D01*
X125223811Y-102024763D01*
X125205059Y-102070038D01*
X125202592Y-102075605D01*
X125186844Y-102108902D01*
X125184107Y-102114339D01*
X125072745Y-102322684D01*
X125069746Y-102327978D01*
X125056462Y-102350142D01*
X121110086Y-102350142D01*
X121110086Y-101366771D01*
X120591457Y-100848142D01*
X120419183Y-100848142D01*
X120440695Y-101066565D01*
X120441143Y-101072634D01*
X120442950Y-101109412D01*
X120443099Y-101115497D01*
X120443099Y-101164503D01*
X120442950Y-101170588D01*
X120441143Y-101207366D01*
X120440695Y-101213435D01*
X120417540Y-101448540D01*
X120416794Y-101454584D01*
X120411389Y-101491015D01*
X120410349Y-101497009D01*
X120400788Y-101545074D01*
X120399455Y-101551012D01*
X120390509Y-101586726D01*
X120388885Y-101592592D01*
X120320310Y-101818651D01*
X120318402Y-101824429D01*
X120306001Y-101859088D01*
X120303811Y-101864763D01*
X120285059Y-101910038D01*
X120282592Y-101915605D01*
X120266844Y-101948902D01*
X120264107Y-101954339D01*
X120152745Y-102162684D01*
X120149746Y-102167978D01*
X120130820Y-102199555D01*
X120127565Y-102204696D01*
X120100338Y-102245446D01*
X120096832Y-102250424D01*
X120074892Y-102280007D01*
X120071147Y-102284806D01*
X120017527Y-102350142D01*
X116110086Y-102350142D01*
X116110086Y-100848142D01*
X114608086Y-100848142D01*
X113610086Y-100848142D01*
X112108086Y-100848142D01*
X111110086Y-100848142D01*
X110518692Y-100848142D01*
X109394689Y-100848142D01*
X109389361Y-98348142D01*
X110513365Y-98348142D01*
X110516565Y-99850142D01*
X111110086Y-99850142D01*
X111110086Y-98348142D01*
X112108086Y-98348142D01*
X112108086Y-99850142D01*
X113610086Y-99850142D01*
X113610086Y-98348142D01*
X114608086Y-98348142D01*
X114608086Y-99850142D01*
X116110086Y-99850142D01*
X116110086Y-98348142D01*
X114608086Y-98348142D01*
X113610086Y-98348142D01*
X112108086Y-98348142D01*
X111110086Y-98348142D01*
X110513365Y-98348142D01*
X109389361Y-98348142D01*
X109384034Y-95848142D01*
X110508037Y-95848142D01*
X110511238Y-97350142D01*
X111110086Y-97350142D01*
X111110086Y-95848142D01*
X112108086Y-95848142D01*
X112108086Y-97350142D01*
X113610086Y-97350142D01*
X113610086Y-95848142D01*
X114608086Y-95848142D01*
X114608086Y-97350142D01*
X116110086Y-97350142D01*
X116110086Y-95848142D01*
X117108086Y-95848142D01*
X117108086Y-97350142D01*
X117997403Y-97350142D01*
X118024891Y-97333122D01*
X118045375Y-97322922D01*
X118252751Y-97242584D01*
X118274760Y-97236322D01*
X118451536Y-97203277D01*
X118355892Y-97024338D01*
X118353154Y-97018900D01*
X118337407Y-96985604D01*
X118334941Y-96980038D01*
X118316189Y-96934763D01*
X118313999Y-96929088D01*
X118301598Y-96894429D01*
X118299690Y-96888651D01*
X118231115Y-96662592D01*
X118229491Y-96656726D01*
X118220545Y-96621012D01*
X118219212Y-96615074D01*
X118209651Y-96567009D01*
X118208611Y-96561015D01*
X118203206Y-96524584D01*
X118202460Y-96518540D01*
X118179305Y-96283435D01*
X118178857Y-96277366D01*
X118177050Y-96240588D01*
X118176901Y-96234503D01*
X118176901Y-96185497D01*
X118177050Y-96179412D01*
X118178857Y-96142634D01*
X118179305Y-96136565D01*
X118202460Y-95901460D01*
X118203206Y-95895416D01*
X118208611Y-95858985D01*
X118209651Y-95852991D01*
X118210616Y-95848142D01*
X117108086Y-95848142D01*
X116110086Y-95848142D01*
X114608086Y-95848142D01*
X113610086Y-95848142D01*
X112108086Y-95848142D01*
X111110086Y-95848142D01*
X110508037Y-95848142D01*
X109384034Y-95848142D01*
X109378706Y-93348142D01*
X110502710Y-93348142D01*
X110505910Y-94850142D01*
X111110086Y-94850142D01*
X111110086Y-93348142D01*
X112108086Y-93348142D01*
X112108086Y-94850142D01*
X113610086Y-94850142D01*
X114608086Y-94850142D01*
X116110086Y-94850142D01*
X116110086Y-93348142D01*
X117108086Y-93348142D01*
X117108086Y-94850142D01*
X118610086Y-94850142D01*
X118610086Y-94211665D01*
X118576636Y-94194624D01*
X118570930Y-94191526D01*
X118525658Y-94165390D01*
X118520123Y-94161998D01*
X118487166Y-94140597D01*
X118481813Y-94136918D01*
X118286374Y-93994924D01*
X118281221Y-93990971D01*
X118250698Y-93966253D01*
X118245765Y-93962039D01*
X118206917Y-93927061D01*
X118202207Y-93922591D01*
X118174431Y-93894815D01*
X118169962Y-93890106D01*
X118008323Y-93710588D01*
X118004108Y-93705654D01*
X117979394Y-93675136D01*
X117975443Y-93669987D01*
X117944714Y-93627695D01*
X117941035Y-93622342D01*
X117919636Y-93589391D01*
X117916243Y-93583854D01*
X117795463Y-93374654D01*
X117792368Y-93368953D01*
X117781763Y-93348142D01*
X117108086Y-93348142D01*
X116110086Y-93348142D01*
X115396029Y-93348142D01*
X115353027Y-93499281D01*
X115344761Y-93520619D01*
X115245632Y-93719697D01*
X115233586Y-93739152D01*
X115099564Y-93916625D01*
X115084148Y-93933535D01*
X114919798Y-94083360D01*
X114901538Y-94097150D01*
X114712456Y-94214225D01*
X114691972Y-94224425D01*
X114608086Y-94256922D01*
X114608086Y-94850142D01*
X113610086Y-94850142D01*
X113610086Y-94256214D01*
X113528028Y-94224425D01*
X113507544Y-94214225D01*
X113318462Y-94097150D01*
X113300202Y-94083360D01*
X113135852Y-93933535D01*
X113120436Y-93916625D01*
X112986414Y-93739152D01*
X112974368Y-93719697D01*
X112875239Y-93520619D01*
X112866973Y-93499281D01*
X112823971Y-93348142D01*
X112108086Y-93348142D01*
X111110086Y-93348142D01*
X110502710Y-93348142D01*
X109378706Y-93348142D01*
X109376579Y-92350142D01*
X112108086Y-92350142D01*
X112969469Y-92350142D01*
X112974368Y-92340303D01*
X112986414Y-92320848D01*
X113120436Y-92143375D01*
X113135852Y-92126465D01*
X113300202Y-91976640D01*
X113318462Y-91962850D01*
X113507544Y-91845775D01*
X113528027Y-91835576D01*
X113610086Y-91803785D01*
X113610086Y-90985756D01*
X113473131Y-91181346D01*
X113469935Y-91185706D01*
X113450017Y-91211665D01*
X113446630Y-91215885D01*
X113418633Y-91249252D01*
X113415065Y-91253320D01*
X113392947Y-91277458D01*
X113389205Y-91281367D01*
X113191367Y-91479205D01*
X113187458Y-91482947D01*
X113163320Y-91505065D01*
X113159252Y-91508633D01*
X113125885Y-91536630D01*
X113121665Y-91540017D01*
X113095706Y-91559935D01*
X113091346Y-91563131D01*
X112862166Y-91723607D01*
X112857664Y-91726616D01*
X112830048Y-91744208D01*
X112825424Y-91747013D01*
X112787700Y-91768792D01*
X112782958Y-91771394D01*
X112753937Y-91786501D01*
X112749086Y-91788893D01*
X112495535Y-91907126D01*
X112490584Y-91909304D01*
X112460364Y-91921822D01*
X112455328Y-91923781D01*
X112414396Y-91938682D01*
X112409267Y-91940424D01*
X112378031Y-91950273D01*
X112372835Y-91951787D01*
X112108086Y-92022724D01*
X112108086Y-92350142D01*
X109376579Y-92350142D01*
X109367475Y-88077870D01*
X110279500Y-88077870D01*
X110279501Y-88077876D01*
X110285908Y-88137483D01*
X110336202Y-88272328D01*
X110336206Y-88272335D01*
X110422452Y-88387544D01*
X110422455Y-88387547D01*
X110537664Y-88473793D01*
X110537671Y-88473797D01*
X110537674Y-88473798D01*
X110669598Y-88523002D01*
X110725531Y-88564873D01*
X110749949Y-88630337D01*
X110735098Y-88698610D01*
X110713947Y-88726865D01*
X110591886Y-88848926D01*
X110456400Y-89042420D01*
X110456399Y-89042422D01*
X110356570Y-89256507D01*
X110356567Y-89256513D01*
X110299364Y-89469999D01*
X110299364Y-89470000D01*
X111196988Y-89470000D01*
X111164075Y-89527007D01*
X111130000Y-89654174D01*
X111130000Y-89785826D01*
X111164075Y-89912993D01*
X111196988Y-89970000D01*
X110299364Y-89970000D01*
X110356567Y-90183486D01*
X110356570Y-90183492D01*
X110456399Y-90397578D01*
X110591894Y-90591082D01*
X110758917Y-90758105D01*
X110952421Y-90893600D01*
X111166507Y-90993429D01*
X111166516Y-90993433D01*
X111380000Y-91050634D01*
X111380000Y-90153012D01*
X111437007Y-90185925D01*
X111564174Y-90220000D01*
X111695826Y-90220000D01*
X111822993Y-90185925D01*
X111880000Y-90153012D01*
X111880000Y-91050633D01*
X112093483Y-90993433D01*
X112093492Y-90993429D01*
X112307578Y-90893600D01*
X112372498Y-90848142D01*
X114608086Y-90848142D01*
X114608086Y-91803077D01*
X114691972Y-91835576D01*
X114712456Y-91845775D01*
X114901538Y-91962850D01*
X114919798Y-91976640D01*
X115084148Y-92126465D01*
X115099564Y-92143375D01*
X115233586Y-92320848D01*
X115245632Y-92340303D01*
X115250531Y-92350142D01*
X116110086Y-92350142D01*
X116110086Y-90848142D01*
X117108086Y-90848142D01*
X117108086Y-92350142D01*
X117609947Y-92350142D01*
X117624525Y-92211437D01*
X117625372Y-92205002D01*
X117631514Y-92166219D01*
X117632697Y-92159839D01*
X117643564Y-92108704D01*
X117645080Y-92102388D01*
X117655249Y-92064435D01*
X117657093Y-92058209D01*
X117731747Y-91828448D01*
X117733916Y-91822324D01*
X117748001Y-91785635D01*
X117750486Y-91779636D01*
X117771751Y-91731881D01*
X117774545Y-91726024D01*
X117792368Y-91691047D01*
X117795463Y-91685346D01*
X117916243Y-91476146D01*
X117919636Y-91470609D01*
X117941035Y-91437658D01*
X117944715Y-91432304D01*
X117975444Y-91390013D01*
X117979391Y-91384869D01*
X118004103Y-91354351D01*
X118008321Y-91349413D01*
X118036500Y-91318117D01*
X118036500Y-90848142D01*
X117108086Y-90848142D01*
X116110086Y-90848142D01*
X114608086Y-90848142D01*
X112372498Y-90848142D01*
X112501082Y-90758105D01*
X112668105Y-90591082D01*
X112803600Y-90397578D01*
X112903429Y-90183492D01*
X112903432Y-90183486D01*
X112960636Y-89970000D01*
X112063012Y-89970000D01*
X112095925Y-89912993D01*
X112130000Y-89785826D01*
X112130000Y-89654174D01*
X112095925Y-89527007D01*
X112063012Y-89470000D01*
X112960636Y-89470000D01*
X112960635Y-89469999D01*
X112903432Y-89256513D01*
X112903429Y-89256507D01*
X112803600Y-89042422D01*
X112803599Y-89042420D01*
X112668113Y-88848926D01*
X112668108Y-88848920D01*
X112546053Y-88726865D01*
X112512568Y-88665542D01*
X112517552Y-88595850D01*
X112559424Y-88539917D01*
X112590400Y-88523002D01*
X112722331Y-88473796D01*
X112837546Y-88387546D01*
X112867044Y-88348142D01*
X114608086Y-88348142D01*
X114608086Y-89850142D01*
X116110086Y-89850142D01*
X116110086Y-88348142D01*
X117108086Y-88348142D01*
X117108086Y-89850142D01*
X118036500Y-89850142D01*
X118036500Y-88348142D01*
X117108086Y-88348142D01*
X116110086Y-88348142D01*
X114608086Y-88348142D01*
X112867044Y-88348142D01*
X112923796Y-88272331D01*
X112974091Y-88137483D01*
X112980500Y-88077873D01*
X112980499Y-86282128D01*
X112974091Y-86222517D01*
X112969309Y-86209697D01*
X112923797Y-86087671D01*
X112923793Y-86087664D01*
X112837547Y-85972455D01*
X112837544Y-85972452D01*
X112722335Y-85886206D01*
X112722328Y-85886202D01*
X112620283Y-85848142D01*
X114608086Y-85848142D01*
X114608086Y-87350142D01*
X116110086Y-87350142D01*
X116110086Y-85848142D01*
X117108086Y-85848142D01*
X117108086Y-87350142D01*
X118036500Y-87350142D01*
X118036500Y-87273892D01*
X118036649Y-87267810D01*
X118038455Y-87231035D01*
X118038903Y-87224964D01*
X118043706Y-87176195D01*
X118044451Y-87170154D01*
X118049854Y-87133728D01*
X118050895Y-87127731D01*
X118084491Y-86958829D01*
X118085824Y-86952892D01*
X118094766Y-86917192D01*
X118096387Y-86911332D01*
X118110611Y-86864432D01*
X118112521Y-86858649D01*
X118124934Y-86823954D01*
X118127127Y-86818270D01*
X118150320Y-86762280D01*
X118193035Y-86659155D01*
X118195501Y-86653590D01*
X118211254Y-86620283D01*
X118213994Y-86614841D01*
X118237100Y-86571618D01*
X118240098Y-86566326D01*
X118259022Y-86534755D01*
X118262277Y-86529615D01*
X118317287Y-86447288D01*
X118357945Y-86386439D01*
X118361449Y-86381463D01*
X118383384Y-86351887D01*
X118387127Y-86347091D01*
X118418217Y-86309206D01*
X118422195Y-86304595D01*
X118446928Y-86277307D01*
X118451124Y-86272899D01*
X118555578Y-86168446D01*
X118610086Y-86113939D01*
X118610086Y-85848142D01*
X117108086Y-85848142D01*
X116110086Y-85848142D01*
X114608086Y-85848142D01*
X112620283Y-85848142D01*
X112587482Y-85835908D01*
X112587483Y-85835908D01*
X112527883Y-85829501D01*
X112527881Y-85829500D01*
X112527873Y-85829500D01*
X112527864Y-85829500D01*
X110732129Y-85829500D01*
X110732123Y-85829501D01*
X110672516Y-85835908D01*
X110537671Y-85886202D01*
X110537664Y-85886206D01*
X110422455Y-85972452D01*
X110422452Y-85972455D01*
X110336206Y-86087664D01*
X110336202Y-86087671D01*
X110285908Y-86222517D01*
X110280492Y-86272899D01*
X110279501Y-86282123D01*
X110279500Y-86282135D01*
X110279500Y-88077870D01*
X109367475Y-88077870D01*
X109360086Y-84610385D01*
X109379628Y-84543305D01*
X109383715Y-84537309D01*
X110246385Y-83348142D01*
X112108086Y-83348142D01*
X112108086Y-84831500D01*
X112541248Y-84831500D01*
X112544572Y-84831545D01*
X112564673Y-84832084D01*
X112567993Y-84832217D01*
X112594680Y-84833649D01*
X112597989Y-84833871D01*
X112617982Y-84835481D01*
X112621285Y-84835792D01*
X112725175Y-84846962D01*
X112732843Y-84848029D01*
X112745185Y-84850142D01*
X113610086Y-84850142D01*
X113610086Y-83348142D01*
X114608086Y-83348142D01*
X114608086Y-84850142D01*
X116110086Y-84850142D01*
X117108086Y-84850142D01*
X118610086Y-84850142D01*
X118610086Y-84007021D01*
X118604148Y-84013535D01*
X118439798Y-84163360D01*
X118421538Y-84177150D01*
X118232456Y-84294225D01*
X118211972Y-84304425D01*
X118004596Y-84384763D01*
X117982587Y-84391025D01*
X117763981Y-84431889D01*
X117741196Y-84434000D01*
X117518804Y-84434000D01*
X117496019Y-84431889D01*
X117277413Y-84391025D01*
X117255404Y-84384763D01*
X117108086Y-84327691D01*
X117108086Y-84850142D01*
X116110086Y-84850142D01*
X116110086Y-83348142D01*
X119608086Y-83348142D01*
X119608086Y-84850142D01*
X119910532Y-84850142D01*
X119975735Y-84806575D01*
X120025023Y-84773639D01*
X120035463Y-84767382D01*
X120100467Y-84732635D01*
X120111470Y-84727431D01*
X120235717Y-84675967D01*
X120293267Y-84652129D01*
X120298944Y-84649939D01*
X120333604Y-84637537D01*
X120339381Y-84635628D01*
X120386276Y-84621401D01*
X120392147Y-84619777D01*
X120427875Y-84610828D01*
X120433811Y-84609495D01*
X120546733Y-84587033D01*
X120546736Y-84587032D01*
X120602737Y-84575894D01*
X120608731Y-84574854D01*
X120645154Y-84569451D01*
X120651195Y-84568706D01*
X120699962Y-84563903D01*
X120706034Y-84563455D01*
X120742809Y-84561649D01*
X120748891Y-84561500D01*
X121110086Y-84561500D01*
X122108086Y-84561500D01*
X123610086Y-84561500D01*
X123610086Y-83348142D01*
X124608086Y-83348142D01*
X124608086Y-84561500D01*
X126110086Y-84561500D01*
X126110086Y-83348142D01*
X124608086Y-83348142D01*
X123610086Y-83348142D01*
X122674565Y-83348142D01*
X122623027Y-83529281D01*
X122614761Y-83550619D01*
X122515632Y-83749697D01*
X122503586Y-83769152D01*
X122369564Y-83946625D01*
X122354148Y-83963535D01*
X122189798Y-84113360D01*
X122171538Y-84127150D01*
X122108086Y-84166437D01*
X122108086Y-84561500D01*
X121110086Y-84561500D01*
X121110086Y-84356478D01*
X121027413Y-84341025D01*
X121005404Y-84334763D01*
X120798028Y-84254425D01*
X120777544Y-84244225D01*
X120588462Y-84127150D01*
X120570202Y-84113360D01*
X120405852Y-83963535D01*
X120390436Y-83946625D01*
X120256414Y-83769152D01*
X120244368Y-83749697D01*
X120145239Y-83550619D01*
X120136973Y-83529281D01*
X120085435Y-83348142D01*
X119608086Y-83348142D01*
X116110086Y-83348142D01*
X114608086Y-83348142D01*
X113610086Y-83348142D01*
X112108086Y-83348142D01*
X110246385Y-83348142D01*
X110970375Y-82350142D01*
X112358988Y-82350142D01*
X113610086Y-82350142D01*
X113610086Y-81729333D01*
X114608086Y-81729333D01*
X114608086Y-82350142D01*
X116110086Y-82350142D01*
X116110086Y-81740592D01*
X119608086Y-81740592D01*
X119608086Y-82350142D01*
X120256947Y-82350142D01*
X120390436Y-82173375D01*
X120405852Y-82156465D01*
X120570202Y-82006640D01*
X120588462Y-81992850D01*
X120777544Y-81875775D01*
X120798028Y-81865575D01*
X121005404Y-81785237D01*
X121027413Y-81778975D01*
X121110086Y-81763520D01*
X121110086Y-81746221D01*
X122108086Y-81746221D01*
X122108086Y-81953561D01*
X122171538Y-81992850D01*
X122189798Y-82006640D01*
X122354148Y-82156465D01*
X122369564Y-82173375D01*
X122503053Y-82350142D01*
X123610086Y-82350142D01*
X123610086Y-81751850D01*
X124608086Y-81751850D01*
X124608086Y-82350142D01*
X126110086Y-82350142D01*
X126110086Y-81757479D01*
X127108086Y-81757479D01*
X127108086Y-82350142D01*
X128610086Y-82350142D01*
X128610086Y-81763108D01*
X129608086Y-81763108D01*
X129608086Y-82306500D01*
X131110086Y-82306500D01*
X131110086Y-81766491D01*
X129608086Y-81763108D01*
X128610086Y-81763108D01*
X128610086Y-81760862D01*
X127108086Y-81757479D01*
X126110086Y-81757479D01*
X126110086Y-81755232D01*
X124608086Y-81751850D01*
X123610086Y-81751850D01*
X123610086Y-81749603D01*
X122108086Y-81746221D01*
X121110086Y-81746221D01*
X121110086Y-81743974D01*
X119608086Y-81740592D01*
X116110086Y-81740592D01*
X116110086Y-81732716D01*
X114608086Y-81729333D01*
X113610086Y-81729333D01*
X113610086Y-81727086D01*
X112812280Y-81725290D01*
X112358988Y-82350142D01*
X110970375Y-82350142D01*
X112202764Y-80651327D01*
X112258062Y-80608623D01*
X112303408Y-80600142D01*
X152138156Y-80689838D01*
G37*
%TD.AperFunction*%
%TA.AperFunction,Conductor*%
G36*
X128695425Y-85630954D02*
G01*
X128744239Y-85664161D01*
X128824129Y-85752888D01*
X128824132Y-85752890D01*
X128977265Y-85864148D01*
X128977270Y-85864151D01*
X129150192Y-85941142D01*
X129150197Y-85941144D01*
X129335354Y-85980500D01*
X129335355Y-85980500D01*
X129524644Y-85980500D01*
X129524646Y-85980500D01*
X129709803Y-85941144D01*
X129882730Y-85864151D01*
X130035871Y-85752888D01*
X130035876Y-85752883D01*
X130041600Y-85746526D01*
X130101087Y-85709879D01*
X130133748Y-85705500D01*
X131538490Y-85705500D01*
X131605529Y-85725185D01*
X131645876Y-85767499D01*
X131656712Y-85786267D01*
X131677467Y-85822216D01*
X131804129Y-85962888D01*
X131957265Y-86074148D01*
X131957270Y-86074151D01*
X132130192Y-86151142D01*
X132130197Y-86151144D01*
X132315354Y-86190500D01*
X132315355Y-86190500D01*
X132504644Y-86190500D01*
X132504646Y-86190500D01*
X132689803Y-86151144D01*
X132862730Y-86074151D01*
X133015871Y-85962888D01*
X133018788Y-85959647D01*
X133021600Y-85956526D01*
X133081087Y-85919879D01*
X133113748Y-85915500D01*
X137109548Y-85915500D01*
X137176587Y-85935185D01*
X137197229Y-85951819D01*
X138381038Y-87135628D01*
X138414523Y-87196951D01*
X138416678Y-87210347D01*
X138422590Y-87266597D01*
X138434326Y-87378256D01*
X138434327Y-87378259D01*
X138492818Y-87558277D01*
X138492821Y-87558284D01*
X138579548Y-87708500D01*
X138596021Y-87776401D01*
X138573168Y-87842427D01*
X138518247Y-87885618D01*
X138472161Y-87894500D01*
X134158788Y-87894500D01*
X134091749Y-87874815D01*
X134066638Y-87853472D01*
X134060911Y-87847112D01*
X133970871Y-87747112D01*
X133955369Y-87735849D01*
X133817734Y-87635851D01*
X133817729Y-87635848D01*
X133644807Y-87558857D01*
X133644802Y-87558855D01*
X133499001Y-87527865D01*
X133459646Y-87519500D01*
X133270354Y-87519500D01*
X133237897Y-87526398D01*
X133085197Y-87558855D01*
X133085192Y-87558857D01*
X132912270Y-87635848D01*
X132912265Y-87635851D01*
X132759129Y-87747111D01*
X132632466Y-87887785D01*
X132537821Y-88051715D01*
X132537818Y-88051722D01*
X132497660Y-88175317D01*
X132458222Y-88232993D01*
X132405510Y-88258289D01*
X132285226Y-88283855D01*
X132285221Y-88283857D01*
X132112299Y-88360848D01*
X132112294Y-88360851D01*
X131959158Y-88472111D01*
X131832495Y-88612785D01*
X131737850Y-88776715D01*
X131737847Y-88776722D01*
X131679356Y-88956739D01*
X131679354Y-88956749D01*
X131678644Y-88963505D01*
X131652057Y-89028119D01*
X131605761Y-89063818D01*
X131467631Y-89125319D01*
X131467629Y-89125320D01*
X131314493Y-89236580D01*
X131187830Y-89377254D01*
X131093185Y-89541184D01*
X131093182Y-89541191D01*
X131038510Y-89709455D01*
X131034690Y-89721213D01*
X131014904Y-89909469D01*
X131034690Y-90097725D01*
X131034691Y-90097728D01*
X131093182Y-90277746D01*
X131093185Y-90277753D01*
X131187831Y-90441685D01*
X131314493Y-90582357D01*
X131467629Y-90693617D01*
X131467634Y-90693620D01*
X131640556Y-90770611D01*
X131640561Y-90770613D01*
X131825718Y-90809969D01*
X131890767Y-90809969D01*
X131957806Y-90829654D01*
X131959656Y-90830866D01*
X132003933Y-90860450D01*
X132003935Y-90860453D01*
X132054607Y-90894310D01*
X132054608Y-90894311D01*
X132054609Y-90894311D01*
X132054610Y-90894312D01*
X132116108Y-90919785D01*
X132168443Y-90941463D01*
X132228866Y-90953481D01*
X132289288Y-90965500D01*
X132289289Y-90965500D01*
X136170546Y-90965500D01*
X136237585Y-90985185D01*
X136283340Y-91037989D01*
X136293284Y-91107147D01*
X136264259Y-91170703D01*
X136258227Y-91177181D01*
X135926776Y-91508633D01*
X135597130Y-91838279D01*
X135597128Y-91838281D01*
X135553565Y-91881843D01*
X135510003Y-91925405D01*
X135486580Y-91960461D01*
X135486579Y-91960462D01*
X135441551Y-92027847D01*
X135441547Y-92027855D01*
X135409048Y-92106316D01*
X135409049Y-92106317D01*
X135397630Y-92133886D01*
X135394398Y-92141688D01*
X135372365Y-92252463D01*
X135371348Y-92257574D01*
X135371346Y-92257579D01*
X135370362Y-92262522D01*
X135370361Y-92262537D01*
X135370361Y-93791867D01*
X135350676Y-93858906D01*
X135338510Y-93874840D01*
X135303192Y-93914064D01*
X135243705Y-93950712D01*
X135173848Y-93949381D01*
X135123362Y-93918772D01*
X134461775Y-93257185D01*
X134428290Y-93195862D01*
X134433274Y-93126170D01*
X134450978Y-93095403D01*
X134450753Y-93095253D01*
X134453003Y-93091885D01*
X134453610Y-93090831D01*
X134453647Y-93090785D01*
X134454136Y-93090190D01*
X134542396Y-92925066D01*
X134596747Y-92745896D01*
X134615099Y-92559565D01*
X134596747Y-92373234D01*
X134542396Y-92194064D01*
X134525105Y-92161715D01*
X134454137Y-92028941D01*
X134454135Y-92028938D01*
X134335357Y-91884207D01*
X134190626Y-91765429D01*
X134190623Y-91765427D01*
X134025502Y-91677169D01*
X133846333Y-91622818D01*
X133846331Y-91622817D01*
X133660000Y-91604466D01*
X133473668Y-91622817D01*
X133473666Y-91622818D01*
X133294497Y-91677169D01*
X133129376Y-91765427D01*
X133129373Y-91765429D01*
X132984647Y-91884203D01*
X132984644Y-91884207D01*
X132984643Y-91884208D01*
X132980572Y-91889168D01*
X132922827Y-91928500D01*
X132884722Y-91934500D01*
X130848097Y-91934500D01*
X130781058Y-91914815D01*
X130760416Y-91898181D01*
X129714447Y-90852212D01*
X129680962Y-90790889D01*
X129678725Y-90776684D01*
X129678127Y-90770611D01*
X129664745Y-90634733D01*
X129610394Y-90455563D01*
X129601651Y-90439206D01*
X129522135Y-90290440D01*
X129522133Y-90290437D01*
X129403355Y-90145706D01*
X129258624Y-90026928D01*
X129258621Y-90026926D01*
X129093500Y-89938668D01*
X128914331Y-89884317D01*
X128914329Y-89884316D01*
X128727998Y-89865965D01*
X128541666Y-89884316D01*
X128541664Y-89884317D01*
X128362495Y-89938668D01*
X128197374Y-90026926D01*
X128197371Y-90026928D01*
X128087112Y-90117417D01*
X128022802Y-90144730D01*
X128008447Y-90145564D01*
X125862227Y-90145564D01*
X125795188Y-90125879D01*
X125774546Y-90109245D01*
X123050656Y-87385355D01*
X123017171Y-87324032D01*
X123015016Y-87310634D01*
X123005674Y-87221745D01*
X123005672Y-87221740D01*
X122947179Y-87041716D01*
X122921072Y-86996498D01*
X122904600Y-86928600D01*
X122927452Y-86862573D01*
X122982374Y-86819383D01*
X123028460Y-86810500D01*
X125964548Y-86810500D01*
X126031587Y-86830185D01*
X126052229Y-86846819D01*
X126281038Y-87075628D01*
X126314523Y-87136951D01*
X126316678Y-87150347D01*
X126322985Y-87210347D01*
X126334326Y-87318256D01*
X126334327Y-87318259D01*
X126392818Y-87498277D01*
X126392821Y-87498284D01*
X126487467Y-87662216D01*
X126614129Y-87802888D01*
X126767265Y-87914148D01*
X126767270Y-87914151D01*
X126940192Y-87991142D01*
X126940197Y-87991144D01*
X127125354Y-88030500D01*
X127125355Y-88030500D01*
X127314644Y-88030500D01*
X127314646Y-88030500D01*
X127499803Y-87991144D01*
X127672730Y-87914151D01*
X127825871Y-87802888D01*
X127952533Y-87662216D01*
X128047179Y-87498284D01*
X128095314Y-87350142D01*
X129608086Y-87350142D01*
X131110086Y-87350142D01*
X131110086Y-86703500D01*
X130422964Y-86703500D01*
X130409877Y-86711998D01*
X130404342Y-86715390D01*
X130359070Y-86741526D01*
X130353364Y-86744624D01*
X130318383Y-86762446D01*
X130312528Y-86765238D01*
X130091849Y-86863493D01*
X130085852Y-86865977D01*
X130049171Y-86880058D01*
X130043046Y-86882227D01*
X129993326Y-86898380D01*
X129987105Y-86900223D01*
X129949172Y-86910387D01*
X129942860Y-86911902D01*
X129706580Y-86962124D01*
X129700197Y-86963307D01*
X129661418Y-86969449D01*
X129654988Y-86970296D01*
X129608086Y-86975228D01*
X129608086Y-87350142D01*
X128095314Y-87350142D01*
X128105674Y-87318256D01*
X128125460Y-87130000D01*
X128105674Y-86941744D01*
X128047179Y-86761716D01*
X128005372Y-86689304D01*
X127988900Y-86621407D01*
X128005372Y-86565309D01*
X128054470Y-86480270D01*
X128112965Y-86300242D01*
X128130612Y-86132331D01*
X128157196Y-86067718D01*
X128166243Y-86057622D01*
X128564412Y-85659453D01*
X128625733Y-85625970D01*
X128695425Y-85630954D01*
G37*
%TD.AperFunction*%
%TD*%
M02*
