%TF.GenerationSoftware,KiCad,Pcbnew,8.0.1*%
%TF.CreationDate,2024-07-18T02:30:48+05:30*%
%TF.ProjectId,MCU_datalogger_PCB,4d43555f-6461-4746-916c-6f676765725f,1*%
%TF.SameCoordinates,Original*%
%TF.FileFunction,Legend,Bot*%
%TF.FilePolarity,Positive*%
%FSLAX46Y46*%
G04 Gerber Fmt 4.6, Leading zero omitted, Abs format (unit mm)*
G04 Created by KiCad (PCBNEW 8.0.1) date 2024-07-18 02:30:48*
%MOMM*%
%LPD*%
G01*
G04 APERTURE LIST*
%ADD10C,0.200000*%
%ADD11C,0.225000*%
%ADD12C,0.010000*%
G04 APERTURE END LIST*
D10*
X148638030Y-99120000D02*
G75*
G02*
X143030000Y-99120000I-2804015J0D01*
G01*
X143030000Y-99120000D02*
G75*
G02*
X148638030Y-99120000I2804015J0D01*
G01*
D11*
X127427688Y-89060257D02*
X127427688Y-88160257D01*
X127427688Y-88160257D02*
X127213402Y-88160257D01*
X127213402Y-88160257D02*
X127084831Y-88203114D01*
X127084831Y-88203114D02*
X126999116Y-88288828D01*
X126999116Y-88288828D02*
X126956259Y-88374542D01*
X126956259Y-88374542D02*
X126913402Y-88545971D01*
X126913402Y-88545971D02*
X126913402Y-88674542D01*
X126913402Y-88674542D02*
X126956259Y-88845971D01*
X126956259Y-88845971D02*
X126999116Y-88931685D01*
X126999116Y-88931685D02*
X127084831Y-89017400D01*
X127084831Y-89017400D02*
X127213402Y-89060257D01*
X127213402Y-89060257D02*
X127427688Y-89060257D01*
X126570545Y-88803114D02*
X126141974Y-88803114D01*
X126656259Y-89060257D02*
X126356259Y-88160257D01*
X126356259Y-88160257D02*
X126056259Y-89060257D01*
X125884830Y-88160257D02*
X125370545Y-88160257D01*
X125627687Y-89060257D02*
X125627687Y-88160257D01*
X125113402Y-88803114D02*
X124684831Y-88803114D01*
X125199116Y-89060257D02*
X124899116Y-88160257D01*
X124899116Y-88160257D02*
X124599116Y-89060257D01*
X123184830Y-89060257D02*
X123613402Y-89060257D01*
X123613402Y-89060257D02*
X123613402Y-88160257D01*
X122713402Y-88160257D02*
X122541974Y-88160257D01*
X122541974Y-88160257D02*
X122456259Y-88203114D01*
X122456259Y-88203114D02*
X122370545Y-88288828D01*
X122370545Y-88288828D02*
X122327688Y-88460257D01*
X122327688Y-88460257D02*
X122327688Y-88760257D01*
X122327688Y-88760257D02*
X122370545Y-88931685D01*
X122370545Y-88931685D02*
X122456259Y-89017400D01*
X122456259Y-89017400D02*
X122541974Y-89060257D01*
X122541974Y-89060257D02*
X122713402Y-89060257D01*
X122713402Y-89060257D02*
X122799117Y-89017400D01*
X122799117Y-89017400D02*
X122884831Y-88931685D01*
X122884831Y-88931685D02*
X122927688Y-88760257D01*
X122927688Y-88760257D02*
X122927688Y-88460257D01*
X122927688Y-88460257D02*
X122884831Y-88288828D01*
X122884831Y-88288828D02*
X122799117Y-88203114D01*
X122799117Y-88203114D02*
X122713402Y-88160257D01*
X121470545Y-88203114D02*
X121556260Y-88160257D01*
X121556260Y-88160257D02*
X121684831Y-88160257D01*
X121684831Y-88160257D02*
X121813402Y-88203114D01*
X121813402Y-88203114D02*
X121899117Y-88288828D01*
X121899117Y-88288828D02*
X121941974Y-88374542D01*
X121941974Y-88374542D02*
X121984831Y-88545971D01*
X121984831Y-88545971D02*
X121984831Y-88674542D01*
X121984831Y-88674542D02*
X121941974Y-88845971D01*
X121941974Y-88845971D02*
X121899117Y-88931685D01*
X121899117Y-88931685D02*
X121813402Y-89017400D01*
X121813402Y-89017400D02*
X121684831Y-89060257D01*
X121684831Y-89060257D02*
X121599117Y-89060257D01*
X121599117Y-89060257D02*
X121470545Y-89017400D01*
X121470545Y-89017400D02*
X121427688Y-88974542D01*
X121427688Y-88974542D02*
X121427688Y-88674542D01*
X121427688Y-88674542D02*
X121599117Y-88674542D01*
X120570545Y-88203114D02*
X120656260Y-88160257D01*
X120656260Y-88160257D02*
X120784831Y-88160257D01*
X120784831Y-88160257D02*
X120913402Y-88203114D01*
X120913402Y-88203114D02*
X120999117Y-88288828D01*
X120999117Y-88288828D02*
X121041974Y-88374542D01*
X121041974Y-88374542D02*
X121084831Y-88545971D01*
X121084831Y-88545971D02*
X121084831Y-88674542D01*
X121084831Y-88674542D02*
X121041974Y-88845971D01*
X121041974Y-88845971D02*
X120999117Y-88931685D01*
X120999117Y-88931685D02*
X120913402Y-89017400D01*
X120913402Y-89017400D02*
X120784831Y-89060257D01*
X120784831Y-89060257D02*
X120699117Y-89060257D01*
X120699117Y-89060257D02*
X120570545Y-89017400D01*
X120570545Y-89017400D02*
X120527688Y-88974542D01*
X120527688Y-88974542D02*
X120527688Y-88674542D01*
X120527688Y-88674542D02*
X120699117Y-88674542D01*
X120141974Y-88588828D02*
X119841974Y-88588828D01*
X119713402Y-89060257D02*
X120141974Y-89060257D01*
X120141974Y-89060257D02*
X120141974Y-88160257D01*
X120141974Y-88160257D02*
X119713402Y-88160257D01*
X118813402Y-89060257D02*
X119113402Y-88631685D01*
X119327688Y-89060257D02*
X119327688Y-88160257D01*
X119327688Y-88160257D02*
X118984831Y-88160257D01*
X118984831Y-88160257D02*
X118899116Y-88203114D01*
X118899116Y-88203114D02*
X118856259Y-88245971D01*
X118856259Y-88245971D02*
X118813402Y-88331685D01*
X118813402Y-88331685D02*
X118813402Y-88460257D01*
X118813402Y-88460257D02*
X118856259Y-88545971D01*
X118856259Y-88545971D02*
X118899116Y-88588828D01*
X118899116Y-88588828D02*
X118984831Y-88631685D01*
X118984831Y-88631685D02*
X119327688Y-88631685D01*
X117827688Y-88460257D02*
X117656260Y-89060257D01*
X117656260Y-89060257D02*
X117484831Y-88631685D01*
X117484831Y-88631685D02*
X117313402Y-89060257D01*
X117313402Y-89060257D02*
X117141974Y-88460257D01*
X116799117Y-89060257D02*
X116799117Y-88460257D01*
X116799117Y-88160257D02*
X116841974Y-88203114D01*
X116841974Y-88203114D02*
X116799117Y-88245971D01*
X116799117Y-88245971D02*
X116756260Y-88203114D01*
X116756260Y-88203114D02*
X116799117Y-88160257D01*
X116799117Y-88160257D02*
X116799117Y-88245971D01*
X116499117Y-88460257D02*
X116156260Y-88460257D01*
X116370546Y-88160257D02*
X116370546Y-88931685D01*
X116370546Y-88931685D02*
X116327689Y-89017400D01*
X116327689Y-89017400D02*
X116241974Y-89060257D01*
X116241974Y-89060257D02*
X116156260Y-89060257D01*
X115856260Y-89060257D02*
X115856260Y-88160257D01*
X115470546Y-89060257D02*
X115470546Y-88588828D01*
X115470546Y-88588828D02*
X115513403Y-88503114D01*
X115513403Y-88503114D02*
X115599117Y-88460257D01*
X115599117Y-88460257D02*
X115727688Y-88460257D01*
X115727688Y-88460257D02*
X115813403Y-88503114D01*
X115813403Y-88503114D02*
X115856260Y-88545971D01*
X127470545Y-90252064D02*
X127041974Y-90252064D01*
X127556259Y-90509207D02*
X127256259Y-89609207D01*
X127256259Y-89609207D02*
X126956259Y-90509207D01*
X126784830Y-89609207D02*
X126270545Y-89609207D01*
X126527687Y-90509207D02*
X126527687Y-89609207D01*
X125970545Y-90509207D02*
X125970545Y-89609207D01*
X125970545Y-89609207D02*
X125670545Y-90252064D01*
X125670545Y-90252064D02*
X125370545Y-89609207D01*
X125370545Y-89609207D02*
X125370545Y-90509207D01*
X124599117Y-90466350D02*
X124684831Y-90509207D01*
X124684831Y-90509207D02*
X124856260Y-90509207D01*
X124856260Y-90509207D02*
X124941974Y-90466350D01*
X124941974Y-90466350D02*
X124984831Y-90380635D01*
X124984831Y-90380635D02*
X124984831Y-90037778D01*
X124984831Y-90037778D02*
X124941974Y-89952064D01*
X124941974Y-89952064D02*
X124856260Y-89909207D01*
X124856260Y-89909207D02*
X124684831Y-89909207D01*
X124684831Y-89909207D02*
X124599117Y-89952064D01*
X124599117Y-89952064D02*
X124556260Y-90037778D01*
X124556260Y-90037778D02*
X124556260Y-90123492D01*
X124556260Y-90123492D02*
X124984831Y-90209207D01*
X123784831Y-89909207D02*
X123784831Y-90637778D01*
X123784831Y-90637778D02*
X123827688Y-90723492D01*
X123827688Y-90723492D02*
X123870545Y-90766350D01*
X123870545Y-90766350D02*
X123956259Y-90809207D01*
X123956259Y-90809207D02*
X124084831Y-90809207D01*
X124084831Y-90809207D02*
X124170545Y-90766350D01*
X123784831Y-90466350D02*
X123870545Y-90509207D01*
X123870545Y-90509207D02*
X124041973Y-90509207D01*
X124041973Y-90509207D02*
X124127688Y-90466350D01*
X124127688Y-90466350D02*
X124170545Y-90423492D01*
X124170545Y-90423492D02*
X124213402Y-90337778D01*
X124213402Y-90337778D02*
X124213402Y-90080635D01*
X124213402Y-90080635D02*
X124170545Y-89994921D01*
X124170545Y-89994921D02*
X124127688Y-89952064D01*
X124127688Y-89952064D02*
X124041973Y-89909207D01*
X124041973Y-89909207D02*
X123870545Y-89909207D01*
X123870545Y-89909207D02*
X123784831Y-89952064D01*
X122970545Y-90509207D02*
X122970545Y-90037778D01*
X122970545Y-90037778D02*
X123013402Y-89952064D01*
X123013402Y-89952064D02*
X123099116Y-89909207D01*
X123099116Y-89909207D02*
X123270545Y-89909207D01*
X123270545Y-89909207D02*
X123356259Y-89952064D01*
X122970545Y-90466350D02*
X123056259Y-90509207D01*
X123056259Y-90509207D02*
X123270545Y-90509207D01*
X123270545Y-90509207D02*
X123356259Y-90466350D01*
X123356259Y-90466350D02*
X123399116Y-90380635D01*
X123399116Y-90380635D02*
X123399116Y-90294921D01*
X123399116Y-90294921D02*
X123356259Y-90209207D01*
X123356259Y-90209207D02*
X123270545Y-90166350D01*
X123270545Y-90166350D02*
X123056259Y-90166350D01*
X123056259Y-90166350D02*
X122970545Y-90123492D01*
X122627687Y-89609207D02*
X122070544Y-89609207D01*
X122070544Y-89609207D02*
X122370544Y-89952064D01*
X122370544Y-89952064D02*
X122241973Y-89952064D01*
X122241973Y-89952064D02*
X122156259Y-89994921D01*
X122156259Y-89994921D02*
X122113401Y-90037778D01*
X122113401Y-90037778D02*
X122070544Y-90123492D01*
X122070544Y-90123492D02*
X122070544Y-90337778D01*
X122070544Y-90337778D02*
X122113401Y-90423492D01*
X122113401Y-90423492D02*
X122156259Y-90466350D01*
X122156259Y-90466350D02*
X122241973Y-90509207D01*
X122241973Y-90509207D02*
X122499116Y-90509207D01*
X122499116Y-90509207D02*
X122584830Y-90466350D01*
X122584830Y-90466350D02*
X122627687Y-90423492D01*
X121727687Y-89694921D02*
X121684830Y-89652064D01*
X121684830Y-89652064D02*
X121599116Y-89609207D01*
X121599116Y-89609207D02*
X121384830Y-89609207D01*
X121384830Y-89609207D02*
X121299116Y-89652064D01*
X121299116Y-89652064D02*
X121256258Y-89694921D01*
X121256258Y-89694921D02*
X121213401Y-89780635D01*
X121213401Y-89780635D02*
X121213401Y-89866350D01*
X121213401Y-89866350D02*
X121256258Y-89994921D01*
X121256258Y-89994921D02*
X121770544Y-90509207D01*
X121770544Y-90509207D02*
X121213401Y-90509207D01*
X120699115Y-89994921D02*
X120784830Y-89952064D01*
X120784830Y-89952064D02*
X120827687Y-89909207D01*
X120827687Y-89909207D02*
X120870544Y-89823492D01*
X120870544Y-89823492D02*
X120870544Y-89780635D01*
X120870544Y-89780635D02*
X120827687Y-89694921D01*
X120827687Y-89694921D02*
X120784830Y-89652064D01*
X120784830Y-89652064D02*
X120699115Y-89609207D01*
X120699115Y-89609207D02*
X120527687Y-89609207D01*
X120527687Y-89609207D02*
X120441973Y-89652064D01*
X120441973Y-89652064D02*
X120399115Y-89694921D01*
X120399115Y-89694921D02*
X120356258Y-89780635D01*
X120356258Y-89780635D02*
X120356258Y-89823492D01*
X120356258Y-89823492D02*
X120399115Y-89909207D01*
X120399115Y-89909207D02*
X120441973Y-89952064D01*
X120441973Y-89952064D02*
X120527687Y-89994921D01*
X120527687Y-89994921D02*
X120699115Y-89994921D01*
X120699115Y-89994921D02*
X120784830Y-90037778D01*
X120784830Y-90037778D02*
X120827687Y-90080635D01*
X120827687Y-90080635D02*
X120870544Y-90166350D01*
X120870544Y-90166350D02*
X120870544Y-90337778D01*
X120870544Y-90337778D02*
X120827687Y-90423492D01*
X120827687Y-90423492D02*
X120784830Y-90466350D01*
X120784830Y-90466350D02*
X120699115Y-90509207D01*
X120699115Y-90509207D02*
X120527687Y-90509207D01*
X120527687Y-90509207D02*
X120441973Y-90466350D01*
X120441973Y-90466350D02*
X120399115Y-90423492D01*
X120399115Y-90423492D02*
X120356258Y-90337778D01*
X120356258Y-90337778D02*
X120356258Y-90166350D01*
X120356258Y-90166350D02*
X120399115Y-90080635D01*
X120399115Y-90080635D02*
X120441973Y-90037778D01*
X120441973Y-90037778D02*
X120527687Y-89994921D01*
X119970544Y-90509207D02*
X119970544Y-89609207D01*
X119970544Y-89609207D02*
X119627687Y-89609207D01*
X119627687Y-89609207D02*
X119541972Y-89652064D01*
X119541972Y-89652064D02*
X119499115Y-89694921D01*
X119499115Y-89694921D02*
X119456258Y-89780635D01*
X119456258Y-89780635D02*
X119456258Y-89909207D01*
X119456258Y-89909207D02*
X119499115Y-89994921D01*
X119499115Y-89994921D02*
X119541972Y-90037778D01*
X119541972Y-90037778D02*
X119627687Y-90080635D01*
X119627687Y-90080635D02*
X119970544Y-90080635D01*
X119070544Y-90166350D02*
X118384830Y-90166350D01*
X117999115Y-90252064D02*
X117570544Y-90252064D01*
X118084829Y-90509207D02*
X117784829Y-89609207D01*
X117784829Y-89609207D02*
X117484829Y-90509207D01*
X117184829Y-89609207D02*
X117184829Y-90337778D01*
X117184829Y-90337778D02*
X117141972Y-90423492D01*
X117141972Y-90423492D02*
X117099115Y-90466350D01*
X117099115Y-90466350D02*
X117013400Y-90509207D01*
X117013400Y-90509207D02*
X116841972Y-90509207D01*
X116841972Y-90509207D02*
X116756257Y-90466350D01*
X116756257Y-90466350D02*
X116713400Y-90423492D01*
X116713400Y-90423492D02*
X116670543Y-90337778D01*
X116670543Y-90337778D02*
X116670543Y-89609207D01*
X115170544Y-90509207D02*
X115170544Y-90037778D01*
X115170544Y-90037778D02*
X115213401Y-89952064D01*
X115213401Y-89952064D02*
X115299115Y-89909207D01*
X115299115Y-89909207D02*
X115470544Y-89909207D01*
X115470544Y-89909207D02*
X115556258Y-89952064D01*
X115170544Y-90466350D02*
X115256258Y-90509207D01*
X115256258Y-90509207D02*
X115470544Y-90509207D01*
X115470544Y-90509207D02*
X115556258Y-90466350D01*
X115556258Y-90466350D02*
X115599115Y-90380635D01*
X115599115Y-90380635D02*
X115599115Y-90294921D01*
X115599115Y-90294921D02*
X115556258Y-90209207D01*
X115556258Y-90209207D02*
X115470544Y-90166350D01*
X115470544Y-90166350D02*
X115256258Y-90166350D01*
X115256258Y-90166350D02*
X115170544Y-90123492D01*
X114741972Y-89909207D02*
X114741972Y-90509207D01*
X114741972Y-89994921D02*
X114699115Y-89952064D01*
X114699115Y-89952064D02*
X114613400Y-89909207D01*
X114613400Y-89909207D02*
X114484829Y-89909207D01*
X114484829Y-89909207D02*
X114399115Y-89952064D01*
X114399115Y-89952064D02*
X114356258Y-90037778D01*
X114356258Y-90037778D02*
X114356258Y-90509207D01*
X113541972Y-90509207D02*
X113541972Y-89609207D01*
X113541972Y-90466350D02*
X113627686Y-90509207D01*
X113627686Y-90509207D02*
X113799114Y-90509207D01*
X113799114Y-90509207D02*
X113884829Y-90466350D01*
X113884829Y-90466350D02*
X113927686Y-90423492D01*
X113927686Y-90423492D02*
X113970543Y-90337778D01*
X113970543Y-90337778D02*
X113970543Y-90080635D01*
X113970543Y-90080635D02*
X113927686Y-89994921D01*
X113927686Y-89994921D02*
X113884829Y-89952064D01*
X113884829Y-89952064D02*
X113799114Y-89909207D01*
X113799114Y-89909207D02*
X113627686Y-89909207D01*
X113627686Y-89909207D02*
X113541972Y-89952064D01*
X127041974Y-91958157D02*
X127041974Y-91486728D01*
X127041974Y-91486728D02*
X127084831Y-91401014D01*
X127084831Y-91401014D02*
X127170545Y-91358157D01*
X127170545Y-91358157D02*
X127341974Y-91358157D01*
X127341974Y-91358157D02*
X127427688Y-91401014D01*
X127041974Y-91915300D02*
X127127688Y-91958157D01*
X127127688Y-91958157D02*
X127341974Y-91958157D01*
X127341974Y-91958157D02*
X127427688Y-91915300D01*
X127427688Y-91915300D02*
X127470545Y-91829585D01*
X127470545Y-91829585D02*
X127470545Y-91743871D01*
X127470545Y-91743871D02*
X127427688Y-91658157D01*
X127427688Y-91658157D02*
X127341974Y-91615300D01*
X127341974Y-91615300D02*
X127127688Y-91615300D01*
X127127688Y-91615300D02*
X127041974Y-91572442D01*
X125927688Y-91958157D02*
X125927688Y-91358157D01*
X125927688Y-91529585D02*
X125884831Y-91443871D01*
X125884831Y-91443871D02*
X125841974Y-91401014D01*
X125841974Y-91401014D02*
X125756259Y-91358157D01*
X125756259Y-91358157D02*
X125670545Y-91358157D01*
X125027688Y-91915300D02*
X125113402Y-91958157D01*
X125113402Y-91958157D02*
X125284831Y-91958157D01*
X125284831Y-91958157D02*
X125370545Y-91915300D01*
X125370545Y-91915300D02*
X125413402Y-91829585D01*
X125413402Y-91829585D02*
X125413402Y-91486728D01*
X125413402Y-91486728D02*
X125370545Y-91401014D01*
X125370545Y-91401014D02*
X125284831Y-91358157D01*
X125284831Y-91358157D02*
X125113402Y-91358157D01*
X125113402Y-91358157D02*
X125027688Y-91401014D01*
X125027688Y-91401014D02*
X124984831Y-91486728D01*
X124984831Y-91486728D02*
X124984831Y-91572442D01*
X124984831Y-91572442D02*
X125413402Y-91658157D01*
X124213402Y-91958157D02*
X124213402Y-91486728D01*
X124213402Y-91486728D02*
X124256259Y-91401014D01*
X124256259Y-91401014D02*
X124341973Y-91358157D01*
X124341973Y-91358157D02*
X124513402Y-91358157D01*
X124513402Y-91358157D02*
X124599116Y-91401014D01*
X124213402Y-91915300D02*
X124299116Y-91958157D01*
X124299116Y-91958157D02*
X124513402Y-91958157D01*
X124513402Y-91958157D02*
X124599116Y-91915300D01*
X124599116Y-91915300D02*
X124641973Y-91829585D01*
X124641973Y-91829585D02*
X124641973Y-91743871D01*
X124641973Y-91743871D02*
X124599116Y-91658157D01*
X124599116Y-91658157D02*
X124513402Y-91615300D01*
X124513402Y-91615300D02*
X124299116Y-91615300D01*
X124299116Y-91615300D02*
X124213402Y-91572442D01*
X123656258Y-91958157D02*
X123741973Y-91915300D01*
X123741973Y-91915300D02*
X123784830Y-91829585D01*
X123784830Y-91829585D02*
X123784830Y-91058157D01*
X122756258Y-91358157D02*
X122413401Y-91358157D01*
X122627687Y-91058157D02*
X122627687Y-91829585D01*
X122627687Y-91829585D02*
X122584830Y-91915300D01*
X122584830Y-91915300D02*
X122499115Y-91958157D01*
X122499115Y-91958157D02*
X122413401Y-91958157D01*
X122113401Y-91958157D02*
X122113401Y-91358157D01*
X122113401Y-91058157D02*
X122156258Y-91101014D01*
X122156258Y-91101014D02*
X122113401Y-91143871D01*
X122113401Y-91143871D02*
X122070544Y-91101014D01*
X122070544Y-91101014D02*
X122113401Y-91058157D01*
X122113401Y-91058157D02*
X122113401Y-91143871D01*
X121684830Y-91958157D02*
X121684830Y-91358157D01*
X121684830Y-91443871D02*
X121641973Y-91401014D01*
X121641973Y-91401014D02*
X121556258Y-91358157D01*
X121556258Y-91358157D02*
X121427687Y-91358157D01*
X121427687Y-91358157D02*
X121341973Y-91401014D01*
X121341973Y-91401014D02*
X121299116Y-91486728D01*
X121299116Y-91486728D02*
X121299116Y-91958157D01*
X121299116Y-91486728D02*
X121256258Y-91401014D01*
X121256258Y-91401014D02*
X121170544Y-91358157D01*
X121170544Y-91358157D02*
X121041973Y-91358157D01*
X121041973Y-91358157D02*
X120956258Y-91401014D01*
X120956258Y-91401014D02*
X120913401Y-91486728D01*
X120913401Y-91486728D02*
X120913401Y-91958157D01*
X120141973Y-91915300D02*
X120227687Y-91958157D01*
X120227687Y-91958157D02*
X120399116Y-91958157D01*
X120399116Y-91958157D02*
X120484830Y-91915300D01*
X120484830Y-91915300D02*
X120527687Y-91829585D01*
X120527687Y-91829585D02*
X120527687Y-91486728D01*
X120527687Y-91486728D02*
X120484830Y-91401014D01*
X120484830Y-91401014D02*
X120399116Y-91358157D01*
X120399116Y-91358157D02*
X120227687Y-91358157D01*
X120227687Y-91358157D02*
X120141973Y-91401014D01*
X120141973Y-91401014D02*
X120099116Y-91486728D01*
X120099116Y-91486728D02*
X120099116Y-91572442D01*
X120099116Y-91572442D02*
X120527687Y-91658157D01*
X118641973Y-91915300D02*
X118727687Y-91958157D01*
X118727687Y-91958157D02*
X118899115Y-91958157D01*
X118899115Y-91958157D02*
X118984830Y-91915300D01*
X118984830Y-91915300D02*
X119027687Y-91872442D01*
X119027687Y-91872442D02*
X119070544Y-91786728D01*
X119070544Y-91786728D02*
X119070544Y-91529585D01*
X119070544Y-91529585D02*
X119027687Y-91443871D01*
X119027687Y-91443871D02*
X118984830Y-91401014D01*
X118984830Y-91401014D02*
X118899115Y-91358157D01*
X118899115Y-91358157D02*
X118727687Y-91358157D01*
X118727687Y-91358157D02*
X118641973Y-91401014D01*
X118127686Y-91958157D02*
X118213401Y-91915300D01*
X118213401Y-91915300D02*
X118256258Y-91829585D01*
X118256258Y-91829585D02*
X118256258Y-91058157D01*
X117656257Y-91958157D02*
X117741972Y-91915300D01*
X117741972Y-91915300D02*
X117784829Y-91872442D01*
X117784829Y-91872442D02*
X117827686Y-91786728D01*
X117827686Y-91786728D02*
X117827686Y-91529585D01*
X117827686Y-91529585D02*
X117784829Y-91443871D01*
X117784829Y-91443871D02*
X117741972Y-91401014D01*
X117741972Y-91401014D02*
X117656257Y-91358157D01*
X117656257Y-91358157D02*
X117527686Y-91358157D01*
X117527686Y-91358157D02*
X117441972Y-91401014D01*
X117441972Y-91401014D02*
X117399115Y-91443871D01*
X117399115Y-91443871D02*
X117356257Y-91529585D01*
X117356257Y-91529585D02*
X117356257Y-91786728D01*
X117356257Y-91786728D02*
X117399115Y-91872442D01*
X117399115Y-91872442D02*
X117441972Y-91915300D01*
X117441972Y-91915300D02*
X117527686Y-91958157D01*
X117527686Y-91958157D02*
X117656257Y-91958157D01*
X116584829Y-91915300D02*
X116670543Y-91958157D01*
X116670543Y-91958157D02*
X116841971Y-91958157D01*
X116841971Y-91958157D02*
X116927686Y-91915300D01*
X116927686Y-91915300D02*
X116970543Y-91872442D01*
X116970543Y-91872442D02*
X117013400Y-91786728D01*
X117013400Y-91786728D02*
X117013400Y-91529585D01*
X117013400Y-91529585D02*
X116970543Y-91443871D01*
X116970543Y-91443871D02*
X116927686Y-91401014D01*
X116927686Y-91401014D02*
X116841971Y-91358157D01*
X116841971Y-91358157D02*
X116670543Y-91358157D01*
X116670543Y-91358157D02*
X116584829Y-91401014D01*
X116199114Y-91958157D02*
X116199114Y-91058157D01*
X116113400Y-91615300D02*
X115856257Y-91958157D01*
X115856257Y-91358157D02*
X116199114Y-91701014D01*
D10*
X147586041Y-98577549D02*
X147628898Y-98615645D01*
X147628898Y-98615645D02*
X147747945Y-98653740D01*
X147747945Y-98653740D02*
X147824136Y-98653740D01*
X147824136Y-98653740D02*
X147933660Y-98615645D01*
X147933660Y-98615645D02*
X148000326Y-98539454D01*
X148000326Y-98539454D02*
X148028898Y-98463264D01*
X148028898Y-98463264D02*
X148047945Y-98310883D01*
X148047945Y-98310883D02*
X148033660Y-98196597D01*
X148033660Y-98196597D02*
X147976517Y-98044216D01*
X147976517Y-98044216D02*
X147928898Y-97968025D01*
X147928898Y-97968025D02*
X147843183Y-97891835D01*
X147843183Y-97891835D02*
X147724136Y-97853740D01*
X147724136Y-97853740D02*
X147647945Y-97853740D01*
X147647945Y-97853740D02*
X147538422Y-97891835D01*
X147538422Y-97891835D02*
X147505088Y-97929930D01*
X147252707Y-98653740D02*
X147152707Y-97853740D01*
X147200326Y-98234692D02*
X146743183Y-98234692D01*
X146795564Y-98653740D02*
X146695564Y-97853740D01*
X146414612Y-98653740D02*
X146314612Y-97853740D01*
X145576517Y-98653740D02*
X145795565Y-98272787D01*
X146033660Y-98653740D02*
X145933660Y-97853740D01*
X145933660Y-97853740D02*
X145628898Y-97853740D01*
X145628898Y-97853740D02*
X145557470Y-97891835D01*
X145557470Y-97891835D02*
X145524136Y-97929930D01*
X145524136Y-97929930D02*
X145495565Y-98006121D01*
X145495565Y-98006121D02*
X145509851Y-98120406D01*
X145509851Y-98120406D02*
X145557470Y-98196597D01*
X145557470Y-98196597D02*
X145600327Y-98234692D01*
X145600327Y-98234692D02*
X145681279Y-98272787D01*
X145681279Y-98272787D02*
X145986041Y-98272787D01*
X145243184Y-98425168D02*
X144862232Y-98425168D01*
X145347946Y-98653740D02*
X144981279Y-97853740D01*
X144981279Y-97853740D02*
X144814613Y-98653740D01*
X144033661Y-97891835D02*
X144105089Y-97853740D01*
X144105089Y-97853740D02*
X144219375Y-97853740D01*
X144219375Y-97853740D02*
X144338422Y-97891835D01*
X144338422Y-97891835D02*
X144424137Y-97968025D01*
X144424137Y-97968025D02*
X144471756Y-98044216D01*
X144471756Y-98044216D02*
X144528899Y-98196597D01*
X144528899Y-98196597D02*
X144543184Y-98310883D01*
X144543184Y-98310883D02*
X144524137Y-98463264D01*
X144524137Y-98463264D02*
X144495565Y-98539454D01*
X144495565Y-98539454D02*
X144428899Y-98615645D01*
X144428899Y-98615645D02*
X144319375Y-98653740D01*
X144319375Y-98653740D02*
X144243184Y-98653740D01*
X144243184Y-98653740D02*
X144124137Y-98615645D01*
X144124137Y-98615645D02*
X144081280Y-98577549D01*
X144081280Y-98577549D02*
X144047946Y-98310883D01*
X144047946Y-98310883D02*
X144200327Y-98310883D01*
X147595564Y-99941695D02*
X147814612Y-99560742D01*
X148052707Y-99941695D02*
X147952707Y-99141695D01*
X147952707Y-99141695D02*
X147647945Y-99141695D01*
X147647945Y-99141695D02*
X147576517Y-99179790D01*
X147576517Y-99179790D02*
X147543183Y-99217885D01*
X147543183Y-99217885D02*
X147514612Y-99294076D01*
X147514612Y-99294076D02*
X147528898Y-99408361D01*
X147528898Y-99408361D02*
X147576517Y-99484552D01*
X147576517Y-99484552D02*
X147619374Y-99522647D01*
X147619374Y-99522647D02*
X147700326Y-99560742D01*
X147700326Y-99560742D02*
X148005088Y-99560742D01*
X147262231Y-99713123D02*
X146881279Y-99713123D01*
X147366993Y-99941695D02*
X147000326Y-99141695D01*
X147000326Y-99141695D02*
X146833660Y-99941695D01*
X146238422Y-99141695D02*
X146309850Y-99713123D01*
X146309850Y-99713123D02*
X146362231Y-99827409D01*
X146362231Y-99827409D02*
X146447946Y-99903600D01*
X146447946Y-99903600D02*
X146566993Y-99941695D01*
X146566993Y-99941695D02*
X146643184Y-99941695D01*
X145933660Y-99141695D02*
X145843184Y-99941695D01*
X145843184Y-99941695D02*
X145619374Y-99370266D01*
X145619374Y-99370266D02*
X145538422Y-99941695D01*
X145538422Y-99941695D02*
X145247945Y-99141695D01*
X145052707Y-99713123D02*
X144671755Y-99713123D01*
X145157469Y-99941695D02*
X144790802Y-99141695D01*
X144790802Y-99141695D02*
X144624136Y-99941695D01*
X144357469Y-99941695D02*
X144257469Y-99141695D01*
X144257469Y-99141695D02*
X143900326Y-99941695D01*
X143900326Y-99941695D02*
X143800326Y-99141695D01*
X143519374Y-99941695D02*
X143419374Y-99141695D01*
D12*
%TO.C,REF\u002A\u002A*%
X125925406Y-103804949D02*
X125951127Y-103820647D01*
X125977778Y-103842227D01*
X125977778Y-104489684D01*
X125951127Y-104511264D01*
X125919767Y-104528739D01*
X125883966Y-104529575D01*
X125852528Y-104509082D01*
X125848652Y-104504416D01*
X125843186Y-104494949D01*
X125838979Y-104481267D01*
X125835867Y-104460748D01*
X125833687Y-104430768D01*
X125832276Y-104388704D01*
X125831471Y-104331932D01*
X125831107Y-104257830D01*
X125831022Y-104163773D01*
X125831022Y-103842227D01*
X125857673Y-103820647D01*
X125881386Y-103805877D01*
X125904400Y-103799067D01*
X125925406Y-103804949D01*
G36*
X125925406Y-103804949D02*
G01*
X125951127Y-103820647D01*
X125977778Y-103842227D01*
X125977778Y-104489684D01*
X125951127Y-104511264D01*
X125919767Y-104528739D01*
X125883966Y-104529575D01*
X125852528Y-104509082D01*
X125848652Y-104504416D01*
X125843186Y-104494949D01*
X125838979Y-104481267D01*
X125835867Y-104460748D01*
X125833687Y-104430768D01*
X125832276Y-104388704D01*
X125831471Y-104331932D01*
X125831107Y-104257830D01*
X125831022Y-104163773D01*
X125831022Y-103842227D01*
X125857673Y-103820647D01*
X125881386Y-103805877D01*
X125904400Y-103799067D01*
X125925406Y-103804949D01*
G37*
X133056137Y-103803463D02*
X133090291Y-103826776D01*
X133118000Y-103854485D01*
X133118000Y-104167537D01*
X133117959Y-104251567D01*
X133117701Y-104325789D01*
X133117030Y-104382541D01*
X133115752Y-104424512D01*
X133113673Y-104454389D01*
X133110599Y-104474861D01*
X133106334Y-104488614D01*
X133100684Y-104498337D01*
X133093455Y-104506717D01*
X133061991Y-104528181D01*
X133026826Y-104529947D01*
X132993822Y-104510267D01*
X132988516Y-104504398D01*
X132983066Y-104495314D01*
X132978900Y-104481973D01*
X132975846Y-104461757D01*
X132973732Y-104432049D01*
X132972386Y-104390232D01*
X132971638Y-104333689D01*
X132971314Y-104259802D01*
X132971245Y-104165956D01*
X132971284Y-104090294D01*
X132971539Y-104012385D01*
X132972183Y-103952375D01*
X132973387Y-103907648D01*
X132975324Y-103875585D01*
X132978164Y-103853571D01*
X132982079Y-103838987D01*
X132987242Y-103829218D01*
X132993822Y-103821645D01*
X133023006Y-103802623D01*
X133056137Y-103803463D01*
G36*
X133056137Y-103803463D02*
G01*
X133090291Y-103826776D01*
X133118000Y-103854485D01*
X133118000Y-104167537D01*
X133117959Y-104251567D01*
X133117701Y-104325789D01*
X133117030Y-104382541D01*
X133115752Y-104424512D01*
X133113673Y-104454389D01*
X133110599Y-104474861D01*
X133106334Y-104488614D01*
X133100684Y-104498337D01*
X133093455Y-104506717D01*
X133061991Y-104528181D01*
X133026826Y-104529947D01*
X132993822Y-104510267D01*
X132988516Y-104504398D01*
X132983066Y-104495314D01*
X132978900Y-104481973D01*
X132975846Y-104461757D01*
X132973732Y-104432049D01*
X132972386Y-104390232D01*
X132971638Y-104333689D01*
X132971314Y-104259802D01*
X132971245Y-104165956D01*
X132971284Y-104090294D01*
X132971539Y-104012385D01*
X132972183Y-103952375D01*
X132973387Y-103907648D01*
X132975324Y-103875585D01*
X132978164Y-103853571D01*
X132982079Y-103838987D01*
X132987242Y-103829218D01*
X132993822Y-103821645D01*
X133023006Y-103802623D01*
X133056137Y-103803463D01*
G37*
X132524562Y-98562850D02*
X132607313Y-98590053D01*
X132682406Y-98635484D01*
X132754298Y-98701302D01*
X132792846Y-98745567D01*
X132832256Y-98803961D01*
X132857446Y-98864586D01*
X132870861Y-98933865D01*
X132874948Y-99018222D01*
X132874669Y-99064307D01*
X132872460Y-99105450D01*
X132866894Y-99137582D01*
X132856586Y-99168122D01*
X132840148Y-99204489D01*
X132826200Y-99231728D01*
X132767665Y-99317429D01*
X132695619Y-99386617D01*
X132611947Y-99437741D01*
X132518531Y-99469250D01*
X132485434Y-99476225D01*
X132444960Y-99483094D01*
X132411999Y-99484919D01*
X132377698Y-99481947D01*
X132333200Y-99474426D01*
X132281934Y-99462002D01*
X132191434Y-99424112D01*
X132112345Y-99369836D01*
X132046528Y-99301770D01*
X131995840Y-99222511D01*
X131962140Y-99134654D01*
X131947286Y-99040795D01*
X131953136Y-98943530D01*
X131979399Y-98847220D01*
X132024418Y-98758494D01*
X132085373Y-98683419D01*
X132160184Y-98623641D01*
X132246768Y-98580809D01*
X132343043Y-98556571D01*
X132446928Y-98552576D01*
X132524562Y-98562850D01*
G36*
X132524562Y-98562850D02*
G01*
X132607313Y-98590053D01*
X132682406Y-98635484D01*
X132754298Y-98701302D01*
X132792846Y-98745567D01*
X132832256Y-98803961D01*
X132857446Y-98864586D01*
X132870861Y-98933865D01*
X132874948Y-99018222D01*
X132874669Y-99064307D01*
X132872460Y-99105450D01*
X132866894Y-99137582D01*
X132856586Y-99168122D01*
X132840148Y-99204489D01*
X132826200Y-99231728D01*
X132767665Y-99317429D01*
X132695619Y-99386617D01*
X132611947Y-99437741D01*
X132518531Y-99469250D01*
X132485434Y-99476225D01*
X132444960Y-99483094D01*
X132411999Y-99484919D01*
X132377698Y-99481947D01*
X132333200Y-99474426D01*
X132281934Y-99462002D01*
X132191434Y-99424112D01*
X132112345Y-99369836D01*
X132046528Y-99301770D01*
X131995840Y-99222511D01*
X131962140Y-99134654D01*
X131947286Y-99040795D01*
X131953136Y-98943530D01*
X131979399Y-98847220D01*
X132024418Y-98758494D01*
X132085373Y-98683419D01*
X132160184Y-98623641D01*
X132246768Y-98580809D01*
X132343043Y-98556571D01*
X132446928Y-98552576D01*
X132524562Y-98562850D01*
G37*
X125225767Y-103799068D02*
X125319890Y-103799158D01*
X125394405Y-103799498D01*
X125451811Y-103800239D01*
X125494611Y-103801535D01*
X125525304Y-103803537D01*
X125546391Y-103806396D01*
X125560373Y-103810266D01*
X125569750Y-103815298D01*
X125577022Y-103821645D01*
X125595828Y-103854362D01*
X125597275Y-103891939D01*
X125580917Y-103925178D01*
X125579557Y-103926631D01*
X125568354Y-103934992D01*
X125551252Y-103940547D01*
X125524082Y-103943840D01*
X125482678Y-103945418D01*
X125422873Y-103945822D01*
X125283511Y-103945822D01*
X125283511Y-104209589D01*
X125283436Y-104285417D01*
X125283028Y-104352083D01*
X125282046Y-104401867D01*
X125280250Y-104437784D01*
X125277399Y-104462850D01*
X125273253Y-104480081D01*
X125267571Y-104492492D01*
X125260114Y-104503100D01*
X125257824Y-104505906D01*
X125226646Y-104528548D01*
X125192266Y-104530112D01*
X125159334Y-104510267D01*
X125152355Y-104502191D01*
X125146883Y-104491593D01*
X125142863Y-104475749D01*
X125140072Y-104451773D01*
X125138288Y-104416774D01*
X125137289Y-104367864D01*
X125136852Y-104302154D01*
X125136756Y-104216756D01*
X125136756Y-103945822D01*
X124990820Y-103945822D01*
X124979720Y-103945821D01*
X124923202Y-103945596D01*
X124884358Y-103944457D01*
X124858965Y-103941657D01*
X124842804Y-103936450D01*
X124831652Y-103928089D01*
X124821289Y-103915826D01*
X124805441Y-103885138D01*
X124808543Y-103851358D01*
X124834187Y-103818822D01*
X124839129Y-103815105D01*
X124849338Y-103810269D01*
X124864764Y-103806506D01*
X124887886Y-103803683D01*
X124921183Y-103801670D01*
X124967137Y-103800333D01*
X125028228Y-103799542D01*
X125106935Y-103799163D01*
X125205740Y-103799067D01*
X125225767Y-103799068D01*
G36*
X125225767Y-103799068D02*
G01*
X125319890Y-103799158D01*
X125394405Y-103799498D01*
X125451811Y-103800239D01*
X125494611Y-103801535D01*
X125525304Y-103803537D01*
X125546391Y-103806396D01*
X125560373Y-103810266D01*
X125569750Y-103815298D01*
X125577022Y-103821645D01*
X125595828Y-103854362D01*
X125597275Y-103891939D01*
X125580917Y-103925178D01*
X125579557Y-103926631D01*
X125568354Y-103934992D01*
X125551252Y-103940547D01*
X125524082Y-103943840D01*
X125482678Y-103945418D01*
X125422873Y-103945822D01*
X125283511Y-103945822D01*
X125283511Y-104209589D01*
X125283436Y-104285417D01*
X125283028Y-104352083D01*
X125282046Y-104401867D01*
X125280250Y-104437784D01*
X125277399Y-104462850D01*
X125273253Y-104480081D01*
X125267571Y-104492492D01*
X125260114Y-104503100D01*
X125257824Y-104505906D01*
X125226646Y-104528548D01*
X125192266Y-104530112D01*
X125159334Y-104510267D01*
X125152355Y-104502191D01*
X125146883Y-104491593D01*
X125142863Y-104475749D01*
X125140072Y-104451773D01*
X125138288Y-104416774D01*
X125137289Y-104367864D01*
X125136852Y-104302154D01*
X125136756Y-104216756D01*
X125136756Y-103945822D01*
X124990820Y-103945822D01*
X124979720Y-103945821D01*
X124923202Y-103945596D01*
X124884358Y-103944457D01*
X124858965Y-103941657D01*
X124842804Y-103936450D01*
X124831652Y-103928089D01*
X124821289Y-103915826D01*
X124805441Y-103885138D01*
X124808543Y-103851358D01*
X124834187Y-103818822D01*
X124839129Y-103815105D01*
X124849338Y-103810269D01*
X124864764Y-103806506D01*
X124887886Y-103803683D01*
X124921183Y-103801670D01*
X124967137Y-103800333D01*
X125028228Y-103799542D01*
X125106935Y-103799163D01*
X125205740Y-103799067D01*
X125225767Y-103799068D01*
G37*
X124549734Y-103821645D02*
X124555366Y-103827835D01*
X124560456Y-103836041D01*
X124564543Y-103847817D01*
X124567721Y-103865276D01*
X124570087Y-103890530D01*
X124571738Y-103925690D01*
X124572769Y-103972869D01*
X124573277Y-104034177D01*
X124573359Y-104111727D01*
X124573109Y-104207631D01*
X124572625Y-104324000D01*
X124572557Y-104338175D01*
X124571971Y-104399937D01*
X124570648Y-104443620D01*
X124568103Y-104473001D01*
X124563848Y-104491855D01*
X124557396Y-104503959D01*
X124548262Y-104513089D01*
X124514804Y-104530506D01*
X124479856Y-104527604D01*
X124448953Y-104503100D01*
X124439944Y-104489897D01*
X124432492Y-104471361D01*
X124428124Y-104445333D01*
X124426069Y-104406787D01*
X124425556Y-104350700D01*
X124425556Y-104228045D01*
X123928845Y-104228045D01*
X123928845Y-104362871D01*
X123928772Y-104398662D01*
X123928009Y-104444992D01*
X123925833Y-104475526D01*
X123921536Y-104494557D01*
X123914412Y-104506374D01*
X123903755Y-104515271D01*
X123871504Y-104530341D01*
X123836217Y-104527673D01*
X123805486Y-104503100D01*
X123800831Y-104496845D01*
X123794895Y-104486321D01*
X123790364Y-104472391D01*
X123787048Y-104452317D01*
X123784759Y-104423360D01*
X123783308Y-104382780D01*
X123782505Y-104327840D01*
X123782162Y-104255799D01*
X123782089Y-104163920D01*
X123782089Y-103854485D01*
X123809798Y-103826776D01*
X123841177Y-103804533D01*
X123874406Y-103801844D01*
X123906267Y-103821645D01*
X123914553Y-103831415D01*
X123921965Y-103847307D01*
X123926302Y-103871275D01*
X123928338Y-103908148D01*
X123928845Y-103962756D01*
X123928845Y-104081289D01*
X124425556Y-104081289D01*
X124425556Y-103965776D01*
X124425994Y-103914078D01*
X124427958Y-103879554D01*
X124432474Y-103856978D01*
X124440567Y-103841126D01*
X124453265Y-103826776D01*
X124484643Y-103804533D01*
X124517872Y-103801844D01*
X124549734Y-103821645D01*
G36*
X124549734Y-103821645D02*
G01*
X124555366Y-103827835D01*
X124560456Y-103836041D01*
X124564543Y-103847817D01*
X124567721Y-103865276D01*
X124570087Y-103890530D01*
X124571738Y-103925690D01*
X124572769Y-103972869D01*
X124573277Y-104034177D01*
X124573359Y-104111727D01*
X124573109Y-104207631D01*
X124572625Y-104324000D01*
X124572557Y-104338175D01*
X124571971Y-104399937D01*
X124570648Y-104443620D01*
X124568103Y-104473001D01*
X124563848Y-104491855D01*
X124557396Y-104503959D01*
X124548262Y-104513089D01*
X124514804Y-104530506D01*
X124479856Y-104527604D01*
X124448953Y-104503100D01*
X124439944Y-104489897D01*
X124432492Y-104471361D01*
X124428124Y-104445333D01*
X124426069Y-104406787D01*
X124425556Y-104350700D01*
X124425556Y-104228045D01*
X123928845Y-104228045D01*
X123928845Y-104362871D01*
X123928772Y-104398662D01*
X123928009Y-104444992D01*
X123925833Y-104475526D01*
X123921536Y-104494557D01*
X123914412Y-104506374D01*
X123903755Y-104515271D01*
X123871504Y-104530341D01*
X123836217Y-104527673D01*
X123805486Y-104503100D01*
X123800831Y-104496845D01*
X123794895Y-104486321D01*
X123790364Y-104472391D01*
X123787048Y-104452317D01*
X123784759Y-104423360D01*
X123783308Y-104382780D01*
X123782505Y-104327840D01*
X123782162Y-104255799D01*
X123782089Y-104163920D01*
X123782089Y-103854485D01*
X123809798Y-103826776D01*
X123841177Y-103804533D01*
X123874406Y-103801844D01*
X123906267Y-103821645D01*
X123914553Y-103831415D01*
X123921965Y-103847307D01*
X123926302Y-103871275D01*
X123928338Y-103908148D01*
X123928845Y-103962756D01*
X123928845Y-104081289D01*
X124425556Y-104081289D01*
X124425556Y-103965776D01*
X124425994Y-103914078D01*
X124427958Y-103879554D01*
X124432474Y-103856978D01*
X124440567Y-103841126D01*
X124453265Y-103826776D01*
X124484643Y-103804533D01*
X124517872Y-103801844D01*
X124549734Y-103821645D01*
G37*
X129255133Y-104410396D02*
X129253163Y-104443175D01*
X129250235Y-104466095D01*
X129246158Y-104481897D01*
X129240743Y-104493319D01*
X129233803Y-104503100D01*
X129210406Y-104532845D01*
X129044714Y-104532251D01*
X129009918Y-104531953D01*
X128911435Y-104528522D01*
X128830473Y-104520839D01*
X128763379Y-104508282D01*
X128706496Y-104490227D01*
X128656169Y-104466052D01*
X128652810Y-104464135D01*
X128594998Y-104427417D01*
X128552644Y-104390451D01*
X128519828Y-104346966D01*
X128490628Y-104290689D01*
X128486346Y-104281073D01*
X128463769Y-104217887D01*
X128458034Y-104172333D01*
X128607279Y-104172333D01*
X128612892Y-104197061D01*
X128618618Y-104212939D01*
X128651548Y-104272847D01*
X128698886Y-104318600D01*
X128762652Y-104351736D01*
X128844861Y-104373790D01*
X128847655Y-104374292D01*
X128893940Y-104380255D01*
X128950336Y-104384483D01*
X129005274Y-104386089D01*
X129099156Y-104386089D01*
X129099156Y-103945822D01*
X129011667Y-103946270D01*
X128944747Y-103948746D01*
X128852349Y-103959998D01*
X128773034Y-103979537D01*
X128711060Y-104006511D01*
X128680120Y-104027240D01*
X128652000Y-104057006D01*
X128628660Y-104099434D01*
X128621533Y-104115400D01*
X128609709Y-104147902D01*
X128607279Y-104172333D01*
X128458034Y-104172333D01*
X128456797Y-104162509D01*
X128465399Y-104107483D01*
X128489541Y-104045351D01*
X128490337Y-104043658D01*
X128530788Y-103974236D01*
X128581473Y-103917638D01*
X128644198Y-103873070D01*
X128720774Y-103839741D01*
X128813009Y-103816861D01*
X128922712Y-103803636D01*
X129051691Y-103799275D01*
X129055263Y-103799270D01*
X129115283Y-103799410D01*
X129157214Y-103800446D01*
X129185328Y-103803040D01*
X129203897Y-103807853D01*
X129217194Y-103815544D01*
X129229491Y-103826776D01*
X129257200Y-103854485D01*
X129257200Y-104163920D01*
X129257175Y-104225526D01*
X129256950Y-104304311D01*
X129256332Y-104365021D01*
X129255775Y-104386089D01*
X129255133Y-104410396D01*
G36*
X129255133Y-104410396D02*
G01*
X129253163Y-104443175D01*
X129250235Y-104466095D01*
X129246158Y-104481897D01*
X129240743Y-104493319D01*
X129233803Y-104503100D01*
X129210406Y-104532845D01*
X129044714Y-104532251D01*
X129009918Y-104531953D01*
X128911435Y-104528522D01*
X128830473Y-104520839D01*
X128763379Y-104508282D01*
X128706496Y-104490227D01*
X128656169Y-104466052D01*
X128652810Y-104464135D01*
X128594998Y-104427417D01*
X128552644Y-104390451D01*
X128519828Y-104346966D01*
X128490628Y-104290689D01*
X128486346Y-104281073D01*
X128463769Y-104217887D01*
X128458034Y-104172333D01*
X128607279Y-104172333D01*
X128612892Y-104197061D01*
X128618618Y-104212939D01*
X128651548Y-104272847D01*
X128698886Y-104318600D01*
X128762652Y-104351736D01*
X128844861Y-104373790D01*
X128847655Y-104374292D01*
X128893940Y-104380255D01*
X128950336Y-104384483D01*
X129005274Y-104386089D01*
X129099156Y-104386089D01*
X129099156Y-103945822D01*
X129011667Y-103946270D01*
X128944747Y-103948746D01*
X128852349Y-103959998D01*
X128773034Y-103979537D01*
X128711060Y-104006511D01*
X128680120Y-104027240D01*
X128652000Y-104057006D01*
X128628660Y-104099434D01*
X128621533Y-104115400D01*
X128609709Y-104147902D01*
X128607279Y-104172333D01*
X128458034Y-104172333D01*
X128456797Y-104162509D01*
X128465399Y-104107483D01*
X128489541Y-104045351D01*
X128490337Y-104043658D01*
X128530788Y-103974236D01*
X128581473Y-103917638D01*
X128644198Y-103873070D01*
X128720774Y-103839741D01*
X128813009Y-103816861D01*
X128922712Y-103803636D01*
X129051691Y-103799275D01*
X129055263Y-103799270D01*
X129115283Y-103799410D01*
X129157214Y-103800446D01*
X129185328Y-103803040D01*
X129203897Y-103807853D01*
X129217194Y-103815544D01*
X129229491Y-103826776D01*
X129257200Y-103854485D01*
X129257200Y-104163920D01*
X129257175Y-104225526D01*
X129256950Y-104304311D01*
X129256332Y-104365021D01*
X129255775Y-104386089D01*
X129255133Y-104410396D01*
G37*
X136346817Y-103984427D02*
X136346870Y-104065041D01*
X136346622Y-104165956D01*
X136346583Y-104241617D01*
X136346328Y-104319526D01*
X136345684Y-104379536D01*
X136344480Y-104424264D01*
X136342543Y-104456326D01*
X136339703Y-104478340D01*
X136335788Y-104492924D01*
X136330626Y-104502694D01*
X136324045Y-104510267D01*
X136317077Y-104516501D01*
X136304079Y-104523801D01*
X136284931Y-104528554D01*
X136255528Y-104531292D01*
X136211762Y-104532545D01*
X136149528Y-104532845D01*
X136100582Y-104532469D01*
X135993722Y-104528041D01*
X135904494Y-104517953D01*
X135829696Y-104501365D01*
X135766125Y-104477435D01*
X135710579Y-104445321D01*
X135659854Y-104404182D01*
X135653866Y-104398330D01*
X135616999Y-104349821D01*
X135585899Y-104289013D01*
X135564417Y-104224769D01*
X135559136Y-104186026D01*
X135706353Y-104186026D01*
X135724635Y-104236961D01*
X135754305Y-104282878D01*
X135801002Y-104325287D01*
X135862392Y-104355090D01*
X135941538Y-104374226D01*
X135943028Y-104374464D01*
X135991999Y-104380256D01*
X136050693Y-104384396D01*
X136106734Y-104386004D01*
X136199867Y-104386089D01*
X136199867Y-103945822D01*
X136123667Y-103945808D01*
X136120639Y-103945817D01*
X136069519Y-103947782D01*
X136009416Y-103952507D01*
X135952708Y-103959035D01*
X135902750Y-103968331D01*
X135827998Y-103994600D01*
X135770489Y-104033899D01*
X135728988Y-104086933D01*
X135707771Y-104138200D01*
X135706353Y-104186026D01*
X135559136Y-104186026D01*
X135556400Y-104165956D01*
X135557679Y-104144739D01*
X135569991Y-104087323D01*
X135592520Y-104027413D01*
X135621750Y-103973363D01*
X135654167Y-103933532D01*
X135673708Y-103916510D01*
X135728420Y-103877322D01*
X135788723Y-103847193D01*
X135857919Y-103825232D01*
X135939311Y-103810550D01*
X136036200Y-103802259D01*
X136151889Y-103799467D01*
X136191371Y-103799066D01*
X136237082Y-103798653D01*
X136272883Y-103800457D01*
X136299974Y-103806739D01*
X136319556Y-103819759D01*
X136332830Y-103841778D01*
X136340998Y-103875055D01*
X136345260Y-103921851D01*
X136345857Y-103945822D01*
X136346817Y-103984427D01*
G36*
X136346817Y-103984427D02*
G01*
X136346870Y-104065041D01*
X136346622Y-104165956D01*
X136346583Y-104241617D01*
X136346328Y-104319526D01*
X136345684Y-104379536D01*
X136344480Y-104424264D01*
X136342543Y-104456326D01*
X136339703Y-104478340D01*
X136335788Y-104492924D01*
X136330626Y-104502694D01*
X136324045Y-104510267D01*
X136317077Y-104516501D01*
X136304079Y-104523801D01*
X136284931Y-104528554D01*
X136255528Y-104531292D01*
X136211762Y-104532545D01*
X136149528Y-104532845D01*
X136100582Y-104532469D01*
X135993722Y-104528041D01*
X135904494Y-104517953D01*
X135829696Y-104501365D01*
X135766125Y-104477435D01*
X135710579Y-104445321D01*
X135659854Y-104404182D01*
X135653866Y-104398330D01*
X135616999Y-104349821D01*
X135585899Y-104289013D01*
X135564417Y-104224769D01*
X135559136Y-104186026D01*
X135706353Y-104186026D01*
X135724635Y-104236961D01*
X135754305Y-104282878D01*
X135801002Y-104325287D01*
X135862392Y-104355090D01*
X135941538Y-104374226D01*
X135943028Y-104374464D01*
X135991999Y-104380256D01*
X136050693Y-104384396D01*
X136106734Y-104386004D01*
X136199867Y-104386089D01*
X136199867Y-103945822D01*
X136123667Y-103945808D01*
X136120639Y-103945817D01*
X136069519Y-103947782D01*
X136009416Y-103952507D01*
X135952708Y-103959035D01*
X135902750Y-103968331D01*
X135827998Y-103994600D01*
X135770489Y-104033899D01*
X135728988Y-104086933D01*
X135707771Y-104138200D01*
X135706353Y-104186026D01*
X135559136Y-104186026D01*
X135556400Y-104165956D01*
X135557679Y-104144739D01*
X135569991Y-104087323D01*
X135592520Y-104027413D01*
X135621750Y-103973363D01*
X135654167Y-103933532D01*
X135673708Y-103916510D01*
X135728420Y-103877322D01*
X135788723Y-103847193D01*
X135857919Y-103825232D01*
X135939311Y-103810550D01*
X136036200Y-103802259D01*
X136151889Y-103799467D01*
X136191371Y-103799066D01*
X136237082Y-103798653D01*
X136272883Y-103800457D01*
X136299974Y-103806739D01*
X136319556Y-103819759D01*
X136332830Y-103841778D01*
X136340998Y-103875055D01*
X136345260Y-103921851D01*
X136345857Y-103945822D01*
X136346817Y-103984427D01*
G37*
X131401893Y-103797892D02*
X131413301Y-103804029D01*
X131423850Y-103814691D01*
X131435136Y-103828811D01*
X131439589Y-103834772D01*
X131445588Y-103845268D01*
X131450167Y-103859093D01*
X131453519Y-103878998D01*
X131455833Y-103907732D01*
X131457301Y-103948045D01*
X131458113Y-104002687D01*
X131458460Y-104074407D01*
X131458534Y-104165956D01*
X131458511Y-104224486D01*
X131458292Y-104303573D01*
X131457683Y-104364516D01*
X131456492Y-104410062D01*
X131454529Y-104442963D01*
X131451603Y-104465968D01*
X131447523Y-104481826D01*
X131442097Y-104493286D01*
X131435136Y-104503100D01*
X131404708Y-104527493D01*
X131369765Y-104530372D01*
X131332784Y-104511282D01*
X131328600Y-104507807D01*
X131320424Y-104499279D01*
X131314364Y-104487728D01*
X131309981Y-104469896D01*
X131306839Y-104442524D01*
X131304502Y-104402354D01*
X131302531Y-104346128D01*
X131300489Y-104270589D01*
X131294845Y-104051458D01*
X131029556Y-104292099D01*
X130955722Y-104358875D01*
X130890542Y-104416991D01*
X130838348Y-104461949D01*
X130797273Y-104494871D01*
X130765455Y-104516879D01*
X130741026Y-104529094D01*
X130722124Y-104532639D01*
X130706883Y-104528636D01*
X130693439Y-104518207D01*
X130679927Y-104502474D01*
X130673682Y-104493991D01*
X130668050Y-104483413D01*
X130663839Y-104469255D01*
X130660887Y-104448803D01*
X130659032Y-104419342D01*
X130658113Y-104378161D01*
X130657968Y-104322544D01*
X130658435Y-104249779D01*
X130659352Y-104157151D01*
X130662667Y-103842199D01*
X130689318Y-103820633D01*
X130715383Y-103804441D01*
X130748241Y-103801670D01*
X130782772Y-103820623D01*
X130787084Y-103824208D01*
X130795216Y-103832737D01*
X130801245Y-103844329D01*
X130805606Y-103862235D01*
X130808734Y-103889706D01*
X130811063Y-103929994D01*
X130813029Y-103986351D01*
X130815067Y-104062029D01*
X130820711Y-104281878D01*
X131001334Y-104118084D01*
X131088072Y-104039451D01*
X131163843Y-103971058D01*
X131225980Y-103915708D01*
X131276078Y-103872338D01*
X131315735Y-103839881D01*
X131346548Y-103817273D01*
X131370114Y-103803448D01*
X131388030Y-103797343D01*
X131401893Y-103797892D01*
G36*
X131401893Y-103797892D02*
G01*
X131413301Y-103804029D01*
X131423850Y-103814691D01*
X131435136Y-103828811D01*
X131439589Y-103834772D01*
X131445588Y-103845268D01*
X131450167Y-103859093D01*
X131453519Y-103878998D01*
X131455833Y-103907732D01*
X131457301Y-103948045D01*
X131458113Y-104002687D01*
X131458460Y-104074407D01*
X131458534Y-104165956D01*
X131458511Y-104224486D01*
X131458292Y-104303573D01*
X131457683Y-104364516D01*
X131456492Y-104410062D01*
X131454529Y-104442963D01*
X131451603Y-104465968D01*
X131447523Y-104481826D01*
X131442097Y-104493286D01*
X131435136Y-104503100D01*
X131404708Y-104527493D01*
X131369765Y-104530372D01*
X131332784Y-104511282D01*
X131328600Y-104507807D01*
X131320424Y-104499279D01*
X131314364Y-104487728D01*
X131309981Y-104469896D01*
X131306839Y-104442524D01*
X131304502Y-104402354D01*
X131302531Y-104346128D01*
X131300489Y-104270589D01*
X131294845Y-104051458D01*
X131029556Y-104292099D01*
X130955722Y-104358875D01*
X130890542Y-104416991D01*
X130838348Y-104461949D01*
X130797273Y-104494871D01*
X130765455Y-104516879D01*
X130741026Y-104529094D01*
X130722124Y-104532639D01*
X130706883Y-104528636D01*
X130693439Y-104518207D01*
X130679927Y-104502474D01*
X130673682Y-104493991D01*
X130668050Y-104483413D01*
X130663839Y-104469255D01*
X130660887Y-104448803D01*
X130659032Y-104419342D01*
X130658113Y-104378161D01*
X130657968Y-104322544D01*
X130658435Y-104249779D01*
X130659352Y-104157151D01*
X130662667Y-103842199D01*
X130689318Y-103820633D01*
X130715383Y-103804441D01*
X130748241Y-103801670D01*
X130782772Y-103820623D01*
X130787084Y-103824208D01*
X130795216Y-103832737D01*
X130801245Y-103844329D01*
X130805606Y-103862235D01*
X130808734Y-103889706D01*
X130811063Y-103929994D01*
X130813029Y-103986351D01*
X130815067Y-104062029D01*
X130820711Y-104281878D01*
X131001334Y-104118084D01*
X131088072Y-104039451D01*
X131163843Y-103971058D01*
X131225980Y-103915708D01*
X131276078Y-103872338D01*
X131315735Y-103839881D01*
X131346548Y-103817273D01*
X131370114Y-103803448D01*
X131388030Y-103797343D01*
X131401893Y-103797892D01*
G37*
X132199150Y-103804179D02*
X132305157Y-103820494D01*
X132398969Y-103848545D01*
X132477765Y-103887452D01*
X132538719Y-103936334D01*
X132564789Y-103969195D01*
X132594297Y-104018394D01*
X132619568Y-104072252D01*
X132637218Y-104123419D01*
X132643858Y-104164544D01*
X132642298Y-104184259D01*
X132629357Y-104235592D01*
X132606194Y-104292118D01*
X132576302Y-104346035D01*
X132543173Y-104389539D01*
X132532977Y-104399887D01*
X132465892Y-104451662D01*
X132385766Y-104491554D01*
X132299556Y-104515956D01*
X132244592Y-104524068D01*
X132151139Y-104530673D01*
X132061358Y-104528586D01*
X131978869Y-104518340D01*
X131907286Y-104500470D01*
X131850228Y-104475508D01*
X131811311Y-104443988D01*
X131809936Y-104442012D01*
X131802848Y-104416786D01*
X131798609Y-104369535D01*
X131797200Y-104300071D01*
X131798060Y-104237838D01*
X131802780Y-104190456D01*
X131814470Y-104158353D01*
X131836239Y-104138800D01*
X131871198Y-104129070D01*
X131922456Y-104126433D01*
X131993123Y-104128161D01*
X132041743Y-104131173D01*
X132091939Y-104139366D01*
X132124433Y-104153419D01*
X132141892Y-104174654D01*
X132146983Y-104204394D01*
X132146877Y-104208936D01*
X132138175Y-104243730D01*
X132114165Y-104267147D01*
X132072900Y-104280347D01*
X132012431Y-104284489D01*
X131943956Y-104284489D01*
X131943956Y-104322841D01*
X131944006Y-104331976D01*
X131946227Y-104349227D01*
X131955494Y-104359521D01*
X131976875Y-104366459D01*
X132015436Y-104373641D01*
X132020910Y-104374575D01*
X132117860Y-104384478D01*
X132207852Y-104381559D01*
X132288760Y-104366829D01*
X132358459Y-104341299D01*
X132414824Y-104305978D01*
X132455729Y-104261879D01*
X132479051Y-104210012D01*
X132482663Y-104151388D01*
X132477145Y-104122494D01*
X132450461Y-104066604D01*
X132404273Y-104020945D01*
X132339291Y-103986108D01*
X132256229Y-103962690D01*
X132231555Y-103958241D01*
X132142226Y-103947742D01*
X132062419Y-103948971D01*
X131984326Y-103961906D01*
X131949183Y-103968696D01*
X131903745Y-103969713D01*
X131872430Y-103957182D01*
X131852277Y-103930395D01*
X131845893Y-103902148D01*
X131855379Y-103870924D01*
X131864708Y-103857499D01*
X131898943Y-103833967D01*
X131951565Y-103816095D01*
X132020081Y-103804599D01*
X132102000Y-103800192D01*
X132199150Y-103804179D01*
G36*
X132199150Y-103804179D02*
G01*
X132305157Y-103820494D01*
X132398969Y-103848545D01*
X132477765Y-103887452D01*
X132538719Y-103936334D01*
X132564789Y-103969195D01*
X132594297Y-104018394D01*
X132619568Y-104072252D01*
X132637218Y-104123419D01*
X132643858Y-104164544D01*
X132642298Y-104184259D01*
X132629357Y-104235592D01*
X132606194Y-104292118D01*
X132576302Y-104346035D01*
X132543173Y-104389539D01*
X132532977Y-104399887D01*
X132465892Y-104451662D01*
X132385766Y-104491554D01*
X132299556Y-104515956D01*
X132244592Y-104524068D01*
X132151139Y-104530673D01*
X132061358Y-104528586D01*
X131978869Y-104518340D01*
X131907286Y-104500470D01*
X131850228Y-104475508D01*
X131811311Y-104443988D01*
X131809936Y-104442012D01*
X131802848Y-104416786D01*
X131798609Y-104369535D01*
X131797200Y-104300071D01*
X131798060Y-104237838D01*
X131802780Y-104190456D01*
X131814470Y-104158353D01*
X131836239Y-104138800D01*
X131871198Y-104129070D01*
X131922456Y-104126433D01*
X131993123Y-104128161D01*
X132041743Y-104131173D01*
X132091939Y-104139366D01*
X132124433Y-104153419D01*
X132141892Y-104174654D01*
X132146983Y-104204394D01*
X132146877Y-104208936D01*
X132138175Y-104243730D01*
X132114165Y-104267147D01*
X132072900Y-104280347D01*
X132012431Y-104284489D01*
X131943956Y-104284489D01*
X131943956Y-104322841D01*
X131944006Y-104331976D01*
X131946227Y-104349227D01*
X131955494Y-104359521D01*
X131976875Y-104366459D01*
X132015436Y-104373641D01*
X132020910Y-104374575D01*
X132117860Y-104384478D01*
X132207852Y-104381559D01*
X132288760Y-104366829D01*
X132358459Y-104341299D01*
X132414824Y-104305978D01*
X132455729Y-104261879D01*
X132479051Y-104210012D01*
X132482663Y-104151388D01*
X132477145Y-104122494D01*
X132450461Y-104066604D01*
X132404273Y-104020945D01*
X132339291Y-103986108D01*
X132256229Y-103962690D01*
X132231555Y-103958241D01*
X132142226Y-103947742D01*
X132062419Y-103948971D01*
X131984326Y-103961906D01*
X131949183Y-103968696D01*
X131903745Y-103969713D01*
X131872430Y-103957182D01*
X131852277Y-103930395D01*
X131845893Y-103902148D01*
X131855379Y-103870924D01*
X131864708Y-103857499D01*
X131898943Y-103833967D01*
X131951565Y-103816095D01*
X132020081Y-103804599D01*
X132102000Y-103800192D01*
X132199150Y-103804179D01*
G37*
X130249803Y-103828811D02*
X130254752Y-103835495D01*
X130260596Y-103846066D01*
X130265057Y-103860153D01*
X130268321Y-103880478D01*
X130270574Y-103909765D01*
X130272002Y-103950737D01*
X130272792Y-104006117D01*
X130273129Y-104078628D01*
X130273200Y-104170994D01*
X130273171Y-104236911D01*
X130272939Y-104315228D01*
X130272319Y-104375496D01*
X130271126Y-104420393D01*
X130269179Y-104452602D01*
X130266294Y-104474800D01*
X130262288Y-104489669D01*
X130256979Y-104499889D01*
X130250183Y-104508138D01*
X130245668Y-104512795D01*
X130237438Y-104519282D01*
X130226078Y-104524194D01*
X130208810Y-104527749D01*
X130182855Y-104530167D01*
X130145436Y-104531667D01*
X130093773Y-104532467D01*
X130025089Y-104532787D01*
X129936606Y-104532845D01*
X129916931Y-104532838D01*
X129829906Y-104532572D01*
X129762254Y-104531806D01*
X129711299Y-104530392D01*
X129674367Y-104528180D01*
X129648783Y-104525022D01*
X129631871Y-104520769D01*
X129620957Y-104515271D01*
X129610464Y-104505285D01*
X129597203Y-104474168D01*
X129598386Y-104438280D01*
X129614550Y-104406733D01*
X129616739Y-104404457D01*
X129625427Y-104398189D01*
X129638769Y-104393523D01*
X129659752Y-104390227D01*
X129691363Y-104388068D01*
X129736590Y-104386814D01*
X129798420Y-104386231D01*
X129879839Y-104386089D01*
X130126445Y-104386089D01*
X130126445Y-104228045D01*
X129964006Y-104228045D01*
X129928338Y-104227964D01*
X129872568Y-104227167D01*
X129833430Y-104225162D01*
X129806976Y-104221521D01*
X129789259Y-104215812D01*
X129776329Y-104207607D01*
X129772686Y-104204423D01*
X129754278Y-104173448D01*
X129753644Y-104137112D01*
X129771183Y-104103493D01*
X129771245Y-104103424D01*
X129780916Y-104094798D01*
X129794209Y-104088742D01*
X129814917Y-104084811D01*
X129846828Y-104082556D01*
X129893734Y-104081531D01*
X129959424Y-104081289D01*
X130127571Y-104081289D01*
X130124186Y-104016378D01*
X130120800Y-103951467D01*
X129878723Y-103948414D01*
X129853707Y-103948086D01*
X129772087Y-103946606D01*
X129709768Y-103944222D01*
X129664154Y-103940227D01*
X129632652Y-103933913D01*
X129612667Y-103924574D01*
X129601604Y-103911503D01*
X129596869Y-103893992D01*
X129595867Y-103871335D01*
X129595873Y-103868970D01*
X129597027Y-103848939D01*
X129601824Y-103833146D01*
X129612632Y-103821090D01*
X129631817Y-103812267D01*
X129661745Y-103806175D01*
X129704783Y-103802311D01*
X129763299Y-103800174D01*
X129839657Y-103799260D01*
X129936226Y-103799067D01*
X130226406Y-103799067D01*
X130249803Y-103828811D01*
G36*
X130249803Y-103828811D02*
G01*
X130254752Y-103835495D01*
X130260596Y-103846066D01*
X130265057Y-103860153D01*
X130268321Y-103880478D01*
X130270574Y-103909765D01*
X130272002Y-103950737D01*
X130272792Y-104006117D01*
X130273129Y-104078628D01*
X130273200Y-104170994D01*
X130273171Y-104236911D01*
X130272939Y-104315228D01*
X130272319Y-104375496D01*
X130271126Y-104420393D01*
X130269179Y-104452602D01*
X130266294Y-104474800D01*
X130262288Y-104489669D01*
X130256979Y-104499889D01*
X130250183Y-104508138D01*
X130245668Y-104512795D01*
X130237438Y-104519282D01*
X130226078Y-104524194D01*
X130208810Y-104527749D01*
X130182855Y-104530167D01*
X130145436Y-104531667D01*
X130093773Y-104532467D01*
X130025089Y-104532787D01*
X129936606Y-104532845D01*
X129916931Y-104532838D01*
X129829906Y-104532572D01*
X129762254Y-104531806D01*
X129711299Y-104530392D01*
X129674367Y-104528180D01*
X129648783Y-104525022D01*
X129631871Y-104520769D01*
X129620957Y-104515271D01*
X129610464Y-104505285D01*
X129597203Y-104474168D01*
X129598386Y-104438280D01*
X129614550Y-104406733D01*
X129616739Y-104404457D01*
X129625427Y-104398189D01*
X129638769Y-104393523D01*
X129659752Y-104390227D01*
X129691363Y-104388068D01*
X129736590Y-104386814D01*
X129798420Y-104386231D01*
X129879839Y-104386089D01*
X130126445Y-104386089D01*
X130126445Y-104228045D01*
X129964006Y-104228045D01*
X129928338Y-104227964D01*
X129872568Y-104227167D01*
X129833430Y-104225162D01*
X129806976Y-104221521D01*
X129789259Y-104215812D01*
X129776329Y-104207607D01*
X129772686Y-104204423D01*
X129754278Y-104173448D01*
X129753644Y-104137112D01*
X129771183Y-104103493D01*
X129771245Y-104103424D01*
X129780916Y-104094798D01*
X129794209Y-104088742D01*
X129814917Y-104084811D01*
X129846828Y-104082556D01*
X129893734Y-104081531D01*
X129959424Y-104081289D01*
X130127571Y-104081289D01*
X130124186Y-104016378D01*
X130120800Y-103951467D01*
X129878723Y-103948414D01*
X129853707Y-103948086D01*
X129772087Y-103946606D01*
X129709768Y-103944222D01*
X129664154Y-103940227D01*
X129632652Y-103933913D01*
X129612667Y-103924574D01*
X129601604Y-103911503D01*
X129596869Y-103893992D01*
X129595867Y-103871335D01*
X129595873Y-103868970D01*
X129597027Y-103848939D01*
X129601824Y-103833146D01*
X129612632Y-103821090D01*
X129631817Y-103812267D01*
X129661745Y-103806175D01*
X129704783Y-103802311D01*
X129763299Y-103800174D01*
X129839657Y-103799260D01*
X129936226Y-103799067D01*
X130226406Y-103799067D01*
X130249803Y-103828811D01*
G37*
X134926734Y-103799083D02*
X135003831Y-103799275D01*
X135062777Y-103799860D01*
X135106364Y-103801051D01*
X135137383Y-103803064D01*
X135158625Y-103806112D01*
X135172882Y-103810409D01*
X135182945Y-103816172D01*
X135191606Y-103823612D01*
X135193391Y-103825293D01*
X135200635Y-103832832D01*
X135206277Y-103841850D01*
X135210517Y-103854984D01*
X135213556Y-103874872D01*
X135215594Y-103904151D01*
X135216830Y-103945458D01*
X135217465Y-104001431D01*
X135217700Y-104074707D01*
X135217734Y-104167923D01*
X135217697Y-104240713D01*
X135217448Y-104318889D01*
X135216812Y-104379103D01*
X135215615Y-104423982D01*
X135213684Y-104456152D01*
X135210846Y-104478239D01*
X135206927Y-104492870D01*
X135201755Y-104502670D01*
X135195156Y-104510267D01*
X135191822Y-104513444D01*
X135183300Y-104519554D01*
X135171298Y-104524229D01*
X135153087Y-104527659D01*
X135125940Y-104530036D01*
X135087129Y-104531552D01*
X135033924Y-104532398D01*
X134963598Y-104532765D01*
X134873422Y-104532845D01*
X134831314Y-104532833D01*
X134750167Y-104532651D01*
X134687675Y-104532098D01*
X134641109Y-104530982D01*
X134607741Y-104529113D01*
X134584844Y-104526298D01*
X134569688Y-104522346D01*
X134559546Y-104517066D01*
X134551689Y-104510267D01*
X134536963Y-104488667D01*
X134529111Y-104459467D01*
X134534610Y-104435560D01*
X134551689Y-104408667D01*
X134556668Y-104404059D01*
X134566443Y-104397772D01*
X134580559Y-104393146D01*
X134602054Y-104389930D01*
X134633968Y-104387870D01*
X134679342Y-104386712D01*
X134741213Y-104386202D01*
X134822622Y-104386089D01*
X135070978Y-104386089D01*
X135070978Y-104228045D01*
X134909801Y-104228045D01*
X134873983Y-104227899D01*
X134808359Y-104226176D01*
X134761118Y-104221741D01*
X134729383Y-104213637D01*
X134710277Y-104200906D01*
X134700923Y-104182592D01*
X134698445Y-104157738D01*
X134699242Y-104137482D01*
X134704494Y-104115656D01*
X134717288Y-104100304D01*
X134740628Y-104090309D01*
X134777517Y-104084553D01*
X134830959Y-104081919D01*
X134903958Y-104081289D01*
X135072105Y-104081289D01*
X135068719Y-104016378D01*
X135065334Y-103951467D01*
X134817617Y-103948418D01*
X134755026Y-103947539D01*
X134686565Y-103946095D01*
X134635661Y-103944164D01*
X134599408Y-103941514D01*
X134574901Y-103937910D01*
X134559235Y-103933121D01*
X134549506Y-103926913D01*
X134543491Y-103920510D01*
X134530482Y-103888828D01*
X134534043Y-103853142D01*
X134553818Y-103822084D01*
X134557069Y-103819161D01*
X134566049Y-103812810D01*
X134578153Y-103807957D01*
X134596159Y-103804403D01*
X134622847Y-103801946D01*
X134660997Y-103800385D01*
X134713386Y-103799518D01*
X134782794Y-103799146D01*
X134872001Y-103799067D01*
X134926734Y-103799083D01*
G36*
X134926734Y-103799083D02*
G01*
X135003831Y-103799275D01*
X135062777Y-103799860D01*
X135106364Y-103801051D01*
X135137383Y-103803064D01*
X135158625Y-103806112D01*
X135172882Y-103810409D01*
X135182945Y-103816172D01*
X135191606Y-103823612D01*
X135193391Y-103825293D01*
X135200635Y-103832832D01*
X135206277Y-103841850D01*
X135210517Y-103854984D01*
X135213556Y-103874872D01*
X135215594Y-103904151D01*
X135216830Y-103945458D01*
X135217465Y-104001431D01*
X135217700Y-104074707D01*
X135217734Y-104167923D01*
X135217697Y-104240713D01*
X135217448Y-104318889D01*
X135216812Y-104379103D01*
X135215615Y-104423982D01*
X135213684Y-104456152D01*
X135210846Y-104478239D01*
X135206927Y-104492870D01*
X135201755Y-104502670D01*
X135195156Y-104510267D01*
X135191822Y-104513444D01*
X135183300Y-104519554D01*
X135171298Y-104524229D01*
X135153087Y-104527659D01*
X135125940Y-104530036D01*
X135087129Y-104531552D01*
X135033924Y-104532398D01*
X134963598Y-104532765D01*
X134873422Y-104532845D01*
X134831314Y-104532833D01*
X134750167Y-104532651D01*
X134687675Y-104532098D01*
X134641109Y-104530982D01*
X134607741Y-104529113D01*
X134584844Y-104526298D01*
X134569688Y-104522346D01*
X134559546Y-104517066D01*
X134551689Y-104510267D01*
X134536963Y-104488667D01*
X134529111Y-104459467D01*
X134534610Y-104435560D01*
X134551689Y-104408667D01*
X134556668Y-104404059D01*
X134566443Y-104397772D01*
X134580559Y-104393146D01*
X134602054Y-104389930D01*
X134633968Y-104387870D01*
X134679342Y-104386712D01*
X134741213Y-104386202D01*
X134822622Y-104386089D01*
X135070978Y-104386089D01*
X135070978Y-104228045D01*
X134909801Y-104228045D01*
X134873983Y-104227899D01*
X134808359Y-104226176D01*
X134761118Y-104221741D01*
X134729383Y-104213637D01*
X134710277Y-104200906D01*
X134700923Y-104182592D01*
X134698445Y-104157738D01*
X134699242Y-104137482D01*
X134704494Y-104115656D01*
X134717288Y-104100304D01*
X134740628Y-104090309D01*
X134777517Y-104084553D01*
X134830959Y-104081919D01*
X134903958Y-104081289D01*
X135072105Y-104081289D01*
X135068719Y-104016378D01*
X135065334Y-103951467D01*
X134817617Y-103948418D01*
X134755026Y-103947539D01*
X134686565Y-103946095D01*
X134635661Y-103944164D01*
X134599408Y-103941514D01*
X134574901Y-103937910D01*
X134559235Y-103933121D01*
X134549506Y-103926913D01*
X134543491Y-103920510D01*
X134530482Y-103888828D01*
X134534043Y-103853142D01*
X134553818Y-103822084D01*
X134557069Y-103819161D01*
X134566049Y-103812810D01*
X134578153Y-103807957D01*
X134596159Y-103804403D01*
X134622847Y-103801946D01*
X134660997Y-103800385D01*
X134713386Y-103799518D01*
X134782794Y-103799146D01*
X134872001Y-103799067D01*
X134926734Y-103799083D01*
G37*
X126359702Y-103808478D02*
X126377663Y-103826989D01*
X126398263Y-103858071D01*
X126423095Y-103903756D01*
X126453750Y-103966078D01*
X126491820Y-104047071D01*
X126506454Y-104078454D01*
X126536203Y-104141638D01*
X126562297Y-104196244D01*
X126583292Y-104239290D01*
X126597739Y-104267793D01*
X126604191Y-104278770D01*
X126605550Y-104278189D01*
X126615542Y-104264242D01*
X126632833Y-104234704D01*
X126655430Y-104193087D01*
X126681338Y-104142903D01*
X126697311Y-104111414D01*
X126726261Y-104056061D01*
X126748749Y-104017044D01*
X126766965Y-103991566D01*
X126783096Y-103976831D01*
X126799330Y-103970042D01*
X126817857Y-103968400D01*
X126828360Y-103968875D01*
X126844476Y-103973082D01*
X126859790Y-103983946D01*
X126876388Y-104004219D01*
X126896357Y-104036654D01*
X126921783Y-104084004D01*
X126954752Y-104149022D01*
X126964485Y-104168277D01*
X126988943Y-104214946D01*
X127009178Y-104251109D01*
X127023311Y-104273497D01*
X127029460Y-104278845D01*
X127030827Y-104275573D01*
X127040202Y-104254664D01*
X127057062Y-104217725D01*
X127079979Y-104167874D01*
X127107520Y-104108226D01*
X127138255Y-104041898D01*
X127164970Y-103984677D01*
X127194593Y-103922688D01*
X127217664Y-103876949D01*
X127235643Y-103844908D01*
X127249990Y-103824014D01*
X127262166Y-103811718D01*
X127273632Y-103805466D01*
X127283042Y-103802574D01*
X127308147Y-103802425D01*
X127335290Y-103817768D01*
X127336590Y-103818753D01*
X127358674Y-103841388D01*
X127369723Y-103863613D01*
X127369769Y-103864253D01*
X127365228Y-103881915D01*
X127352364Y-103916481D01*
X127332605Y-103964826D01*
X127307381Y-104023825D01*
X127278119Y-104090355D01*
X127246250Y-104161291D01*
X127213201Y-104233507D01*
X127180401Y-104303880D01*
X127149280Y-104369285D01*
X127121265Y-104426597D01*
X127097786Y-104472692D01*
X127080272Y-104504446D01*
X127070151Y-104518733D01*
X127035743Y-104532102D01*
X126994046Y-104525741D01*
X126988681Y-104521044D01*
X126972852Y-104498893D01*
X126950650Y-104462132D01*
X126924233Y-104414415D01*
X126895760Y-104359393D01*
X126815986Y-104200150D01*
X126742799Y-104346742D01*
X126733103Y-104366032D01*
X126706125Y-104418380D01*
X126682096Y-104463170D01*
X126663332Y-104496154D01*
X126652146Y-104513089D01*
X126651000Y-104514332D01*
X126622879Y-104529619D01*
X126587817Y-104531302D01*
X126556776Y-104518733D01*
X126554350Y-104515884D01*
X126542090Y-104495259D01*
X126522352Y-104457708D01*
X126496448Y-104405880D01*
X126465685Y-104342423D01*
X126431375Y-104269985D01*
X126394825Y-104191216D01*
X126374585Y-104147093D01*
X126337812Y-104066365D01*
X126309355Y-104002687D01*
X126288331Y-103953752D01*
X126273854Y-103917257D01*
X126265039Y-103890895D01*
X126261004Y-103872361D01*
X126260862Y-103859352D01*
X126263730Y-103849561D01*
X126278387Y-103828678D01*
X126304990Y-103808377D01*
X126305745Y-103808035D01*
X126325335Y-103801034D01*
X126342790Y-103800504D01*
X126359702Y-103808478D01*
G36*
X126359702Y-103808478D02*
G01*
X126377663Y-103826989D01*
X126398263Y-103858071D01*
X126423095Y-103903756D01*
X126453750Y-103966078D01*
X126491820Y-104047071D01*
X126506454Y-104078454D01*
X126536203Y-104141638D01*
X126562297Y-104196244D01*
X126583292Y-104239290D01*
X126597739Y-104267793D01*
X126604191Y-104278770D01*
X126605550Y-104278189D01*
X126615542Y-104264242D01*
X126632833Y-104234704D01*
X126655430Y-104193087D01*
X126681338Y-104142903D01*
X126697311Y-104111414D01*
X126726261Y-104056061D01*
X126748749Y-104017044D01*
X126766965Y-103991566D01*
X126783096Y-103976831D01*
X126799330Y-103970042D01*
X126817857Y-103968400D01*
X126828360Y-103968875D01*
X126844476Y-103973082D01*
X126859790Y-103983946D01*
X126876388Y-104004219D01*
X126896357Y-104036654D01*
X126921783Y-104084004D01*
X126954752Y-104149022D01*
X126964485Y-104168277D01*
X126988943Y-104214946D01*
X127009178Y-104251109D01*
X127023311Y-104273497D01*
X127029460Y-104278845D01*
X127030827Y-104275573D01*
X127040202Y-104254664D01*
X127057062Y-104217725D01*
X127079979Y-104167874D01*
X127107520Y-104108226D01*
X127138255Y-104041898D01*
X127164970Y-103984677D01*
X127194593Y-103922688D01*
X127217664Y-103876949D01*
X127235643Y-103844908D01*
X127249990Y-103824014D01*
X127262166Y-103811718D01*
X127273632Y-103805466D01*
X127283042Y-103802574D01*
X127308147Y-103802425D01*
X127335290Y-103817768D01*
X127336590Y-103818753D01*
X127358674Y-103841388D01*
X127369723Y-103863613D01*
X127369769Y-103864253D01*
X127365228Y-103881915D01*
X127352364Y-103916481D01*
X127332605Y-103964826D01*
X127307381Y-104023825D01*
X127278119Y-104090355D01*
X127246250Y-104161291D01*
X127213201Y-104233507D01*
X127180401Y-104303880D01*
X127149280Y-104369285D01*
X127121265Y-104426597D01*
X127097786Y-104472692D01*
X127080272Y-104504446D01*
X127070151Y-104518733D01*
X127035743Y-104532102D01*
X126994046Y-104525741D01*
X126988681Y-104521044D01*
X126972852Y-104498893D01*
X126950650Y-104462132D01*
X126924233Y-104414415D01*
X126895760Y-104359393D01*
X126815986Y-104200150D01*
X126742799Y-104346742D01*
X126733103Y-104366032D01*
X126706125Y-104418380D01*
X126682096Y-104463170D01*
X126663332Y-104496154D01*
X126652146Y-104513089D01*
X126651000Y-104514332D01*
X126622879Y-104529619D01*
X126587817Y-104531302D01*
X126556776Y-104518733D01*
X126554350Y-104515884D01*
X126542090Y-104495259D01*
X126522352Y-104457708D01*
X126496448Y-104405880D01*
X126465685Y-104342423D01*
X126431375Y-104269985D01*
X126394825Y-104191216D01*
X126374585Y-104147093D01*
X126337812Y-104066365D01*
X126309355Y-104002687D01*
X126288331Y-103953752D01*
X126273854Y-103917257D01*
X126265039Y-103890895D01*
X126261004Y-103872361D01*
X126260862Y-103859352D01*
X126263730Y-103849561D01*
X126278387Y-103828678D01*
X126304990Y-103808377D01*
X126305745Y-103808035D01*
X126325335Y-103801034D01*
X126342790Y-103800504D01*
X126359702Y-103808478D01*
G37*
X133910853Y-103799936D02*
X133977100Y-103805366D01*
X134032400Y-103814964D01*
X134083283Y-103829825D01*
X134154595Y-103862958D01*
X134205752Y-103905640D01*
X134236575Y-103957705D01*
X134246889Y-104018983D01*
X134245952Y-104050232D01*
X134240160Y-104075029D01*
X134225353Y-104096699D01*
X134197380Y-104124049D01*
X134189402Y-104131378D01*
X134165692Y-104152281D01*
X134143298Y-104169251D01*
X134119265Y-104183205D01*
X134090637Y-104195056D01*
X134054460Y-104205720D01*
X134007780Y-104216111D01*
X133947641Y-104227146D01*
X133871090Y-104239738D01*
X133775171Y-104254804D01*
X133756808Y-104257838D01*
X133694478Y-104271458D01*
X133649260Y-104287192D01*
X133622976Y-104304263D01*
X133617447Y-104321897D01*
X133620068Y-104326168D01*
X133638000Y-104341233D01*
X133666126Y-104357867D01*
X133678926Y-104363857D01*
X133700224Y-104371050D01*
X133726610Y-104375827D01*
X133762454Y-104378646D01*
X133812128Y-104379964D01*
X133880000Y-104380237D01*
X133897785Y-104380164D01*
X133965406Y-104379053D01*
X134030345Y-104376828D01*
X134085970Y-104373762D01*
X134125651Y-104370127D01*
X134161162Y-104366059D01*
X134190415Y-104365276D01*
X134209315Y-104369876D01*
X134224429Y-104380551D01*
X134228085Y-104384144D01*
X134244427Y-104415918D01*
X134243107Y-104451572D01*
X134224150Y-104482190D01*
X134203780Y-104493796D01*
X134167796Y-104506491D01*
X134125372Y-104516541D01*
X134121922Y-104517140D01*
X134079252Y-104522356D01*
X134021866Y-104526730D01*
X133956849Y-104529818D01*
X133891289Y-104531177D01*
X133875057Y-104531218D01*
X133776744Y-104528741D01*
X133696692Y-104520735D01*
X133631513Y-104506203D01*
X133577817Y-104484149D01*
X133532216Y-104453576D01*
X133491323Y-104413486D01*
X133471202Y-104387259D01*
X133459576Y-104357712D01*
X133456667Y-104317995D01*
X133456808Y-104306026D01*
X133460681Y-104273345D01*
X133473065Y-104246819D01*
X133498230Y-104215971D01*
X133519442Y-104193831D01*
X133545838Y-104171285D01*
X133575555Y-104152917D01*
X133611785Y-104137661D01*
X133657717Y-104124449D01*
X133716544Y-104112214D01*
X133791456Y-104099889D01*
X133885645Y-104086406D01*
X133930957Y-104079396D01*
X133998911Y-104064837D01*
X134048047Y-104048337D01*
X134077614Y-104030439D01*
X134086864Y-104011685D01*
X134075048Y-103992615D01*
X134041416Y-103973771D01*
X134038370Y-103972557D01*
X133992011Y-103960479D01*
X133929361Y-103952279D01*
X133855927Y-103948119D01*
X133777217Y-103948161D01*
X133698739Y-103952569D01*
X133626000Y-103961505D01*
X133622073Y-103962154D01*
X133573257Y-103969861D01*
X133541005Y-103973473D01*
X133520008Y-103972876D01*
X133504954Y-103967954D01*
X133490534Y-103958596D01*
X133489364Y-103957725D01*
X133464847Y-103927351D01*
X133460054Y-103891850D01*
X133475860Y-103857269D01*
X133480406Y-103852813D01*
X133510020Y-103837673D01*
X133557002Y-103824550D01*
X133617306Y-103813750D01*
X133686888Y-103805581D01*
X133761703Y-103800351D01*
X133837706Y-103798367D01*
X133910853Y-103799936D01*
G36*
X133910853Y-103799936D02*
G01*
X133977100Y-103805366D01*
X134032400Y-103814964D01*
X134083283Y-103829825D01*
X134154595Y-103862958D01*
X134205752Y-103905640D01*
X134236575Y-103957705D01*
X134246889Y-104018983D01*
X134245952Y-104050232D01*
X134240160Y-104075029D01*
X134225353Y-104096699D01*
X134197380Y-104124049D01*
X134189402Y-104131378D01*
X134165692Y-104152281D01*
X134143298Y-104169251D01*
X134119265Y-104183205D01*
X134090637Y-104195056D01*
X134054460Y-104205720D01*
X134007780Y-104216111D01*
X133947641Y-104227146D01*
X133871090Y-104239738D01*
X133775171Y-104254804D01*
X133756808Y-104257838D01*
X133694478Y-104271458D01*
X133649260Y-104287192D01*
X133622976Y-104304263D01*
X133617447Y-104321897D01*
X133620068Y-104326168D01*
X133638000Y-104341233D01*
X133666126Y-104357867D01*
X133678926Y-104363857D01*
X133700224Y-104371050D01*
X133726610Y-104375827D01*
X133762454Y-104378646D01*
X133812128Y-104379964D01*
X133880000Y-104380237D01*
X133897785Y-104380164D01*
X133965406Y-104379053D01*
X134030345Y-104376828D01*
X134085970Y-104373762D01*
X134125651Y-104370127D01*
X134161162Y-104366059D01*
X134190415Y-104365276D01*
X134209315Y-104369876D01*
X134224429Y-104380551D01*
X134228085Y-104384144D01*
X134244427Y-104415918D01*
X134243107Y-104451572D01*
X134224150Y-104482190D01*
X134203780Y-104493796D01*
X134167796Y-104506491D01*
X134125372Y-104516541D01*
X134121922Y-104517140D01*
X134079252Y-104522356D01*
X134021866Y-104526730D01*
X133956849Y-104529818D01*
X133891289Y-104531177D01*
X133875057Y-104531218D01*
X133776744Y-104528741D01*
X133696692Y-104520735D01*
X133631513Y-104506203D01*
X133577817Y-104484149D01*
X133532216Y-104453576D01*
X133491323Y-104413486D01*
X133471202Y-104387259D01*
X133459576Y-104357712D01*
X133456667Y-104317995D01*
X133456808Y-104306026D01*
X133460681Y-104273345D01*
X133473065Y-104246819D01*
X133498230Y-104215971D01*
X133519442Y-104193831D01*
X133545838Y-104171285D01*
X133575555Y-104152917D01*
X133611785Y-104137661D01*
X133657717Y-104124449D01*
X133716544Y-104112214D01*
X133791456Y-104099889D01*
X133885645Y-104086406D01*
X133930957Y-104079396D01*
X133998911Y-104064837D01*
X134048047Y-104048337D01*
X134077614Y-104030439D01*
X134086864Y-104011685D01*
X134075048Y-103992615D01*
X134041416Y-103973771D01*
X134038370Y-103972557D01*
X133992011Y-103960479D01*
X133929361Y-103952279D01*
X133855927Y-103948119D01*
X133777217Y-103948161D01*
X133698739Y-103952569D01*
X133626000Y-103961505D01*
X133622073Y-103962154D01*
X133573257Y-103969861D01*
X133541005Y-103973473D01*
X133520008Y-103972876D01*
X133504954Y-103967954D01*
X133490534Y-103958596D01*
X133489364Y-103957725D01*
X133464847Y-103927351D01*
X133460054Y-103891850D01*
X133475860Y-103857269D01*
X133480406Y-103852813D01*
X133510020Y-103837673D01*
X133557002Y-103824550D01*
X133617306Y-103813750D01*
X133686888Y-103805581D01*
X133761703Y-103800351D01*
X133837706Y-103798367D01*
X133910853Y-103799936D01*
G37*
X130058711Y-99492033D02*
X130154268Y-99509523D01*
X130318558Y-99554564D01*
X130472589Y-99617656D01*
X130618509Y-99699915D01*
X130758466Y-99802457D01*
X130894608Y-99926399D01*
X130938473Y-99971661D01*
X131050758Y-100103865D01*
X131143972Y-100241832D01*
X131220719Y-100389750D01*
X131283603Y-100551803D01*
X131287420Y-100563391D01*
X131337507Y-100749392D01*
X131370899Y-100945521D01*
X131387584Y-101147568D01*
X131387551Y-101351325D01*
X131370791Y-101552581D01*
X131337292Y-101747128D01*
X131287044Y-101930756D01*
X131243190Y-102048053D01*
X131165348Y-102210951D01*
X131071828Y-102364866D01*
X130964822Y-102506671D01*
X130846519Y-102633239D01*
X130719111Y-102741441D01*
X130641606Y-102794120D01*
X130514725Y-102863750D01*
X130377243Y-102922468D01*
X130235716Y-102967587D01*
X130096702Y-102996422D01*
X130082597Y-102998106D01*
X130039153Y-103001434D01*
X129981723Y-103004275D01*
X129916122Y-103006373D01*
X129848167Y-103007468D01*
X129721378Y-103005140D01*
X129573673Y-102992136D01*
X129435779Y-102967133D01*
X129302014Y-102929318D01*
X129278562Y-102920889D01*
X129230612Y-102901408D01*
X129174140Y-102876473D01*
X129112379Y-102847722D01*
X129048563Y-102816790D01*
X128985926Y-102785315D01*
X128927703Y-102754934D01*
X128877127Y-102727283D01*
X128837433Y-102703999D01*
X128811854Y-102686718D01*
X128803625Y-102677079D01*
X128805076Y-102673984D01*
X128816250Y-102654079D01*
X128837134Y-102618420D01*
X128866265Y-102569459D01*
X128902181Y-102509646D01*
X128943420Y-102441433D01*
X128988517Y-102367271D01*
X129169785Y-102070008D01*
X129216315Y-102114539D01*
X129307723Y-102192865D01*
X129421334Y-102267439D01*
X129539122Y-102321474D01*
X129659559Y-102354290D01*
X129781117Y-102365211D01*
X129822585Y-102363868D01*
X129940080Y-102345612D01*
X130050089Y-102306617D01*
X130151430Y-102247670D01*
X130242921Y-102169557D01*
X130323380Y-102073064D01*
X130391627Y-101958978D01*
X130407908Y-101924724D01*
X130453982Y-101801240D01*
X130489106Y-101662918D01*
X130513197Y-101513561D01*
X130526173Y-101356973D01*
X130527949Y-101196956D01*
X130518443Y-101037314D01*
X130497572Y-100881850D01*
X130465252Y-100734366D01*
X130421399Y-100598667D01*
X130383982Y-100512076D01*
X130319185Y-100398688D01*
X130243772Y-100305070D01*
X130157418Y-100230959D01*
X130059795Y-100176094D01*
X129950577Y-100140212D01*
X129829439Y-100123051D01*
X129760038Y-100121880D01*
X129637168Y-100136141D01*
X129521664Y-100171241D01*
X129414953Y-100226682D01*
X129318464Y-100301964D01*
X129302720Y-100316440D01*
X129272150Y-100342962D01*
X129249809Y-100360138D01*
X129239691Y-100364787D01*
X129237706Y-100362597D01*
X129223241Y-100343721D01*
X129199400Y-100310397D01*
X129168029Y-100265380D01*
X129130974Y-100211425D01*
X129090083Y-100151285D01*
X129047202Y-100087718D01*
X129004178Y-100023476D01*
X128962857Y-99961315D01*
X128925086Y-99903991D01*
X128892712Y-99854257D01*
X128867582Y-99814868D01*
X128851542Y-99788580D01*
X128846439Y-99778147D01*
X128851050Y-99773941D01*
X128870267Y-99768933D01*
X128879838Y-99766386D01*
X128907809Y-99755249D01*
X128949448Y-99736802D01*
X129000995Y-99712725D01*
X129058690Y-99684699D01*
X129069957Y-99679154D01*
X129247687Y-99599889D01*
X129417490Y-99540385D01*
X129581430Y-99500245D01*
X129741571Y-99479071D01*
X129899977Y-99476466D01*
X130058711Y-99492033D01*
G36*
X130058711Y-99492033D02*
G01*
X130154268Y-99509523D01*
X130318558Y-99554564D01*
X130472589Y-99617656D01*
X130618509Y-99699915D01*
X130758466Y-99802457D01*
X130894608Y-99926399D01*
X130938473Y-99971661D01*
X131050758Y-100103865D01*
X131143972Y-100241832D01*
X131220719Y-100389750D01*
X131283603Y-100551803D01*
X131287420Y-100563391D01*
X131337507Y-100749392D01*
X131370899Y-100945521D01*
X131387584Y-101147568D01*
X131387551Y-101351325D01*
X131370791Y-101552581D01*
X131337292Y-101747128D01*
X131287044Y-101930756D01*
X131243190Y-102048053D01*
X131165348Y-102210951D01*
X131071828Y-102364866D01*
X130964822Y-102506671D01*
X130846519Y-102633239D01*
X130719111Y-102741441D01*
X130641606Y-102794120D01*
X130514725Y-102863750D01*
X130377243Y-102922468D01*
X130235716Y-102967587D01*
X130096702Y-102996422D01*
X130082597Y-102998106D01*
X130039153Y-103001434D01*
X129981723Y-103004275D01*
X129916122Y-103006373D01*
X129848167Y-103007468D01*
X129721378Y-103005140D01*
X129573673Y-102992136D01*
X129435779Y-102967133D01*
X129302014Y-102929318D01*
X129278562Y-102920889D01*
X129230612Y-102901408D01*
X129174140Y-102876473D01*
X129112379Y-102847722D01*
X129048563Y-102816790D01*
X128985926Y-102785315D01*
X128927703Y-102754934D01*
X128877127Y-102727283D01*
X128837433Y-102703999D01*
X128811854Y-102686718D01*
X128803625Y-102677079D01*
X128805076Y-102673984D01*
X128816250Y-102654079D01*
X128837134Y-102618420D01*
X128866265Y-102569459D01*
X128902181Y-102509646D01*
X128943420Y-102441433D01*
X128988517Y-102367271D01*
X129169785Y-102070008D01*
X129216315Y-102114539D01*
X129307723Y-102192865D01*
X129421334Y-102267439D01*
X129539122Y-102321474D01*
X129659559Y-102354290D01*
X129781117Y-102365211D01*
X129822585Y-102363868D01*
X129940080Y-102345612D01*
X130050089Y-102306617D01*
X130151430Y-102247670D01*
X130242921Y-102169557D01*
X130323380Y-102073064D01*
X130391627Y-101958978D01*
X130407908Y-101924724D01*
X130453982Y-101801240D01*
X130489106Y-101662918D01*
X130513197Y-101513561D01*
X130526173Y-101356973D01*
X130527949Y-101196956D01*
X130518443Y-101037314D01*
X130497572Y-100881850D01*
X130465252Y-100734366D01*
X130421399Y-100598667D01*
X130383982Y-100512076D01*
X130319185Y-100398688D01*
X130243772Y-100305070D01*
X130157418Y-100230959D01*
X130059795Y-100176094D01*
X129950577Y-100140212D01*
X129829439Y-100123051D01*
X129760038Y-100121880D01*
X129637168Y-100136141D01*
X129521664Y-100171241D01*
X129414953Y-100226682D01*
X129318464Y-100301964D01*
X129302720Y-100316440D01*
X129272150Y-100342962D01*
X129249809Y-100360138D01*
X129239691Y-100364787D01*
X129237706Y-100362597D01*
X129223241Y-100343721D01*
X129199400Y-100310397D01*
X129168029Y-100265380D01*
X129130974Y-100211425D01*
X129090083Y-100151285D01*
X129047202Y-100087718D01*
X129004178Y-100023476D01*
X128962857Y-99961315D01*
X128925086Y-99903991D01*
X128892712Y-99854257D01*
X128867582Y-99814868D01*
X128851542Y-99788580D01*
X128846439Y-99778147D01*
X128851050Y-99773941D01*
X128870267Y-99768933D01*
X128879838Y-99766386D01*
X128907809Y-99755249D01*
X128949448Y-99736802D01*
X129000995Y-99712725D01*
X129058690Y-99684699D01*
X129069957Y-99679154D01*
X129247687Y-99599889D01*
X129417490Y-99540385D01*
X129581430Y-99500245D01*
X129741571Y-99479071D01*
X129899977Y-99476466D01*
X130058711Y-99492033D01*
G37*
X126255994Y-101772711D02*
X126255268Y-101850158D01*
X126246689Y-102001594D01*
X126227833Y-102138283D01*
X126197837Y-102264276D01*
X126155836Y-102383625D01*
X126100969Y-102500381D01*
X126034167Y-102611179D01*
X125943363Y-102724739D01*
X125839708Y-102820211D01*
X125723887Y-102897073D01*
X125596586Y-102954797D01*
X125458489Y-102992858D01*
X125420793Y-102998666D01*
X125341752Y-103004396D01*
X125253629Y-103004583D01*
X125164236Y-102999539D01*
X125081384Y-102989578D01*
X125012887Y-102975012D01*
X124982035Y-102965364D01*
X124904730Y-102935123D01*
X124827679Y-102897617D01*
X124758200Y-102856614D01*
X124703615Y-102815879D01*
X124680916Y-102796505D01*
X124658201Y-102778662D01*
X124646779Y-102771778D01*
X124645537Y-102773424D01*
X124642728Y-102791205D01*
X124640776Y-102824370D01*
X124640045Y-102867733D01*
X124640045Y-102963689D01*
X123781896Y-102963689D01*
X123816161Y-102902974D01*
X123821355Y-102893868D01*
X123829715Y-102879249D01*
X123837288Y-102865173D01*
X123844112Y-102850540D01*
X123850227Y-102834249D01*
X123855673Y-102815198D01*
X123860487Y-102792286D01*
X123864708Y-102764413D01*
X123868377Y-102730478D01*
X123871531Y-102689379D01*
X123874211Y-102640015D01*
X123876454Y-102581286D01*
X123878299Y-102512090D01*
X123879787Y-102431326D01*
X123880955Y-102337894D01*
X123881678Y-102250721D01*
X124685200Y-102250721D01*
X124755756Y-102297089D01*
X124796417Y-102320791D01*
X124850546Y-102346639D01*
X124899689Y-102364829D01*
X124963165Y-102380551D01*
X125059331Y-102391541D01*
X125143900Y-102383365D01*
X125217219Y-102355805D01*
X125279637Y-102308642D01*
X125331502Y-102241658D01*
X125373160Y-102154633D01*
X125404962Y-102047350D01*
X125407545Y-102035009D01*
X125416000Y-101973772D01*
X125421663Y-101896692D01*
X125424576Y-101809002D01*
X125424783Y-101715934D01*
X125422330Y-101622720D01*
X125417261Y-101534594D01*
X125409619Y-101456788D01*
X125399448Y-101394533D01*
X125398167Y-101388666D01*
X125369126Y-101278121D01*
X125334610Y-101187575D01*
X125293456Y-101114953D01*
X125244499Y-101058181D01*
X125186574Y-101015184D01*
X125154620Y-100999615D01*
X125081784Y-100980722D01*
X125000443Y-100977465D01*
X124915319Y-100989389D01*
X124831133Y-101016040D01*
X124752608Y-101056962D01*
X124685200Y-101100530D01*
X124685200Y-102250721D01*
X123881678Y-102250721D01*
X123881844Y-102230692D01*
X123882491Y-102108620D01*
X123882936Y-101970576D01*
X123883218Y-101815459D01*
X123883375Y-101642168D01*
X123883448Y-101449603D01*
X123883474Y-101236662D01*
X123883493Y-101002245D01*
X123883689Y-99317378D01*
X124789017Y-99317378D01*
X124764585Y-99354067D01*
X124758318Y-99363647D01*
X124732208Y-99409981D01*
X124714469Y-99457102D01*
X124702908Y-99512251D01*
X124695331Y-99582667D01*
X124694839Y-99589650D01*
X124693062Y-99627641D01*
X124691444Y-99681576D01*
X124689999Y-99748703D01*
X124688740Y-99826271D01*
X124687680Y-99911528D01*
X124686829Y-100001724D01*
X124686203Y-100094107D01*
X124685812Y-100185925D01*
X124685670Y-100274427D01*
X124685790Y-100356862D01*
X124686183Y-100430479D01*
X124686862Y-100492526D01*
X124687841Y-100540251D01*
X124689132Y-100570904D01*
X124690747Y-100581733D01*
X124698957Y-100577333D01*
X124720647Y-100562362D01*
X124750014Y-100540448D01*
X124798879Y-100506236D01*
X124887125Y-100459714D01*
X124985916Y-100426046D01*
X125098510Y-100404231D01*
X125228164Y-100393265D01*
X125320670Y-100392219D01*
X125442011Y-100402014D01*
X125552099Y-100426174D01*
X125655389Y-100465785D01*
X125756338Y-100521932D01*
X125801503Y-100552883D01*
X125906911Y-100644115D01*
X125998538Y-100753106D01*
X126076332Y-100879726D01*
X126140241Y-101023845D01*
X126190214Y-101185332D01*
X126226198Y-101364059D01*
X126248143Y-101559895D01*
X126253900Y-101715934D01*
X126255994Y-101772711D01*
G36*
X126255994Y-101772711D02*
G01*
X126255268Y-101850158D01*
X126246689Y-102001594D01*
X126227833Y-102138283D01*
X126197837Y-102264276D01*
X126155836Y-102383625D01*
X126100969Y-102500381D01*
X126034167Y-102611179D01*
X125943363Y-102724739D01*
X125839708Y-102820211D01*
X125723887Y-102897073D01*
X125596586Y-102954797D01*
X125458489Y-102992858D01*
X125420793Y-102998666D01*
X125341752Y-103004396D01*
X125253629Y-103004583D01*
X125164236Y-102999539D01*
X125081384Y-102989578D01*
X125012887Y-102975012D01*
X124982035Y-102965364D01*
X124904730Y-102935123D01*
X124827679Y-102897617D01*
X124758200Y-102856614D01*
X124703615Y-102815879D01*
X124680916Y-102796505D01*
X124658201Y-102778662D01*
X124646779Y-102771778D01*
X124645537Y-102773424D01*
X124642728Y-102791205D01*
X124640776Y-102824370D01*
X124640045Y-102867733D01*
X124640045Y-102963689D01*
X123781896Y-102963689D01*
X123816161Y-102902974D01*
X123821355Y-102893868D01*
X123829715Y-102879249D01*
X123837288Y-102865173D01*
X123844112Y-102850540D01*
X123850227Y-102834249D01*
X123855673Y-102815198D01*
X123860487Y-102792286D01*
X123864708Y-102764413D01*
X123868377Y-102730478D01*
X123871531Y-102689379D01*
X123874211Y-102640015D01*
X123876454Y-102581286D01*
X123878299Y-102512090D01*
X123879787Y-102431326D01*
X123880955Y-102337894D01*
X123881678Y-102250721D01*
X124685200Y-102250721D01*
X124755756Y-102297089D01*
X124796417Y-102320791D01*
X124850546Y-102346639D01*
X124899689Y-102364829D01*
X124963165Y-102380551D01*
X125059331Y-102391541D01*
X125143900Y-102383365D01*
X125217219Y-102355805D01*
X125279637Y-102308642D01*
X125331502Y-102241658D01*
X125373160Y-102154633D01*
X125404962Y-102047350D01*
X125407545Y-102035009D01*
X125416000Y-101973772D01*
X125421663Y-101896692D01*
X125424576Y-101809002D01*
X125424783Y-101715934D01*
X125422330Y-101622720D01*
X125417261Y-101534594D01*
X125409619Y-101456788D01*
X125399448Y-101394533D01*
X125398167Y-101388666D01*
X125369126Y-101278121D01*
X125334610Y-101187575D01*
X125293456Y-101114953D01*
X125244499Y-101058181D01*
X125186574Y-101015184D01*
X125154620Y-100999615D01*
X125081784Y-100980722D01*
X125000443Y-100977465D01*
X124915319Y-100989389D01*
X124831133Y-101016040D01*
X124752608Y-101056962D01*
X124685200Y-101100530D01*
X124685200Y-102250721D01*
X123881678Y-102250721D01*
X123881844Y-102230692D01*
X123882491Y-102108620D01*
X123882936Y-101970576D01*
X123883218Y-101815459D01*
X123883375Y-101642168D01*
X123883448Y-101449603D01*
X123883474Y-101236662D01*
X123883493Y-101002245D01*
X123883689Y-99317378D01*
X124789017Y-99317378D01*
X124764585Y-99354067D01*
X124758318Y-99363647D01*
X124732208Y-99409981D01*
X124714469Y-99457102D01*
X124702908Y-99512251D01*
X124695331Y-99582667D01*
X124694839Y-99589650D01*
X124693062Y-99627641D01*
X124691444Y-99681576D01*
X124689999Y-99748703D01*
X124688740Y-99826271D01*
X124687680Y-99911528D01*
X124686829Y-100001724D01*
X124686203Y-100094107D01*
X124685812Y-100185925D01*
X124685670Y-100274427D01*
X124685790Y-100356862D01*
X124686183Y-100430479D01*
X124686862Y-100492526D01*
X124687841Y-100540251D01*
X124689132Y-100570904D01*
X124690747Y-100581733D01*
X124698957Y-100577333D01*
X124720647Y-100562362D01*
X124750014Y-100540448D01*
X124798879Y-100506236D01*
X124887125Y-100459714D01*
X124985916Y-100426046D01*
X125098510Y-100404231D01*
X125228164Y-100393265D01*
X125320670Y-100392219D01*
X125442011Y-100402014D01*
X125552099Y-100426174D01*
X125655389Y-100465785D01*
X125756338Y-100521932D01*
X125801503Y-100552883D01*
X125906911Y-100644115D01*
X125998538Y-100753106D01*
X126076332Y-100879726D01*
X126140241Y-101023845D01*
X126190214Y-101185332D01*
X126226198Y-101364059D01*
X126248143Y-101559895D01*
X126253900Y-101715934D01*
X126255994Y-101772711D01*
G37*
X128797755Y-102173467D02*
X128797261Y-102207363D01*
X128793632Y-102282202D01*
X128786022Y-102344401D01*
X128773688Y-102400984D01*
X128729313Y-102527076D01*
X128666400Y-102641679D01*
X128586238Y-102742568D01*
X128489740Y-102828924D01*
X128377822Y-102899932D01*
X128251397Y-102954776D01*
X128111378Y-102992638D01*
X128075149Y-102998351D01*
X127996155Y-103004313D01*
X127907841Y-103004646D01*
X127818075Y-102999659D01*
X127734722Y-102989666D01*
X127665651Y-102974978D01*
X127579187Y-102944749D01*
X127469286Y-102890057D01*
X127371956Y-102822543D01*
X127309867Y-102771556D01*
X127306605Y-102867622D01*
X127303343Y-102963689D01*
X126880450Y-102963689D01*
X126869543Y-102963686D01*
X126775056Y-102963380D01*
X126688331Y-102962616D01*
X126611837Y-102961451D01*
X126548043Y-102959942D01*
X126499418Y-102958147D01*
X126468433Y-102956121D01*
X126457556Y-102953922D01*
X126457578Y-102953463D01*
X126464614Y-102937910D01*
X126480434Y-102915071D01*
X126484734Y-102909638D01*
X126495777Y-102895606D01*
X126505311Y-102882186D01*
X126513461Y-102867722D01*
X126520352Y-102850556D01*
X126526111Y-102829034D01*
X126530862Y-102801498D01*
X126534731Y-102766292D01*
X126537844Y-102721760D01*
X126540325Y-102666246D01*
X126542300Y-102598093D01*
X126543894Y-102515645D01*
X126545234Y-102417246D01*
X126546444Y-102301239D01*
X126546896Y-102250462D01*
X127349378Y-102250462D01*
X127394048Y-102306973D01*
X127406785Y-102322212D01*
X127453604Y-102364844D01*
X127514255Y-102400672D01*
X127524897Y-102405850D01*
X127563676Y-102422745D01*
X127598692Y-102432909D01*
X127638722Y-102438325D01*
X127692541Y-102440978D01*
X127710648Y-102441383D01*
X127786011Y-102438540D01*
X127846743Y-102426620D01*
X127898452Y-102404037D01*
X127946746Y-102369211D01*
X127951803Y-102364798D01*
X128000272Y-102309160D01*
X128028459Y-102245333D01*
X128037752Y-102170282D01*
X128030520Y-102098693D01*
X128005796Y-102035645D01*
X127961249Y-101977758D01*
X127906319Y-101930808D01*
X127833894Y-101890961D01*
X127747340Y-101863263D01*
X127644670Y-101847096D01*
X127523894Y-101841842D01*
X127515007Y-101841857D01*
X127459660Y-101842655D01*
X127412736Y-101844488D01*
X127378953Y-101847111D01*
X127363028Y-101850274D01*
X127358943Y-101856741D01*
X127354572Y-101878875D01*
X127351604Y-101917988D01*
X127349914Y-101975939D01*
X127349378Y-102054586D01*
X127349378Y-102250462D01*
X126546896Y-102250462D01*
X126547649Y-102165968D01*
X126548975Y-102009778D01*
X126550228Y-101867012D01*
X126551651Y-101721942D01*
X126553176Y-101596027D01*
X126554933Y-101487436D01*
X126557051Y-101394334D01*
X126559660Y-101314891D01*
X126562890Y-101247273D01*
X126566869Y-101189649D01*
X126571728Y-101140185D01*
X126577597Y-101097050D01*
X126584604Y-101058410D01*
X126592880Y-101022434D01*
X126602554Y-100987289D01*
X126613756Y-100951142D01*
X126626616Y-100912161D01*
X126642090Y-100869091D01*
X126684994Y-100776871D01*
X126738735Y-100697099D01*
X126807576Y-100622965D01*
X126885185Y-100559405D01*
X126989761Y-100497725D01*
X127109244Y-100450202D01*
X127244508Y-100416567D01*
X127396426Y-100396552D01*
X127565872Y-100389889D01*
X127623890Y-100390287D01*
X127689398Y-100392335D01*
X127750693Y-100396704D01*
X127812097Y-100404035D01*
X127877932Y-100414969D01*
X127952520Y-100430147D01*
X128040184Y-100450209D01*
X128145245Y-100475797D01*
X128173806Y-100482820D01*
X128249054Y-100500776D01*
X128319388Y-100516820D01*
X128380567Y-100530028D01*
X128428354Y-100539474D01*
X128458511Y-100544231D01*
X128486783Y-100547910D01*
X128513060Y-100553187D01*
X128523059Y-100557942D01*
X128519952Y-100566781D01*
X128509194Y-100594072D01*
X128491864Y-100636906D01*
X128469126Y-100692425D01*
X128442147Y-100757772D01*
X128412090Y-100830089D01*
X128405493Y-100845879D01*
X128366907Y-100936484D01*
X128335768Y-101006217D01*
X128311917Y-101055405D01*
X128295198Y-101084374D01*
X128285454Y-101093452D01*
X128277766Y-101091405D01*
X128251415Y-101081760D01*
X128212982Y-101066190D01*
X128167822Y-101046815D01*
X128073293Y-101008814D01*
X127936480Y-100967780D01*
X127795289Y-100942612D01*
X127757314Y-100938611D01*
X127654059Y-100936447D01*
X127566952Y-100949622D01*
X127495129Y-100978756D01*
X127437731Y-101024466D01*
X127393896Y-101087372D01*
X127362762Y-101168092D01*
X127343470Y-101267245D01*
X127336050Y-101326224D01*
X127497936Y-101319445D01*
X127624495Y-101317813D01*
X127775951Y-101324194D01*
X127924396Y-101338777D01*
X128060578Y-101360882D01*
X128125245Y-101375821D01*
X128257490Y-101418741D01*
X128379762Y-101475340D01*
X128489685Y-101544017D01*
X128584883Y-101623170D01*
X128662980Y-101711196D01*
X128721599Y-101806493D01*
X128745595Y-101858864D01*
X128771232Y-101929590D01*
X128787478Y-102000812D01*
X128795822Y-102079712D01*
X128797690Y-102170282D01*
X128797755Y-102173467D01*
G36*
X128797755Y-102173467D02*
G01*
X128797261Y-102207363D01*
X128793632Y-102282202D01*
X128786022Y-102344401D01*
X128773688Y-102400984D01*
X128729313Y-102527076D01*
X128666400Y-102641679D01*
X128586238Y-102742568D01*
X128489740Y-102828924D01*
X128377822Y-102899932D01*
X128251397Y-102954776D01*
X128111378Y-102992638D01*
X128075149Y-102998351D01*
X127996155Y-103004313D01*
X127907841Y-103004646D01*
X127818075Y-102999659D01*
X127734722Y-102989666D01*
X127665651Y-102974978D01*
X127579187Y-102944749D01*
X127469286Y-102890057D01*
X127371956Y-102822543D01*
X127309867Y-102771556D01*
X127306605Y-102867622D01*
X127303343Y-102963689D01*
X126880450Y-102963689D01*
X126869543Y-102963686D01*
X126775056Y-102963380D01*
X126688331Y-102962616D01*
X126611837Y-102961451D01*
X126548043Y-102959942D01*
X126499418Y-102958147D01*
X126468433Y-102956121D01*
X126457556Y-102953922D01*
X126457578Y-102953463D01*
X126464614Y-102937910D01*
X126480434Y-102915071D01*
X126484734Y-102909638D01*
X126495777Y-102895606D01*
X126505311Y-102882186D01*
X126513461Y-102867722D01*
X126520352Y-102850556D01*
X126526111Y-102829034D01*
X126530862Y-102801498D01*
X126534731Y-102766292D01*
X126537844Y-102721760D01*
X126540325Y-102666246D01*
X126542300Y-102598093D01*
X126543894Y-102515645D01*
X126545234Y-102417246D01*
X126546444Y-102301239D01*
X126546896Y-102250462D01*
X127349378Y-102250462D01*
X127394048Y-102306973D01*
X127406785Y-102322212D01*
X127453604Y-102364844D01*
X127514255Y-102400672D01*
X127524897Y-102405850D01*
X127563676Y-102422745D01*
X127598692Y-102432909D01*
X127638722Y-102438325D01*
X127692541Y-102440978D01*
X127710648Y-102441383D01*
X127786011Y-102438540D01*
X127846743Y-102426620D01*
X127898452Y-102404037D01*
X127946746Y-102369211D01*
X127951803Y-102364798D01*
X128000272Y-102309160D01*
X128028459Y-102245333D01*
X128037752Y-102170282D01*
X128030520Y-102098693D01*
X128005796Y-102035645D01*
X127961249Y-101977758D01*
X127906319Y-101930808D01*
X127833894Y-101890961D01*
X127747340Y-101863263D01*
X127644670Y-101847096D01*
X127523894Y-101841842D01*
X127515007Y-101841857D01*
X127459660Y-101842655D01*
X127412736Y-101844488D01*
X127378953Y-101847111D01*
X127363028Y-101850274D01*
X127358943Y-101856741D01*
X127354572Y-101878875D01*
X127351604Y-101917988D01*
X127349914Y-101975939D01*
X127349378Y-102054586D01*
X127349378Y-102250462D01*
X126546896Y-102250462D01*
X126547649Y-102165968D01*
X126548975Y-102009778D01*
X126550228Y-101867012D01*
X126551651Y-101721942D01*
X126553176Y-101596027D01*
X126554933Y-101487436D01*
X126557051Y-101394334D01*
X126559660Y-101314891D01*
X126562890Y-101247273D01*
X126566869Y-101189649D01*
X126571728Y-101140185D01*
X126577597Y-101097050D01*
X126584604Y-101058410D01*
X126592880Y-101022434D01*
X126602554Y-100987289D01*
X126613756Y-100951142D01*
X126626616Y-100912161D01*
X126642090Y-100869091D01*
X126684994Y-100776871D01*
X126738735Y-100697099D01*
X126807576Y-100622965D01*
X126885185Y-100559405D01*
X126989761Y-100497725D01*
X127109244Y-100450202D01*
X127244508Y-100416567D01*
X127396426Y-100396552D01*
X127565872Y-100389889D01*
X127623890Y-100390287D01*
X127689398Y-100392335D01*
X127750693Y-100396704D01*
X127812097Y-100404035D01*
X127877932Y-100414969D01*
X127952520Y-100430147D01*
X128040184Y-100450209D01*
X128145245Y-100475797D01*
X128173806Y-100482820D01*
X128249054Y-100500776D01*
X128319388Y-100516820D01*
X128380567Y-100530028D01*
X128428354Y-100539474D01*
X128458511Y-100544231D01*
X128486783Y-100547910D01*
X128513060Y-100553187D01*
X128523059Y-100557942D01*
X128519952Y-100566781D01*
X128509194Y-100594072D01*
X128491864Y-100636906D01*
X128469126Y-100692425D01*
X128442147Y-100757772D01*
X128412090Y-100830089D01*
X128405493Y-100845879D01*
X128366907Y-100936484D01*
X128335768Y-101006217D01*
X128311917Y-101055405D01*
X128295198Y-101084374D01*
X128285454Y-101093452D01*
X128277766Y-101091405D01*
X128251415Y-101081760D01*
X128212982Y-101066190D01*
X128167822Y-101046815D01*
X128073293Y-101008814D01*
X127936480Y-100967780D01*
X127795289Y-100942612D01*
X127757314Y-100938611D01*
X127654059Y-100936447D01*
X127566952Y-100949622D01*
X127495129Y-100978756D01*
X127437731Y-101024466D01*
X127393896Y-101087372D01*
X127362762Y-101168092D01*
X127343470Y-101267245D01*
X127336050Y-101326224D01*
X127497936Y-101319445D01*
X127624495Y-101317813D01*
X127775951Y-101324194D01*
X127924396Y-101338777D01*
X128060578Y-101360882D01*
X128125245Y-101375821D01*
X128257490Y-101418741D01*
X128379762Y-101475340D01*
X128489685Y-101544017D01*
X128584883Y-101623170D01*
X128662980Y-101711196D01*
X128721599Y-101806493D01*
X128745595Y-101858864D01*
X128771232Y-101929590D01*
X128787478Y-102000812D01*
X128795822Y-102079712D01*
X128797690Y-102170282D01*
X128797755Y-102173467D01*
G37*
X136345614Y-99641792D02*
X136346059Y-99773011D01*
X136346362Y-99920216D01*
X136346548Y-100084349D01*
X136346642Y-100266352D01*
X136346671Y-100467165D01*
X136346661Y-100687732D01*
X136346636Y-100928992D01*
X136346622Y-101191889D01*
X136346622Y-101234040D01*
X136346646Y-101494668D01*
X136346685Y-101733796D01*
X136346708Y-101952360D01*
X136346687Y-102151295D01*
X136346593Y-102331535D01*
X136346395Y-102494015D01*
X136346063Y-102639670D01*
X136345569Y-102769434D01*
X136344883Y-102884243D01*
X136343976Y-102985030D01*
X136342817Y-103072730D01*
X136341378Y-103148279D01*
X136339629Y-103212611D01*
X136337540Y-103266661D01*
X136335083Y-103311363D01*
X136332227Y-103347652D01*
X136328943Y-103376463D01*
X136325202Y-103398731D01*
X136320974Y-103415390D01*
X136316229Y-103427375D01*
X136310939Y-103435621D01*
X136305073Y-103441062D01*
X136298602Y-103444634D01*
X136291497Y-103447270D01*
X136283728Y-103449906D01*
X136275266Y-103453477D01*
X136270908Y-103455145D01*
X136262395Y-103457111D01*
X136249694Y-103458911D01*
X136231885Y-103460555D01*
X136208049Y-103462047D01*
X136177266Y-103463397D01*
X136138617Y-103464611D01*
X136091182Y-103465697D01*
X136034043Y-103466661D01*
X135966279Y-103467511D01*
X135886971Y-103468253D01*
X135795199Y-103468897D01*
X135690044Y-103469447D01*
X135570587Y-103469913D01*
X135435908Y-103470300D01*
X135285088Y-103470616D01*
X135117206Y-103470869D01*
X134931345Y-103471066D01*
X134726583Y-103471213D01*
X134502002Y-103471318D01*
X134256682Y-103471389D01*
X133989704Y-103471432D01*
X133951321Y-103471437D01*
X133685922Y-103471480D01*
X133442050Y-103471525D01*
X133218783Y-103471548D01*
X133015196Y-103471524D01*
X132830367Y-103471430D01*
X132663373Y-103471243D01*
X132513290Y-103470939D01*
X132379196Y-103470494D01*
X132260166Y-103469885D01*
X132155279Y-103469089D01*
X132063610Y-103468080D01*
X131984237Y-103466837D01*
X131916237Y-103465335D01*
X131858686Y-103463551D01*
X131810662Y-103461461D01*
X131771240Y-103459042D01*
X131739499Y-103456270D01*
X131714514Y-103453121D01*
X131695364Y-103449572D01*
X131681123Y-103445598D01*
X131670871Y-103441178D01*
X131663682Y-103436286D01*
X131658635Y-103430900D01*
X131654805Y-103424996D01*
X131651271Y-103418549D01*
X131647108Y-103411537D01*
X131646025Y-103409687D01*
X131643813Y-103404180D01*
X131641786Y-103395868D01*
X131639938Y-103383809D01*
X131638261Y-103367063D01*
X131636745Y-103344687D01*
X131635383Y-103315740D01*
X131634167Y-103279280D01*
X131633089Y-103234367D01*
X131632140Y-103180057D01*
X131631312Y-103115410D01*
X131630597Y-103039484D01*
X131629987Y-102951338D01*
X131629942Y-102942493D01*
X131921378Y-102942493D01*
X131925260Y-102943765D01*
X131948520Y-102945791D01*
X131990874Y-102947626D01*
X132050132Y-102949227D01*
X132124107Y-102950549D01*
X132210610Y-102951548D01*
X132307452Y-102952180D01*
X132412445Y-102952400D01*
X133110651Y-102952400D01*
X134265090Y-102952400D01*
X134264456Y-102876200D01*
X134265574Y-102834160D01*
X134271304Y-102798334D01*
X134283890Y-102760772D01*
X134305568Y-102712577D01*
X134308789Y-102705897D01*
X134334188Y-102656359D01*
X134360996Y-102608369D01*
X134383917Y-102571466D01*
X134388485Y-102564834D01*
X134410516Y-102533593D01*
X134442693Y-102488654D01*
X134483457Y-102432147D01*
X134531245Y-102366204D01*
X134584498Y-102292957D01*
X134641655Y-102214536D01*
X134701155Y-102133072D01*
X134761437Y-102050698D01*
X134820940Y-101969544D01*
X134878105Y-101891742D01*
X134931370Y-101819423D01*
X134979174Y-101754718D01*
X135019957Y-101699759D01*
X135052158Y-101656676D01*
X135074216Y-101627602D01*
X135084571Y-101614667D01*
X135089044Y-101610351D01*
X135093236Y-101608312D01*
X135096643Y-101610926D01*
X135099325Y-101619986D01*
X135101341Y-101637285D01*
X135102748Y-101664614D01*
X135103605Y-101703765D01*
X135103970Y-101756533D01*
X135103903Y-101824707D01*
X135103460Y-101910082D01*
X135102702Y-102014449D01*
X135101685Y-102139600D01*
X135101308Y-102184300D01*
X135100169Y-102305395D01*
X135098972Y-102406688D01*
X135097636Y-102490262D01*
X135096077Y-102558204D01*
X135094215Y-102612599D01*
X135091966Y-102655532D01*
X135089248Y-102689089D01*
X135085979Y-102715355D01*
X135082078Y-102736416D01*
X135077461Y-102754357D01*
X135069192Y-102780770D01*
X135045583Y-102842772D01*
X135019685Y-102895573D01*
X134994535Y-102932645D01*
X134993339Y-102934075D01*
X134991168Y-102938424D01*
X134993328Y-102942026D01*
X135001644Y-102944951D01*
X135017940Y-102947269D01*
X135044041Y-102949051D01*
X135081771Y-102950367D01*
X135132956Y-102951286D01*
X135199420Y-102951878D01*
X135282987Y-102952215D01*
X135385483Y-102952365D01*
X135508732Y-102952400D01*
X136040296Y-102952400D01*
X136001523Y-102894783D01*
X135995432Y-102885893D01*
X135984976Y-102871069D01*
X135975579Y-102857422D01*
X135967183Y-102843765D01*
X135959733Y-102828911D01*
X135953173Y-102811670D01*
X135947446Y-102790855D01*
X135942495Y-102765280D01*
X135938266Y-102733755D01*
X135934701Y-102695093D01*
X135931744Y-102648107D01*
X135929340Y-102591608D01*
X135927431Y-102524409D01*
X135925962Y-102445322D01*
X135924876Y-102353160D01*
X135924118Y-102246734D01*
X135923630Y-102124857D01*
X135923358Y-101986341D01*
X135923243Y-101829999D01*
X135923231Y-101654642D01*
X135923265Y-101459082D01*
X135923289Y-101242133D01*
X135923280Y-101119513D01*
X135923243Y-100914447D01*
X135923227Y-100730116D01*
X135923288Y-100565334D01*
X135923484Y-100418916D01*
X135923870Y-100289674D01*
X135924505Y-100176422D01*
X135925444Y-100077975D01*
X135926745Y-99993144D01*
X135928464Y-99920744D01*
X135930659Y-99859589D01*
X135933385Y-99808492D01*
X135936701Y-99766267D01*
X135940662Y-99731727D01*
X135945325Y-99703686D01*
X135950747Y-99680958D01*
X135956986Y-99662356D01*
X135964097Y-99646693D01*
X135972138Y-99632784D01*
X135981166Y-99619441D01*
X135991236Y-99605479D01*
X136002407Y-99589711D01*
X136042197Y-99531867D01*
X134982314Y-99531867D01*
X135020311Y-99594966D01*
X135034993Y-99620005D01*
X135049531Y-99647586D01*
X135061627Y-99675700D01*
X135071532Y-99706551D01*
X135079494Y-99742344D01*
X135085761Y-99785283D01*
X135090582Y-99837574D01*
X135094206Y-99901419D01*
X135096881Y-99979025D01*
X135098857Y-100072594D01*
X135100382Y-100184333D01*
X135101704Y-100316445D01*
X135102613Y-100436434D01*
X135103020Y-100553063D01*
X135102767Y-100648531D01*
X135101857Y-100722556D01*
X135100293Y-100774855D01*
X135098079Y-100805149D01*
X135095220Y-100813156D01*
X135092161Y-100809858D01*
X135074006Y-100788408D01*
X135044275Y-100751889D01*
X135004639Y-100702442D01*
X134956771Y-100642207D01*
X134902343Y-100573327D01*
X134843027Y-100497943D01*
X134780495Y-100418196D01*
X134716421Y-100336228D01*
X134652475Y-100254180D01*
X134590331Y-100174194D01*
X134531661Y-100098411D01*
X134478137Y-100028973D01*
X134431430Y-99968021D01*
X134393214Y-99917696D01*
X134365161Y-99880140D01*
X134348943Y-99857495D01*
X134303635Y-99785212D01*
X134263661Y-99705463D01*
X134242130Y-99637188D01*
X134238827Y-99579844D01*
X134244116Y-99531867D01*
X133112356Y-99532117D01*
X133151867Y-99562722D01*
X133161248Y-99570089D01*
X133224183Y-99624438D01*
X133292997Y-99692259D01*
X133369596Y-99775516D01*
X133455888Y-99876178D01*
X133473052Y-99896847D01*
X133513833Y-99946409D01*
X133563588Y-100007326D01*
X133620955Y-100077898D01*
X133684569Y-100156424D01*
X133753069Y-100241204D01*
X133825090Y-100330537D01*
X133899270Y-100422722D01*
X133914517Y-100441702D01*
X133974246Y-100516060D01*
X134048653Y-100608848D01*
X134121131Y-100699388D01*
X134190314Y-100785978D01*
X134254841Y-100866918D01*
X134313347Y-100940506D01*
X134364470Y-101005044D01*
X134406847Y-101058829D01*
X134439115Y-101100162D01*
X134459910Y-101127342D01*
X134467869Y-101138668D01*
X134466111Y-101142771D01*
X134453230Y-101163334D01*
X134428885Y-101199561D01*
X134394247Y-101249824D01*
X134350486Y-101312492D01*
X134298775Y-101385936D01*
X134240284Y-101468527D01*
X134176184Y-101558636D01*
X134107646Y-101654631D01*
X134035843Y-101754885D01*
X133961944Y-101857768D01*
X133887121Y-101961650D01*
X133812545Y-102064901D01*
X133739387Y-102165892D01*
X133668819Y-102262994D01*
X133602011Y-102354577D01*
X133540135Y-102439011D01*
X133484361Y-102514667D01*
X133435862Y-102579916D01*
X133395807Y-102633128D01*
X133365369Y-102672673D01*
X133344944Y-102698026D01*
X133298899Y-102752295D01*
X133248612Y-102808775D01*
X133201815Y-102858669D01*
X133110651Y-102952400D01*
X132412445Y-102952400D01*
X132481356Y-102952349D01*
X132579607Y-102952091D01*
X132669030Y-102951637D01*
X132747333Y-102951010D01*
X132812223Y-102950235D01*
X132861411Y-102949335D01*
X132892604Y-102948334D01*
X132903511Y-102947257D01*
X132902322Y-102944037D01*
X132892176Y-102926452D01*
X132875040Y-102900158D01*
X132866540Y-102887691D01*
X132857329Y-102873622D01*
X132849233Y-102859351D01*
X132842185Y-102843479D01*
X132836117Y-102824609D01*
X132830961Y-102801341D01*
X132826651Y-102772278D01*
X132823119Y-102736021D01*
X132820297Y-102691170D01*
X132818118Y-102636328D01*
X132816514Y-102570097D01*
X132815419Y-102491077D01*
X132814765Y-102397871D01*
X132814484Y-102289079D01*
X132814509Y-102163303D01*
X132814772Y-102019145D01*
X132815206Y-101855207D01*
X132815745Y-101670089D01*
X132816279Y-101491232D01*
X132816805Y-101332374D01*
X132817350Y-101193316D01*
X132817945Y-101072665D01*
X132818619Y-100969028D01*
X132819403Y-100881011D01*
X132820326Y-100807223D01*
X132821419Y-100746269D01*
X132822712Y-100696757D01*
X132824235Y-100657293D01*
X132826019Y-100626484D01*
X132828092Y-100602938D01*
X132830486Y-100585260D01*
X132833230Y-100572059D01*
X132836356Y-100561940D01*
X132839892Y-100553511D01*
X132843791Y-100545375D01*
X132863438Y-100508544D01*
X132882225Y-100478391D01*
X132883272Y-100476908D01*
X132897602Y-100454659D01*
X132903511Y-100441702D01*
X132902504Y-100441249D01*
X132885305Y-100439803D01*
X132848656Y-100438480D01*
X132794962Y-100437316D01*
X132726630Y-100436347D01*
X132646064Y-100435611D01*
X132555670Y-100435142D01*
X132457853Y-100434978D01*
X132012195Y-100434978D01*
X132009120Y-101611845D01*
X132006045Y-102788711D01*
X131979407Y-102847622D01*
X131967485Y-102872183D01*
X131950246Y-102902434D01*
X131937074Y-102919560D01*
X131929076Y-102927591D01*
X131921378Y-102942493D01*
X131629942Y-102942493D01*
X131629474Y-102850029D01*
X131629050Y-102734617D01*
X131628706Y-102604160D01*
X131628434Y-102457716D01*
X131628227Y-102294344D01*
X131628076Y-102113101D01*
X131627972Y-101913048D01*
X131627908Y-101693241D01*
X131627876Y-101452739D01*
X131627867Y-101190602D01*
X131627867Y-98999031D01*
X131666249Y-98960649D01*
X131693355Y-98936911D01*
X131720253Y-98925111D01*
X131756560Y-98922267D01*
X131808489Y-98922267D01*
X131808489Y-99010206D01*
X131810427Y-99060102D01*
X131829199Y-99170523D01*
X131866217Y-99271987D01*
X131919369Y-99363152D01*
X131986546Y-99442673D01*
X132065638Y-99509205D01*
X132154534Y-99561406D01*
X132251125Y-99597930D01*
X132353300Y-99617434D01*
X132458950Y-99618573D01*
X132565964Y-99600005D01*
X132672232Y-99560384D01*
X132769219Y-99502516D01*
X132854293Y-99427684D01*
X132923015Y-99339615D01*
X132973918Y-99240616D01*
X133005535Y-99132993D01*
X133016400Y-99019054D01*
X133016400Y-98922267D01*
X134636753Y-98922267D01*
X134847897Y-98922280D01*
X135052020Y-98922330D01*
X135235686Y-98922430D01*
X135399991Y-98922592D01*
X135546029Y-98922829D01*
X135674894Y-98923153D01*
X135787683Y-98923575D01*
X135885488Y-98924109D01*
X135969404Y-98924767D01*
X136040527Y-98925561D01*
X136099950Y-98926504D01*
X136148768Y-98927608D01*
X136188077Y-98928884D01*
X136218969Y-98930347D01*
X136242541Y-98932007D01*
X136259886Y-98933878D01*
X136272099Y-98935972D01*
X136280275Y-98938300D01*
X136285508Y-98940876D01*
X136291504Y-98944445D01*
X136298279Y-98947978D01*
X136304478Y-98951488D01*
X136310126Y-98955918D01*
X136315247Y-98962208D01*
X136319869Y-98971301D01*
X136324015Y-98984139D01*
X136327713Y-99001662D01*
X136330987Y-99024813D01*
X136333863Y-99054534D01*
X136336367Y-99091765D01*
X136338524Y-99137449D01*
X136340360Y-99192527D01*
X136341900Y-99257941D01*
X136343170Y-99334633D01*
X136344195Y-99423544D01*
X136345001Y-99525617D01*
X136345034Y-99531867D01*
X136345614Y-99641792D01*
G36*
X136345614Y-99641792D02*
G01*
X136346059Y-99773011D01*
X136346362Y-99920216D01*
X136346548Y-100084349D01*
X136346642Y-100266352D01*
X136346671Y-100467165D01*
X136346661Y-100687732D01*
X136346636Y-100928992D01*
X136346622Y-101191889D01*
X136346622Y-101234040D01*
X136346646Y-101494668D01*
X136346685Y-101733796D01*
X136346708Y-101952360D01*
X136346687Y-102151295D01*
X136346593Y-102331535D01*
X136346395Y-102494015D01*
X136346063Y-102639670D01*
X136345569Y-102769434D01*
X136344883Y-102884243D01*
X136343976Y-102985030D01*
X136342817Y-103072730D01*
X136341378Y-103148279D01*
X136339629Y-103212611D01*
X136337540Y-103266661D01*
X136335083Y-103311363D01*
X136332227Y-103347652D01*
X136328943Y-103376463D01*
X136325202Y-103398731D01*
X136320974Y-103415390D01*
X136316229Y-103427375D01*
X136310939Y-103435621D01*
X136305073Y-103441062D01*
X136298602Y-103444634D01*
X136291497Y-103447270D01*
X136283728Y-103449906D01*
X136275266Y-103453477D01*
X136270908Y-103455145D01*
X136262395Y-103457111D01*
X136249694Y-103458911D01*
X136231885Y-103460555D01*
X136208049Y-103462047D01*
X136177266Y-103463397D01*
X136138617Y-103464611D01*
X136091182Y-103465697D01*
X136034043Y-103466661D01*
X135966279Y-103467511D01*
X135886971Y-103468253D01*
X135795199Y-103468897D01*
X135690044Y-103469447D01*
X135570587Y-103469913D01*
X135435908Y-103470300D01*
X135285088Y-103470616D01*
X135117206Y-103470869D01*
X134931345Y-103471066D01*
X134726583Y-103471213D01*
X134502002Y-103471318D01*
X134256682Y-103471389D01*
X133989704Y-103471432D01*
X133951321Y-103471437D01*
X133685922Y-103471480D01*
X133442050Y-103471525D01*
X133218783Y-103471548D01*
X133015196Y-103471524D01*
X132830367Y-103471430D01*
X132663373Y-103471243D01*
X132513290Y-103470939D01*
X132379196Y-103470494D01*
X132260166Y-103469885D01*
X132155279Y-103469089D01*
X132063610Y-103468080D01*
X131984237Y-103466837D01*
X131916237Y-103465335D01*
X131858686Y-103463551D01*
X131810662Y-103461461D01*
X131771240Y-103459042D01*
X131739499Y-103456270D01*
X131714514Y-103453121D01*
X131695364Y-103449572D01*
X131681123Y-103445598D01*
X131670871Y-103441178D01*
X131663682Y-103436286D01*
X131658635Y-103430900D01*
X131654805Y-103424996D01*
X131651271Y-103418549D01*
X131647108Y-103411537D01*
X131646025Y-103409687D01*
X131643813Y-103404180D01*
X131641786Y-103395868D01*
X131639938Y-103383809D01*
X131638261Y-103367063D01*
X131636745Y-103344687D01*
X131635383Y-103315740D01*
X131634167Y-103279280D01*
X131633089Y-103234367D01*
X131632140Y-103180057D01*
X131631312Y-103115410D01*
X131630597Y-103039484D01*
X131629987Y-102951338D01*
X131629942Y-102942493D01*
X131921378Y-102942493D01*
X131925260Y-102943765D01*
X131948520Y-102945791D01*
X131990874Y-102947626D01*
X132050132Y-102949227D01*
X132124107Y-102950549D01*
X132210610Y-102951548D01*
X132307452Y-102952180D01*
X132412445Y-102952400D01*
X133110651Y-102952400D01*
X134265090Y-102952400D01*
X134264456Y-102876200D01*
X134265574Y-102834160D01*
X134271304Y-102798334D01*
X134283890Y-102760772D01*
X134305568Y-102712577D01*
X134308789Y-102705897D01*
X134334188Y-102656359D01*
X134360996Y-102608369D01*
X134383917Y-102571466D01*
X134388485Y-102564834D01*
X134410516Y-102533593D01*
X134442693Y-102488654D01*
X134483457Y-102432147D01*
X134531245Y-102366204D01*
X134584498Y-102292957D01*
X134641655Y-102214536D01*
X134701155Y-102133072D01*
X134761437Y-102050698D01*
X134820940Y-101969544D01*
X134878105Y-101891742D01*
X134931370Y-101819423D01*
X134979174Y-101754718D01*
X135019957Y-101699759D01*
X135052158Y-101656676D01*
X135074216Y-101627602D01*
X135084571Y-101614667D01*
X135089044Y-101610351D01*
X135093236Y-101608312D01*
X135096643Y-101610926D01*
X135099325Y-101619986D01*
X135101341Y-101637285D01*
X135102748Y-101664614D01*
X135103605Y-101703765D01*
X135103970Y-101756533D01*
X135103903Y-101824707D01*
X135103460Y-101910082D01*
X135102702Y-102014449D01*
X135101685Y-102139600D01*
X135101308Y-102184300D01*
X135100169Y-102305395D01*
X135098972Y-102406688D01*
X135097636Y-102490262D01*
X135096077Y-102558204D01*
X135094215Y-102612599D01*
X135091966Y-102655532D01*
X135089248Y-102689089D01*
X135085979Y-102715355D01*
X135082078Y-102736416D01*
X135077461Y-102754357D01*
X135069192Y-102780770D01*
X135045583Y-102842772D01*
X135019685Y-102895573D01*
X134994535Y-102932645D01*
X134993339Y-102934075D01*
X134991168Y-102938424D01*
X134993328Y-102942026D01*
X135001644Y-102944951D01*
X135017940Y-102947269D01*
X135044041Y-102949051D01*
X135081771Y-102950367D01*
X135132956Y-102951286D01*
X135199420Y-102951878D01*
X135282987Y-102952215D01*
X135385483Y-102952365D01*
X135508732Y-102952400D01*
X136040296Y-102952400D01*
X136001523Y-102894783D01*
X135995432Y-102885893D01*
X135984976Y-102871069D01*
X135975579Y-102857422D01*
X135967183Y-102843765D01*
X135959733Y-102828911D01*
X135953173Y-102811670D01*
X135947446Y-102790855D01*
X135942495Y-102765280D01*
X135938266Y-102733755D01*
X135934701Y-102695093D01*
X135931744Y-102648107D01*
X135929340Y-102591608D01*
X135927431Y-102524409D01*
X135925962Y-102445322D01*
X135924876Y-102353160D01*
X135924118Y-102246734D01*
X135923630Y-102124857D01*
X135923358Y-101986341D01*
X135923243Y-101829999D01*
X135923231Y-101654642D01*
X135923265Y-101459082D01*
X135923289Y-101242133D01*
X135923280Y-101119513D01*
X135923243Y-100914447D01*
X135923227Y-100730116D01*
X135923288Y-100565334D01*
X135923484Y-100418916D01*
X135923870Y-100289674D01*
X135924505Y-100176422D01*
X135925444Y-100077975D01*
X135926745Y-99993144D01*
X135928464Y-99920744D01*
X135930659Y-99859589D01*
X135933385Y-99808492D01*
X135936701Y-99766267D01*
X135940662Y-99731727D01*
X135945325Y-99703686D01*
X135950747Y-99680958D01*
X135956986Y-99662356D01*
X135964097Y-99646693D01*
X135972138Y-99632784D01*
X135981166Y-99619441D01*
X135991236Y-99605479D01*
X136002407Y-99589711D01*
X136042197Y-99531867D01*
X134982314Y-99531867D01*
X135020311Y-99594966D01*
X135034993Y-99620005D01*
X135049531Y-99647586D01*
X135061627Y-99675700D01*
X135071532Y-99706551D01*
X135079494Y-99742344D01*
X135085761Y-99785283D01*
X135090582Y-99837574D01*
X135094206Y-99901419D01*
X135096881Y-99979025D01*
X135098857Y-100072594D01*
X135100382Y-100184333D01*
X135101704Y-100316445D01*
X135102613Y-100436434D01*
X135103020Y-100553063D01*
X135102767Y-100648531D01*
X135101857Y-100722556D01*
X135100293Y-100774855D01*
X135098079Y-100805149D01*
X135095220Y-100813156D01*
X135092161Y-100809858D01*
X135074006Y-100788408D01*
X135044275Y-100751889D01*
X135004639Y-100702442D01*
X134956771Y-100642207D01*
X134902343Y-100573327D01*
X134843027Y-100497943D01*
X134780495Y-100418196D01*
X134716421Y-100336228D01*
X134652475Y-100254180D01*
X134590331Y-100174194D01*
X134531661Y-100098411D01*
X134478137Y-100028973D01*
X134431430Y-99968021D01*
X134393214Y-99917696D01*
X134365161Y-99880140D01*
X134348943Y-99857495D01*
X134303635Y-99785212D01*
X134263661Y-99705463D01*
X134242130Y-99637188D01*
X134238827Y-99579844D01*
X134244116Y-99531867D01*
X133112356Y-99532117D01*
X133151867Y-99562722D01*
X133161248Y-99570089D01*
X133224183Y-99624438D01*
X133292997Y-99692259D01*
X133369596Y-99775516D01*
X133455888Y-99876178D01*
X133473052Y-99896847D01*
X133513833Y-99946409D01*
X133563588Y-100007326D01*
X133620955Y-100077898D01*
X133684569Y-100156424D01*
X133753069Y-100241204D01*
X133825090Y-100330537D01*
X133899270Y-100422722D01*
X133914517Y-100441702D01*
X133974246Y-100516060D01*
X134048653Y-100608848D01*
X134121131Y-100699388D01*
X134190314Y-100785978D01*
X134254841Y-100866918D01*
X134313347Y-100940506D01*
X134364470Y-101005044D01*
X134406847Y-101058829D01*
X134439115Y-101100162D01*
X134459910Y-101127342D01*
X134467869Y-101138668D01*
X134466111Y-101142771D01*
X134453230Y-101163334D01*
X134428885Y-101199561D01*
X134394247Y-101249824D01*
X134350486Y-101312492D01*
X134298775Y-101385936D01*
X134240284Y-101468527D01*
X134176184Y-101558636D01*
X134107646Y-101654631D01*
X134035843Y-101754885D01*
X133961944Y-101857768D01*
X133887121Y-101961650D01*
X133812545Y-102064901D01*
X133739387Y-102165892D01*
X133668819Y-102262994D01*
X133602011Y-102354577D01*
X133540135Y-102439011D01*
X133484361Y-102514667D01*
X133435862Y-102579916D01*
X133395807Y-102633128D01*
X133365369Y-102672673D01*
X133344944Y-102698026D01*
X133298899Y-102752295D01*
X133248612Y-102808775D01*
X133201815Y-102858669D01*
X133110651Y-102952400D01*
X132412445Y-102952400D01*
X132481356Y-102952349D01*
X132579607Y-102952091D01*
X132669030Y-102951637D01*
X132747333Y-102951010D01*
X132812223Y-102950235D01*
X132861411Y-102949335D01*
X132892604Y-102948334D01*
X132903511Y-102947257D01*
X132902322Y-102944037D01*
X132892176Y-102926452D01*
X132875040Y-102900158D01*
X132866540Y-102887691D01*
X132857329Y-102873622D01*
X132849233Y-102859351D01*
X132842185Y-102843479D01*
X132836117Y-102824609D01*
X132830961Y-102801341D01*
X132826651Y-102772278D01*
X132823119Y-102736021D01*
X132820297Y-102691170D01*
X132818118Y-102636328D01*
X132816514Y-102570097D01*
X132815419Y-102491077D01*
X132814765Y-102397871D01*
X132814484Y-102289079D01*
X132814509Y-102163303D01*
X132814772Y-102019145D01*
X132815206Y-101855207D01*
X132815745Y-101670089D01*
X132816279Y-101491232D01*
X132816805Y-101332374D01*
X132817350Y-101193316D01*
X132817945Y-101072665D01*
X132818619Y-100969028D01*
X132819403Y-100881011D01*
X132820326Y-100807223D01*
X132821419Y-100746269D01*
X132822712Y-100696757D01*
X132824235Y-100657293D01*
X132826019Y-100626484D01*
X132828092Y-100602938D01*
X132830486Y-100585260D01*
X132833230Y-100572059D01*
X132836356Y-100561940D01*
X132839892Y-100553511D01*
X132843791Y-100545375D01*
X132863438Y-100508544D01*
X132882225Y-100478391D01*
X132883272Y-100476908D01*
X132897602Y-100454659D01*
X132903511Y-100441702D01*
X132902504Y-100441249D01*
X132885305Y-100439803D01*
X132848656Y-100438480D01*
X132794962Y-100437316D01*
X132726630Y-100436347D01*
X132646064Y-100435611D01*
X132555670Y-100435142D01*
X132457853Y-100434978D01*
X132012195Y-100434978D01*
X132009120Y-101611845D01*
X132006045Y-102788711D01*
X131979407Y-102847622D01*
X131967485Y-102872183D01*
X131950246Y-102902434D01*
X131937074Y-102919560D01*
X131929076Y-102927591D01*
X131921378Y-102942493D01*
X131629942Y-102942493D01*
X131629474Y-102850029D01*
X131629050Y-102734617D01*
X131628706Y-102604160D01*
X131628434Y-102457716D01*
X131628227Y-102294344D01*
X131628076Y-102113101D01*
X131627972Y-101913048D01*
X131627908Y-101693241D01*
X131627876Y-101452739D01*
X131627867Y-101190602D01*
X131627867Y-98999031D01*
X131666249Y-98960649D01*
X131693355Y-98936911D01*
X131720253Y-98925111D01*
X131756560Y-98922267D01*
X131808489Y-98922267D01*
X131808489Y-99010206D01*
X131810427Y-99060102D01*
X131829199Y-99170523D01*
X131866217Y-99271987D01*
X131919369Y-99363152D01*
X131986546Y-99442673D01*
X132065638Y-99509205D01*
X132154534Y-99561406D01*
X132251125Y-99597930D01*
X132353300Y-99617434D01*
X132458950Y-99618573D01*
X132565964Y-99600005D01*
X132672232Y-99560384D01*
X132769219Y-99502516D01*
X132854293Y-99427684D01*
X132923015Y-99339615D01*
X132973918Y-99240616D01*
X133005535Y-99132993D01*
X133016400Y-99019054D01*
X133016400Y-98922267D01*
X134636753Y-98922267D01*
X134847897Y-98922280D01*
X135052020Y-98922330D01*
X135235686Y-98922430D01*
X135399991Y-98922592D01*
X135546029Y-98922829D01*
X135674894Y-98923153D01*
X135787683Y-98923575D01*
X135885488Y-98924109D01*
X135969404Y-98924767D01*
X136040527Y-98925561D01*
X136099950Y-98926504D01*
X136148768Y-98927608D01*
X136188077Y-98928884D01*
X136218969Y-98930347D01*
X136242541Y-98932007D01*
X136259886Y-98933878D01*
X136272099Y-98935972D01*
X136280275Y-98938300D01*
X136285508Y-98940876D01*
X136291504Y-98944445D01*
X136298279Y-98947978D01*
X136304478Y-98951488D01*
X136310126Y-98955918D01*
X136315247Y-98962208D01*
X136319869Y-98971301D01*
X136324015Y-98984139D01*
X136327713Y-99001662D01*
X136330987Y-99024813D01*
X136333863Y-99054534D01*
X136336367Y-99091765D01*
X136338524Y-99137449D01*
X136340360Y-99192527D01*
X136341900Y-99257941D01*
X136343170Y-99334633D01*
X136344195Y-99423544D01*
X136345001Y-99525617D01*
X136345034Y-99531867D01*
X136345614Y-99641792D01*
G37*
X114477787Y-95604008D02*
X114589313Y-95604968D01*
X114722615Y-95609356D01*
X114842480Y-95617981D01*
X114956300Y-95631592D01*
X115071470Y-95650938D01*
X115195381Y-95676769D01*
X115295691Y-95701267D01*
X115552400Y-95782322D01*
X115802491Y-95887517D01*
X116043515Y-96015325D01*
X116273027Y-96164214D01*
X116488578Y-96332656D01*
X116687720Y-96519121D01*
X116868007Y-96722079D01*
X116871427Y-96726325D01*
X117032924Y-96948177D01*
X117173879Y-97185877D01*
X117293609Y-97437809D01*
X117391431Y-97702354D01*
X117466661Y-97977894D01*
X117518617Y-98262812D01*
X117524662Y-98320752D01*
X117529834Y-98407298D01*
X117532981Y-98507925D01*
X117534105Y-98616009D01*
X117533208Y-98724923D01*
X117530292Y-98828046D01*
X117525359Y-98918751D01*
X117518410Y-98990416D01*
X117515865Y-99009155D01*
X117464588Y-99287092D01*
X117389289Y-99558532D01*
X117290975Y-99821089D01*
X117170652Y-100072378D01*
X117029327Y-100310012D01*
X116868007Y-100531607D01*
X116831460Y-100575859D01*
X116697650Y-100721982D01*
X116546573Y-100866431D01*
X116384786Y-101003545D01*
X116218844Y-101127667D01*
X116055303Y-101233135D01*
X115999501Y-101265068D01*
X115786315Y-101372465D01*
X115560575Y-101465284D01*
X115328614Y-101541376D01*
X115096763Y-101598594D01*
X114871354Y-101634789D01*
X114864289Y-101635526D01*
X114815821Y-101638981D01*
X114747842Y-101642126D01*
X114666109Y-101644766D01*
X114576376Y-101646709D01*
X114484401Y-101647762D01*
X114196667Y-101649479D01*
X114196667Y-100716776D01*
X114484401Y-100716799D01*
X114555141Y-100716664D01*
X114640832Y-100715769D01*
X114709119Y-100713702D01*
X114765391Y-100710078D01*
X114815042Y-100704513D01*
X114863462Y-100696622D01*
X114916044Y-100686021D01*
X114921745Y-100684794D01*
X115155262Y-100621206D01*
X115376309Y-100534624D01*
X115583891Y-100425719D01*
X115777010Y-100295163D01*
X115954667Y-100143630D01*
X116115866Y-99971791D01*
X116259608Y-99780319D01*
X116269064Y-99765967D01*
X116325440Y-99671569D01*
X116381718Y-99563892D01*
X116434815Y-99449878D01*
X116481648Y-99336469D01*
X116519136Y-99230611D01*
X116544196Y-99139244D01*
X116553561Y-99096250D01*
X114791979Y-99096250D01*
X114791979Y-98156979D01*
X116553561Y-98156979D01*
X116544196Y-98113984D01*
X116538102Y-98088388D01*
X116510625Y-97997488D01*
X116472318Y-97893702D01*
X116426164Y-97783866D01*
X116375145Y-97674820D01*
X116322244Y-97573402D01*
X116270446Y-97486449D01*
X116245807Y-97449379D01*
X116105547Y-97266430D01*
X115945951Y-97100418D01*
X115768780Y-96952544D01*
X115575799Y-96824009D01*
X115368768Y-96716012D01*
X115149451Y-96629754D01*
X114919611Y-96566436D01*
X114885711Y-96559308D01*
X114839012Y-96551008D01*
X114791524Y-96544996D01*
X114738112Y-96540914D01*
X114673645Y-96538408D01*
X114592990Y-96537120D01*
X114491015Y-96536695D01*
X114196665Y-96536406D01*
X114196667Y-95603750D01*
X114477787Y-95604008D01*
G36*
X114477787Y-95604008D02*
G01*
X114589313Y-95604968D01*
X114722615Y-95609356D01*
X114842480Y-95617981D01*
X114956300Y-95631592D01*
X115071470Y-95650938D01*
X115195381Y-95676769D01*
X115295691Y-95701267D01*
X115552400Y-95782322D01*
X115802491Y-95887517D01*
X116043515Y-96015325D01*
X116273027Y-96164214D01*
X116488578Y-96332656D01*
X116687720Y-96519121D01*
X116868007Y-96722079D01*
X116871427Y-96726325D01*
X117032924Y-96948177D01*
X117173879Y-97185877D01*
X117293609Y-97437809D01*
X117391431Y-97702354D01*
X117466661Y-97977894D01*
X117518617Y-98262812D01*
X117524662Y-98320752D01*
X117529834Y-98407298D01*
X117532981Y-98507925D01*
X117534105Y-98616009D01*
X117533208Y-98724923D01*
X117530292Y-98828046D01*
X117525359Y-98918751D01*
X117518410Y-98990416D01*
X117515865Y-99009155D01*
X117464588Y-99287092D01*
X117389289Y-99558532D01*
X117290975Y-99821089D01*
X117170652Y-100072378D01*
X117029327Y-100310012D01*
X116868007Y-100531607D01*
X116831460Y-100575859D01*
X116697650Y-100721982D01*
X116546573Y-100866431D01*
X116384786Y-101003545D01*
X116218844Y-101127667D01*
X116055303Y-101233135D01*
X115999501Y-101265068D01*
X115786315Y-101372465D01*
X115560575Y-101465284D01*
X115328614Y-101541376D01*
X115096763Y-101598594D01*
X114871354Y-101634789D01*
X114864289Y-101635526D01*
X114815821Y-101638981D01*
X114747842Y-101642126D01*
X114666109Y-101644766D01*
X114576376Y-101646709D01*
X114484401Y-101647762D01*
X114196667Y-101649479D01*
X114196667Y-100716776D01*
X114484401Y-100716799D01*
X114555141Y-100716664D01*
X114640832Y-100715769D01*
X114709119Y-100713702D01*
X114765391Y-100710078D01*
X114815042Y-100704513D01*
X114863462Y-100696622D01*
X114916044Y-100686021D01*
X114921745Y-100684794D01*
X115155262Y-100621206D01*
X115376309Y-100534624D01*
X115583891Y-100425719D01*
X115777010Y-100295163D01*
X115954667Y-100143630D01*
X116115866Y-99971791D01*
X116259608Y-99780319D01*
X116269064Y-99765967D01*
X116325440Y-99671569D01*
X116381718Y-99563892D01*
X116434815Y-99449878D01*
X116481648Y-99336469D01*
X116519136Y-99230611D01*
X116544196Y-99139244D01*
X116553561Y-99096250D01*
X114791979Y-99096250D01*
X114791979Y-98156979D01*
X116553561Y-98156979D01*
X116544196Y-98113984D01*
X116538102Y-98088388D01*
X116510625Y-97997488D01*
X116472318Y-97893702D01*
X116426164Y-97783866D01*
X116375145Y-97674820D01*
X116322244Y-97573402D01*
X116270446Y-97486449D01*
X116245807Y-97449379D01*
X116105547Y-97266430D01*
X115945951Y-97100418D01*
X115768780Y-96952544D01*
X115575799Y-96824009D01*
X115368768Y-96716012D01*
X115149451Y-96629754D01*
X114919611Y-96566436D01*
X114885711Y-96559308D01*
X114839012Y-96551008D01*
X114791524Y-96544996D01*
X114738112Y-96540914D01*
X114673645Y-96538408D01*
X114592990Y-96537120D01*
X114491015Y-96536695D01*
X114196665Y-96536406D01*
X114196667Y-95603750D01*
X114477787Y-95604008D01*
G37*
X119653764Y-95604612D02*
X119742450Y-95606413D01*
X119829419Y-95609212D01*
X119909782Y-95612930D01*
X119978646Y-95617490D01*
X120031120Y-95622813D01*
X120221921Y-95654241D01*
X120495623Y-95721153D01*
X120759787Y-95811971D01*
X121013047Y-95925897D01*
X121254041Y-96062133D01*
X121481402Y-96219882D01*
X121693767Y-96398344D01*
X121889770Y-96596723D01*
X122068048Y-96814218D01*
X122146872Y-96925017D01*
X122294354Y-97165637D01*
X122418081Y-97417714D01*
X122517795Y-97680614D01*
X122593241Y-97953706D01*
X122644162Y-98236354D01*
X122647963Y-98268472D01*
X122655334Y-98362014D01*
X122660066Y-98471854D01*
X122662161Y-98590887D01*
X122661618Y-98712009D01*
X122658437Y-98828118D01*
X122652618Y-98932107D01*
X122644162Y-99016875D01*
X122630945Y-99105709D01*
X122572808Y-99382383D01*
X122490958Y-99649070D01*
X122386385Y-99904573D01*
X122260079Y-100147698D01*
X122113030Y-100377247D01*
X121946227Y-100592026D01*
X121760660Y-100790838D01*
X121557320Y-100972487D01*
X121337195Y-101135777D01*
X121101277Y-101279513D01*
X120850553Y-101402498D01*
X120586016Y-101503536D01*
X120504934Y-101528667D01*
X120377338Y-101563083D01*
X120244872Y-101593706D01*
X120117271Y-101618341D01*
X120004271Y-101634789D01*
X120003762Y-101634847D01*
X119958417Y-101638531D01*
X119895909Y-101641663D01*
X119821083Y-101644197D01*
X119738783Y-101646083D01*
X119653854Y-101647274D01*
X119571142Y-101647723D01*
X119495490Y-101647382D01*
X119431744Y-101646203D01*
X119384749Y-101644138D01*
X119359349Y-101641141D01*
X119329583Y-101633164D01*
X119329583Y-100716186D01*
X119604089Y-100716504D01*
X119659233Y-100716352D01*
X119784742Y-100713680D01*
X119892894Y-100707016D01*
X119990130Y-100695463D01*
X120082893Y-100678129D01*
X120177623Y-100654118D01*
X120280763Y-100622535D01*
X120464252Y-100553336D01*
X120672307Y-100449931D01*
X120865845Y-100325719D01*
X121043579Y-100182168D01*
X121204219Y-100020748D01*
X121346478Y-99842928D01*
X121469069Y-99650177D01*
X121570701Y-99443965D01*
X121650089Y-99225759D01*
X121705943Y-98997031D01*
X121707181Y-98990233D01*
X121719149Y-98900571D01*
X121727116Y-98793837D01*
X121731074Y-98677234D01*
X121731015Y-98557965D01*
X121726934Y-98443234D01*
X121718823Y-98340244D01*
X121706674Y-98256197D01*
X121686515Y-98163629D01*
X121618456Y-97934193D01*
X121527234Y-97716394D01*
X121413527Y-97511520D01*
X121278015Y-97320861D01*
X121121378Y-97145705D01*
X121062099Y-97088408D01*
X120909702Y-96959326D01*
X120747062Y-96847977D01*
X120566511Y-96748879D01*
X120490803Y-96712911D01*
X120308168Y-96638839D01*
X120127580Y-96585075D01*
X119943141Y-96550382D01*
X119748953Y-96533523D01*
X119539119Y-96533259D01*
X119329583Y-96540530D01*
X119329583Y-95620065D01*
X119359349Y-95612088D01*
X119379697Y-95608945D01*
X119426330Y-95605975D01*
X119490813Y-95604315D01*
X119568255Y-95603887D01*
X119653764Y-95604612D01*
G36*
X119653764Y-95604612D02*
G01*
X119742450Y-95606413D01*
X119829419Y-95609212D01*
X119909782Y-95612930D01*
X119978646Y-95617490D01*
X120031120Y-95622813D01*
X120221921Y-95654241D01*
X120495623Y-95721153D01*
X120759787Y-95811971D01*
X121013047Y-95925897D01*
X121254041Y-96062133D01*
X121481402Y-96219882D01*
X121693767Y-96398344D01*
X121889770Y-96596723D01*
X122068048Y-96814218D01*
X122146872Y-96925017D01*
X122294354Y-97165637D01*
X122418081Y-97417714D01*
X122517795Y-97680614D01*
X122593241Y-97953706D01*
X122644162Y-98236354D01*
X122647963Y-98268472D01*
X122655334Y-98362014D01*
X122660066Y-98471854D01*
X122662161Y-98590887D01*
X122661618Y-98712009D01*
X122658437Y-98828118D01*
X122652618Y-98932107D01*
X122644162Y-99016875D01*
X122630945Y-99105709D01*
X122572808Y-99382383D01*
X122490958Y-99649070D01*
X122386385Y-99904573D01*
X122260079Y-100147698D01*
X122113030Y-100377247D01*
X121946227Y-100592026D01*
X121760660Y-100790838D01*
X121557320Y-100972487D01*
X121337195Y-101135777D01*
X121101277Y-101279513D01*
X120850553Y-101402498D01*
X120586016Y-101503536D01*
X120504934Y-101528667D01*
X120377338Y-101563083D01*
X120244872Y-101593706D01*
X120117271Y-101618341D01*
X120004271Y-101634789D01*
X120003762Y-101634847D01*
X119958417Y-101638531D01*
X119895909Y-101641663D01*
X119821083Y-101644197D01*
X119738783Y-101646083D01*
X119653854Y-101647274D01*
X119571142Y-101647723D01*
X119495490Y-101647382D01*
X119431744Y-101646203D01*
X119384749Y-101644138D01*
X119359349Y-101641141D01*
X119329583Y-101633164D01*
X119329583Y-100716186D01*
X119604089Y-100716504D01*
X119659233Y-100716352D01*
X119784742Y-100713680D01*
X119892894Y-100707016D01*
X119990130Y-100695463D01*
X120082893Y-100678129D01*
X120177623Y-100654118D01*
X120280763Y-100622535D01*
X120464252Y-100553336D01*
X120672307Y-100449931D01*
X120865845Y-100325719D01*
X121043579Y-100182168D01*
X121204219Y-100020748D01*
X121346478Y-99842928D01*
X121469069Y-99650177D01*
X121570701Y-99443965D01*
X121650089Y-99225759D01*
X121705943Y-98997031D01*
X121707181Y-98990233D01*
X121719149Y-98900571D01*
X121727116Y-98793837D01*
X121731074Y-98677234D01*
X121731015Y-98557965D01*
X121726934Y-98443234D01*
X121718823Y-98340244D01*
X121706674Y-98256197D01*
X121686515Y-98163629D01*
X121618456Y-97934193D01*
X121527234Y-97716394D01*
X121413527Y-97511520D01*
X121278015Y-97320861D01*
X121121378Y-97145705D01*
X121062099Y-97088408D01*
X120909702Y-96959326D01*
X120747062Y-96847977D01*
X120566511Y-96748879D01*
X120490803Y-96712911D01*
X120308168Y-96638839D01*
X120127580Y-96585075D01*
X119943141Y-96550382D01*
X119748953Y-96533523D01*
X119539119Y-96533259D01*
X119329583Y-96540530D01*
X119329583Y-95620065D01*
X119359349Y-95612088D01*
X119379697Y-95608945D01*
X119426330Y-95605975D01*
X119490813Y-95604315D01*
X119568255Y-95603887D01*
X119653764Y-95604612D01*
G37*
%TD*%
M02*
